<?xml version="1.0" encoding="utf-8"?>
<!-- Generator: Adobe Illustrator 19.2.0, SVG Export Plug-In . SVG Version: 6.00 Build 0)  -->
<svg version="1.1" id="Layer_1" xmlns="http://www.w3.org/2000/svg" xmlns:xlink="http://www.w3.org/1999/xlink" x="0px" y="0px"
	 viewBox="0 0 512 512" enable-background="new 0 0 512 512" xml:space="preserve">
<path fill="#010101" d="M428.7,51.3h-44.3V0h-64v51.3h-128V0h-64v51.3h-32c-28.5,0-63.8,23.1-63.8,51.3l-0.2,359
	c0,28.2,22.8,51.3,51.3,51.3h345c28.2,0,51.3-23.1,51.3-51.3v-359C480,74.3,456.9,51.3,428.7,51.3z M416.5,448.8h-320v-288h320
	L416.5,448.8L416.5,448.8z"/>
<g id="add_1_">
	<path fill="#010101" d="M336.2,320h-64v64h-32v-64h-64v-32h64v-64h32v64h64L336.2,320L336.2,320z"/>
</g>
</svg>
