<svg id="Layer_1" data-name="Layer 1" xmlns="http://www.w3.org/2000/svg" viewBox="0 0 512 512"><defs><style>.cls-1{fill:#010202;}.cls-2{fill:none;}.cls-3{fill:#010101;}</style></defs><path class="cls-1" d="M485.44824,146.144a5.685,5.685,0,0,0-2.11694-1.584c-4.74854-3.17969-9.80884-2.52295-15.02319-.87061a77.42152,77.42152,0,0,1-18.99244,3.66211,82.16865,82.16865,0,0,1-31.99731-4.59961c-20.03345-7.04345-36.23291-22.60742-44.96314-41.86279a76.02733,76.02733,0,0,1-6.6477-28.68018c-.35059-10.70556,2.05371-20.06445,4.8772-30.25244,3.42749-12.36816-9.79126-20.19287-20.30591-15.979A115.82622,115.82622,0,0,0,321.53955,42.126c-34.76221,27.24853-48.9458,75.94433-34.10034,117.57568,14.66186,41.11621,53.66626,70.314,97.44653,71.74561a108.29283,108.29283,0,0,0,68.50977-22.20948A102.56981,102.56981,0,0,0,478.54736,181.334a118.46741,118.46741,0,0,0,8.65723-16.87011C490.16577,157.41943,490.53809,152.33447,485.44824,146.144ZM338.00781,63.20166c.03907-.03467.08106-.06689.12036-.10156a115.14683,115.14683,0,0,0,.0647,12.60107,102.1212,102.1212,0,0,0,14.09229,45.68653c16.905,28.08886,47.22363,47.6538,79.62793,51.76318a119.56632,119.56632,0,0,0,18.02832.73974,79.91187,79.91187,0,0,1-104.03614,17.46387c-34.72558-21.417-46.99463-67.18213-27.66259-103.1123A95.93632,95.93632,0,0,1,338.00781,63.20166Z"/><path class="cls-2" d="M355.47,416H158.33008a102.86848,102.86848,0,0,1,98.7-72.3999C303.33008,343.6001,342.15991,374.96,355.47,416Z"/><path class="cls-3" d="M462.35986,416H388.58008c-14.53-59.2998-67.26-102.25977-131.55-102.25977S140.01,356.7002,125.49,416h-73.8A20.26844,20.26844,0,0,0,38.5,420.68018,14.91619,14.91619,0,0,0,33.03,432c0,8.83984,8.34985,16,18.65991,16H462.35986c10.32007,0,18.67017-7.16016,18.67017-16S472.67993,416,462.35986,416Zm-304.02978,0a102.86848,102.86848,0,0,1,98.7-72.3999c46.30005,0,85.12988,31.35986,98.43994,72.3999Z"/><path class="cls-3" d="M385.02991,496A15.98694,15.98694,0,0,1,380.35,507.31982c-.27.27-.54.52-.83008.76026A15.95267,15.95267,0,0,1,369.02991,512h-224a15.99751,15.99751,0,0,1-16-16c0-.43994.02-.87012.05-1.2998A15.98105,15.98105,0,0,1,145.02991,480h224a15.99679,15.99679,0,0,1,15.95,14.73C385.00989,495.1499,385.02991,495.56982,385.02991,496Z"/></svg>