<svg id="Layer_1" data-name="Layer 1" xmlns="http://www.w3.org/2000/svg" viewBox="0 0 512 512"><defs><style>.cls-1{fill:#010101;}</style></defs><path class="cls-1" d="M480.25,146.14014a5.813,5.813,0,0,0-2.12012-1.58008c-4.75-3.18018-9.80981-2.52-15.02-.87012a77.44964,77.44964,0,0,1-18.98974,3.66016,82.13625,82.13625,0,0,1-32-4.6001c-20.03-7.04-36.23-22.60986-44.96021-41.85986A76.01294,76.01294,0,0,1,360.51,72.21c-.3501-10.71,2.05-20.06982,4.88013-30.25,3.41992-12.37012-9.8-20.20019-20.31006-15.98a115.66042,115.66042,0,0,0-28.74,16.1499c-34.76,27.24024-48.94995,75.93994-34.1001,117.57032,14.65991,41.11962,53.66992,70.31982,97.45,71.75a108.36332,108.36332,0,0,0,68.51-22.21,102.66943,102.66943,0,0,0,25.15015-27.91015A118.24685,118.24685,0,0,0,482.01,164.46C484.97,157.41992,485.34009,152.33008,480.25,146.14014Zm-82.44995,55.77A80.9848,80.9848,0,0,1,340.71,191.3501c-34.73-21.41016-47-67.18018-27.66992-103.10987a96.12389,96.12389,0,0,1,19.77-25.04c.04-.03028.08008-.07032.11987-.1001A115.12208,115.12208,0,0,0,332.99,75.7002a102.11245,102.11245,0,0,0,14.1001,45.68994C363.99,149.48,394.31006,169.04,426.71,173.1499a118.42118,118.42118,0,0,0,18.03.74024A80.42674,80.42674,0,0,1,397.80005,201.91016Z"/><path class="cls-1" d="M457.15991,416h-73.78c-14.52978-59.2998-67.25976-102.25977-131.5498-102.25977S134.81006,356.7002,120.29,416H46.49a20.26794,20.26794,0,0,0-13.18994,4.68018A14.91537,14.91537,0,0,0,27.83008,432c0,8.83984,8.34985,16,18.65991,16H457.15991c10.32007,0,18.67017-7.16016,18.67017-16S467.48,416,457.15991,416Zm-304.03,0a102.86878,102.86878,0,0,1,98.7002-72.3999C298.12988,343.6001,336.96,374.96,350.27,416Z"/><path class="cls-1" d="M363.83081,480h-224a15.98105,15.98105,0,0,0-15.95,14.7002c-.03.42968-.05.85986-.05,1.2998a15.99751,15.99751,0,0,0,16,16h224a15.95267,15.95267,0,0,0,10.49-3.91992c.29-.24024.56006-.49024.83008-.76026A15.98694,15.98694,0,0,0,379.83081,496c0-.43018-.02-.8501-.05-1.27A15.99679,15.99679,0,0,0,363.83081,480Z"/></svg>