<?xml version="1.0" encoding="UTF-8"?>
<svg id="GLOW_AND_STARBURST" data-name="GLOW AND STARBURST" xmlns="http://www.w3.org/2000/svg" viewBox="0 0 501.44 512">
  <defs>
    <style>
      .cls-1 {
        stroke-width: 0px;
      }
    </style>
  </defs>
  <path class="cls-1" d="m433.2,235.58c-126.37,32.2-165.42,71.25-197.62,197.62-3.6,14.14-23.75,14.14-27.35,0-32.2-126.37-71.25-165.42-197.62-197.62-14.14-3.6-14.14-23.75,0-27.35,126.37-32.2,165.42-71.25,197.62-197.62,3.6-14.14,23.75-14.14,27.35,0,32.2,126.37,71.25,165.42,197.62,197.62,14.14,3.6,14.14,23.75,0,27.35h0Zm63.34,167.43c-58.46-14.9-76.53-32.97-91.43-91.43-1.67-6.54-10.99-6.54-12.65,0-14.9,58.46-32.97,76.53-91.43,91.43-6.54,1.67-6.54,10.99,0,12.65,58.46,14.9,76.53,32.97,91.43,91.43,1.67,6.54,10.99,6.54,12.65,0,14.9-58.46,32.97-76.53,91.43-91.43,6.54-1.67,6.54-10.99,0-12.65Z"/>
</svg>