<?xml version="1.0" encoding="utf-8"?>
<!-- Generator: Adobe Illustrator 19.2.0, SVG Export Plug-In . SVG Version: 6.00 Build 0)  -->
<svg version="1.1" id="Layer_1" xmlns="http://www.w3.org/2000/svg" xmlns:xlink="http://www.w3.org/1999/xlink" x="0px" y="0px"
	 viewBox="0 0 512 512" enable-background="new 0 0 512 512" xml:space="preserve">
<path fill="#010101" d="M428.3,50.5H384V-0.8h-64v51.3H192V-0.8h-64v51.3H96c-28.5,0-63.8,23.1-63.8,51.3l-0.2,359
	c0,28.2,22.8,51.3,51.3,51.3h345c28.2,0,51.3-23.1,51.3-51.3v-359C479.5,73.5,456.5,50.5,428.3,50.5z M416,448H96V160h320L416,448
	L416,448z"/>
<rect x="128" y="192" fill="#010101" width="96" height="96"/>
<rect x="288" y="192" fill="#010101" width="96" height="96"/>
<rect x="128" y="320" fill="#010101" width="96" height="96"/>
<rect x="288" y="320" fill="#010101" width="96" height="96"/>
</svg>
