<?xml version="1.0" encoding="UTF-8"?><svg id="Layer_2" xmlns="http://www.w3.org/2000/svg" viewBox="0 0 512.02 512.01"><defs><style>.cls-1{fill:#010101;}.cls-1,.cls-2{stroke-width:0px;}.cls-2{fill:#231f20;}</style></defs><g id="Layer_1-2"><g id="collapse"><polygon class="cls-2" points="22.01 289.34 22.01 341.41 133.46 341.41 0 474.88 37.13 512.01 170.6 378.55 170.6 489.33 222.01 489.33 222.01 289.33 217.68 289.33 22.01 289.34"/><polygon class="cls-2" points="490.01 289.34 490.01 341.41 378.56 341.41 512.02 474.88 474.89 512.01 341.42 378.55 341.42 489.33 290.01 489.33 290.01 289.33 294.34 289.33 490.01 289.34"/><polygon class="cls-2" points="490 222.67 490 170.6 378.55 170.6 512.01 37.13 474.88 0 341.41 133.46 341.41 22.68 290 22.68 290 222.68 294.33 222.68 490 222.67"/><polygon class="cls-2" points="22.01 222.67 22.01 170.6 133.46 170.6 0 37.13 37.13 0 170.6 133.46 170.6 22.68 222.01 22.68 222.01 222.68 217.68 222.68 22.01 222.67"/></g><g id="collapse-2"><polygon class="cls-1" points="22.01 289.34 22.01 341.41 133.46 341.41 0 474.88 37.13 512.01 170.6 378.55 170.6 489.33 222.01 489.33 222.01 289.33 217.68 289.33 22.01 289.34"/><polygon class="cls-1" points="490.01 289.34 490.01 341.41 378.56 341.41 512.02 474.88 474.89 512.01 341.42 378.55 341.42 489.33 290.01 489.33 290.01 289.33 294.34 289.33 490.01 289.34"/><polygon class="cls-1" points="490 222.67 490 170.6 378.55 170.6 512.01 37.13 474.88 0 341.41 133.46 341.41 22.68 290 22.68 290 222.68 294.33 222.68 490 222.67"/><polygon class="cls-1" points="22.01 222.67 22.01 170.6 133.46 170.6 0 37.13 37.13 0 170.6 133.46 170.6 22.68 222.01 22.68 222.01 222.68 217.68 222.68 22.01 222.67"/></g></g></svg>