<?xml version="1.0" encoding="UTF-8"?><svg id="Layer_2" xmlns="http://www.w3.org/2000/svg" viewBox="0 0 512 512"><defs><style>.cls-1{fill:#010101;}.cls-1,.cls-2{stroke-width:0px;}.cls-2{fill:#231f20;}</style></defs><g id="Layer_1-2"><g id="arrows_resize"><polygon class="cls-2" points="200 0 200 52.08 88.55 52.08 222.01 185.54 184.88 222.67 51.41 89.21 51.41 200 0 200 0 0 4.33 0 200 0"/><polygon class="cls-2" points="312 511.99 312 459.92 423.45 459.92 289.99 326.46 327.12 289.33 460.59 422.79 460.59 312 512 312 512 512 507.67 512 312 511.99"/></g><g id="arrows_resize-2"><polygon class="cls-1" points="200 0 200 52.08 88.55 52.08 222.01 185.54 184.88 222.67 51.41 89.21 51.41 200 0 200 0 0 4.33 0 200 0"/><polygon class="cls-1" points="312 511.99 312 459.92 423.45 459.92 289.99 326.46 327.12 289.33 460.59 422.79 460.59 312 512 312 512 512 507.67 512 312 511.99"/></g></g></svg>