<svg id="Layer_1" data-name="Layer 1" xmlns="http://www.w3.org/2000/svg" viewBox="0 0 409.18 409.28"><defs><style>.cls-1{fill:#202945;}</style></defs><path class="cls-1" d="M461,250.66a69.49,69.49,0,0,0-57.34-62.79,55.82,55.82,0,0,0-78.59-77.49,69.5,69.5,0,0,0-68.44-58c-1.91,0-3.82.08-5.75.24A69.48,69.48,0,0,0,188,110.34a55.81,55.81,0,0,0-78.11,78.08,69.48,69.48,0,0,0,0,137,55.81,55.81,0,0,0,78.23,78,69.5,69.5,0,0,0,68.48,58.24c1.91,0,3.82-.08,5.75-.24a69.48,69.48,0,0,0,62.85-57.73,55.82,55.82,0,0,0,77.5-78.76A69.49,69.49,0,0,0,461,250.66ZM253.51,84.5c1.05-.09,2.1-.13,3.14-.13a37.54,37.54,0,0,1,35.87,26.84l-35.79,36-36.1-36.1A37.35,37.35,0,0,1,253.51,84.5ZM110.78,292.86a37.51,37.51,0,0,1,0-71.9l36,35.8Zm149,136.67c-1,.09-2.1.13-3.14.13a37.54,37.54,0,0,1-35.87-26.84l35.8-36,36.09,36.1a37.36,37.36,0,0,1-32.89,26.61Zm54.28-117.38a2.33,2.33,0,0,0-2.33,2.33V376.7l-53.19-53.19a2.85,2.85,0,0,0-2-.85,2.91,2.91,0,0,0-2.06.85L201.29,377V314.48a2.32,2.32,0,0,0-2.31-2.33H136.74l53.41-53.41a2.89,2.89,0,0,0,0-4.09h0l-53.32-53H199a2.32,2.32,0,0,0,2.32-2.32h0V137.07l53.46,53.45a2.85,2.85,0,0,0,2,.85,2.91,2.91,0,0,0,2.06-.85L311.9,137.1v62.25a2.33,2.33,0,0,0,2.33,2.33h61.69L323.1,254.51a2.89,2.89,0,0,0,0,4.09h0L377,312.15Zm88.36-19.87-36-35.8,36.09-36.09a37.5,37.5,0,0,1-.06,71.89Z" transform="translate(-52.06 -52.38)"/></svg>