<svg id="Layer_1" data-name="Layer 1" xmlns="http://www.w3.org/2000/svg" viewBox="0 0 512 512"><defs><style>.cls-1{fill:none;}.cls-2{fill:#202945;}</style></defs><path class="cls-1" d="M220.76,402.82a37.53,37.53,0,0,0,35.87,26.84c1,0,2.1,0,3.14-.13a37.35,37.35,0,0,0,32.88-26.65l-36.09-36.1Z"/><path class="cls-1" d="M292.52,111.21a37.53,37.53,0,0,0-35.87-26.84c-1,0-2.09,0-3.14.13a37.35,37.35,0,0,0-32.88,26.65l36.1,36.1Z"/><path class="cls-1" d="M110.83,221a37.51,37.51,0,0,0,0,71.9l36.09-36.1Z"/><path class="cls-1" d="M311.91,199.35V137.1l-53.06,53.42a2.89,2.89,0,0,1-2.06.85,2.85,2.85,0,0,1-2-.85l-53.46-53.45v62.28a2.32,2.32,0,0,1-2.32,2.33H136.82l53.32,53a2.89,2.89,0,0,1,0,4.1l-53.41,53.41H199a2.32,2.32,0,0,1,2.32,2.33V377l53.14-53.5a2.89,2.89,0,0,1,2.06-.85,2.85,2.85,0,0,1,2,.85l53.19,53.19V314.48a2.33,2.33,0,0,1,2.33-2.33h63l-53.9-53.54a2.89,2.89,0,0,1,0-4.1l52.83-52.83H314.24A2.33,2.33,0,0,1,311.91,199.35Z"/><path class="cls-1" d="M402.47,220.39l-36.09,36.09,36,35.8a37.5,37.5,0,0,0,.06-71.89Z"/><path class="cls-2" d="M461,250.66a69.49,69.49,0,0,0-57.34-62.79,55.82,55.82,0,0,0-78.59-77.49,69.5,69.5,0,0,0-68.44-58c-1.91,0-3.82.08-5.75.24a69.48,69.48,0,0,0-62.85,57.72,55.81,55.81,0,0,0-78.11,78.08,69.48,69.48,0,0,0,0,137,55.81,55.81,0,0,0,78.23,78,69.51,69.51,0,0,0,68.48,58.24c1.91,0,3.82-.08,5.75-.24a69.49,69.49,0,0,0,62.85-57.73,55.82,55.82,0,0,0,77.5-78.76A69.49,69.49,0,0,0,461,250.66ZM253.51,84.5c1.05-.09,2.1-.13,3.14-.13a37.53,37.53,0,0,1,35.87,26.84l-35.79,36-36.1-36.1A37.35,37.35,0,0,1,253.51,84.5ZM110.78,292.86a37.51,37.51,0,0,1,0-71.9l36,35.8Zm149,136.67c-1,.09-2.1.13-3.14.13a37.53,37.53,0,0,1-35.87-26.84l35.8-36,36.09,36.1A37.35,37.35,0,0,1,259.77,429.53Zm54.28-117.38a2.33,2.33,0,0,0-2.33,2.33V376.7l-53.19-53.19a2.85,2.85,0,0,0-2-.85,2.89,2.89,0,0,0-2.06.85L201.29,377V314.48a2.32,2.32,0,0,0-2.32-2.33H136.74l53.41-53.41a2.89,2.89,0,0,0,0-4.1l-53.32-53H199a2.32,2.32,0,0,0,2.32-2.33V137.07l53.46,53.45a2.85,2.85,0,0,0,2,.85,2.89,2.89,0,0,0,2.06-.85l53.06-53.42v62.25a2.33,2.33,0,0,0,2.33,2.33h61.69L323.1,254.51a2.89,2.89,0,0,0,0,4.1L377,312.15Zm88.36-19.87-36-35.8,36.09-36.09a37.5,37.5,0,0,1-.06,71.89Z"/></svg>