<?xml version="1.0" encoding="utf-8"?>
<!-- Generator: Adobe Illustrator 19.2.0, SVG Export Plug-In . SVG Version: 6.00 Build 0)  -->
<svg version="1.1" id="Layer_1" xmlns="http://www.w3.org/2000/svg" xmlns:xlink="http://www.w3.org/1999/xlink" x="0px" y="0px"
	 viewBox="0 0 512 512" enable-background="new 0 0 512 512" xml:space="preserve">
<path fill="#010101" d="M452.4,346.2c-11.5,0-20.6,2.3-29.8,6.9L275.8,217.7v-68.8c22.9-6.9,41.3-29.8,41.3-57.3
	c0-32.1-27.5-59.6-59.6-59.6s-59.6,27.5-59.6,61.9c0,27.5,18.3,48.2,41.3,57.3v71.1L92.4,357.6c-9.2-6.9-18.3-11.5-29.8-11.5
	c-32.1,0-59.6,27.5-59.6,59.6s27.5,59.6,59.6,59.6s59.6-27.5,59.6-59.6c0-9.2-2.3-16.1-4.6-25.2l121.5-110.1v78
	c-22.9,6.9-41.3,29.8-41.3,57.3c0,32.1,27.5,59.6,59.6,59.6s59.6-27.5,59.6-59.6c0-27.5-18.3-48.2-41.3-57.3v-78l121.5,110.1
	c-2.3,6.9-4.6,16.1-4.6,25.2c0,32.1,27.5,59.6,59.6,59.6s59.6-27.5,59.6-59.6S484.5,346.2,452.4,346.2z"/>
</svg>
