<svg id="Layer_1" data-name="Layer 1" xmlns="http://www.w3.org/2000/svg" viewBox="0 0 512 512"><title>bhi</title><path d="M446.9,391.08,320,192V111.66a36.88,36.88,0,0,0,20.83-33.17V57.66C340.83,25.87,319.79,0,288,0H224c-31.79,0-52.83,25.87-52.83,57.66V78.49A36.88,36.88,0,0,0,192,111.66V192L65.62,391.08a76,76,0,0,0-12.83,42.43A78.58,78.58,0,0,0,131.28,512h250a78.58,78.58,0,0,0,78.49-78.49A76,76,0,0,0,446.9,391.08Zm-24.78,20.78q1,1.79,1.83,3.67ZM224,200.55V83.32H208a4.89,4.89,0,0,1-4.83-4.83V57.66C203.17,43.51,209.85,32,224,32h64c14.15,0,20.83,11.51,20.83,25.66V78.49A4.89,4.89,0,0,1,304,83.32H288V200.55l113.61,176H110.88Z"/></svg>