<?xml version="1.0" encoding="utf-8"?>
<!-- Generator: Adobe Illustrator 19.2.1, SVG Export Plug-In . SVG Version: 6.00 Build 0)  -->
<svg version="1.1" id="Layer_1" xmlns="http://www.w3.org/2000/svg" xmlns:xlink="http://www.w3.org/1999/xlink" x="0px" y="0px"
	 viewBox="0 0 512 512" enable-background="new 0 0 512 512" xml:space="preserve">
<g>
	<g>
		<defs>
			<path id="SVGID_1_" d="M424,464.6H95.5V93.5h46.9V163H377V93.5H424V464.6z M259.7,47.1c12.9,0,23.5,10.4,23.5,23.2
				s-10.6,23.2-23.5,23.2c-12.9,0-23.5-10.4-23.5-23.2S246.8,47.1,259.7,47.1z M424,47.1h-98.1C316,20.2,290.2,0.7,259.7,0.7
				c-30.5,0-56.3,19.5-66.2,46.4H95.5c-25.8,0-46.9,20.9-46.9,46.4v371.1c0,25.5,21.1,46.4,46.9,46.4H424
				c25.8,0,46.9-20.9,46.9-46.4V93.5C470.9,67.9,449.8,47.1,424,47.1z"/>
		</defs>
		<clipPath id="SVGID_2_">
			<use xlink:href="#SVGID_1_"  overflow="visible"/>
		</clipPath>
		<g clip-path="url(#SVGID_2_)">
			<defs>
				<rect id="SVGID_3_" x="-6009.4" y="-3353.9" width="8336.8" height="6698.1"/>
			</defs>
			<clipPath id="SVGID_4_">
				<use xlink:href="#SVGID_3_"  overflow="visible"/>
			</clipPath>
			<rect x="-6.5" y="-54.3" clip-path="url(#SVGID_4_)" fill="#010101" width="532.3" height="620.3"/>
		</g>
	</g>
	<g>
		<defs>
			<rect id="SVGID_5_" x="143.6" y="347.9" width="46.1" height="76.8"/>
		</defs>
		<clipPath id="SVGID_6_">
			<use xlink:href="#SVGID_5_"  overflow="visible"/>
		</clipPath>
		<g clip-path="url(#SVGID_6_)">
			<defs>
				<rect id="SVGID_7_" x="-6009.4" y="-3353.9" width="8336.8" height="6698.1"/>
			</defs>
			<clipPath id="SVGID_8_">
				<use xlink:href="#SVGID_7_"  overflow="visible"/>
			</clipPath>
			<rect x="88.6" y="292.9" clip-path="url(#SVGID_8_)" fill="#010101" width="156.1" height="186.8"/>
		</g>
	</g>
	<g>
		<defs>
			<rect id="SVGID_9_" x="205" y="255.7" width="46.1" height="169.1"/>
		</defs>
		<clipPath id="SVGID_10_">
			<use xlink:href="#SVGID_9_"  overflow="visible"/>
		</clipPath>
		<g clip-path="url(#SVGID_10_)">
			<defs>
				<rect id="SVGID_11_" x="-6009.4" y="-3353.9" width="8336.8" height="6698.1"/>
			</defs>
			<clipPath id="SVGID_12_">
				<use xlink:href="#SVGID_11_"  overflow="visible"/>
			</clipPath>
			<rect x="150" y="200.7" clip-path="url(#SVGID_12_)" fill="#010101" width="156.1" height="279"/>
		</g>
	</g>
	<g>
		<defs>
			<rect id="SVGID_13_" x="266.5" y="301.8" width="46.1" height="122.9"/>
		</defs>
		<clipPath id="SVGID_14_">
			<use xlink:href="#SVGID_13_"  overflow="visible"/>
		</clipPath>
		<g clip-path="url(#SVGID_14_)">
			<defs>
				<rect id="SVGID_15_" x="-6009.4" y="-3353.9" width="8336.8" height="6698.1"/>
			</defs>
			<clipPath id="SVGID_16_">
				<use xlink:href="#SVGID_15_"  overflow="visible"/>
			</clipPath>
			<rect x="211.5" y="246.8" clip-path="url(#SVGID_16_)" fill="#010101" width="156.1" height="232.9"/>
		</g>
	</g>
	<g>
		<defs>
			<rect id="SVGID_17_" x="328" y="194.2" width="46.1" height="230.5"/>
		</defs>
		<clipPath id="SVGID_18_">
			<use xlink:href="#SVGID_17_"  overflow="visible"/>
		</clipPath>
		<g clip-path="url(#SVGID_18_)">
			<defs>
				<rect id="SVGID_19_" x="-6009.4" y="-3353.9" width="8336.8" height="6698.1"/>
			</defs>
			<clipPath id="SVGID_20_">
				<use xlink:href="#SVGID_19_"  overflow="visible"/>
			</clipPath>
			<rect x="273" y="139.3" clip-path="url(#SVGID_20_)" fill="#010101" width="156.1" height="340.5"/>
		</g>
	</g>
</g>
</svg>
