<?xml version="1.0" encoding="utf-8"?>
<!-- Generator: Adobe Illustrator 18.1.1, SVG Export Plug-In . SVG Version: 6.00 Build 0)  -->
<svg version="1.1" id="Layer_1" xmlns="http://www.w3.org/2000/svg" xmlns:xlink="http://www.w3.org/1999/xlink" x="0px" y="0px"
	 viewBox="0 0 24 24" enable-background="new 0 0 24 24" xml:space="preserve">
<g>
	<path d="M12,24C5.4,24,0,18.6,0,12S5.4,0,12,0s12,5.4,12,12S18.6,24,12,24z M12,1.8C6.4,1.8,1.8,6.4,1.8,12S6.4,22.2,12,22.2
		c5.6,0,10.2-4.6,10.2-10.2S17.6,1.8,12,1.8z"/>
</g>
<g>
	<path d="M10.6,11.8l-3.8,1.8c-0.8,0.5-1.2,1.6-0.9,2.4l0.2,0.4l4.8,0L10.6,11.8z"/>
	<path d="M13.6,11.8l3.8,1.8c0.8,0.5,1.2,1.6,0.9,2.4l-0.2,0.4l-4.8,0L13.6,11.8z"/>
	<polygon points="12.5,11.7 12.5,16.8 12.1,17.2 11.7,16.8 11.7,11.7 	"/>
</g>
<path d="M12.2,10.9c1.5,0,2.8-1.3,2.8-2.8s-1.3-2.8-2.8-2.8S9.4,6.6,9.4,8.1S10.6,10.9,12.2,10.9z"/>
</svg>
