<?xml version="1.0" encoding="utf-8"?>
<!-- Generator: Adobe Illustrator 18.1.1, SVG Export Plug-In . SVG Version: 6.00 Build 0)  -->
<svg version="1.1" id="Layer_1" xmlns="http://www.w3.org/2000/svg" xmlns:xlink="http://www.w3.org/1999/xlink" x="0px" y="0px"
	 viewBox="0 0 24 24" enable-background="new 0 0 24 24" xml:space="preserve">
<path d="M8.593,4.472v8.333v0.866l0.613,0.613l6.001,6.001c-3.237,1.98-7.708,1.772-10.935-1.494
	c-0.727-0.736-1.298-1.629-1.654-2.6C0.643,10.801,3.761,5.654,8.593,4.472 M9.639,2.179C2.713,2.848-2.301,10.091,0.926,17.59
	c0.912,2.12,2.574,3.873,4.657,4.865c4.852,2.31,9.728,1.062,12.75-2.001l-7.649-7.649v-9.63c0-0.547-0.002-1.069-0.002-1.069
	C10.143,2.106,9.639,2.179,9.639,2.179z"/>
<path d="M14.585,2.632c3.108,0.77,5.553,3.216,6.323,6.323h-6.323V2.632 M12.494,1.333v9.714l10.759,0
	c0-5.588-4.263-10.184-9.715-10.709c0.019-0.007-0.788-0.042-1.048-0.004L12.494,1.333z"/>
<g>
	<path d="M24.15,12.84c0.001,2.981-1.218,5.7-3.19,7.645c-0.002,0.002-0.005,0.002-0.007,0l-7.631-7.645L24.15,12.84z"/>
</g>
</svg>
