<?xml version="1.0" encoding="UTF-8" standalone="no"?>
<svg width="32px" height="22px" viewBox="0 0 32 22" version="1.1" xmlns="http://www.w3.org/2000/svg" xmlns:xlink="http://www.w3.org/1999/xlink" xmlns:sketch="http://www.bohemiancoding.com/sketch/ns">
    <!-- Generator: Sketch 3.3.2 (12043) - http://www.bohemiancoding.com/sketch -->
    <title>menu</title>
    <desc>Created with Sketch.</desc>
    <defs></defs>
    <g id="Card-View" stroke="none" stroke-width="1" fill="none" fill-rule="evenodd" sketch:type="MSPage">
        <g id="card-view---apply" sketch:type="MSArtboardGroup" transform="translate(-18.000000, -19.000000)">
            <g id="header" sketch:type="MSLayerGroup">
                <g id="menu" transform="translate(18.000000, 19.000000)" sketch:type="MSShapeGroup">
                    <path d="M19.5,2 L29.5113487,2" id="Line" stroke="#FFFFFF" stroke-width="3" stroke-linecap="square"></path>
                    <path d="M21.5,10.4961277 L29.500001,10.4961277" id="Line" stroke="#FFFFFF" stroke-width="3" stroke-linecap="square"></path>
                    <path d="M25.5,19.4961277 L29.5000019,19.4961277" id="Line-2" stroke="#FFFFFF" stroke-width="3" stroke-linecap="square"></path>
                    <path d="M15.7708851,13.9162539 L14.7879306,13.9162539 L14.4479149,13.5762382 C15.6596073,12.1729006 16.3890956,10.3491799 16.3890956,8.35236028 C16.3890956,3.91360956 12.791111,0.315625 8.35236028,0.315625 C3.91360956,0.315625 0.315625,3.91360956 0.315625,8.35236028 C0.315625,12.791111 3.91360956,16.3890956 8.35236028,16.3890956 C10.3491799,16.3890956 12.1729006,15.6596073 13.5762382,14.454097 L13.9162539,14.7941127 L13.9162539,15.7708851 L20.098358,21.940625 L21.940625,20.098358 L15.7708851,13.9162539 L15.7708851,13.9162539 Z M8.35236028,13.9162539 C5.27985456,13.9162539 2.78846662,11.424866 2.78846662,8.35236028 C2.78846662,5.27985456 5.27985456,2.78846662 8.35236028,2.78846662 C11.424866,2.78846662 13.9162539,5.27985456 13.9162539,8.35236028 C13.9162539,11.424866 11.424866,13.9162539 8.35236028,13.9162539 L8.35236028,13.9162539 Z" id="Shape" fill="#FFFFFF"></path>
                </g>
            </g>
        </g>
    </g>
</svg>