<?xml version="1.0" encoding="utf-8"?>
<!-- Generator: Adobe Illustrator 19.2.0, SVG Export Plug-In . SVG Version: 6.00 Build 0)  -->
<svg version="1.1" id="Layer_1" xmlns="http://www.w3.org/2000/svg" xmlns:xlink="http://www.w3.org/1999/xlink" x="0px" y="0px"
	 viewBox="0 0 512 512" enable-background="new 0 0 512 512" xml:space="preserve">
<g>
	<path fill="#010101" d="M256,512C115.2,512,0,396.8,0,256S115.2,0,256,0s256,115.2,256,256S396.8,512,256,512z M256,38.4
		C134.4,38.4,38.4,136.5,38.4,256s96,217.6,217.6,217.6c119.5,0,217.6-98.1,217.6-217.6S375.5,38.4,256,38.4z"/>
</g>
<g>
	<path fill="#010101" d="M198.4,136.5v224h102.4v-224H198.4z M283.7,341.3h-66.1v-25.6h66.1V341.3L283.7,341.3z M283.7,300.8h-66.1
		v-25.6h66.1V300.8L283.7,300.8z M283.7,262.4h-66.1v-25.6h66.1V262.4L283.7,262.4z M283.7,221.9h-66.1v-25.6h66.1V221.9
		L283.7,221.9z M283.7,183.5h-66.1v-25.6h66.1V183.5L283.7,183.5z"/>
	<polygon fill="#010101" points="322.1,215.5 322.1,234.7 360.5,234.7 360.5,258.1 322.1,258.1 322.1,270.9 360.5,270.9 
		360.5,296.5 322.1,296.5 322.1,309.3 360.5,309.3 360.5,332.8 322.1,332.8 322.1,352 377.6,352 377.6,215.5 	"/>
	<polygon fill="#010101" points="172.8,332.8 145.1,332.8 145.1,309.3 172.8,309.3 172.8,296.5 145.1,296.5 145.1,273.1 
		172.8,273.1 172.8,260.3 145.1,260.3 145.1,236.8 172.8,236.8 172.8,224 145.1,224 145.1,200.5 172.8,200.5 172.8,181.3 
		125.9,181.3 125.9,352 172.8,352 	"/>
</g>
</svg>
