<?xml version="1.0" encoding="utf-8"?>
<!-- Generator: Adobe Illustrator 18.1.1, SVG Export Plug-In . SVG Version: 6.00 Build 0)  -->
<svg version="1.1" id="Layer_1" xmlns="http://www.w3.org/2000/svg" xmlns:xlink="http://www.w3.org/1999/xlink" x="0px" y="0px"
	 viewBox="0 0 24 24" enable-background="new 0 0 24 24" xml:space="preserve">
<path fill="#010101" d="M20.3,2h-4.6c-0.5-1.3-1.7-2.2-3.1-2.2S10,0.8,9.5,2H4.9C3.7,2,2.7,3,2.7,4.2v17.6c0,1.2,1,2.2,2.2,2.2h15.4
	c1.2,0,2.2-1,2.2-2.2V4.2C22.5,3,21.5,2,20.3,2z M12.6,2c0.6,0,1.1,0.5,1.1,1.1s-0.5,1.1-1.1,1.1c-0.6,0-1.1-0.5-1.1-1.1
	S12,2,12.6,2z M14.8,19.6H7.1v-2.2h7.7V19.6z M18.1,15.2h-11V13h11V15.2z M18.1,10.8h-11V8.6h11V10.8z"/>
</svg>
