<?xml version="1.0" encoding="utf-8"?>
<!-- Generator: Adobe Illustrator 19.2.0, SVG Export Plug-In . SVG Version: 6.00 Build 0)  -->
<svg version="1.1" id="Layer_1" xmlns="http://www.w3.org/2000/svg" xmlns:xlink="http://www.w3.org/1999/xlink" x="0px" y="0px"
	 viewBox="0 0 512 512" enable-background="new 0 0 512 512" xml:space="preserve">
<g>
	<path fill="#010101" d="M384,288l32-32v104.2c0,46.6-37.8,87.8-84.4,87.8H84.3C37.8,448,0,410.2,0,363.6V116.4
		C0,69.8,37.8,32,84.3,32H384l-32,32H84.3C58.7,64,32,90.6,32,116.4v247.2c0,25.8,26.7,52.4,52.3,52.4h247.2
		c25.8,0,52.4-26.6,52.4-52.4"/>
</g>
<g id="create_2_">
	<path fill="#010101" d="M269.4,223.4v51.2h51.2L468.9,125l-51.2-51.2L269.4,223.4z M508,85.9c5.4-5.4,5.4-13.5,0-18.9l-31-31
		c-5.4-5.4-13.5-5.4-18.9,0l-24.3,24.3l51.2,51.2L508,85.9z"/>
</g>
</svg>
