<?xml version="1.0" encoding="utf-8"?>
<!-- Generator: Adobe Illustrator 18.1.1, SVG Export Plug-In . SVG Version: 6.00 Build 0)  -->
<svg version="1.1" id="Layer_1" xmlns="http://www.w3.org/2000/svg" xmlns:xlink="http://www.w3.org/1999/xlink" x="0px" y="0px"
	 viewBox="0 0 24 24" enable-background="new 0 0 24 24" xml:space="preserve">
<path d="M3.56,22.412c-2.247-2.246-3.484-5.233-3.484-8.413c0-3.179,1.237-6.167,3.484-8.413c2.246-2.247,5.233-3.484,8.413-3.484
	c3.179,0,6.167,1.237,8.413,3.484c3.965,3.966,4.61,10.14,1.599,14.827l-1.291-1.289c2.349-3.982,1.722-8.997-1.564-12.283
	c-1.913-1.912-4.456-2.965-7.158-2.965c-2.704,0-5.245,1.053-7.158,2.965c-3.602,3.601-3.96,9.345-0.832,13.36L4.217,20.5
	l2.216-2.217l-0.164-0.231c-1.988-2.796-1.672-6.585,0.751-9.007c1.321-1.322,3.08-2.049,4.953-2.049
	c1.872,0,3.631,0.728,4.953,2.049c2.06,2.061,2.622,5.131,1.461,7.769l-1.401-1.401c0.519-1.831,0.024-3.773-1.315-5.113
	C14.683,9.314,13.37,8.77,11.974,8.77c-1.397,0-2.71,0.544-3.698,1.531c-1.674,1.675-2.001,4.282-0.796,6.341l0.219,0.375
	l2.294-2.294l-0.049-0.186c-0.195-0.74,0.005-1.5,0.537-2.03c0.397-0.398,0.927-0.616,1.493-0.616c0.566,0,1.096,0.218,1.493,0.616
	c0.398,0.397,0.616,0.927,0.616,1.493c0,0.566-0.218,1.096-0.616,1.493c-0.395,0.396-0.917,0.613-1.47,0.613l0,0
	c-0.188,0-0.376-0.025-0.557-0.076l-0.188-0.053L4.188,23.04L3.56,22.412z"/>
</svg>
