<?xml version="1.0" encoding="utf-8"?>
<!-- Generator: Adobe Illustrator 18.1.1, SVG Export Plug-In . SVG Version: 6.00 Build 0)  -->
<svg version="1.1" id="Layer_1" xmlns="http://www.w3.org/2000/svg" xmlns:xlink="http://www.w3.org/1999/xlink" x="0px" y="0px"
	 viewBox="0 0 24 24" enable-background="new 0 0 24 24" xml:space="preserve">
<g id="person_4_">
	<path fill="#231F20" d="M12,2.223c2.14,0,3.881,1.741,3.881,3.882c0,2.14-1.741,3.881-3.881,3.881S8.119,8.245,8.119,6.105
		C8.119,3.964,9.86,2.223,12,2.223 M12,16.927c4.843,0,9.763,2.258,9.763,3.881v0.941H2.237v-0.941
		C2.237,19.185,7.157,16.927,12,16.927 M12,0.223c-3.235,0-5.881,2.647-5.881,5.882c0,3.235,2.647,5.881,5.881,5.881
		s5.881-2.647,5.881-5.881C17.881,2.87,15.235,0.223,12,0.223L12,0.223z M12,14.927c-3.97,0-11.763,1.911-11.763,5.881v2.941h23.526
		v-2.941C23.763,16.838,15.97,14.927,12,14.927L12,14.927z"/>
</g>
</svg>
