<?xml version="1.0" encoding="utf-8"?>
<!-- Generator: Adobe Illustrator 18.1.1, SVG Export Plug-In . SVG Version: 6.00 Build 0)  -->
<svg version="1.1" id="Layer_1" xmlns="http://www.w3.org/2000/svg" xmlns:xlink="http://www.w3.org/1999/xlink" x="0px" y="0px"
	 viewBox="0 0 512 512" enable-background="new 0 0 512 512" xml:space="preserve">
<path fill="#010101" d="M464,232.8c-10.7-97-87.7-174-184.8-184.8V0.1h-46.5V48c-97,10.7-174,87.7-184.8,184.8H0v46.5h47.9
	c10.7,97,87.7,174,184.8,184.8V512h46.5v-47.9c97-10.7,174-87.7,184.8-184.8h47.9v-46.5L464,232.8L464,232.8z M231.8,416.9
	c-71-10.6-126.8-66.7-136.9-137.8h71.2c8.3,32.4,33.4,57.7,65.7,66.4V416.9z M231.8,166.5c-32,8.6-57,33.7-65.5,65.8H95
	c10.3-70.9,66-126.7,136.8-137.2V166.5z M278.6,94.9c71.5,9.9,128,66.1,138.4,137.5h-71.3c-8.6-32.6-34.3-58.1-67.1-66.3V94.9z
	 M278.6,417.2V346c33-8.3,58.8-34,67.2-66.9H417C406.8,350.8,350.3,407.2,278.6,417.2z"/>
</svg>
