<?xml version="1.0" encoding="utf-8"?>
<!-- Generator: Adobe Illustrator 19.2.0, SVG Export Plug-In . SVG Version: 6.00 Build 0)  -->
<svg version="1.1" id="Layer_1" xmlns="http://www.w3.org/2000/svg" xmlns:xlink="http://www.w3.org/1999/xlink" x="0px" y="0px"
	 viewBox="0 0 512 512" enable-background="new 0 0 512 512" xml:space="preserve">
<g id="attachment_1_">
	<path fill="#010101" d="M299.1,466.6c-60.5,60.5-161.3,60.5-221.8,0s-60.5-161.3,0-221.8L289,33.2c44.3-44.3,116.9-44.3,161.3,0
		s44.3,116.9,0,161.3L279,365.8c-28.2,28.2-72.6,28.2-100.8,0s-28.2-72.6,0-100.8l151.2-151.2l30.2,30.2L208.4,295.2
		c-12.1,12.1-12.1,28.2,0,40.3c12.1,12.1,28.2,12.1,40.3,0l171.4-171.4c28.2-28.2,28.2-72.6,0-100.8s-72.6-28.2-100.8,0L107.6,275.1
		c-44.3,44.3-44.3,116.9,0,161.3s116.9,44.3,161.3,0l191.5-191.5l30.2,30.2L299.1,466.6z"/>
</g>
</svg>
