<?xml version="1.0" encoding="utf-8"?>
<!-- Generator: Adobe Illustrator 18.1.1, SVG Export Plug-In . SVG Version: 6.00 Build 0)  -->
<svg version="1.1" id="Layer_1" xmlns="http://www.w3.org/2000/svg" xmlns:xlink="http://www.w3.org/1999/xlink" x="0px" y="0px"
	 viewBox="0 0 24 24" enable-background="new 0 0 24 24" xml:space="preserve">
<path d="M13.6,19.1c0,0-0.3-0.6-0.4-0.9l-0.3-0.7l4.7-2l-6-9.1L0.5,17.6l-1,1l1.2,1.6l1.3,1.9L3,21.7l2.7-1.1l0.3,0.6
	c0.2,0.5,0.4,0.9,0.4,0.9L13.6,19.1z M12.2,18.7C12.2,18.7,12.2,18.7,12.2,18.7L7,20.9l0,0c-0.1,0-0.1,0-0.2-0.1l-0.3-0.6l5.4-2.3
	l0.3,0.7C12.2,18.6,12.2,18.7,12.2,18.7z M11.3,8.7l4.2,6.2L12,16.4l-5.7,2.4c0,0,0,0,0,0l-3,1.2c0,0-0.6,0.3-0.6,0.3l-1.2-1.8
	L11.3,8.7z"/>
<rect x="19.6" y="0.6" transform="matrix(0.8299 -0.5579 0.5579 0.8299 -1.0392 12.5109)" width="0.9" height="14.8"/>
<rect x="17.7" y="4.5" transform="matrix(0.8299 -0.5579 0.5579 0.8299 -2.0284 11.6567)" width="0.9" height="9.2"/>
<rect x="15.8" y="8.8" transform="matrix(0.8299 -0.5579 0.5579 0.8299 -3.0969 10.8787)" width="0.9" height="3.5"/>
</svg>
