<?xml version="1.0" encoding="utf-8"?>
<!-- Generator: Adobe Illustrator 19.2.0, SVG Export Plug-In . SVG Version: 6.00 Build 0)  -->
<svg version="1.1" id="Layer_1" xmlns="http://www.w3.org/2000/svg" xmlns:xlink="http://www.w3.org/1999/xlink" x="0px" y="0px"
	 viewBox="0 0 512 512" enable-background="new 0 0 512 512" xml:space="preserve">
<path fill="#010101" d="M269.3,0C179.6,0,101,49.4,60.6,123.4L0,62.8v166.1h166.1l-71.8-71.8c33.7-62.8,96.5-107.7,172.8-107.7
	c105.5,0,190.8,87.5,190.8,190.8s-87.5,190.8-190.8,190.8c-85.3,0-152.6-53.9-181.8-127.9H33.7c29.2,101,123.4,179.6,235.7,179.6
	c134.7,0,242.4-110,242.4-242.4S401.8,0,269.3,0z"/>
<polygon fill="#010101" points="224,127.9 224,255.9 352,320 359.3,288 256,233.4 256,127.9 "/>
</svg>
