<?xml version="1.0" encoding="utf-8"?>
<!-- Generator: Adobe Illustrator 18.1.1, SVG Export Plug-In . SVG Version: 6.00 Build 0)  -->
<svg version="1.1" id="Layer_1" xmlns="http://www.w3.org/2000/svg" xmlns:xlink="http://www.w3.org/1999/xlink" x="0px" y="0px"
	 viewBox="0 0 24 24" enable-background="new 0 0 24 24" xml:space="preserve">
<path fill="#010101" d="M11.7-0.2C7.8-0.2,4.6,3,4.6,7s3.2,7.1,7.1,7.1c3.9,0,7.1-3.2,7.1-7.1S15.6-0.2,11.7-0.2z M14.4,11.2
	l-2.8-1.5l-2.8,1.5l0.5-3.1L7.2,6l3.1-0.4l1.4-2.8l1.4,2.8L16.2,6l-2.2,2.2L14.4,11.2z"/>
<path fill="#010101" d="M11.7,15.6c-2.1,0-3.9-0.7-5.4-1.9l-2.8,7.9l3.6-1.2l2.3,3.2l2.9-8.1C12,15.6,11.9,15.6,11.7,15.6z"/>
<path fill="#010101" d="M11.7,15.6c-0.2,0-0.3,0-0.5,0l2.9,8.1l2.3-3.2l3.6,1.2l-2.8-7.9C15.6,14.9,13.7,15.6,11.7,15.6z"/>
</svg>
