<?xml version="1.0" encoding="UTF-8" standalone="no"?>
<svg width="24px" height="24px" viewBox="0 0 24 24" version="1.1" xmlns="http://www.w3.org/2000/svg" xmlns:xlink="http://www.w3.org/1999/xlink" xmlns:sketch="http://www.bohemiancoding.com/sketch/ns">
    <!-- Generator: Sketch 3.3.2 (12043) - http://www.bohemiancoding.com/sketch -->
    <title>Artboard 1</title>
    <desc>Created with Sketch.</desc>
    <defs></defs>
    <g id="Page-1" stroke="none" stroke-width="1" fill="none" fill-rule="evenodd" sketch:type="MSPage">
        <g id="Artboard-1" sketch:type="MSArtboardGroup" fill="#231F20">
            <path d="M6,6.42700418 C6,9.7271827 8.70033155,12.4264941 11.9994899,12.4264941 C15.2986483,12.4264941 17.9989799,9.72616256 17.9989799,6.42700418 C17.9989799,3.12682565 15.2996685,0.426494104 11.9994899,0.426494104 C8.6993114,0.426494104 6,3.12682565 6,6.42700418 Z M12,2.16947141 C14.3470381,2.16947141 16.2564743,4.07890758 16.2564743,6.42704248 C16.2564743,8.77408063 14.3470381,10.6835168 12,10.6835168 C9.65296185,10.6835168 7.74352568,8.77408063 7.74352568,6.42704248 C7.74352568,4.07890758 9.65296185,2.16947141 12,2.16947141 L12,2.16947141 Z M12,17.0405509 C16.9405764,17.0405509 21.9597042,19.3440449 21.9597042,20.999745 L21.9597042,21.9597042 L2.04029584,21.9597042 L2.04029584,20.999745 C2.04029584,19.3440449 7.05942362,17.0405509 12,17.0405509 L12,17.0405509 Z M12,15.000255 C7.95001275,15.000255 0,16.9497577 0,20.999745 L0,24 L24,24 L24,20.999745 C24,16.9497577 16.0499872,15.000255 12,15.000255 L12,15.000255 L12,15.000255 Z" id="user-o" sketch:type="MSShapeGroup"></path>
        </g>
    </g>
</svg>