<?xml version="1.0" encoding="utf-8"?>
<!-- Generator: Adobe Illustrator 18.1.1, SVG Export Plug-In . SVG Version: 6.00 Build 0)  -->
<svg version="1.1" id="Layer_1" xmlns="http://www.w3.org/2000/svg" xmlns:xlink="http://www.w3.org/1999/xlink" x="0px" y="0px"
	 viewBox="0 0 24 24" enable-background="new 0 0 24 24" xml:space="preserve">
<g>
	<path d="M12,24C5.4,24,0,18.6,0,12S5.4,0,12,0s12,5.4,12,12S18.6,24,12,24z M12,1.8C6.3,1.8,1.8,6.3,1.8,12S6.3,22.2,12,22.2
		c5.6,0,10.2-4.6,10.2-10.2S17.6,1.8,12,1.8z"/>
</g>
<polygon points="12.5,5 14.7,9.4 19.5,10.1 16,13.4 16.8,18.2 12.5,16 8.2,18.2 9,13.4 5.6,10.1 10.4,9.4 "/>
</svg>
