<svg id="Layer_1" data-name="Layer 1" xmlns="http://www.w3.org/2000/svg" viewBox="0 0 512 512"><defs><style>.cls-1{fill:#231f20;}</style></defs><title>bhi_section2</title><path class="cls-1" d="M480,64H32C15.57,64,0,79.57,0,96V416c0,16.43,15.57,32,32,32H480c16.43,0,32-15.57,32-32V95.67C512,79.24,496.43,64,480,64ZM227,136.68H417.11v45H227ZM95.34,231q6.12,6.4,22.75,13.08a253,253,0,0,1,27.34,12.59A79,79,0,0,1,163.53,270a51.79,51.79,0,0,1,11.27,17,58.41,58.41,0,0,1,3.9,22.2q0,23.66-14.75,38.41T123.32,365v27.69H101.19V365.13Q72.66,362.07,57,344.88T41.35,299.17H81.57q0,16.56,7.86,25.4T112,333.4q12.24,0,19.34-6.47t7.1-17.46q0-11.41-6.33-18.16t-21.5-12.45a253.47,253.47,0,0,1-26.16-11.34,83.3,83.3,0,0,1-18.86-12.94,52,52,0,0,1-12.25-17.19Q49,227.5,49,213.86q0-23.52,15-38.55T104,157.78V128h22.27v30.2q24.63,3.48,38.55,20.53t13.92,44.18H138.48q0-16.7-6.89-25t-18.44-8.28q-11.41,0-17.67,6.47T89.22,214Q89.22,224.58,95.34,231Zm321.76,142.7H227v-45H417.11Zm50-96H227v-45H467.09Z"/></svg>