<?xml version="1.0" encoding="utf-8"?>
<!-- Generator: Adobe Illustrator 18.1.1, SVG Export Plug-In . SVG Version: 6.00 Build 0)  -->
<svg version="1.1" id="Layer_1" xmlns="http://www.w3.org/2000/svg" xmlns:xlink="http://www.w3.org/1999/xlink" x="0px" y="0px"
	 viewBox="0 0 512 512" enable-background="new 0 0 512 512" xml:space="preserve">
<g id="google_1_">
	<path fill="#010101" d="M359.8,289.5l-23.8-17.3c-8.6-6.5-17.3-15.1-17.3-30.3c0-15.1,10.8-28.1,21.6-34.6
		c28.1-21.6,56.2-45.4,56.2-92.9c0-45.4-28.1-71.3-43.2-84.2h36.7L416,0H282c-95,0-142.6,60.5-142.6,125.3
		c0,49.7,38.9,103.7,108,103.7h17.3c-2.2,6.5-8.6,17.3-8.6,28.1c0,21.6,8.6,30.3,19.5,43.2c-30.3,2.2-86.4,8.6-127.5,34.6
		c-38.9,23.8-49.7,56.2-49.7,79.9c0,49.7,45.4,97.2,142.6,97.2c116.7,0,172.8-64.8,172.8-127.5C413.9,339.2,390.1,315.4,359.8,289.5
		z M195.7,92.9c0-47.5,28.1-69.1,58.3-69.1c56.2,0,86.4,75.6,86.4,118.8c0,56.2-45.4,67-62.7,67C223.7,209.6,195.7,142.6,195.7,92.9
		z M273.4,481.8c-71.3,0-116.7-32.4-116.7-79.9s43.2-62.7,56.2-69.1c28.1-8.6,64.8-10.8,71.3-10.8c6.5,0,10.8,0,15.1,0
		c51.9,36.7,73.4,51.9,73.4,86.4C372.8,449.4,331.8,481.8,273.4,481.8z"/>
</g>
</svg>
