<?xml version="1.0" encoding="utf-8"?>
<!-- Generator: Adobe Illustrator 18.1.1, SVG Export Plug-In . SVG Version: 6.00 Build 0)  -->
<svg version="1.1" id="Layer_1" xmlns="http://www.w3.org/2000/svg" xmlns:xlink="http://www.w3.org/1999/xlink" x="0px" y="0px"
	 viewBox="0 0 24 24" enable-background="new 0 0 24 24" xml:space="preserve">
<g>
	<path d="M11.875,18.179l-11.77-5.848l-0.007,8.242c0,1.318,1.057,2.375,2.375,2.375h19.002c1.318,0,2.375-1.057,2.375-2.375v-8.324
		L11.875,18.179z"/>
	<path d="M11.908,16.103l11.942-5.922V7.509c0-1.318-1.057-2.375-2.375-2.375h-4.751V2.758c0-1.318-1.057-2.375-2.375-2.375H9.599
		c-1.318,0-2.375,1.057-2.375,2.375v2.375H2.473c-1.318,0-2.363,1.057-2.363,2.375l-0.003,2.75L11.908,16.103z M9.599,2.758h4.751
		v2.375H9.599V2.758z M8.326,9.933h7.126v1.781l-3.563,1.781l-3.563-1.781V9.933z"/>
</g>
</svg>
