<?xml version="1.0" encoding="utf-8"?>
<!-- Generator: Adobe Illustrator 18.1.1, SVG Export Plug-In . SVG Version: 6.00 Build 0)  -->
<svg version="1.1" id="Layer_1" xmlns="http://www.w3.org/2000/svg" xmlns:xlink="http://www.w3.org/1999/xlink" x="0px" y="0px"
	 viewBox="0 0 24 24" enable-background="new 0 0 24 24" xml:space="preserve">
<g id="help_3_">
	<path d="M12,1.653c-5.729,0-10.417,4.688-10.417,10.417S6.271,22.486,12,22.486s10.417-4.688,10.417-10.417S17.729,1.653,12,1.653z
		 M13.042,19.361h-2.083v-2.083h2.083V19.361z M15.229,11.34l-0.937,0.938c-0.833,0.729-1.25,1.354-1.25,2.917h-2.083v-0.521
		c0-1.146,0.417-2.188,1.25-2.917l1.25-1.354c0.417-0.312,0.625-0.833,0.625-1.458c0-1.146-0.937-2.083-2.083-2.083
		S9.917,7.798,9.917,8.944H7.833c0-2.292,1.875-4.167,4.167-4.167s4.167,1.875,4.167,4.167C16.167,9.882,15.75,10.715,15.229,11.34z
		"/>
</g>
</svg>
