<?xml version="1.0" encoding="utf-8"?>
<!-- Generator: Adobe Illustrator 18.1.1, SVG Export Plug-In . SVG Version: 6.00 Build 0)  -->
<svg version="1.1" id="Layer_1" xmlns="http://www.w3.org/2000/svg" xmlns:xlink="http://www.w3.org/1999/xlink" x="0px" y="0px"
	 viewBox="0 0 24 24" enable-background="new 0 0 24 24" xml:space="preserve">
<g>
	<path d="M4.729,6.715H4.702c-1.487,0-2.439-1.017-2.439-2.291c0-1.299,0.991-2.291,2.492-2.291c1.514,0,2.451,0.992,2.465,2.291
		C7.235,5.698,6.27,6.715,4.729,6.715z M6.94,21.801H2.519V8.524H6.94V21.801z M22.842,21.801h-4.407v-7.101
		c0-1.782-0.644-3.001-2.237-3.001c-1.22,0-1.943,0.816-2.265,1.607c-0.107,0.295-0.148,0.683-0.148,1.085v7.409H9.378
		c0.054-12.031,0-13.277,0-13.277h4.407v1.93h-0.026c0.576-0.911,1.621-2.237,4.006-2.237c2.907,0,5.077,1.902,5.077,5.975V21.801z"
		/>
</g>
</svg>
