<?xml version="1.0" encoding="utf-8"?>
<!-- Generator: Adobe Illustrator 18.1.1, SVG Export Plug-In . SVG Version: 6.00 Build 0)  -->
<svg version="1.1" id="Layer_1" xmlns="http://www.w3.org/2000/svg" xmlns:xlink="http://www.w3.org/1999/xlink" x="0px" y="0px"
	 viewBox="0 0 24 24" enable-background="new 0 0 24 24" xml:space="preserve">
<path d="M20.436,2.611h-1.182V0.247h-2.364v2.364H7.436V0.247H5.072v2.364H3.891c-1.312,0-2.352,1.064-2.352,2.364L1.527,21.521
	c0,1.3,1.052,2.364,2.364,2.364h16.546c1.3,0,2.364-1.064,2.364-2.364V4.975C22.8,3.675,21.736,2.611,20.436,2.611z M20.436,21.521
	H3.891v-13h16.546V21.521z"/>
<rect x="6.572" y="10.249" width="4.223" height="4.223"/>
<rect x="13.57" y="10.249" width="4.223" height="4.223"/>
<rect x="6.572" y="15.819" width="4.223" height="4.223"/>
<rect x="13.57" y="15.819" width="4.223" height="4.223"/>
</svg>
