<?xml version="1.0" encoding="utf-8"?>
<!-- Generator: Adobe Illustrator 19.2.0, SVG Export Plug-In . SVG Version: 6.00 Build 0)  -->
<svg version="1.1" id="Layer_1" xmlns="http://www.w3.org/2000/svg" xmlns:xlink="http://www.w3.org/1999/xlink" x="0px" y="0px"
	 viewBox="0 0 512 512" enable-background="new 0 0 512 512" xml:space="preserve">
<g id="call_1_">
	<path fill="#010101" d="M102.8,222.7c40,79.9,108.4,145.5,188.3,188.3l62.8-62.8c8.6-8.6,20-11.4,28.5-5.7
		c31.4,11.4,65.6,17.1,102.7,17.1c17.1,0,28.5,11.4,28.5,28.5v97c0,17.1-11.4,28.5-28.5,28.5C216.9,513.7,0,296.9,0,28.6
		C0,11.5,11.4,0.1,28.5,0.1h99.9c17.1,0,28.5,11.4,28.5,28.5c0,34.2,5.7,68.5,17.1,102.7c2.8,8.6,0,20-5.7,28.5L102.8,222.7z"/>
</g>
</svg>
