<?xml version="1.0" encoding="utf-8"?>
<!-- Generator: Adobe Illustrator 19.2.0, SVG Export Plug-In . SVG Version: 6.00 Build 0)  -->
<svg version="1.1" id="Layer_1" xmlns="http://www.w3.org/2000/svg" xmlns:xlink="http://www.w3.org/1999/xlink" x="0px" y="0px"
	 viewBox="0 0 512 512" enable-background="new 0 0 512 512" xml:space="preserve">
<g>
	<path fill="#010101" d="M256,383.1L0.2,257.2L0,428.9C0,457.2,22.8,480,51.1,480h409.1c28.4,0,51.1-22.8,51.1-51.1V255.5L256,383.1
		z"/>
	<path fill="#010101" d="M256,338.4l255.3-127.5v-57.5c0-28.4-22.8-51.1-51.1-51.1H357.9V51.1c0-28.4-22.8-51.1-51.1-51.1H204.5
		c-28.4,0-51.1,22.8-51.1,51.1v51.1H51.1c-28.4,0-50.9,22.8-50.9,51.1l-0.1,59.2L256,338.4z M204.5,51.1h102.3v51.1H204.5V51.1z
		 M160,197.8h192v38.3L256,286l-96-49.9V197.8z"/>
</g>
</svg>
