<?xml version="1.0" encoding="utf-8"?>
<!-- Generator: Adobe Illustrator 18.1.1, SVG Export Plug-In . SVG Version: 6.00 Build 0)  -->
<svg version="1.1" id="Layer_1" xmlns="http://www.w3.org/2000/svg" xmlns:xlink="http://www.w3.org/1999/xlink" x="0px" y="0px"
	 viewBox="0 0 24 24" enable-background="new 0 0 24 24" xml:space="preserve">
<g id="keyboard-voice_1_">
	<path d="M12.018,14.292c1.338,0,2.361-1.023,2.361-2.361V7.21c0-1.338-1.023-2.361-2.361-2.361S9.657,5.872,9.657,7.21v4.722
		C9.657,13.269,10.68,14.292,12.018,14.292z M16.189,11.931c0,2.361-1.967,4.014-4.171,4.014s-4.171-1.653-4.171-4.014H6.51
		c0,2.676,2.125,4.879,4.722,5.273v2.597h1.574v-2.597c2.597-0.393,4.722-2.597,4.722-5.273L16.189,11.931L16.189,11.931z"/>
</g>
<g>
	<path d="M21.946,1.997v19.916H2.054V1.997H21.946 M23.946-0.003H0.054v23.916h23.891V-0.003L23.946-0.003z"/>
</g>
</svg>
