<?xml version="1.0" encoding="utf-8"?>
<!-- Generator: Adobe Illustrator 18.1.1, SVG Export Plug-In . SVG Version: 6.00 Build 0)  -->
<svg version="1.1" id="Layer_1" xmlns="http://www.w3.org/2000/svg" xmlns:xlink="http://www.w3.org/1999/xlink" x="0px" y="0px"
	 viewBox="0 0 512 512" enable-background="new 0 0 512 512" xml:space="preserve">
<path fill="#010101" d="M75,466.5c-48.3-48.3-75-112.6-75-181c0-68.4,26.6-132.7,75-181c48.3-48.3,112.6-75,181-75
	c68.4,0,132.7,26.6,181,75c85.3,85.3,99.2,218.2,34.4,319l-27.8-27.7c50.5-85.7,37-193.6-33.6-264.3c-41.2-41.1-95.9-63.8-154-63.8
	c-58.2,0-112.8,22.7-154,63.8C24.4,209,16.7,332.5,84,418.9l5.1,6.4l47.7-47.7l-3.5-5c-42.8-60.2-36-141.7,16.2-193.8
	c28.4-28.4,66.3-44.1,106.6-44.1c40.3,0,78.1,15.7,106.6,44.1c44.3,44.3,56.4,110.4,31.4,167.1l-30.1-30.1
	c11.2-39.4,0.5-81.2-28.3-110C314.3,184.7,286,173,256,173c-30.1,0-58.3,11.7-79.6,32.9c-36,36-43.1,92.1-17.1,136.4l4.7,8.1
	l49.4-49.4l-1.1-4c-4.2-15.9,0.1-32.3,11.6-43.7c8.5-8.6,19.9-13.3,32.1-13.3c12.2,0,23.6,4.7,32.1,13.3
	c8.6,8.5,13.3,19.9,13.3,32.1c0,12.2-4.7,23.6-13.3,32.1c-8.5,8.5-19.7,13.2-31.6,13.2l0,0c-4,0-8.1-0.5-12-1.6l-4-1.1l-152,152
	L75,466.5z"/>
</svg>
