<?xml version="1.0" encoding="utf-8"?>
<!-- Generator: Adobe Illustrator 18.1.1, SVG Export Plug-In . SVG Version: 6.00 Build 0)  -->
<svg version="1.1" id="Layer_1" xmlns="http://www.w3.org/2000/svg" xmlns:xlink="http://www.w3.org/1999/xlink" x="0px" y="0px"
	 viewBox="0 0 24 24" enable-background="new 0 0 24 24" xml:space="preserve">
<g>
	<path d="M5.4,24.1c-0.8,0-1.7-0.4-2.2-1l-1.5-1.7c-0.5-0.6-0.4-1.1-0.3-1.3c0.1-0.2,0.4-0.6,1.2-0.6H5c-0.1-0.1-0.2-0.2-0.3-0.3
		c-3.4-3.5-3.2-9.4-3.2-9.7c0-0.4,0.3-0.7,0.7-0.7h17.5c0.4,0,0.7,0.3,0.7,0.7c0,0,0,0.6,0,1.6c1.4,0.4,2.4,1.4,2.5,2.6
		c0.1,0.9-0.2,1.8-1,2.5c-0.7,0.7-1.7,1.1-2.7,1.2c-0.2,0-0.4,0-0.6,0l0,0c-0.4,0.6-0.8,1.2-1.3,1.7c-0.1,0.1-0.2,0.2-0.3,0.3h3.1
		c0.8,0,1.1,0.4,1.2,0.6c0.1,0.2,0.2,0.7-0.3,1.3l-1.5,1.7c-0.5,0.6-1.4,1-2.2,1H5.4z M4.3,22.1c0.2,0.3,0.8,0.5,1.1,0.5h11.9
		c0.3,0,0.9-0.3,1.1-0.5l1.1-1.3h-4.7c-1.1,0.5-2.4,0.8-3.8,0.8s-2.8-0.3-3.9-0.8l-4,0L4.3,22.1z M3,10.2c0.1,1.5,0.4,5.5,2.8,8
		c1.3,1.4,3.1,2.1,5.3,2.1c2.2,0,3.9-0.7,5.3-2.1c2.3-2.4,2.7-6.5,2.8-8H3z M20.3,12.5c-0.2,1.3-0.5,2.4-0.9,3.5
		c0.7-0.1,1.2-0.4,1.6-0.8c0.4-0.4,0.6-0.9,0.6-1.3C21.5,13.3,21,12.8,20.3,12.5z"/>
	<g>
		<path d="M6.8,8.1c-0.6,0-1.1-0.3-1.4-0.7C5,6.9,4.9,6.3,5,5.8C5.1,5,5.6,4.4,6.1,3.9l0.1-0.2c0.3-0.3,0.7-0.8,0.6-1.2
			c0-0.1-0.1-0.2-0.3-0.3c-0.1,0-0.2-0.1-0.3-0.1c0,0-0.1,0-0.1,0C6.1,2.3,6,2.3,5.9,2.3c-0.3,0-0.5-0.2-0.6-0.4
			c-0.1-0.2-0.1-0.4,0-0.5S5.4,1,5.6,0.9c0.2-0.1,0.5-0.2,0.7-0.2C6.7,0.8,7,0.9,7.3,1c0.5,0.3,0.9,0.8,1,1.4c0.1,0.9-0.4,1.8-1,2.4
			L7.2,4.9C6.8,5.3,6.5,5.7,6.4,6.1c0,0.1,0,0.3,0.1,0.4c0.1,0.1,0.2,0.2,0.4,0.2c0.4,0,0.7,0.3,0.7,0.7C7.5,7.8,7.2,8.1,6.8,8.1
			L6.8,8.1z"/>
	</g>
	<g>
		<path d="M11.5,8.1c-0.6,0-1.1-0.3-1.4-0.7c-0.4-0.4-0.5-1-0.4-1.6c0.1-0.8,0.7-1.4,1.1-1.9l0.1-0.2c0.3-0.3,0.7-0.8,0.6-1.2
			c0-0.1-0.1-0.2-0.3-0.3c0,0-0.2-0.1-0.3-0.1c0,0-0.1,0-0.1,0c-0.1,0-0.2,0.1-0.3,0.1c-0.3,0-0.5-0.2-0.6-0.4c-0.2-0.4,0-0.8,0.3-1
			c0.2-0.1,0.5-0.2,0.7-0.2c0.3,0,0.6,0.1,0.9,0.2c0.5,0.3,0.9,0.8,1,1.4c0.1,0.9-0.4,1.8-1,2.4l-0.1,0.2c-0.4,0.4-0.7,0.8-0.8,1.2
			c0,0.1,0,0.3,0.1,0.4c0.1,0.1,0.2,0.2,0.4,0.2c0.4,0,0.7,0.3,0.7,0.7C12.2,7.8,11.9,8.1,11.5,8.1L11.5,8.1z"/>
	</g>
	<g>
		<path d="M16.3,8.1c-0.6,0-1.1-0.3-1.4-0.7c-0.4-0.4-0.5-1-0.4-1.6c0.1-0.8,0.7-1.4,1.1-1.9l0.1-0.2c0.3-0.3,0.7-0.8,0.6-1.2
			c0-0.1-0.1-0.2-0.3-0.3c0,0-0.2-0.1-0.3-0.1c0,0-0.1,0-0.1,0c-0.1,0-0.2,0.1-0.3,0.1c-0.3,0-0.5-0.2-0.6-0.4c-0.2-0.4,0-0.8,0.3-1
			c0.2-0.1,0.5-0.2,0.7-0.2c0.3,0,0.6,0.1,0.9,0.2c0.5,0.3,0.9,0.8,1,1.4c0.1,0.9-0.4,1.8-1,2.4l-0.1,0.2c-0.4,0.4-0.7,0.8-0.8,1.2
			c0,0.1,0,0.3,0.1,0.4c0.1,0.1,0.2,0.2,0.4,0.2c0.2,0,0.4,0.1,0.5,0.2C16.9,7,17,7.2,17,7.4C17,7.8,16.7,8.1,16.3,8.1L16.3,8.1z"/>
	</g>
</g>
</svg>
