<?xml version="1.0" encoding="utf-8"?>
<!-- Generator: Adobe Illustrator 19.2.0, SVG Export Plug-In . SVG Version: 6.00 Build 0)  -->
<svg version="1.1" id="Layer_1" xmlns="http://www.w3.org/2000/svg" xmlns:xlink="http://www.w3.org/1999/xlink" x="0px" y="0px"
	 viewBox="0 0 512 512" enable-background="new 0 0 512 512" xml:space="preserve">
<path d="M443.7,98.2L290.5,9.7c-22.3-12.9-49.8-12.9-72.1,0L65.1,98.2C42.8,111,29,134.9,29,160.6v84.6h80.3l65.3-130.7l5.7-12.2
	l5.2,12.8l78.9,210.4l40.1-80.2h44.2c7.4-14.6,22.6-24.6,40.1-24.6c24.8,0,45,20.1,45,45c0,24.8-20.1,45-45,45
	c-17.5,0-32.7-10.1-40.1-24.7h-18.3l-65.3,132l-6.1,11.6l-4.8-12.2l-78.9-210.4L135.1,286H29v51.6c0,25.8,13.8,49.6,36.1,62.5
	l153.3,88.5c22.3,12.9,49.8,12.9,72.1,0l153.3-88.5c22.3-12.9,36.1-36.7,36.1-62.5v-177C479.8,134.9,466.1,111,443.7,98.2z"/>
</svg>
