<?xml version="1.0" encoding="UTF-8"?>
<svg width="513px" height="433px" viewBox="0 0 513 433" version="1.1" xmlns="http://www.w3.org/2000/svg" xmlns:xlink="http://www.w3.org/1999/xlink">
    <!-- Generator: Sketch 43.2 (39069) - http://www.bohemiancoding.com/sketch -->
    <title>bull</title>
    <desc>Created with Sketch.</desc>
    <defs>
        <path d="M163.056,3.032 C163.677,1.532 164.614,0.868 165.715,0.868 C166.112,0.868 166.531,0.955 166.964,1.119 C167.439,1.271 167.903,1.46 168.348,1.683 C171.129,3.09 174.485,4.639 178.171,6.248 C190.763,11.784 203.878,16.05 217.318,18.98 C221.787,19.865 226.145,21.245 230.309,23.098 C247.77,31.184 240.248,43.4 240.248,43.4 C240.248,43.4 230.942,58.749 206.216,72.174 C205.776,72.409 205.486,72.851 205.443,73.347 C205.42,73.489 205.415,73.633 205.429,73.776 C205.518,74.698 206.339,75.373 207.261,75.284 C212.372,74.566 217.532,74.259 222.693,74.369 C224.1,74.392 225.509,74.427 226.964,74.533 C231.035,74.867 212.948,81.243 219.475,88.247 C219.388,88.224 219.525,88.371 219.682,88.519 C219.916,88.737 220.193,88.956 219.841,88.615 C219.711,88.492 219.59,88.369 219.475,88.247 C219.5,88.253 219.542,88.273 219.606,88.31 C220.764,88.968 222.076,89.303 223.408,89.284 C225.99,89.002 229.182,87.688 230.027,88.028 C230.872,88.368 230.872,91.008 230.449,92.311 C230.344,92.636 230.268,92.971 230.229,93.311 C229.885,96.174 231.928,98.773 234.792,99.117 C238.805,99.598 243.451,100.267 248.873,101.147 C261.934,103.225 270.336,105.454 275.711,112.612 C276.448,113.58 277.511,114.247 278.703,114.49 C287.821,116.402 314.928,122.082 327.989,134.158 L328.365,134.463 C348.373,148.251 356.846,196.153 360.272,197.103 C363.476,197.995 357.902,175.054 353.56,158.495 C353.56,158.413 352.75,155.808 352.386,154.529 C352.235,154.012 352.171,153.472 352.198,152.933 C352.375,150.094 354.194,145.588 361.234,147.523 C379.565,153.039 413.701,164.973 429.567,176.509 L429.848,176.696 C442.791,184.23 444.81,195.167 444.951,199.931 C444.981,200.823 445.239,201.692 445.702,202.454 C448.46,207.078 454.116,212.945 456.052,217.37 C459.522,225.711 462.033,234.419 463.539,243.327 C466.778,260.66 480.038,269.156 492.066,262.021 C493.334,261.282 494.954,260.648 495.282,258.934 C496.749,251.212 502.804,250.11 507.439,247.024 C508.788,246.12 510.596,245.017 510.337,248.608 C510.42,249.42 510.847,250.16 511.511,250.638 C512.627,252.469 513.074,254.629 512.779,256.752 C512.204,260.355 508.319,265.823 499.987,265.823 C497.969,265.811 496.373,266.89 494.695,267.959 C487.49,272.559 480.003,273.685 472.235,269.883 C470.673,269.109 469.008,267.642 467.259,269.202 C465.51,270.763 466.613,272.957 466.813,274.929 C468.064,287.738 467.412,300.661 464.876,313.278 C464.067,317.444 464.326,320.32 466.567,323.418 C469.861,327.912 471.031,333.62 469.77,339.049 C466.919,352.426 470.932,363.14 478.149,372.528 C481.235,376.465 483.942,380.685 486.234,385.131 C488.804,390.248 488.558,395.669 487.513,401.185 C487.443,401.56 487.277,401.912 487.032,402.205 C485.359,404.433 483.059,406.107 480.426,407.017 C479.821,407.255 479.133,407.058 478.747,406.535 C477.41,404.788 474.804,402.006 474.124,408.449 C474.091,408.879 473.928,409.288 473.654,409.622 C470.193,413.459 462.436,411.875 460.898,411.112 C459.361,410.35 458.071,401.372 457.707,397.347 C457.675,396.746 457.758,396.145 457.953,395.575 C458.716,393.029 457.437,386.105 456.897,380.414 C455.535,365.452 448.495,352.508 446.042,337.804 C445.606,335.771 444.786,333.84 443.625,332.113 C441.089,328.602 439.022,324.775 437.476,320.73 C437.269,320.188 436.967,319.687 436.584,319.251 C428.874,310.474 413.208,289.821 410.955,276.666 C410.759,276.124 410.598,275.572 410.474,275.011 C408.022,263.593 409.453,257.597 408.655,257.526 C407.27,257.397 404.301,270.435 405.874,288.717 C405.533,296.369 394.632,300.182 392.801,301.121 C387.661,303.703 375.035,313.725 373.931,314.37 C373.244,314.752 372.623,315.246 372.093,315.826 C369.387,318.796 369.6,323.399 372.571,326.105 C376.361,330.001 379.646,333.709 380.48,340.023 C380.984,343.789 384.505,345.678 388.201,346.136 C395.932,346.803 402.802,351.334 406.46,358.176 C408.674,361.571 408.412,366.014 405.815,369.125 C398.716,378.97 393.294,380.015 381.465,376.717 C370.739,373.725 362.455,364.854 358.148,353.365 C356.271,348.377 352.175,345.831 347.587,344.458 C344.664,343.59 342.975,341.806 341.883,338.591 C339.572,331.749 336.345,330.013 331.24,315.12 L331.146,314.815 C330.823,313.541 330.403,312.294 329.891,311.084 C326.088,304.501 316.466,305.592 295.684,302.87 C290.168,302.154 285.756,301.544 280.909,300.523 C279.783,300.289 278.01,299.889 275.311,299.209 C266.69,297.158 258.227,294.491 249.988,291.229 C244.953,289.268 240.067,286.945 235.366,284.282 C232.361,282.591 229.464,280.713 226.694,278.661 C217.493,271.855 211.826,264.191 206.44,253.935 C205.767,252.747 205.105,251.545 204.456,250.333 C192.992,230.266 160.991,195.578 139.516,184.441 C139.098,184.228 138.657,184.062 138.202,183.948 L137.802,183.843 C137.164,183.676 136.503,183.612 135.843,183.655 C129.635,184.09 104.663,187.645 89.807,188.349 C83.552,188.643 81.956,187.669 81.956,187.669 C81.956,187.669 72.463,183.972 69.611,166.546 C69.492,165.804 69.469,165.052 69.541,164.304 C69.598,163.831 69.695,163.364 69.834,162.908 C70.121,161.887 70.092,160.803 69.752,159.799 C68.32,155.679 68.263,151.208 69.588,147.055 L69.904,146.08 C70.66,143.725 71.789,141.506 73.249,139.509 C78.184,132.577 82.068,124.952 84.772,116.884 C84.822,116.718 84.848,116.547 84.846,116.375 C84.844,115.41 84.06,114.628 83.095,114.63 L81.346,114.63 C66.114,114.595 11.546,112.495 0.986,85.587 C0.785,85.074 0.842,84.496 1.141,84.035 C1.653,83.238 2.713,83.009 3.509,83.522 L3.755,83.662 C14.985,90.281 48.5,105.325 96.097,85.246 C97.145,84.777 97.898,83.827 98.115,82.7 C98.972,78.816 103.384,69.745 125.505,68.032 C126.17,67.979 126.84,68.007 127.499,68.114 C127.87,68.092 128.243,68.092 128.614,68.114 C130.611,68.278 132.518,67.253 133.484,65.497 C137.852,57.321 146.214,52.061 155.475,51.662 C160.992,50.617 166.698,51.826 171.317,55.018 C171.867,55.003 172.411,54.895 172.925,54.701 C183.181,50.84 193.367,46.979 202.38,40.783 C208.587,36.559 208.387,34.622 201.617,30.222 C190.903,23.251 179.133,18.111 168.759,10.073 C166.318,8.137 161.671,6.412 163.056,3.032 Z M255.116,310.11 C254.333,308.545 247.682,300.529 248.705,300.529 C248.74,300.529 248.784,300.538 248.838,300.558 C263.729,306.789 298.218,312.856 317.909,315.003 C320.867,315.274 323.431,317.157 324.575,319.897 C324.739,320.285 326.217,322.796 326.487,323.229 C332.507,332.664 332.859,334.131 335.312,337.499 C339.219,342.827 344.571,347.814 345.486,354.562 C346.906,365.1 353.313,371.436 358.875,378.161 C363.018,383.16 368.592,386.844 372.758,392.031 C378.297,398.896 387.157,418.939 387.227,420.781 C387.215,425.359 383.543,425.1 379.94,427.178 C378.215,427.811 377.206,429.607 375.539,426.813 C374.697,426.133 373.543,425.987 372.558,426.438 C371.538,426.825 371.619,428.41 371.749,429.959 C371.839,430.92 371.271,431.821 370.364,432.153 C367.278,433.177 363.952,433.231 360.836,432.305 C358.16,431.508 356.247,431.426 355.461,427.248 L355.355,426.884 C350.568,413.976 360.401,421.463 341.438,387.701 L340.745,385.976 C339.321,379.982 335.616,374.779 330.418,371.472 C327.094,369.457 324.512,366.418 323.061,362.811 C320.024,355.134 313.862,349.113 306.116,346.253 C301.117,344.259 296.024,342.487 291.024,340.386 C276.944,334.615 264.9,324.782 256.43,312.141 C255.952,311.49 255.514,310.812 255.116,310.11 Z" id="path-1"></path>
    </defs>
    <g id="Page-1" stroke="none" stroke-width="1" fill="none" fill-rule="evenodd">
        <g id="bull">
            <mask id="mask-2" fill="white">
                <use xlink:href="#path-1"></use>
            </mask>
            <use id="Clip" fill="#000000" xlink:href="#path-1"></use>
        </g>
    </g>
</svg>