<?xml version="1.0" encoding="utf-8"?>
<!-- Generator: Adobe Illustrator 19.2.0, SVG Export Plug-In . SVG Version: 6.00 Build 0)  -->
<svg version="1.1" id="Layer_1" xmlns="http://www.w3.org/2000/svg" xmlns:xlink="http://www.w3.org/1999/xlink" x="0px" y="0px"
	 viewBox="0 0 512 512" enable-background="new 0 0 512 512" xml:space="preserve">
<path fill="#010101" d="M365.5,321.7h-23.4l-8.8-8.8c29.2-32.2,46.8-76,46.8-122.8C380.1,84.8,295.3,0,190.1,0S0,84.8,0,190.1
	c0,105.3,84.8,190.1,190.1,190.1c46.8,0,90.7-17.6,122.8-46.8l8.8,8.8v23.4l146.2,146.2l43.9-43.9L365.5,321.7z M174.7,238.1v-7.9
	c0-17.4,6.3-33.3,19-44.4l19-20.6c6.3-4.7,9.5-12.7,9.5-22.2c0-17.4-14.3-31.7-31.7-31.7s-31.7,14.2-31.7,31.7h-31.7
	c0-34.9,28.5-63.4,63.4-63.4c34.9,0,63.4,28.5,63.4,63.4c0,14.3-6.3,26.9-14.3,36.5l-14.3,14.3c-12.7,11.1-19,20.6-19,44.4H174.7z
	 M206.4,269.8v31.7h-31.7v-31.7H206.4z"/>
</svg>
