<?xml version="1.0" encoding="UTF-8" standalone="no"?>
<svg width="36px" height="36px" viewBox="0 0 36 36" version="1.1" xmlns="http://www.w3.org/2000/svg" xmlns:xlink="http://www.w3.org/1999/xlink" xmlns:sketch="http://www.bohemiancoding.com/sketch/ns">
    <!-- Generator: Sketch 3.3.2 (12043) - http://www.bohemiancoding.com/sketch -->
    <title>checked_add</title>
    <desc>Created with Sketch.</desc>
    <defs></defs>
    <g id="Page-1" stroke="none" stroke-width="1" fill="none" fill-rule="evenodd" sketch:type="MSPage">
        <g id="checked_add" sketch:type="MSLayerGroup" fill="#000000">
            <path d="M15.5,16 L7,16 L7,21 L15.5,21 L15.5,29.5 L20.5,29.5 L20.5,21 L29,21 L29,16 L20.5,16 L20.5,7.5 L15.5,7.5 L15.5,16 Z M32,0 L4,0 C1.79,0 0,1.79 0,4 L0,32 C0,34.21 1.79,36 4,36 L32,36 C34.21,36 36,34.21 36,32 L36,4 C36,1.79 34.21,0 32,0 Z" id="Shape" sketch:type="MSShapeGroup"></path>
        </g>
    </g>
</svg>