<svg id="Layer_1" data-name="Layer 1" xmlns="http://www.w3.org/2000/svg" viewBox="0 0 512 512"><title>bhi</title><path d="M320,288v64h62.7c-.38.62-.74,1.26-1.12,1.88-12.73,20.91-27.17,40.49-45,57.45C325.46,422,313.26,431.2,299.33,438A105.55,105.55,0,0,1,288,442.75V256h64V192H288v-5.49a96,96,0,1,0-64,0V192H160v64h64V442.6a108.46,108.46,0,0,1-14.41-6.4c-15.41-8.2-28.64-19.21-40.66-31.75A277.26,277.26,0,0,1,136.62,363q-3.52-5.44-6.84-11H192V288H32V448H96V416.81q7.8,10.55,16.41,20.55c15.58,18,32.89,34.13,53,47.09,24.13,15.57,50.29,25.28,79.08,27.37,1.42.1,2.83.28,4.25.42h15.12a5,5,0,0,1,.77-.2c4.57-.43,9.17-.69,13.72-1.31a161.46,161.46,0,0,0,49.56-15.37C348.76,485.1,367,471.22,383.57,455A313.16,313.16,0,0,0,416,417.47V448h64V288ZM256,64a32,32,0,1,1-32,32A32,32,0,0,1,256,64Z"/></svg>