<?xml version="1.0" encoding="utf-8"?>
<!-- Generator: Adobe Illustrator 18.1.1, SVG Export Plug-In . SVG Version: 6.00 Build 0)  -->
<svg version="1.1" id="Layer_1" xmlns="http://www.w3.org/2000/svg" xmlns:xlink="http://www.w3.org/1999/xlink" x="0px" y="0px"
	 viewBox="0 0 24 24" enable-background="new 0 0 24 24" xml:space="preserve">
<g id="google_1_">
	<path d="M16.664,13.721l-1.041-0.757c-0.378-0.284-0.757-0.662-0.757-1.325c0-0.662,0.473-1.23,0.946-1.514
		c1.23-0.946,2.46-1.987,2.46-4.069c0-1.987-1.23-3.123-1.892-3.69h1.609l1.135-1.325h-5.867c-4.163,0-6.245,2.649-6.245,5.488
		c0,2.176,1.703,4.542,4.731,4.542h0.757c-0.095,0.284-0.378,0.757-0.378,1.23c0,0.946,0.378,1.325,0.852,1.892
		c-1.325,0.095-3.785,0.378-5.583,1.514c-1.703,1.041-2.176,2.46-2.176,3.501c0,2.176,1.987,4.258,6.245,4.258
		c5.11,0,7.57-2.839,7.57-5.583C19.03,15.898,17.989,14.857,16.664,13.721z M9.473,5.111c0-2.082,1.23-3.028,2.555-3.028
		c2.46,0,3.785,3.312,3.785,5.204c0,2.46-1.987,2.933-2.744,2.933C10.703,10.22,9.473,7.287,9.473,5.111z M12.879,22.143
		c-3.123,0-5.11-1.419-5.11-3.501s1.892-2.744,2.46-3.028c1.23-0.378,2.839-0.473,3.123-0.473c0.284,0,0.473,0,0.662,0
		c2.271,1.609,3.217,2.271,3.217,3.785C17.232,20.723,15.434,22.143,12.879,22.143z"/>
</g>
</svg>
