<svg id="Layer_1" data-name="Layer 1" xmlns="http://www.w3.org/2000/svg" viewBox="0 0 512 512"><title>bhi</title><path d="M431.66,166.47a80,80,0,0,0-72.47-70c-.94-.08-1.24-.37-1.35-1.34-.44-4.13-.76-8.29-1.56-12.36a100.07,100.07,0,0,0-34.89-59.06A99.55,99.55,0,0,0,263.92.44L258.24,0h-4.08a5.93,5.93,0,0,1-1,.19,94.4,94.4,0,0,0-17.83,2.09A100.22,100.22,0,0,0,180,34.52C164.63,51.83,156.26,72.14,154.6,95.2c-.07,1-.41,1.19-1.26,1.25a78.74,78.74,0,0,0-30.48,8.91A80.14,80.14,0,0,0,95.44,223.19a2.11,2.11,0,0,0,2,1q158.86,0,317.73,0a2,2,0,0,0,1.86-.94C429.17,206.19,434.11,187.22,431.66,166.47Z"/><polygon points="256 512 384 256.27 128 256.27 256 512"/></svg>