<?xml version="1.0" encoding="utf-8"?>
<!-- Generator: Adobe Illustrator 19.2.0, SVG Export Plug-In . SVG Version: 6.00 Build 0)  -->
<svg version="1.1" id="Layer_1" xmlns="http://www.w3.org/2000/svg" xmlns:xlink="http://www.w3.org/1999/xlink" x="0px" y="0px"
	 viewBox="0 0 512 512" enable-background="new 0 0 512 512" xml:space="preserve">
<path fill="#010101" d="M493.8,91.6h-58V51.1c0-9.7-8.5-18.2-18.8-18.2H17.6C8,32.9,0,41.4,0,51.1v340.6C0,422.4,25.6,448,56.3,448
	h399.4c30.7-0.6,56.3-25,56.3-56.3V109.2C512,99.6,504,91.6,493.8,91.6L493.8,91.6z M56.3,411c-10.8,0-19.3-8.5-19.3-19.3V69.9
	h362.4v321.8c0,6.3,1.1,13.1,3.4,19.3H56.3z M475,391.7c0,10.8-8.5,19.3-19.9,19.3c-10.8,0-19.9-8.5-19.9-19.3V128H475V391.7z
	 M224,288h128v-32H224V288z M224,352h128v-32H224V352z M64,122.2V192h288v-69.8H64z M64,352h128v-96H64V352z"/>
</svg>
