<?xml version="1.0" encoding="utf-8"?>
<!-- Generator: Adobe Illustrator 18.1.1, SVG Export Plug-In . SVG Version: 6.00 Build 0)  -->
<svg version="1.1" id="Layer_1" xmlns="http://www.w3.org/2000/svg" xmlns:xlink="http://www.w3.org/1999/xlink" x="0px" y="0px"
	 viewBox="0 0 24 24" enable-background="new 0 0 24 24" xml:space="preserve">
<g>
	<path d="M12,24C5.4,24,0,18.6,0,12S5.4,0,12,0s12,5.4,12,12S18.6,24,12,24z M12,1.8C6.4,1.8,1.8,6.4,1.8,12S6.4,22.2,12,22.2
		c5.6,0,10.2-4.6,10.2-10.2S17.6,1.8,12,1.8z"/>
</g>
<path d="M12,7.8l1,2.1l0.3,0.6l0.7,0.1l2.3,0.3l-1.6,1.6L14.1,13l0.1,0.6l0.4,2.3l-2-1.1L12,14.5l-0.6,0.3l-2,1.1l0.4-2.3L9.8,13
	l-0.5-0.5l-1.6-1.6l2.3-0.3l0.7-0.1l0.3-0.6L12,7.8 M12,5L9.8,9.3L5,10l3.5,3.4l-0.8,4.8l4.3-2.2l4.3,2.2l-0.8-4.8l3.5-3.4l-4.8-0.7
	L12,5L12,5z"/>
</svg>
