<?xml version="1.0" encoding="utf-8"?>
<!-- Generator: Adobe Illustrator 18.1.1, SVG Export Plug-In . SVG Version: 6.00 Build 0)  -->
<svg version="1.1" id="Layer_1" xmlns="http://www.w3.org/2000/svg" xmlns:xlink="http://www.w3.org/1999/xlink" x="0px" y="0px"
	 viewBox="0 0 24 24" enable-background="new 0 0 24 24" xml:space="preserve">
<g id="group_1_">
	<path d="M16.3,11.4c1.8,0,3.1-1.4,3.1-3.1s-1.4-3.1-3.1-3.1s-3.1,1.4-3.1,3.1S14.6,11.4,16.3,11.4z M8,11.4c1.8,0,3.1-1.4,3.1-3.1
		S9.7,5.2,8,5.2S4.8,6.5,4.8,8.3S6.2,11.4,8,11.4z M8,13.5c-2.4,0-7.3,1.3-7.3,3.7v2.6h14.6v-2.6C15.3,14.8,10.4,13.5,8,13.5z
		 M16.3,13.5c-0.3,0-0.6,0-1,0.1c1.3,0.8,2.1,2.1,2.1,3.6v2.6h6.3v-2.6C23.6,14.8,18.7,13.5,16.3,13.5z"/>
</g>
</svg>
