<?xml version="1.0" encoding="utf-8"?>
<!-- Generator: Adobe Illustrator 18.1.1, SVG Export Plug-In . SVG Version: 6.00 Build 0)  -->
<svg version="1.1" id="Layer_1" xmlns="http://www.w3.org/2000/svg" xmlns:xlink="http://www.w3.org/1999/xlink" x="0px" y="0px"
	 viewBox="0 0 24 24" enable-background="new 0 0 24 24" xml:space="preserve">
<g>
	<path fill-rule="evenodd" clip-rule="evenodd" d="M23.8,6.2V3.9c0-0.6-0.5-1.1-1.1-1.1H1.3c-0.6,0-1.1,0.5-1.1,1.1v2.3H23.8z"/>
	<path fill-rule="evenodd" clip-rule="evenodd" d="M0.2,8.3v13.1c0,0.6,0.5,1.1,1.1,1.1h21.3c0.6,0,1.1-0.5,1.1-1.1V8.3H0.2z
		 M12.7,20.2h-1.4v-1.4h1.4V20.2z M14.1,14.9l-0.6,0.6c-0.5,0.5-0.8,0.9-0.8,1.9h-1.4v-0.3c0-0.8,0.3-1.4,0.8-1.9l0.8-0.9
		c0.3-0.2,0.4-0.5,0.4-1c0-0.8-0.6-1.4-1.4-1.4c-0.8,0-1.4,0.6-1.4,1.4H9.3c0-1.5,1.2-2.7,2.7-2.7s2.7,1.2,2.7,2.7
		C14.7,14,14.5,14.5,14.1,14.9z"/>
</g>
</svg>
