<?xml version="1.0" encoding="utf-8"?>
<!-- Generator: Adobe Illustrator 18.1.1, SVG Export Plug-In . SVG Version: 6.00 Build 0)  -->
<svg version="1.1" id="Layer_1" xmlns="http://www.w3.org/2000/svg" xmlns:xlink="http://www.w3.org/1999/xlink" x="0px" y="0px"
	 viewBox="0 0 512 512" enable-background="new 0 0 512 512" xml:space="preserve">
<path fill="#010101" d="M352,0H102.5C81.1,0,64,17.4,64,38.8v434.7c0,21.4,17.1,38.5,38.5,38.5h306.9c21.4,0,38.5-17.1,38.5-38.5
	V128V96L352,0z M256,192c35.2,0,64,28.8,64,64s-28.8,64-64,64s-64-28.8-64-64S220.8,192,256,192z M384,448H128v-32
	c0-43.2,84.8-64,128-64c43.2,0,128,20.8,128,64V448z M320,96V32l64,64H320z"/>
</svg>
