<?xml version="1.0" encoding="utf-8"?>
<!-- Generator: Adobe Illustrator 18.1.1, SVG Export Plug-In . SVG Version: 6.00 Build 0)  -->
<svg version="1.1" id="Layer_1" xmlns="http://www.w3.org/2000/svg" xmlns:xlink="http://www.w3.org/1999/xlink" x="0px" y="0px"
	 viewBox="0 0 24 24" enable-background="new 0 0 24 24" xml:space="preserve">
<g id="add-circle-outline_6_">
	<path d="M17.893,8.309l-1.721-1.721l-3.441,3.441L9.29,6.589L7.569,8.309l3.441,3.441l-3.441,3.441l1.721,1.721l3.441-3.441
		l3.441,3.441l1.721-1.721l-3.441-3.441L17.893,8.309z M21.334,3.148c-4.732-4.732-12.475-4.732-17.206,0s-4.732,12.475,0,17.206
		s12.475,4.732,17.206,0S26.066,7.879,21.334,3.148z M5.849,18.633c-3.785-3.785-3.785-9.98,0-13.765s9.98-3.785,13.765,0
		s3.785,9.98,0,13.765S9.634,22.419,5.849,18.633z"/>
</g>
</svg>
