<?xml version="1.0" encoding="utf-8"?>
<!-- Generator: Adobe Illustrator 18.1.1, SVG Export Plug-In . SVG Version: 6.00 Build 0)  -->
<svg version="1.1" id="Layer_1" xmlns="http://www.w3.org/2000/svg" xmlns:xlink="http://www.w3.org/1999/xlink" x="0px" y="0px"
	 viewBox="0 0 24 24" enable-background="new 0 0 24 24" xml:space="preserve">
<g>
	<path d="M12.2,24c-6.6,0-12-5.4-12-12s5.4-12,12-12s12,5.4,12,12S18.7,24,12.2,24z M12.2,1.9C6.5,1.9,1.9,6.4,1.9,12.1
		s4.6,10.2,10.2,10.2c5.6,0,10.2-4.6,10.2-10.2S17.8,1.9,12.2,1.9z"/>
</g>
<path d="M13.1,13.2c0.5-0.5,0.5-1.4,0-2c-0.5-0.5-1.4-0.5-2,0c-0.4,0.4-0.5,0.9-0.4,1.3l-1.1,1.1c-0.6-1.1-0.5-2.5,0.4-3.4
	c1.1-1.1,2.9-1.1,4,0c0.8,0.8,1,1.9,0.7,2.8l1.1,1.1c0.8-1.6,0.6-3.6-0.8-4.9c-1.6-1.6-4.3-1.6-5.9,0c-1.5,1.5-1.6,3.8-0.5,5.4l-1,1
	c-1.7-2.2-1.6-5.4,0.5-7.4c2.2-2.2,5.7-2.2,7.9,0c1.9,1.9,2.1,4.8,0.8,6.9l1,1c1.9-2.7,1.6-6.5-0.8-8.9c-2.7-2.7-7.2-2.7-9.9,0
	s-2.7,7.2,0,9.9l0.5,0.5l4.1-4.1C12.2,13.7,12.7,13.6,13.1,13.2z"/>
</svg>
