<?xml version="1.0" encoding="UTF-8" standalone="no"?>
<svg width="24px" height="24px" viewBox="0 0 24 24" version="1.1" xmlns="http://www.w3.org/2000/svg" xmlns:xlink="http://www.w3.org/1999/xlink" xmlns:sketch="http://www.bohemiancoding.com/sketch/ns">
    <!-- Generator: Sketch 3.3.2 (12043) - http://www.bohemiancoding.com/sketch -->
    <title>user-o</title>
    <desc>Created with Sketch.</desc>
    <defs></defs>
    <g id="Page-1" stroke="none" stroke-width="1" fill="none" fill-rule="evenodd" sketch:type="MSPage">
        <g id="Artboard-1" sketch:type="MSArtboardGroup" fill="#231F20">
            <path d="M6.095747,6.42699608 C6.095747,9.67478701 8.75321303,12.3312491 12,12.3312491 C15.246787,12.3312491 17.904253,9.67378305 17.904253,6.42699608 C17.904253,3.17920515 15.2477909,0.52173913 12,0.52173913 C8.75220907,0.52173913 6.095747,3.17920515 6.095747,6.42699608 Z M12.0790487,2.24852009 C14.4260868,2.24852009 16.335523,4.15795627 16.335523,6.50609116 C16.335523,8.85312931 14.4260868,10.7625655 12.0790487,10.7625655 C9.73201054,10.7625655 7.82257436,8.85312931 7.82257436,6.50609116 C7.82257436,4.15795627 9.73201054,2.24852009 12.0790487,2.24852009 L12.0790487,2.24852009 Z M12,17.0405509 C16.9405764,17.0405509 21.9597042,19.3440449 21.9597042,20.999745 L21.9597042,21.9597042 L2.04029584,21.9597042 L2.04029584,20.999745 C2.04029584,19.3440449 7.05942362,17.0405509 12,17.0405509 L12,17.0405509 Z M12,15.000255 C7.95001275,15.000255 0,16.9497577 0,20.999745 L0,24 L24,24 L24,20.999745 C24,16.9497577 16.0499872,15.000255 12,15.000255 L12,15.000255 L12,15.000255 Z" id="user-o" sketch:type="MSShapeGroup"></path>
        </g>
    </g>
</svg>