<?xml version="1.0" encoding="utf-8"?>
<!-- Generator: Adobe Illustrator 18.1.1, SVG Export Plug-In . SVG Version: 6.00 Build 0)  -->
<svg version="1.1" id="Layer_1" xmlns="http://www.w3.org/2000/svg" xmlns:xlink="http://www.w3.org/1999/xlink" x="0px" y="0px"
	 viewBox="0 0 512 512" enable-background="new 0 0 512 512" xml:space="preserve">
<g>
	<rect x="444" y="320" fill="#010101" width="69.1" height="64"/>
	<rect x="374.8" y="160" fill="#010101" width="138.3" height="64"/>
	<rect x="320" fill="#010101" width="193.1" height="64"/>
	<path fill="#010101" d="M267.2,235.1h-17l-5.9-5.9c20.9-24.3,33.6-55.8,33.6-90.3C277.8,62.2,215.7,0,138.9,0S0,62.2,0,138.9
		s62.2,138.9,138.9,138.9c34.5,0,66-12.6,90.3-33.4l5.9,5.9v16.9L342,373.8l31.8-31.8L267.2,235.1z M138.9,235.1
		c-53.1,0-96.2-43.1-96.2-96.2c0-53.1,43.1-96.2,96.2-96.2c53.1,0,96.2,43.1,96.2,96.2C235.1,192,192,235.1,138.9,235.1z"/>
</g>
</svg>
