<?xml version="1.0" encoding="utf-8"?>
<!-- Generator: Adobe Illustrator 18.1.1, SVG Export Plug-In . SVG Version: 6.00 Build 0)  -->
<svg version="1.1" id="Layer_1" xmlns="http://www.w3.org/2000/svg" xmlns:xlink="http://www.w3.org/1999/xlink" x="0px" y="0px"
	 viewBox="0 0 28.802 24" enable-background="new 0 0 28.802 24" xml:space="preserve">
<g>
	<path d="M23.319,19.311c0,2.569-2.088,4.656-4.659,4.656H5.21c-2.567,0-4.653-2.087-4.653-4.656V5.861
		c0-2.569,2.086-4.656,4.653-4.656h13.45c0.649,0,1.297,0.131,1.894,0.404c0.145,0.064,0.258,0.209,0.291,0.372
		c0.031,0.178-0.016,0.339-0.145,0.469l-0.795,0.792c-0.143,0.146-0.339,0.194-0.517,0.13c-0.243-0.066-0.485-0.097-0.728-0.097
		H5.21c-1.417,0-2.584,1.165-2.584,2.587v13.45c0,1.423,1.167,2.587,2.584,2.587h13.45c1.423,0,2.59-1.164,2.59-2.587v-4.999
		c0-0.127,0.048-0.257,0.143-0.353l1.037-1.036c0.161-0.161,0.371-0.193,0.563-0.113c0.194,0.08,0.326,0.257,0.326,0.469V19.311z"/>
</g>
<g id="create_2_">
	<path d="M15.332,11.59v2.826h2.826l8.18-8.254l-2.826-2.826L15.332,11.59z M28.494,4.006c0.297-0.297,0.297-0.744,0-1.041
		l-1.71-1.71c-0.297-0.297-0.744-0.297-1.041,0l-1.339,1.339l2.826,2.826L28.494,4.006z"/>
</g>
</svg>
