<?xml version="1.0" encoding="utf-8"?>
<!-- Generator: Adobe Illustrator 18.1.1, SVG Export Plug-In . SVG Version: 6.00 Build 0)  -->
<svg version="1.1" id="Layer_1" xmlns="http://www.w3.org/2000/svg" xmlns:xlink="http://www.w3.org/1999/xlink" x="0px" y="0px"
	 viewBox="0 0 25.723 24" enable-background="new 0 0 25.723 24" xml:space="preserve">
<path d="M15.495,17.549l-1.493-1.501c0.194-0.305,0.37-0.626,0.514-0.971c0.144-0.345,0.249-0.695,0.329-1.048l2.1,0.007
	c0.096-0.465,0.143-0.936,0.144-1.422c0.002-0.483-0.047-0.953-0.12-1.421l0,0l-2.117-0.006c-0.16-0.716-0.441-1.4-0.831-2.023
	l1.5-1.492c-0.549-0.777-1.229-1.462-2.005-2.016l-1.499,1.491c-0.305-0.194-0.626-0.37-0.971-0.514
	c-0.345-0.144-0.695-0.248-1.048-0.329l0.006-2.114c-0.473-0.079-0.94-0.129-1.422-0.131C8.096,4.057,7.625,4.103,7.161,4.184
	L7.155,6.296c-0.716,0.16-1.4,0.441-2.023,0.831l-1.491-1.5c-0.782,0.55-1.458,1.228-2.019,2.003L3.116,9.13
	c-0.194,0.305-0.37,0.626-0.514,0.971c-0.144,0.345-0.249,0.695-0.329,1.048l-2.108-0.007c-0.086,0.466-0.135,0.938-0.137,1.421
	c-0.003,0.485,0.052,0.958,0.11,1.422l0.001,0.001l2.127,0.006c0.16,0.716,0.441,1.4,0.831,2.023l-1.5,1.492
	c0.549,0.777,1.229,1.462,2.005,2.016L5.1,18.033c0.305,0.194,0.626,0.37,0.971,0.514c0.345,0.144,0.695,0.248,1.048,0.329
	l-0.006,2.117l0,0c0.466,0.073,0.937,0.127,1.421,0.127c0.488,0.003,0.964-0.048,1.422-0.125l0.007-2.112
	c0.716-0.161,1.4-0.442,2.022-0.831l1.491,1.498C14.26,19.002,14.934,18.323,15.495,17.549z M13.396,11.758
	c0.59,5.177-5.504,7.681-8.724,3.584c-0.416-0.529-0.68-1.172-0.756-1.841C3.326,8.324,9.42,5.821,12.64,9.917
	C13.056,10.446,13.32,11.089,13.396,11.758z"/>
<path d="M25.349,17.378l-1.217,0.176c-0.075-0.196-0.164-0.389-0.275-0.576c-0.111-0.186-0.238-0.357-0.375-0.516l0.73-0.977
	c-0.183-0.206-0.387-0.391-0.613-0.56c-0.225-0.168-0.461-0.308-0.704-0.436l0,0l-0.736,0.985c-0.389-0.173-0.806-0.279-1.231-0.313
	l-0.176-1.216c-0.552-0.013-1.107,0.066-1.634,0.237l0.176,1.215c-0.196,0.075-0.389,0.164-0.576,0.275
	c-0.186,0.111-0.357,0.238-0.516,0.374l-0.983-0.735c-0.201,0.193-0.386,0.393-0.553,0.617c-0.169,0.227-0.311,0.463-0.434,0.707
	l0.982,0.734c-0.173,0.389-0.279,0.806-0.313,1.23l-1.216,0.176c-0.015,0.555,0.068,1.105,0.235,1.635l1.217-0.176
	c0.075,0.196,0.164,0.389,0.275,0.576c0.111,0.186,0.238,0.357,0.375,0.516l-0.733,0.98c0.188,0.202,0.39,0.388,0.615,0.556
	c0.225,0.169,0.464,0.307,0.701,0.441l0.001,0l0.739-0.989c0.389,0.173,0.806,0.279,1.231,0.313l0.176,1.216
	c0.552,0.013,1.107-0.066,1.634-0.237l-0.176-1.215c0.196-0.075,0.389-0.164,0.576-0.275c0.186-0.111,0.357-0.238,0.516-0.374
	l0.985,0.736l0,0c0.195-0.192,0.383-0.393,0.551-0.619c0.17-0.227,0.311-0.466,0.434-0.706l-0.982-0.734
	c0.173-0.389,0.279-0.805,0.313-1.23l1.214-0.176C25.599,18.457,25.516,17.908,25.349,17.378z M21.71,16.77
	c2.231,1.294,1.427,4.455-1.151,4.525c-0.333,0.009-0.667-0.076-0.955-0.243c-2.231-1.294-1.427-4.455,1.151-4.525
	C21.089,16.518,21.422,16.602,21.71,16.77z"/>
<path d="M25.349,3.525l-1.217,0.176c-0.075-0.196-0.164-0.389-0.275-0.576c-0.111-0.186-0.238-0.357-0.375-0.516l0.73-0.977
	c-0.183-0.206-0.387-0.391-0.613-0.56c-0.225-0.168-0.461-0.308-0.704-0.436l0,0l-0.736,0.985c-0.389-0.173-0.806-0.279-1.231-0.313
	l-0.176-1.216c-0.552-0.013-1.107,0.066-1.634,0.237l0.176,1.215c-0.196,0.075-0.389,0.164-0.576,0.275
	c-0.186,0.111-0.357,0.238-0.516,0.374l-0.983-0.735c-0.201,0.193-0.386,0.393-0.553,0.617c-0.169,0.227-0.311,0.463-0.434,0.707
	l0.982,0.734c-0.173,0.389-0.279,0.806-0.313,1.23l-1.216,0.176c-0.015,0.555,0.068,1.105,0.235,1.635l1.217-0.176
	c0.075,0.196,0.164,0.389,0.275,0.576c0.111,0.186,0.238,0.357,0.375,0.516l-0.733,0.98c0.188,0.202,0.39,0.388,0.615,0.556
	c0.225,0.169,0.464,0.307,0.701,0.441l0.001,0l0.739-0.989c0.389,0.173,0.806,0.279,1.231,0.313l0.176,1.216
	c0.552,0.013,1.107-0.066,1.634-0.237l-0.176-1.215c0.196-0.075,0.389-0.164,0.576-0.275c0.186-0.111,0.357-0.238,0.516-0.374
	l0.985,0.736l0,0c0.195-0.192,0.383-0.393,0.551-0.619c0.17-0.227,0.311-0.466,0.434-0.706l-0.982-0.734
	c0.173-0.389,0.279-0.805,0.313-1.23l1.214-0.176C25.599,4.604,25.516,4.054,25.349,3.525z M21.71,2.916
	c2.231,1.294,1.427,4.455-1.151,4.525c-0.333,0.009-0.667-0.076-0.955-0.243c-2.231-1.294-1.427-4.455,1.151-4.525
	C21.089,2.664,21.422,2.749,21.71,2.916z"/>
</svg>
