<?xml version="1.0" encoding="utf-8"?>
<!-- Generator: Adobe Illustrator 18.1.1, SVG Export Plug-In . SVG Version: 6.00 Build 0)  -->
<svg version="1.1" id="Layer_1" xmlns="http://www.w3.org/2000/svg" xmlns:xlink="http://www.w3.org/1999/xlink" x="0px" y="0px"
	 viewBox="0 0 24 24" enable-background="new 0 0 24 24" xml:space="preserve">
<path d="M14.9,21.4l5.7-5.7c0.1-0.1,0.3-0.3,0.5-0.5c0.3-0.3,0.3-0.8,0-1.1c-0.2-0.2-0.4-0.4-0.5-0.5l-8.6-8.6l1.4-1.3
	c0,0,1,1,1.3,1.3l8.6,8.6c0,0,0.1,0.1,0.1,0.1c0.5,0.6,0.5,1.4,0,2c0,0-0.1,0.1-0.1,0.1l-7,7L14.9,21.4z"/>
<path d="M17.9,13.6L9.2,4.9C8.9,4.6,8.5,4.4,8,4.2C7.5,4,7,3.8,6.6,3.8h-5c-0.4,0-1.1,0.5-1.1,0.5S0,5,0,5.4v5
	c0,0.4,0.1,0.9,0.3,1.4c0.2,0.5,0.5,0.9,0.8,1.2l8.6,8.7c0.1,0.1,0.2,0.2,0.3,0.3c0.5,0.4,1.2,0.4,1.7,0c0.1-0.1,0.2-0.2,0.3-0.3
	l5.9-5.9c0.1-0.1,0.1-0.1,0.2-0.2c0.5-0.5,0.5-1.2,0-1.7C18,13.7,17.9,13.6,17.9,13.6z M5,8.8C4.7,9.1,4.3,9.3,3.9,9.3
	S3.1,9.1,2.8,8.8C2.5,8.5,2.3,8.1,2.3,7.7c0-0.4,0.2-0.8,0.5-1.1c0.3-0.3,0.7-0.5,1.1-0.5S4.7,6.3,5,6.6c0.3,0.3,0.5,0.7,0.5,1.1
	C5.4,8.1,5.3,8.5,5,8.8z"/>
</svg>
