<?xml version="1.0" encoding="utf-8"?>
<!-- Generator: Adobe Illustrator 18.1.1, SVG Export Plug-In . SVG Version: 6.00 Build 0)  -->
<svg version="1.1" id="Layer_1" xmlns="http://www.w3.org/2000/svg" xmlns:xlink="http://www.w3.org/1999/xlink" x="0px" y="0px"
	 viewBox="0 0 24 24" enable-background="new 0 0 24 24" xml:space="preserve">
<g>
	<path d="M1.7,12.7c-0.4,0-0.7-0.3-0.7-0.7s0.3-0.7,0.7-0.7h1.7c0.4,0,0.7,0.3,0.7,0.7s-0.3,0.7-0.7,0.7H1.7z"/>
	<path d="M4.7,20.1c-0.2,0-0.4-0.1-0.5-0.2c-0.3-0.3-0.3-0.7,0-1l1.2-1.2c0.1-0.1,0.3-0.2,0.5-0.2c0.2,0,0.4,0.1,0.5,0.2
		c0.3,0.3,0.3,0.7,0,1l-1.2,1.2C5.1,20,4.9,20.1,4.7,20.1z"/>
	<path d="M6,6.6c-0.2,0-0.4-0.1-0.5-0.2L4.2,5.2C4,4.9,4,4.5,4.2,4.2C4.4,4.1,4.5,4,4.7,4s0.4,0.1,0.5,0.2l1.2,1.2
		c0.1,0.1,0.2,0.3,0.2,0.5c0,0.2-0.1,0.4-0.2,0.5C6.3,6.5,6.1,6.6,6,6.6z"/>
	<path d="M12.1,4.1c-0.4,0-0.7-0.3-0.7-0.7V1.6c0-0.4,0.3-0.7,0.7-0.7s0.7,0.3,0.7,0.7v1.7C12.8,3.8,12.5,4.1,12.1,4.1z"/>
	<path d="M18.2,6.6c-0.2,0-0.4-0.1-0.5-0.2c-0.1-0.1-0.2-0.3-0.2-0.5c0-0.2,0.1-0.4,0.2-0.5L19,4.2C19.1,4.1,19.3,4,19.5,4
		s0.4,0.1,0.5,0.2c0.3,0.3,0.3,0.7,0,1l-1.2,1.2C18.6,6.5,18.4,6.6,18.2,6.6z"/>
	<path d="M20.8,12.7c-0.4,0-0.7-0.3-0.7-0.7s0.3-0.7,0.7-0.7h1.7c0.4,0,0.7,0.3,0.7,0.7s-0.3,0.7-0.7,0.7H20.8z"/>
	<path d="M19.5,20.1c-0.2,0-0.4-0.1-0.5-0.2l-1.2-1.2c-0.1-0.1-0.2-0.3-0.2-0.5c0-0.2,0.1-0.4,0.2-0.5c0.1-0.1,0.3-0.2,0.5-0.2
		s0.4,0.1,0.5,0.2l1.2,1.2c0.3,0.3,0.3,0.7,0,1C19.8,20,19.7,20.1,19.5,20.1z"/>
	<path d="M12.1,23.2c-0.4,0-0.7-0.3-0.7-0.7v-1.7c0-0.4,0.3-0.7,0.7-0.7s0.7,0.3,0.7,0.7v1.7C12.8,22.9,12.5,23.2,12.1,23.2z"/>
	<path d="M12.1,18c-3.3,0-5.9-2.6-5.9-5.9s2.6-5.9,5.9-5.9S18,8.8,18,12.1S15.3,18,12.1,18z M11.8,7.7v8.8c0,0,0.2,0,0.2,0
		c2.6,0,4.6-2,4.6-4.5c0-2.5-2-4.5-4.5-4.5l-0.1,0h-0.2L11.8,7.7z"/>
</g>
</svg>
