<?xml version="1.0" encoding="utf-8"?>
<!-- Generator: Adobe Illustrator 18.1.1, SVG Export Plug-In . SVG Version: 6.00 Build 0)  -->
<svg version="1.1" id="Layer_1" xmlns="http://www.w3.org/2000/svg" xmlns:xlink="http://www.w3.org/1999/xlink" x="0px" y="0px"
	 viewBox="0 0 24 24" enable-background="new 0 0 24 24" xml:space="preserve">
<path d="M12,5.964l1.626,3.294l0.465,0.943l1.04,0.151l3.635,0.528l-2.63,2.564l-0.753,0.734l0.178,1.036l0.621,3.62l-3.251-1.709
	L12,16.636l-0.931,0.489l-3.251,1.709l0.621-3.62l0.178-1.036l-0.753-0.734l-2.63-2.564l3.635-0.528l1.04-0.151l0.465-0.943
	L12,5.964 M12,1.445L8.581,8.372L0.936,9.483l5.532,5.392L5.162,22.49L12,18.895l6.838,3.595l-1.306-7.614l5.532-5.392l-7.645-1.111
	L12,1.445L12,1.445z"/>
</svg>
