<?xml version="1.0" encoding="utf-8"?>
<!-- Generator: Adobe Illustrator 18.1.1, SVG Export Plug-In . SVG Version: 6.00 Build 0)  -->
<svg version="1.1" id="Layer_1" xmlns="http://www.w3.org/2000/svg" xmlns:xlink="http://www.w3.org/1999/xlink" x="0px" y="0px"
	 viewBox="0 0 512 512" enable-background="new 0 0 512 512" xml:space="preserve">
<path fill="#010101" d="M365.4,224.5c10,21.6,15.7,45.5,15.7,70.8c0,93.4-76,169.4-169.4,169.4c-93.4,0-169.4-76-169.4-169.4
	s76-169.4,169.4-169.4c25.3,0,49.2,5.7,70.8,15.7l31.5-31.5c-30.4-16.9-65.2-26.5-102.3-26.5C95,83.5,0,178.5,0,295.2
	S95,507,211.7,507s211.7-95,211.7-211.7c0-37.1-9.7-72-26.5-102.3L365.4,224.5z"/>
<g id="call-made_5_">
	<polygon fill="#010101" points="288,0 288,32 448,32 179.3,303.1 208.3,332.1 480,64 480,224 512,224 512,0 	"/>
</g>
</svg>
