<?xml version="1.0" encoding="utf-8"?>
<!-- Generator: Adobe Illustrator 18.1.1, SVG Export Plug-In . SVG Version: 6.00 Build 0)  -->
<svg version="1.1" id="Layer_1" xmlns="http://www.w3.org/2000/svg" xmlns:xlink="http://www.w3.org/1999/xlink" x="0px" y="0px"
	 viewBox="0 0 24 24" enable-background="new 0 0 24 24" xml:space="preserve">
<g>
	<path d="M20.94,7.667c0.014,0.188,0.014,0.375,0.014,0.562c0,5.721-4.353,12.312-12.312,12.312c-2.451,0-4.729-0.711-6.644-1.943
		c0.349,0.041,0.684,0.055,1.045,0.055c2.023,0,3.885-0.684,5.373-1.85c-1.902-0.041-3.497-1.287-4.047-3.002
		c0.268,0.041,0.536,0.068,0.817,0.068c0.389,0,0.777-0.055,1.14-0.148c-1.983-0.4-3.471-2.143-3.471-4.246c0-0.014,0-0.041,0-0.055
		C3.43,9.743,4.1,9.944,4.81,9.971C3.645,9.194,2.881,7.868,2.881,6.368c0-0.805,0.214-1.541,0.589-2.186
		c2.13,2.627,5.333,4.342,8.923,4.529c-0.066-0.322-0.107-0.656-0.107-0.992c0-2.385,1.93-4.326,4.328-4.326
		c1.246,0,2.371,0.521,3.16,1.365c0.979-0.188,1.916-0.549,2.748-1.045c-0.322,1.006-1.006,1.85-1.902,2.385
		c0.869-0.094,1.715-0.334,2.49-0.67C22.522,6.286,21.784,7.049,20.94,7.667z"/>
</g>
</svg>
