<?xml version="1.0" encoding="utf-8"?>
<!-- Generator: Adobe Illustrator 19.0.0, SVG Export Plug-In . SVG Version: 6.00 Build 0)  -->
<svg version="1.1" id="Layer_1" xmlns="http://www.w3.org/2000/svg" xmlns:xlink="http://www.w3.org/1999/xlink" x="0px" y="0px"
	 viewBox="0 0 24 24" enable-background="new 0 0 24 24" xml:space="preserve">
<g id="add-circle-outline_1_">
	<path d="M8.606,6.944L6.909,8.641l3.394,3.394l-3.394,3.394l1.697,1.697L12,13.732l3.394,3.394l1.697-1.697l-3.394-3.394
		l3.394-3.394l-1.697-1.697L12,10.338L8.606,6.944z M3.515,3.55c-4.667,4.667-4.667,12.304,0,16.971s12.304,4.667,16.971,0
		s4.667-12.304,0-16.971S8.182-1.117,3.515,3.55z M18.788,18.823c-3.734,3.734-9.843,3.734-13.576,0s-3.734-9.843,0-13.576
		s9.843-3.734,13.576,0S22.522,15.09,18.788,18.823z"/>
</g>
<g id="XMLID_1_">
</g>
<g id="XMLID_2_">
</g>
<g id="XMLID_3_">
</g>
<g id="XMLID_4_">
</g>
<g id="XMLID_5_">
</g>
<g id="XMLID_6_">
</g>
</svg>
