<?xml version="1.0" encoding="utf-8"?>
<!-- Generator: Adobe Illustrator 18.0.0, SVG Export Plug-In . SVG Version: 6.00 Build 0)  -->
<!DOCTYPE svg PUBLIC "-//W3C//DTD SVG 1.1//EN" "http://www.w3.org/Graphics/SVG/1.1/DTD/svg11.dtd">
<svg version="1.1" id="Layer_1" xmlns="http://www.w3.org/2000/svg" xmlns:xlink="http://www.w3.org/1999/xlink" x="0px" y="0px"
	 viewBox="0 0 24 24" enable-background="new 0 0 24 24" xml:space="preserve">
<path d="M22.475,11.077l0.009-0.002l-6.241-6.04l-0.003,0.002c-0.45-0.435-1.061-0.705-1.735-0.705
	c-0.838,0-1.574,0.416-2.028,1.048c-0.156-0.019-0.31-0.048-0.472-0.048c-0.162,0-0.315,0.029-0.472,0.048
	c-0.454-0.632-1.19-1.048-2.028-1.048c-0.675,0-1.285,0.271-1.735,0.705L7.766,5.035l-6.241,6.04l0.009,0.002
	c-0.939,0.908-1.529,2.177-1.529,3.588c0,2.764,2.239,5.003,5.003,5.003c2.349,0,4.307-1.63,4.841-3.818l0.351-1.364
	c0.319-0.68,1.005-1.153,1.806-1.153c0.801,0,1.486,0.474,1.806,1.153l0.351,1.364c0.534,2.188,2.492,3.818,4.841,3.818
	c2.764,0,5.003-2.239,5.003-5.003C24.004,13.254,23.414,11.985,22.475,11.077z M5.007,16.668c-1.105,0-2.003-0.898-2.003-2.003
	c0-1.101,0.898-1.997,2.003-1.997c1.102,0,1.997,0.896,1.997,1.997C7.004,15.769,6.108,16.668,5.007,16.668z M12.004,11.332
	c-0.373,0-0.728,0.068-1.071,0.164l0.999-4.065l-0.007-0.004c0.008-0.03,0.021-0.059,0.028-0.09c0.017,0,0.033-0.005,0.051-0.005
	c0.018,0,0.034,0.005,0.051,0.005c0.007,0.031,0.021,0.06,0.028,0.09l-0.007,0.004l0.999,4.065
	C12.732,11.4,12.377,11.332,12.004,11.332z M19.001,16.668c-1.102,0-1.997-0.898-1.997-2.003c0-1.101,0.896-1.997,1.997-1.997
	c1.104,0,2.003,0.896,2.003,1.997C21.004,15.769,20.105,16.668,19.001,16.668z"/>
</svg>
