<?xml version="1.0" encoding="utf-8"?>
<!-- Generator: Adobe Illustrator 18.1.1, SVG Export Plug-In . SVG Version: 6.00 Build 0)  -->
<svg version="1.1" id="Layer_1" xmlns="http://www.w3.org/2000/svg" xmlns:xlink="http://www.w3.org/1999/xlink" x="0px" y="0px"
	 viewBox="0 0 512 512" enable-background="new 0 0 512 512" xml:space="preserve">
<g id="visibility_1_">
	<path fill="#010101" d="M256.1,0C139.9,0,39.9,72.1,0.4,174.3c39.5,102.3,139.4,174.3,255.7,174.3s216.2-72.1,255.7-174.3
		C472.2,72.1,372.3,0,256.1,0z M256.1,290.5c-65.1,0-116.2-51.1-116.2-116.2S191,58.1,256.1,58.1s116.2,51.1,116.2,116.2
		S321.2,290.5,256.1,290.5z M256.1,104.6c-39.5,0-69.7,30.2-69.7,69.7s30.2,69.7,69.7,69.7s69.7-30.2,69.7-69.7
		S295.6,104.6,256.1,104.6z"/>
</g>
</svg>
