<?xml version="1.0" encoding="utf-8"?>
<!-- Generator: Adobe Illustrator 18.1.1, SVG Export Plug-In . SVG Version: 6.00 Build 0)  -->
<svg version="1.1" id="Layer_1" xmlns="http://www.w3.org/2000/svg" xmlns:xlink="http://www.w3.org/1999/xlink" x="0px" y="0px"
	 viewBox="0 0 24 24" enable-background="new 0 0 24 24" xml:space="preserve">
<g id="attachment_1_">
	<path d="M13.747,21.76c-2.795,2.795-7.453,2.795-10.247,0s-2.795-7.453,0-10.247l9.781-9.781c2.049-2.049,5.403-2.049,7.453,0
		s2.049,5.403,0,7.453l-7.918,7.918c-1.304,1.304-3.354,1.304-4.658,0s-1.304-3.354,0-4.658l6.987-6.987l1.397,1.397l-6.987,6.987
		c-0.559,0.559-0.559,1.304,0,1.863s1.304,0.559,1.863,0l7.918-7.918c1.304-1.304,1.304-3.354,0-4.658s-3.354-1.304-4.658,0
		L4.897,12.91c-2.049,2.049-2.049,5.403,0,7.453s5.403,2.049,7.453,0l8.85-8.85l1.397,1.397L13.747,21.76z"/>
</g>
</svg>
