<?xml version="1.0" encoding="utf-8"?>
<!-- Generator: Adobe Illustrator 18.1.1, SVG Export Plug-In . SVG Version: 6.00 Build 0)  -->
<svg version="1.1" id="Layer_1" xmlns="http://www.w3.org/2000/svg" xmlns:xlink="http://www.w3.org/1999/xlink" x="0px" y="0px"
	 viewBox="0 0 24 24" enable-background="new 0 0 24 24" xml:space="preserve">
<path d="M16.584-0.028H7.836c-1.509,0-2.734,1.225-2.734,2.734v18.589c0,1.509,1.225,2.734,2.734,2.734h8.748
	c1.509,0,2.734-1.225,2.734-2.734V2.705C19.318,1.196,18.093-0.028,16.584-0.028z M12.21,22.935c-0.908,0-1.64-0.733-1.64-1.64
	s0.733-1.64,1.64-1.64c0.908,0,1.64,0.733,1.64,1.64S13.117,22.935,12.21,22.935z M17.131,18.561H7.289V3.252h9.841V18.561z"/>
</svg>
