<?xml version="1.0" encoding="utf-8"?>
<!-- Generator: Adobe Illustrator 18.1.1, SVG Export Plug-In . SVG Version: 6.00 Build 0)  -->
<svg version="1.1" id="Layer_1" xmlns="http://www.w3.org/2000/svg" xmlns:xlink="http://www.w3.org/1999/xlink" x="0px" y="0px"
	 viewBox="0 0 512 512" enable-background="new 0 0 512 512" xml:space="preserve">
<g>
	<path fill="#010101" d="M488.3,38.9l-0.1-0.1c1.5-1.8,2.5-4.1,2.5-6.6c0-5.9-4.8-10.7-10.7-10.7c-2.5,0-4.8,1-6.6,2.5l-0.1-0.1
		L229,223.1l0.1,0.1c-9.6,7.8-15.9,19.6-15.9,32.9c0,23.6,19.1,42.7,42.7,42.7c13.4,0,25.1-6.3,32.9-15.9l0.1,0.1L488.3,38.9z"/>
	<circle fill="#010101" cx="256" cy="85.5" r="21.3"/>
	<circle fill="#010101" cx="85.3" cy="256.2" r="21.3"/>
	<circle fill="#010101" cx="134.4" cy="134.5" r="21.3"/>
	<circle fill="#010101" cx="426.7" cy="256.2" r="21.3"/>
	<path fill="#010101" d="M480.4,133.6l-29.5,36.2c0.7,1.6,1.6,3.1,2.2,4.7c21.8,52.6,21.8,110.5,0,163.1h45.3
		c19.8-58.7,18-121.7-5.9-179.5C489,149.7,484.8,141.5,480.4,133.6z"/>
	<path fill="#010101" d="M337.6,59c1.6,0.7,3.1,1.5,4.7,2.2l36.2-29.5c-8-4.4-16.1-8.6-24.6-12.1C290.8-6.6,221.2-6.5,158,19.6
		C94.9,45.8,45.7,95,19.5,158.2C-4.5,215.9-6.2,279,13.6,337.7h45.3c-21.8-52.6-21.8-110.5,0-163.2C80.7,121.9,121.7,80.9,174.3,59
		C227,37.3,285,37.3,337.6,59z"/>
</g>
</svg>
