<?xml version="1.0" encoding="utf-8"?>
<!-- Generator: Adobe Illustrator 18.1.1, SVG Export Plug-In . SVG Version: 6.00 Build 0)  -->
<svg version="1.1" id="Layer_1" xmlns="http://www.w3.org/2000/svg" xmlns:xlink="http://www.w3.org/1999/xlink" x="0px" y="0px"
	 viewBox="0 0 512 512" enable-background="new 0 0 512 512" xml:space="preserve">
<g>
	<g>
		<path fill="#010101" d="M198.4,300.2L54.6,370c-29.6,19-44.4,61.4-33.9,93.1l6.3,16.9h184.1L198.4,300.2z"/>
		<path fill="#010101" d="M312.7,300.2L456.6,370c29.6,19,44.4,61.4,33.9,93.1l-6.3,16.9H300L312.7,300.2z"/>
		<polygon fill="#010101" points="270.4,302.5 270.4,495.1 255.6,512 240.8,495.1 240.8,302.5 		"/>
	</g>
	<path fill="#010101" d="M259.8,128H384v-5.3C384,55,323.7,0,256,0S128,57.1,128,124.8c0,14.8,0,3.2,0,3.2H259.8z"/>
	<path fill="#010101" d="M150.2,160c4.2,55,48.7,97.3,105.8,97.3S357.6,215,361.8,160H150.2z"/>
</g>
</svg>
