<?xml version="1.0" encoding="utf-8"?>
<!-- Generator: Adobe Illustrator 19.2.0, SVG Export Plug-In . SVG Version: 6.00 Build 0)  -->
<svg version="1.1" id="Layer_1" xmlns="http://www.w3.org/2000/svg" xmlns:xlink="http://www.w3.org/1999/xlink" x="0px" y="0px"
	 viewBox="0 0 512 512" enable-background="new 0 0 512 512" xml:space="preserve">
<polygon fill="#010101" points="475.7,160 512,160 512,32 384,32 384,68.3 450.1,68.3 326.4,192 352,217.6 475.7,93.9 "/>
<g>
	<g>
		<path fill="#010101" d="M288,32H14.9C6.4,32,0,38.4,0,46.9v386.8c0,8.5,6.4,14.9,14.9,14.9h482.1c8.5,0,14.9-6.4,14.9-14.9V256
			h-32v160H32V64h256V32z"/>
	</g>
</g>
<rect x="96" y="320" fill="#010101" width="192" height="32"/>
<rect x="96" y="224" fill="#010101" width="192" height="32"/>
<rect x="96" y="128" fill="#010101" width="192" height="32"/>
</svg>
