<?xml version="1.0" encoding="utf-8"?>
<!-- Generator: Adobe Illustrator 18.1.1, SVG Export Plug-In . SVG Version: 6.00 Build 0)  -->
<svg version="1.1" id="Layer_1" xmlns="http://www.w3.org/2000/svg" xmlns:xlink="http://www.w3.org/1999/xlink" x="0px" y="0px"
	 viewBox="0 0 24 24" enable-background="new 0 0 24 24" xml:space="preserve">
<rect x="6.7" y="9.6" width="11" height="2.3"/>
<rect x="6.7" y="13.8" width="11" height="2.3"/>
<rect x="6.7" y="18.1" width="11" height="2.3"/>
<path d="M19.9,2.1h-4.6c-0.5-1.3-1.7-2.2-3.1-2.2S9.5,0.8,9,2.1H4.4c-1.2,0-2.2,1-2.2,2.2v17.8c0,1.2,1,2.2,2.2,2.2h15.5
	c1.2,0,2.2-1,2.2-2.2V4.3C22.1,3.1,21.2,2.1,19.9,2.1z M12.2,2.1c0.6,0,1.1,0.5,1.1,1.1s-0.5,1.1-1.1,1.1c-0.6,0-1.1-0.5-1.1-1.1
	S11.6,2.1,12.2,2.1z M19.9,22.1H4.4V4.3h2.2v3.3h11.1V4.3h2.2V22.1z"/>
</svg>
