<?xml version="1.0" encoding="utf-8"?>
<!-- Generator: Adobe Illustrator 18.1.1, SVG Export Plug-In . SVG Version: 6.00 Build 0)  -->
<svg version="1.1" id="Layer_1" xmlns="http://www.w3.org/2000/svg" xmlns:xlink="http://www.w3.org/1999/xlink" x="0px" y="0px"
	 viewBox="0 0 24 24" enable-background="new 0 0 24 24" xml:space="preserve">
<path d="M13.904,15.512c-0.315,0.859-0.811,1.667-1.5,2.356c-2.544,2.544-6.683,2.544-9.227,0c-2.544-2.544-2.544-6.683,0-9.227
	s6.683-2.544,9.227,0c0.689,0.689,1.185,1.497,1.501,2.357l1.718,0c-0.368-1.286-1.054-2.499-2.065-3.51
	c-3.18-3.18-8.354-3.18-11.534,0s-3.18,8.354,0,11.534c3.18,3.18,8.354,3.18,11.534,0c1.011-1.011,1.697-2.223,2.065-3.509
	L13.904,15.512z"/>
<g id="call-made_4_">
	<polygon points="18.341,7.722 17.211,8.853 20.942,12.584 6.694,12.584 6.694,14.168 20.942,14.168 17.211,17.899 18.341,19.03 
		23.996,13.376 	"/>
</g>
</svg>
