<svg id="Layer_1" data-name="Layer 1" xmlns="http://www.w3.org/2000/svg" viewBox="0 0 512 512"><defs><style>.cls-1,.cls-2{fill:#010101;}.cls-1{fill-rule:evenodd;}</style></defs><title>tearsheet</title><path class="cls-1" d="M420.93,429.25l-22.68-22.68L364,440.82l-1.31,1.31-1.31-1.31-34.26-34.25-34.25,34.26-1.31,1.31-1.31-1.31L256,406.57l-34.26,34.26-1.31,1.31-1.31-1.31-34.25-34.26-34.25,34.25-1.31,1.31L148,440.82l-34.26-34.26L91.07,429.25v-381H420.93v381h0ZM442.54-.21H69.46A26.91,26.91,0,0,0,42.63,26.62V475.08l35.56,35.56,35.56-35.56,35.56,35.56,35.56-35.56,35.56,35.56L256,475.08l35.56,35.56,35.56-35.56,35.56,35.56,35.56-35.56,35.56,35.56,35.56-35.56V26.62A26.91,26.91,0,0,0,442.54-.21h0Z"/><rect class="cls-2" x="132.76" y="108.97" width="246.47" height="50.66"/><rect class="cls-2" x="132.76" y="204.23" width="246.47" height="50.66"/><rect class="cls-2" x="132.76" y="299.48" width="246.47" height="50.66"/></svg>