<?xml version="1.0" encoding="utf-8"?>
<!-- Generator: Adobe Illustrator 18.1.1, SVG Export Plug-In . SVG Version: 6.00 Build 0)  -->
<svg version="1.1" id="Layer_1" xmlns="http://www.w3.org/2000/svg" xmlns:xlink="http://www.w3.org/1999/xlink" x="0px" y="0px"
	 viewBox="0 0 24 24" enable-background="new 0 0 24 24" xml:space="preserve">
<path d="M12.3,22.9c-3,0-5.8-1.2-7.9-3.3c-2.1-2.1-3.3-4.9-3.3-7.9c0-3,1.2-5.8,3.3-7.9c1.2-1.2,2.6-2,4.2-2.6c0.1,0,0.2,0,0.2,0
	c0.2,0,0.4,0.1,0.5,0.2c0.2,0.2,0.3,0.5,0.2,0.7c-1.3,3.6-0.4,7.5,2.3,10.2c1.8,1.8,4.3,2.8,6.9,2.8c1.1,0,2.2-0.2,3.3-0.6
	c0.1,0,0.2,0,0.2,0c0.2,0,0.4,0.1,0.5,0.2c0.2,0.2,0.3,0.5,0.2,0.7c-0.6,1.6-1.5,3-2.6,4.2C18.1,21.7,15.3,22.9,12.3,22.9z M6.2,4
	C5.9,4.3,5.7,4.5,5.4,4.8c-1.8,1.8-2.9,4.3-2.9,6.9c0,2.6,1,5.1,2.9,6.9c1.8,1.8,4.3,2.8,6.9,2.8c3,0,5.8-1.3,7.7-3.7l1.1-1.4
	l-1.7,0.1c-0.2,0-0.5,0-0.7,0c-3,0-5.8-1.2-7.9-3.3C8.5,11,7.3,7.9,7.5,4.7L7.6,3L6.2,4z"/>
</svg>
