<?xml version="1.0" encoding="utf-8"?>
<!-- Generator: Adobe Illustrator 18.1.1, SVG Export Plug-In . SVG Version: 6.00 Build 0)  -->
<svg version="1.1" id="Layer_1" xmlns="http://www.w3.org/2000/svg" xmlns:xlink="http://www.w3.org/1999/xlink" x="0px" y="0px"
	 viewBox="0 0 24 24" enable-background="new 0 0 24 24" xml:space="preserve">
<g>
	<path d="M23.595,14.577c-1.33,5.531-5.891,9.391-11.658,9.391c-3.046,0-6-1.203-8.219-3.312L1.704,22.67
		c-0.188,0.188-1.673,1.579-1.673,1.579S0,22.514,0,21.967v-8h8c0.547,0,2.343,0,2.343,0s-1.452,1.516-1.642,1.703l-2.139,2.141
		c1.47,1.375,3.422,2.156,5.438,2.156c2.781,0,5.36-1.438,6.81-3.812c0.451-0.725,0.63-1.43,0.99-2.188l0,0l3.309,0
		c0.28,0,0.64,0.016,0.64,0.016S23.608,14.546,23.595,14.577z M24,9.967h-8c-0.547,0-2.344,0-2.344,0s1.454-1.516,1.643-1.703
		l2.154-2.157c-1.485-1.374-3.438-2.14-5.453-2.14c-2.781,0-5.36,1.438-6.811,3.812c-0.451,0.725-0.629,1.43-0.99,2.188l-3.418,0
		c-0.28,0-0.642-0.016-0.642-0.016s0.143-0.563,0.143-0.594C1.626,3.811,6.234-0.033,12-0.033c3.061,0,6.046,1.219,8.265,3.312
		l2.031-2.015C22.483,1.077,24-0.314,24-0.314s0,1.734,0,2.281V9.967z"/>
</g>
</svg>
