<?xml version="1.0" encoding="utf-8"?>
<!-- Generator: Adobe Illustrator 18.1.1, SVG Export Plug-In . SVG Version: 6.00 Build 0)  -->
<svg version="1.1" id="Layer_1" xmlns="http://www.w3.org/2000/svg" xmlns:xlink="http://www.w3.org/1999/xlink" x="0px" y="0px"
	 viewBox="0 0 24 24" enable-background="new 0 0 24 24" xml:space="preserve">
<g>
	<path d="M12.1,24c-6.6,0-12-5.4-12-12s5.4-12,12-12s12,5.4,12,12S18.7,24,12.1,24z M12.1,1.9C6.4,1.9,1.9,6.4,1.9,12.1
		s4.6,10.2,10.2,10.2c5.6,0,10.2-4.6,10.2-10.2S17.7,1.9,12.1,1.9z"/>
</g>
<path d="M18.2,11.3c-0.3-2.8-2.6-5.1-5.4-5.4V4.6h-1.4V6c-2.8,0.3-5.1,2.6-5.4,5.4H4.7v1.4h1.4c0.3,2.8,2.6,5.1,5.4,5.4v1.4h1.4
	v-1.4c2.8-0.3,5.1-2.6,5.4-5.4h1.4v-1.4H18.2z M16.9,11.3h-2.1c-0.3-1-1-1.7-2-1.9V7.3C14.9,7.6,16.6,9.3,16.9,11.3z M11.5,7.3v2.1
	c-0.9,0.3-1.7,1-1.9,1.9H7.5C7.8,9.3,9.4,7.6,11.5,7.3z M7.5,12.7h2.1c0.2,0.9,1,1.7,1.9,1.9v2.1C9.4,16.4,7.8,14.8,7.5,12.7z
	 M12.8,16.7v-2.1c1-0.2,1.7-1,2-2h2.1C16.6,14.8,14.9,16.4,12.8,16.7z"/>
</svg>
