<?xml version="1.0" encoding="UTF-8" standalone="no"?>
<svg width="36px" height="36px" viewBox="0 0 36 36" version="1.1" xmlns="http://www.w3.org/2000/svg" xmlns:xlink="http://www.w3.org/1999/xlink" xmlns:sketch="http://www.bohemiancoding.com/sketch/ns">
    <!-- Generator: Sketch 3.3.2 (12043) - http://www.bohemiancoding.com/sketch -->
    <title>checked_add</title>
    <desc>Created with Sketch.</desc>
    <defs></defs>
    <g id="Page-1" stroke="none" stroke-width="1" fill="none" fill-rule="evenodd" sketch:type="MSPage">
        <g id="checked_add" sketch:type="MSLayerGroup" transform="translate(-6.000000, -6.000000)">
            <path d="M21.5,22 L13,22 L13,27 L21.5,27 L21.5,35.5 L26.5,35.5 L26.5,27 L35,27 L35,22 L26.5,22 L26.5,13.5 L21.5,13.5 L21.5,22 Z M38,6 L10,6 C7.79,6 6,7.79 6,10 L6,38 C6,40.21 7.79,42 10,42 L38,42 C40.21,42 42,40.21 42,38 L42,10 C42,7.79 40.21,6 38,6 Z" id="Shape" fill="#000000" sketch:type="MSShapeGroup"></path>
            <path d="M0,0 L48,0 L48,48 L0,48 L0,0 Z" id="Shape" sketch:type="MSShapeGroup"></path>
        </g>
    </g>
</svg>