<?xml version="1.0" encoding="utf-8"?>
<!-- Generator: Adobe Illustrator 18.1.1, SVG Export Plug-In . SVG Version: 6.00 Build 0)  -->
<svg version="1.1" id="Layer_1" xmlns="http://www.w3.org/2000/svg" xmlns:xlink="http://www.w3.org/1999/xlink" x="0px" y="0px"
	 viewBox="0 0 512 512" enable-background="new 0 0 512 512" xml:space="preserve">
<path fill="#010101" d="M480.2,168l0.2,0L346.8,15.1l-0.1,0C337.1,5.8,324,0,309.5,0c-17.9,0-33.7,8.9-43.4,22.4
	c-3.3-0.4-6.6-1-10.1-1c-3.5,0-6.7,0.6-10.1,1C236.2,8.9,220.4,0,202.5,0c-14.5,0-27.5,5.8-37.2,15.1l-0.1,0L31.6,168l0.2,0
	C11.6,187.5-1,214.6-1,244.9C-1,304,47,352,106.1,352c50.3,0,92.2-34.9,103.7-81.8l7.5-29.2c6.8-14.6,21.5-48.2,38.7-48.2
	s31.8,33.7,38.7,48.2l7.5,29.2c11.4,46.9,53.4,81.8,103.7,81.8c59.2,0,107.1-48,107.1-107.1C513,214.6,500.3,187.5,480.2,168z
	 M106.1,287.8c-23.7,0-42.9-19.2-42.9-42.9c0-23.6,19.2-42.8,42.9-42.8c23.6,0,42.8,19.2,42.8,42.8
	C148.9,268.5,129.7,287.8,106.1,287.8z M256,149.9c-8,0-15.6,1.5-22.9,3.5l21.4-87.1l-0.1-0.1c0.2-0.6,0.4-1.3,0.6-1.9
	c0.4,0,0.7-0.1,1.1-0.1c0.4,0,0.7,0.1,1.1,0.1c0.1,0.7,0.4,1.3,0.6,1.9l-0.1,0.1l21.4,87.1C271.6,151.4,264,149.9,256,149.9z
	 M405.8,287.8c-23.6,0-42.8-19.2-42.8-42.9c0-23.6,19.2-42.8,42.8-42.8c23.6,0,42.9,19.2,42.9,42.8
	C448.7,268.5,429.5,287.8,405.8,287.8z"/>
</svg>
