<?xml version="1.0" encoding="utf-8"?>
<!-- Generator: Adobe Illustrator 18.1.1, SVG Export Plug-In . SVG Version: 6.00 Build 0)  -->
<svg version="1.1" id="Layer_1" xmlns="http://www.w3.org/2000/svg" xmlns:xlink="http://www.w3.org/1999/xlink" x="0px" y="0px"
	 viewBox="0 0 25.723 24" enable-background="new 0 0 25.723 24" xml:space="preserve">
<g>
	<path d="M20.578,21.399H6.002C2.693,21.399,0,18.707,0,15.397c0-2.331,1.354-4.448,3.457-5.426C3.443,9.77,3.43,9.583,3.43,9.395
		c0-3.791,3.068-6.859,6.859-6.859c2.787,0,5.293,1.688,6.352,4.261c0.615-0.536,1.406-0.831,2.223-0.831
		c1.889,0,3.43,1.541,3.43,3.43c0,0.656-0.188,1.3-0.549,1.849c2.332,0.55,3.979,2.626,3.979,5.011
		C25.723,19.094,23.418,21.399,20.578,21.399z M16.721,12.825h-3.002V7.68h-3.43v5.145h-3l-1.088-0.012l0.779,0.75l4.715,4.716
		l0.309,0.33l0.309-0.33l4.703-4.703l0.751-0.747L16.721,12.825z"/>
</g>
</svg>
