<?xml version="1.0" encoding="utf-8"?>
<!-- Generator: Adobe Illustrator 18.1.1, SVG Export Plug-In . SVG Version: 6.00 Build 0)  -->
<svg version="1.1" id="Layer_1" xmlns="http://www.w3.org/2000/svg" xmlns:xlink="http://www.w3.org/1999/xlink" x="0px" y="0px"
	 viewBox="0 0 512 512" enable-background="new 0 0 512 512" xml:space="preserve">
<g>
	<path fill="#231F20" d="M128,128c0,70.4,57.6,128,128,128c70.4,0,128-57.6,128-128c0-70.4-57.6-128-128-128
		C185.6,0,128,57.6,128,128z M256,37.2c50.1,0,90.8,40.7,90.8,90.8c0,50.1-40.7,90.8-90.8,90.8s-90.8-40.7-90.8-90.8
		C165.2,77.9,205.9,37.2,256,37.2z M256,363.5c105.4,0,212.4,49.1,212.4,84.5v20.5H43.5V448C43.5,412.7,150.6,363.5,256,363.5z
		 M256,320C169.6,320,0,361.6,0,448v64h511.9v-64C511.9,361.6,342.4,320,256,320z"/>
</g>
</svg>
