<?xml version="1.0" encoding="utf-8"?>
<!-- Generator: Adobe Illustrator 18.1.1, SVG Export Plug-In . SVG Version: 6.00 Build 0)  -->
<svg version="1.1" id="Layer_1" xmlns="http://www.w3.org/2000/svg" xmlns:xlink="http://www.w3.org/1999/xlink" x="0px" y="0px"
	 viewBox="0 0 24 24" enable-background="new 0 0 24 24" xml:space="preserve">
<path d="M21,1.967c-1.657,0-3,1.343-3,3c0,0.493,0.131,0.952,0.341,1.362l-3.204,4.985c-0.046-0.002-0.09-0.014-0.137-0.014
	c-0.399,0-0.778,0.082-1.127,0.223l-1.913-1.488C11.977,9.903,12,9.772,12,9.634c0-1.657-1.343-3-3-3c-1.657,0-3,1.343-3,3
	c0,0.507,0.138,0.979,0.36,1.398l-3.097,4.962C3.176,15.986,3.09,15.967,3,15.967c-1.657,0-3,1.343-3,3s1.343,3,3,3
	c1.657,0,3-1.343,3-3c0-0.446-0.104-0.866-0.278-1.247l3.18-5.097c0.034,0.001,0.065,0.01,0.099,0.01
	c0.399,0,0.778-0.082,1.127-0.223l1.913,1.488C12.022,14.032,12,14.163,12,14.301c0,1.657,1.343,3,3,3c1.657,0,3-1.343,3-3
	c0-0.493-0.131-0.952-0.341-1.362l3.204-4.985C20.91,7.956,20.953,7.967,21,7.967c1.657,0,3-1.343,3-3S22.657,1.967,21,1.967z"/>
</svg>
