<?xml version="1.0" encoding="utf-8"?>
<!-- Generator: Adobe Illustrator 18.1.1, SVG Export Plug-In . SVG Version: 6.00 Build 0)  -->
<svg version="1.1" id="Layer_1" xmlns="http://www.w3.org/2000/svg" xmlns:xlink="http://www.w3.org/1999/xlink" x="0px" y="0px"
	 viewBox="0 0 24 24" enable-background="new 0 0 24 24" xml:space="preserve">
<g>
	<path d="M12.2,24.2c-6.6,0-12-5.4-12-12s5.4-12,12-12s12,5.4,12,12S18.8,24.2,12.2,24.2z M12.2,2C6.5,2,2,6.6,2,12.2
		s4.6,10.2,10.2,10.2c5.6,0,10.2-4.6,10.2-10.2S17.8,2,12.2,2z"/>
</g>
<g>
	<path d="M10.9,12.6l-3.4,1.7c-0.7,0.5-1.1,1.5-0.8,2.2l0.1,0.4l4.4,0L10.9,12.6z"/>
	<path d="M13.7,12.6l3.4,1.7c0.7,0.5,1.1,1.5,0.8,2.2l-0.1,0.4l-4.4,0L13.7,12.6z"/>
	<polygon points="12.6,12.6 12.6,17.2 12.3,17.5 11.9,17.2 11.9,12.6 	"/>
</g>
<path d="M12.4,8.8l2.9,0l0-0.5c0-1.6-1.3-2.9-2.9-2.9S9.5,6.7,9.5,8.3c0,0.4,0,0.5,0,0.5H12.4z"/>
<path d="M9.9,9.4c0.1,1.3,1.2,2.3,2.5,2.3s2.4-1,2.5-2.3H9.9z"/>
</svg>
