<?xml version="1.0" encoding="utf-8"?>
<!-- Generator: Adobe Illustrator 18.1.1, SVG Export Plug-In . SVG Version: 6.00 Build 0)  -->
<svg version="1.1" id="Layer_1" xmlns="http://www.w3.org/2000/svg" xmlns:xlink="http://www.w3.org/1999/xlink" x="0px" y="0px"
	 viewBox="0 0 24 24" enable-background="new 0 0 24 24" xml:space="preserve">
<path d="M16.952,10.663c0.458,0.989,0.72,2.085,0.72,3.245c0,4.282-3.484,7.765-7.765,7.765c-4.282,0-7.765-3.484-7.765-7.765
	s3.484-7.765,7.765-7.765c1.16,0,2.257,0.263,3.247,0.72l1.446-1.446c-1.392-0.773-2.991-1.216-4.692-1.216
	c-5.352,0-9.707,4.355-9.707,9.707s4.355,9.707,9.707,9.707c5.352,0,9.707-4.355,9.707-9.707c0-1.701-0.443-3.3-1.215-4.691
	L16.952,10.663z"/>
<g id="call-made_5_">
	<polygon points="14.13,0.373 14.13,2.276 20.411,2.276 8.419,14.268 9.752,15.6 21.743,3.608 21.743,9.89 23.647,9.89 
		23.647,0.373 	"/>
</g>
</svg>
