<?xml version="1.0" encoding="utf-8"?>
<!-- Generator: Adobe Illustrator 18.1.1, SVG Export Plug-In . SVG Version: 6.00 Build 0)  -->
<svg version="1.1" id="Layer_1" xmlns="http://www.w3.org/2000/svg" xmlns:xlink="http://www.w3.org/1999/xlink" x="0px" y="0px"
	 viewBox="0 0 44 44" enable-background="new 0 0 44 44" xml:space="preserve">
<path d="M40.3,9.3L40.3,9.3L28.9,0l0,0l0,0h-0.5h-2.6h-0.6h-6.2h-4.6H9.1C7.2,0,5.7,1.5,5.7,3.3v37.3c0,1.8,1.5,3.3,3.3,3.3H37
	c1.8,0,3.3-1.5,3.3-3.3L40.3,9.3L40.3,9.3z M35.8,38.8c0,0.4-0.3,0.7-0.7,0.7H10.9c-0.4,0-0.7-0.3-0.7-0.7V12h17.6v0l1.9,0h6.2V38.8
	z M28.3,9.4l0.1-6.8l8.8,6.8H28.3z"/>
<rect x="14.3" y="16.5" width="17.6" height="4.5"/>
<rect x="14.3" y="23.7" width="17.6" height="4.5"/>
<rect x="14.3" y="31.1" width="17.6" height="4.5"/>
</svg>
