<?xml version="1.0" encoding="utf-8"?>
<!-- Generator: Adobe Illustrator 18.1.1, SVG Export Plug-In . SVG Version: 6.00 Build 0)  -->
<svg version="1.1" id="Layer_1" xmlns="http://www.w3.org/2000/svg" xmlns:xlink="http://www.w3.org/1999/xlink" x="0px" y="0px"
	 viewBox="0 0 512 512" enable-background="new 0 0 512 512" xml:space="preserve">
<g>
	<path fill="#010101" d="M455.2,511.5c31.3,0,56.8-25.5,56.8-56.8V56.8C512,25.6,486.4,0,455.2,0H57.3C26.1,0,0.5,25.6,0.5,56.8
		v397.8c0,31.3,25.6,56.8,56.8,56.8H455.2z"/>
</g>
<g>
	<path fill="#FFFFFF" d="M412.2,182.2c0.2,3.2,0.2,6.4,0.2,9.5c0,97-73.8,208.7-208.7,208.7c-41.5,0-80.1-12-112.6-32.9
		c5.9,0.7,11.6,0.9,17.7,0.9c34.3,0,65.8-11.6,91.1-31.4c-32.2-0.7-59.3-21.8-68.6-50.9c4.5,0.7,9.1,1.2,13.8,1.2
		c6.6,0,13.2-0.9,19.3-2.5c-33.6-6.8-58.8-36.3-58.8-72c0-0.2,0-0.7,0-0.9c9.7,5.5,21.1,8.9,33.1,9.3
		c-19.7-13.2-32.7-35.6-32.7-61.1c0-13.6,3.6-26.1,10-37c36.1,44.5,90.4,73.6,151.2,76.8c-1.1-5.5-1.8-11.1-1.8-16.8
		c0-40.4,32.7-73.3,73.3-73.3c21.1,0,40.2,8.8,53.6,23.1c16.6-3.2,32.5-9.3,46.6-17.7c-5.5,17-17,31.4-32.2,40.4
		c14.7-1.6,29.1-5.7,42.2-11.4C439,158.8,426.5,171.7,412.2,182.2z"/>
</g>
</svg>
