<?xml version="1.0" encoding="utf-8"?>
<!-- Generator: Adobe Illustrator 18.1.1, SVG Export Plug-In . SVG Version: 6.00 Build 0)  -->
<svg version="1.1" id="Layer_1" xmlns="http://www.w3.org/2000/svg" xmlns:xlink="http://www.w3.org/1999/xlink" x="0px" y="0px"
	 viewBox="0 0 24 24" enable-background="new 0 0 24 24" xml:space="preserve">
<g id="expand-more_10_">
	<polygon points="5.3,6.6 8.1,9.4 5.3,12.1 6.2,13 9.8,9.4 6.2,5.8 	"/>
</g>
<g id="expand-more_9_">
	<polygon points="8.7,6.6 11.5,9.4 8.7,12.1 9.5,13 13.2,9.4 9.5,5.8 	"/>
</g>
<g id="search_2_">
	<path d="M16.8,15.5h-1.1l-0.4-0.4c1.3-1.5,2.1-3.5,2.1-5.6c0-4.8-3.9-8.7-8.7-8.7S0.1,4.7,0.1,9.5s3.9,8.7,8.7,8.7
		c2.1,0,4.1-0.8,5.6-2.1l0.4,0.4v1.1l6.7,6.7l2-2L16.8,15.5z M8.7,15.5c-3.3,0-6-2.7-6-6s2.7-6,6-6s6,2.7,6,6S12.1,15.5,8.7,15.5z"
		/>
</g>
</svg>
