<?xml version="1.0" encoding="utf-8"?>
<!-- Generator: Adobe Illustrator 18.1.1, SVG Export Plug-In . SVG Version: 6.00 Build 0)  -->
<svg version="1.1" id="Layer_1" xmlns="http://www.w3.org/2000/svg" xmlns:xlink="http://www.w3.org/1999/xlink" x="0px" y="0px"
	 viewBox="0 0 24 24" enable-background="new 0 0 24 24" xml:space="preserve">
<g>
	<path d="M12,23.2c-0.4,0-0.7-0.3-0.7-0.7v-1.7c0-0.4,0.3-0.7,0.7-0.7s0.7,0.3,0.7,0.7v1.7C12.7,22.9,12.4,23.2,12,23.2z M4.6,20.1
		c-0.2,0-0.4-0.1-0.5-0.2c-0.1-0.1-0.2-0.3-0.2-0.5c0-0.2,0.1-0.4,0.2-0.5l1.2-1.2c0.1-0.1,0.3-0.2,0.5-0.2s0.4,0.1,0.5,0.2
		c0.3,0.3,0.3,0.7,0,1l-1.2,1.2C5,20,4.8,20.1,4.6,20.1z M19.4,20.1c-0.2,0-0.4-0.1-0.5-0.2l-1.2-1.2c-0.1-0.1-0.2-0.3-0.2-0.5
		c0-0.2,0.1-0.4,0.2-0.5c0.1-0.1,0.3-0.2,0.5-0.2s0.4,0.1,0.5,0.2l1.2,1.2c0.3,0.3,0.3,0.7,0,1C19.7,20,19.6,20.1,19.4,20.1z M12,18
		c-3.3,0-5.9-2.6-5.9-5.9S8.7,6.2,12,6.2s5.9,2.6,5.9,5.9S15.3,18,12,18z M12,7.5c-2.5,0-4.5,2-4.5,4.5c0,2.5,2,4.5,4.5,4.5
		s4.5-2,4.5-4.5C16.5,9.6,14.5,7.5,12,7.5z M20.7,12.7c-0.4,0-0.7-0.3-0.7-0.7s0.3-0.7,0.7-0.7h1.7c0.4,0,0.7,0.3,0.7,0.7
		s-0.3,0.7-0.7,0.7H20.7z M1.6,12.7c-0.4,0-0.7-0.3-0.7-0.7s0.3-0.7,0.7-0.7h1.7c0.4,0,0.7,0.3,0.7,0.7s-0.3,0.7-0.7,0.7H1.6z
		 M18.1,6.6c-0.2,0-0.4-0.1-0.5-0.2c-0.3-0.3-0.3-0.7,0-1l1.2-1.2C19,4.1,19.2,4,19.4,4c0.2,0,0.4,0.1,0.5,0.2
		c0.1,0.1,0.2,0.3,0.2,0.5c0,0.2-0.1,0.4-0.2,0.5l-1.2,1.2C18.5,6.5,18.3,6.6,18.1,6.6z M5.9,6.6c-0.2,0-0.4-0.1-0.5-0.2L4.1,5.2
		C4,5,3.9,4.9,3.9,4.7c0-0.2,0.1-0.4,0.2-0.5C4.3,4.1,4.4,4,4.6,4C4.8,4,5,4.1,5.1,4.2l1.2,1.2c0.3,0.3,0.3,0.7,0,1
		C6.2,6.5,6,6.6,5.9,6.6z M12,4.1c-0.4,0-0.7-0.3-0.7-0.7V1.6c0-0.4,0.3-0.7,0.7-0.7s0.7,0.3,0.7,0.7v1.7C12.7,3.8,12.4,4.1,12,4.1z
		"/>
</g>
</svg>
