<?xml version="1.0" encoding="utf-8"?>
<!-- Generator: Adobe Illustrator 19.1.0, SVG Export Plug-In . SVG Version: 6.00 Build 0)  -->
<svg version="1.1" id="Layer_1" xmlns="http://www.w3.org/2000/svg" xmlns:xlink="http://www.w3.org/1999/xlink" x="0px" y="0px"
	 viewBox="0 0 512 512" enable-background="new 0 0 512 512" xml:space="preserve">
<path id="XMLID_35_" fill="#010101" d="M218.4,199.6l140.8,0.4l0.4-163.8c0-19.7-16.1-35.9-35.8-36L36.6-0.5
	c-19.7,0-35.9,16.1-36,35.8L0,254.5c0,19.7,16.1,35.9,35.8,36l182.3,0.5L218.4,199.6z M36.5,35.4l143.4,90.1l143.8-89.4L323.6,72
	l0,0l-143.8,89.4L36.4,71.3L36.5,35.4z"/>
<polygon id="XMLID_32_" fill="#010101" points="395.6,260.7 389.4,229.1 247.4,228.8 246.7,496.9 278.3,497 278.6,386.6 
	366.9,386.8 373.1,418.4 483.5,418.6 483.9,260.9 "/>
</svg>
