<?xml version="1.0" encoding="UTF-8" standalone="no"?>
<svg width="14px" height="14px" viewBox="0 0 14 14" version="1.1" xmlns="http://www.w3.org/2000/svg" xmlns:xlink="http://www.w3.org/1999/xlink" xmlns:sketch="http://www.bohemiancoding.com/sketch/ns">
    <!-- Generator: Sketch 3.3.2 (12043) - http://www.bohemiancoding.com/sketch -->
    <title>Shape Copy 10</title>
    <desc>Created with Sketch.</desc>
    <defs></defs>
    <g id="ATS-Job-Overview" stroke="none" stroke-width="1" fill="none" fill-rule="evenodd" sketch:type="MSPage">
        <g id="Job-Overview---CP+T-/-CB" sketch:type="MSArtboardGroup" transform="translate(-374.000000, -394.000000)" fill="#0076FF">
            <g id="publish-copy-4" sketch:type="MSLayerGroup" transform="translate(148.000000, 114.500000)">
                <g id="all-controls" transform="translate(0.000000, 0.302734)" sketch:type="MSShapeGroup">
                    <g id="indeed" transform="translate(0.500000, 260.197266)">
                        <path d="M237.131736,21.4582398 C235.986458,20.3076842 234.413681,19.5951842 232.661458,19.5951842 C229.162292,19.5951842 226.328125,22.4293509 226.328125,25.9285175 C226.328125,29.4276842 229.162292,32.2618509 232.661458,32.2618509 C235.796458,32.2618509 238.387847,29.9765731 238.894514,26.9840731 L237.290069,26.9840731 C236.809792,29.100462 234.920347,30.6785175 232.661458,30.6785175 C230.038403,30.6785175 227.911458,28.5515731 227.911458,25.9285175 C227.911458,23.305462 230.038403,21.1785175 232.661458,21.1785175 C233.975625,21.1785175 235.147292,21.7221287 236.007569,22.5824064 L233.717014,24.872962 L238.994792,24.872962 L238.994792,19.5951842 L237.131736,21.4582398 L237.131736,21.4582398 Z" id="Shape-Copy-10"></path>
                    </g>
                </g>
            </g>
        </g>
    </g>
</svg>