<?xml version="1.0" encoding="utf-8"?>
<!-- Generator: Adobe Illustrator 18.1.1, SVG Export Plug-In . SVG Version: 6.00 Build 0)  -->
<svg version="1.1" id="Layer_1" xmlns="http://www.w3.org/2000/svg" xmlns:xlink="http://www.w3.org/1999/xlink" x="0px" y="0px"
	 viewBox="0 0 24 24" enable-background="new 0 0 24 24" xml:space="preserve">
<g>
	<path d="M16.983,18.648c-3.24,2.477-7.815,2.237-10.787-0.735c-2.91-2.91-3.16-7.483-0.748-10.726L2.953,4.692
		c-3.908,4.573-3.575,11.391,0.748,15.715c4.305,4.305,11.188,4.554,15.795,0.754L16.983,18.648z"/>
	<path d="M18.603,17.017l2.509,2.509c2.157-2.636,2.992-5.979,2.545-9.262l-3.409,0.915C20.458,13.217,19.888,15.311,18.603,17.017z
		"/>
	<path d="M4.616,3.029L7.11,5.524c3.243-2.411,7.816-2.162,10.726,0.748c0.748,0.748,1.247,1.58,1.663,2.494l3.409-0.915
		c-0.499-1.497-1.414-2.91-2.661-4.157C16.007-0.546,9.272-0.795,4.616,3.029z"/>
</g>
</svg>
