<?xml version="1.0" encoding="utf-8"?>
<!-- Generator: Adobe Illustrator 18.1.1, SVG Export Plug-In . SVG Version: 6.00 Build 0)  -->
<svg version="1.1" id="Layer_1" xmlns="http://www.w3.org/2000/svg" xmlns:xlink="http://www.w3.org/1999/xlink" x="0px" y="0px"
	 viewBox="0 0 512 512" enable-background="new 0 0 512 512" xml:space="preserve">
<g id="expand-more_10_">
	<polygon fill="#010101" points="112.6,131.4 173.3,192 112.6,250.5 132.1,270 210.1,192 132.1,114 	"/>
</g>
<g id="expand-more_9_">
	<polygon fill="#010101" points="186.3,131.4 246.9,192 186.3,250.5 203.6,270 283.8,192 203.6,114 	"/>
</g>
<g id="search_1_">
	<path fill="#010101" d="M365.5,321.7h-23.4l-8.8-8.8c29.2-32.2,46.8-76,46.8-122.8C380.1,84.8,295.3,0,190.1,0S0,84.8,0,190.1
		s84.8,190.1,190.1,190.1c46.8,0,90.7-17.6,122.8-46.8l8.8,8.8v23.4l146.2,146.2l43.9-43.9L365.5,321.7z M190.1,321.7
		c-73.1,0-131.6-58.5-131.6-131.6S117,58.5,190.1,58.5S321.7,117,321.7,190.1S263.2,321.7,190.1,321.7z"/>
</g>
</svg>
