<?xml version="1.0" encoding="utf-8"?>
<!-- Generator: Adobe Illustrator 18.1.1, SVG Export Plug-In . SVG Version: 6.00 Build 0)  -->
<svg version="1.1" id="Layer_1" xmlns="http://www.w3.org/2000/svg" xmlns:xlink="http://www.w3.org/1999/xlink" x="0px" y="0px"
	 viewBox="0 0 24 24" enable-background="new 0 0 24 24" xml:space="preserve">
<path d="M21.2,5.1L21.2,5.1L15,0l0,0l0,0h-0.3h-1.4h-0.3H9.5H7H4.2c-1,0-1.8,0.8-1.8,1.8v20.3c0,1,0.8,1.8,1.8,1.8h15.2
	c1,0,1.8-0.8,1.8-1.8L21.2,5.1L21.2,5.1z M11.5,8.5c1.4,0,2.6,1.2,2.6,2.6c0,1.4-1.2,2.6-2.6,2.6s-2.6-1.2-2.6-2.6
	C8.9,9.7,10.1,8.5,11.5,8.5z M16.7,18.8H6.4v-1.3c0-1.7,3.4-2.6,5.1-2.6c1.7,0,5.1,0.8,5.1,2.6V18.8z M14.7,5.1l0-3.7l4.8,3.7H14.7z
	"/>
</svg>
