<?xml version="1.0" encoding="utf-8"?>
<!-- Generator: Adobe Illustrator 19.2.0, SVG Export Plug-In . SVG Version: 6.00 Build 0)  -->
<svg version="1.1" id="Layer_1" xmlns="http://www.w3.org/2000/svg" xmlns:xlink="http://www.w3.org/1999/xlink" x="0px" y="0px"
	 viewBox="0 0 512 512" enable-background="new 0 0 512 512" xml:space="preserve">
<path fill="#010101" d="M311.2,347.5l-29.7-29.9c3.9-6.1,7.4-12.5,10.2-19.3c2.9-6.9,5-13.8,6.5-20.9l41.8,0.1
	c1.9-9.3,2.8-18.6,2.9-28.3c0-9.6-0.9-19-2.4-28.3l0,0l-42.1-0.1c-3.2-14.3-8.8-27.9-16.5-40.3l29.9-29.7
	c-10.9-15.5-24.5-29.1-39.9-40.1L242,140.5c-6.1-3.9-12.5-7.4-19.3-10.2c-6.9-2.9-13.8-4.9-20.9-6.5l0.1-42.1
	c-9.4-1.6-18.7-2.6-28.3-2.6c-9.7,0-19,0.9-28.3,2.5l-0.1,42c-14.3,3.2-27.9,8.8-40.3,16.5l-29.7-29.9c-15.6,10.9-29,24.4-40.2,39.9
	l29.7,29.9c-3.9,6.1-7.4,12.5-10.2,19.3c-2.9,6.9-5,13.8-6.5,20.9L6,220c-1.7,9.3-2.7,18.7-2.7,28.3c-0.1,9.7,1,19.1,2.2,28.3l0,0
	l42.3,0.1c3.2,14.3,8.8,27.9,16.5,40.3l-29.9,29.7c10.9,15.5,24.5,29.1,39.9,40.1l29.8-29.7c6.1,3.9,12.5,7.4,19.3,10.2
	c6.9,2.9,13.8,4.9,20.9,6.5l-0.1,42.1l0,0c9.3,1.5,18.7,2.5,28.3,2.5c9.7,0.1,19.2-1,28.3-2.5l0.1-42c14.3-3.2,27.9-8.8,40.2-16.5
	l29.7,29.8C286.6,376.4,300,362.9,311.2,347.5z M269.4,232.2c11.7,103-109.6,152.9-173.6,71.3c-8.3-10.5-13.5-23.3-15-36.6
	c-11.7-103,109.6-152.9,173.6-71.3C262.6,206.1,267.9,218.9,269.4,232.2z"/>
<path fill="#010101" d="M507.3,344.1l-24.2,3.5c-1.5-3.9-3.3-7.7-5.5-11.5c-2.2-3.7-4.7-7.1-7.5-10.3l14.5-19.4
	c-3.6-4.1-7.7-7.8-12.2-11.1c-4.5-3.3-9.2-6.1-14-8.7l0,0l-14.6,19.6c-7.7-3.4-16-5.6-24.5-6.2l-3.5-24.2c-11-0.3-22,1.3-32.5,4.7
	l3.5,24.2c-3.9,1.5-7.7,3.3-11.5,5.5c-3.7,2.2-7.1,4.7-10.3,7.4L345.5,303c-4,3.8-7.7,7.8-11,12.3c-3.4,4.5-6.2,9.2-8.6,14.1
	l19.5,14.6c-3.4,7.7-5.6,16-6.2,24.5l-24.2,3.5c-0.3,11,1.4,22,4.7,32.5l24.2-3.5c1.5,3.9,3.3,7.7,5.5,11.5
	c2.2,3.7,4.7,7.1,7.5,10.3l-14.6,19.5c3.7,4,7.8,7.7,12.2,11.1c4.5,3.4,9.2,6.1,14,8.8h0l14.7-19.7c7.7,3.4,16,5.6,24.5,6.2
	l3.5,24.2c11,0.3,22-1.3,32.5-4.7l-3.5-24.2c3.9-1.5,7.7-3.3,11.5-5.5c3.7-2.2,7.1-4.7,10.3-7.4l19.6,14.6l0,0
	c3.9-3.8,7.6-7.8,11-12.3c3.4-4.5,6.2-9.3,8.6-14.1l-19.5-14.6c3.4-7.7,5.6-16,6.2-24.5l24.2-3.5
	C512.3,365.6,510.6,354.6,507.3,344.1z M434.9,332c44.4,25.8,28.4,88.7-22.9,90.1c-6.6,0.2-13.3-1.5-19-4.8
	c-44.4-25.8-28.4-88.7,22.9-90.1C422.5,327,429.2,328.6,434.9,332z"/>
<path fill="#010101" d="M507.3,68.4l-24.2,3.5c-1.5-3.9-3.3-7.7-5.5-11.5c-2.2-3.7-4.7-7.1-7.5-10.3l14.5-19.4
	c-3.6-4.1-7.7-7.8-12.2-11.1c-4.5-3.3-9.2-6.1-14-8.7l0,0l-14.6,19.6c-7.7-3.4-16-5.6-24.5-6.2L415.8,0c-11-0.3-22,1.3-32.5,4.7
	l3.5,24.2c-3.9,1.5-7.7,3.3-11.5,5.5c-3.7,2.2-7.1,4.7-10.3,7.4l-19.6-14.6c-4,3.8-7.7,7.8-11,12.3c-3.4,4.5-6.2,9.2-8.6,14.1
	l19.5,14.6c-3.4,7.7-5.6,16-6.2,24.5L315,96.2c-0.3,11,1.4,22,4.7,32.5l24.2-3.5c1.5,3.9,3.3,7.7,5.5,11.5c2.2,3.7,4.7,7.1,7.5,10.3
	l-14.6,19.5c3.7,4,7.8,7.7,12.2,11.1c4.5,3.4,9.2,6.1,14,8.8h0l14.7-19.7c7.7,3.4,16,5.6,24.5,6.2l3.5,24.2c11,0.3,22-1.3,32.5-4.7
	l-3.5-24.2c3.9-1.5,7.7-3.3,11.5-5.5c3.7-2.2,7.1-4.7,10.3-7.4l19.6,14.6l0,0c3.9-3.8,7.6-7.8,11-12.3c3.4-4.5,6.2-9.3,8.6-14.1
	l-19.5-14.6c3.4-7.7,5.6-16,6.2-24.5l24.2-3.5C512.3,89.8,510.6,78.9,507.3,68.4z M434.9,56.2c44.4,25.8,28.4,88.7-22.9,90.1
	c-6.6,0.2-13.3-1.5-19-4.8c-44.4-25.8-28.4-88.7,22.9-90.1C422.5,51.2,429.2,52.9,434.9,56.2z"/>
</svg>
