<?xml version="1.0" encoding="utf-8"?>
<!-- Generator: Adobe Illustrator 18.1.1, SVG Export Plug-In . SVG Version: 6.00 Build 0)  -->
<svg version="1.1" id="Layer_1" xmlns="http://www.w3.org/2000/svg" xmlns:xlink="http://www.w3.org/1999/xlink" x="0px" y="0px"
	 viewBox="0 0 24 24" enable-background="new 0 0 24 24" xml:space="preserve">
<path d="M20.6,0h-18C1.1,0,0,1.2,0,2.7v11.8c0,1.5,1.2,2.6,2.6,2.6h8.9c0.7,0,1.4,0.3,1.9,0.8l5.4,5.4c0.2,0.2,0.4,0.3,0.7,0.3
	c0.5,0,1-0.4,1-1v-5.6h0.1c1.5,0,2.6-1.2,2.6-2.6V2.7C23.3,1.2,22.1,0,20.6,0z M5.6,10.4c-1,0-1.8-0.8-1.8-1.8c0-1,0.8-1.8,1.8-1.8
	c1,0,1.8,0.8,1.8,1.8C7.3,9.6,6.5,10.4,5.6,10.4z M11.8,10.4c-1,0-1.8-0.8-1.8-1.8c0-1,0.8-1.8,1.8-1.8c1,0,1.8,0.8,1.8,1.8
	C13.5,9.6,12.7,10.4,11.8,10.4z M17.7,10.4c-1,0-1.8-0.8-1.8-1.8c0-1,0.8-1.8,1.8-1.8c1,0,1.8,0.8,1.8,1.8
	C19.5,9.6,18.7,10.4,17.7,10.4z"/>
</svg>
