<?xml version="1.0" encoding="utf-8"?>
<!-- Generator: Adobe Illustrator 18.1.1, SVG Export Plug-In . SVG Version: 6.00 Build 0)  -->
<svg version="1.1" id="Layer_1" xmlns="http://www.w3.org/2000/svg" xmlns:xlink="http://www.w3.org/1999/xlink" x="0px" y="0px"
	 viewBox="0 0 24 24" enable-background="new 0 0 24 24" xml:space="preserve">
<g id="queue_1_">
	<path d="M2.2,4.4H0.1v17.3c0,1.2,1,2.2,2.2,2.2h17.3v-2.2H2.2V4.4z M21.8,0.1H6.6c-1.2,0-2.2,1-2.2,2.2v15.2c0,1.2,1,2.2,2.2,2.2
		h15.2c1.2,0,2.2-1,2.2-2.2V2.2C23.9,1.1,22.9,0.1,21.8,0.1z M19.6,10.9h-4.3v4.3h-2.2v-4.3H8.8V8.8h4.3V4.4h2.2v4.3h4.3V10.9z"/>
</g>
</svg>
