<?xml version="1.0" encoding="utf-8"?>
<!-- Generator: Adobe Illustrator 18.1.1, SVG Export Plug-In . SVG Version: 6.00 Build 0)  -->
<svg version="1.1" id="Layer_1" xmlns="http://www.w3.org/2000/svg" xmlns:xlink="http://www.w3.org/1999/xlink" x="0px" y="0px"
	 viewBox="0 0 512 512" enable-background="new 0 0 512 512" xml:space="preserve">
<g>
	<path fill="#010101" d="M256,512C115.2,512,0,396.8,0,256S115.2,0,256,0s256,115.2,256,256S396.8,512,256,512z M256,38.4
		C136.5,38.4,38.4,136.5,38.4,256S136.5,473.6,256,473.6S473.6,375.5,473.6,256S375.5,38.4,256,38.4z"/>
</g>
<g>
	<path fill="#010101" d="M224.1,253.7l-81.1,38.4c-17.1,10.7-25.6,34.1-19.2,51.2l4.3,8.5h102.4L224.1,253.7z"/>
	<path fill="#010101" d="M288.1,253.7l81.1,38.4c17.1,10.7,25.6,34.1,19.2,51.2l-4.3,8.5H281.7L288.1,253.7z"/>
	<polygon fill="#010101" points="264.7,251.6 264.7,360.4 256.1,368.9 247.6,360.4 247.6,251.6 	"/>
</g>
<path fill="#010101" d="M256.3,232.5c32,0,59.7-27.7,59.7-59.7s-27.7-59.7-59.7-59.7s-59.7,27.7-59.7,59.7S222.1,232.5,256.3,232.5z
	"/>
</svg>
