<?xml version="1.0" encoding="utf-8"?>
<!-- Generator: Adobe Illustrator 18.1.1, SVG Export Plug-In . SVG Version: 6.00 Build 0)  -->
<svg version="1.1" id="Layer_1" xmlns="http://www.w3.org/2000/svg" xmlns:xlink="http://www.w3.org/1999/xlink" x="0px" y="0px"
	 viewBox="0 0 512 512" enable-background="new 0 0 512 512" xml:space="preserve">
<g>
	<path fill="#010101" d="M454.7,0H56.8C25.6,0,0,25.6,0,56.8v397.8c0,31.3,25.6,56.8,56.8,56.8h198.9V312.6h-56.8v-70.3h56.8V184
		c0-61.5,34.4-104.7,107-104.7l51.2,0.1v74h-34c-28.2,0-39,21.2-39,40.9v48h73l-16.1,70.3H341v198.9h113.7
		c31.3,0,56.8-25.5,56.8-56.8V56.8C511.5,25.6,485.9,0,454.7,0z"/>
</g>
</svg>
