<?xml version="1.0" encoding="utf-8"?>
<!-- Generator: Adobe Illustrator 18.1.1, SVG Export Plug-In . SVG Version: 6.00 Build 0)  -->
<svg version="1.1" id="Layer_1" xmlns="http://www.w3.org/2000/svg" xmlns:xlink="http://www.w3.org/1999/xlink" x="0px" y="0px"
	 viewBox="0 0 44 44" enable-background="new 0 0 44 44" xml:space="preserve">
<g>
	<path d="M27.9,0h-0.5h-2.6h-0.5H18h-4.6H8.1C6.2,0,4.8,1.5,4.8,3.3v37.2c0,1.8,1.5,3.3,3.3,3.3h27.9c1.8,0,3.3-1.5,3.3-3.3V9.3
		L27.9,0z M35,38.7c-0.2,0.5-0.4,0.9-0.9,0.9H9.9c-0.4,0-0.7-0.4-0.7-0.7V11.9l18,0h2.4H35V38.7z M27.3,9.3V2.6l8.8,6.8H27.3z"/>
	<polygon points="24.4,17.8 21.1,17.8 21.1,24.2 14.7,24.2 14.7,27.5 21.1,27.5 21.1,33.9 24.4,33.9 24.4,27.5 30.8,27.5 30.8,24.2 
		24.4,24.2 	"/>
</g>
</svg>
