<?xml version="1.0" encoding="utf-8"?>
<!-- Generator: Adobe Illustrator 18.1.1, SVG Export Plug-In . SVG Version: 6.00 Build 0)  -->
<svg version="1.1" id="Layer_1" xmlns="http://www.w3.org/2000/svg" xmlns:xlink="http://www.w3.org/1999/xlink" x="0px" y="0px"
	 viewBox="0 0 24 24" enable-background="new 0 0 24 24" xml:space="preserve">
<path d="M18.033,11.271c-0.925,1.018-2.144,2.452-2.251,3.885c0.389,0.228,0.63,0.657,0.63,1.099c0,0.321-0.12,0.63-0.335,0.857
	c0.215,0.228,0.335,0.536,0.335,0.858c0,0.442-0.228,0.844-0.603,1.085c0.107,0.188,0.174,0.416,0.174,0.63
	c0,0.871-0.684,1.286-1.461,1.286c-0.348,0.777-1.125,1.286-1.969,1.286c-0.844,0-1.621-0.509-1.969-1.286
	c-0.777,0-1.461-0.416-1.461-1.286c0-0.214,0.066-0.442,0.174-0.63c-0.375-0.241-0.602-0.643-0.602-1.085
	c0-0.321,0.12-0.63,0.335-0.858c-0.215-0.228-0.335-0.536-0.335-0.857c0-0.442,0.241-0.871,0.63-1.099
	c-0.107-1.434-1.326-2.867-2.251-3.885c-0.925-1.018-1.38-2.21-1.38-3.59c0-3.644,3.47-6.002,6.859-6.002
	c3.39,0,6.859,2.358,6.859,6.002C19.412,9.06,18.957,10.253,18.033,11.271z M12.553,3.393c-2.425,0-5.145,1.607-5.145,4.287
	c0,0.857,0.348,1.755,0.911,2.412c0.255,0.294,0.55,0.576,0.817,0.884c0.951,1.139,1.755,2.479,1.889,3.992h3.055
	c0.134-1.514,0.938-2.854,1.889-3.992c0.268-0.308,0.562-0.59,0.817-0.884c0.563-0.657,0.911-1.554,0.911-2.412
	C17.698,5.001,14.978,3.393,12.553,3.393z"/>
</svg>
