<?xml version="1.0" encoding="utf-8"?>
<!-- Generator: Adobe Illustrator 18.1.1, SVG Export Plug-In . SVG Version: 6.00 Build 0)  -->
<svg version="1.1" id="Layer_1" xmlns="http://www.w3.org/2000/svg" xmlns:xlink="http://www.w3.org/1999/xlink" x="0px" y="0px"
	 viewBox="0 0 512 512" enable-background="new 0 0 512 512" xml:space="preserve">
<g>
	<path fill="#010101" d="M295.6,425.3l-14.9-34l-82.9-219l-65.9,97.8c-4.3,6.4-8.5,8.5-14.9,8.5H21.3c-10.6,0-19.1-8.5-19.1-19.1
		c0-10.6,8.5-19.1,19.1-19.1h85.1l80.8-121.2l19.1-29.8l14.9,34l80.8,219l57.4-93.6c4.3-6.4,8.5-8.5,17-8.5h112.7
		c10.6,0,19.1,8.5,19.1,19.1s-8.5,17-19.1,17H382.8l-72.3,119.1L295.6,425.3z"/>
</g>
<g>
	<path fill="#010101" d="M255.2,510.3C114.8,510.3,0,395.5,0,255.2S114.8,0,255.2,0s255.2,114.8,255.2,255.2
		S395.5,510.3,255.2,510.3z M255.2,38.3c-119.1,0-216.9,97.8-216.9,216.9s97.8,216.9,216.9,216.9s216.9-97.8,216.9-216.9
		S374.3,38.3,255.2,38.3z"/>
</g>
</svg>
