<?xml version="1.0" encoding="utf-8"?>
<!-- Generator: Adobe Illustrator 19.2.0, SVG Export Plug-In . SVG Version: 6.00 Build 0)  -->
<svg version="1.1" id="Layer_1" xmlns="http://www.w3.org/2000/svg" xmlns:xlink="http://www.w3.org/1999/xlink" x="0px" y="0px"
	 viewBox="0 0 512 512" enable-background="new 0 0 512 512" xml:space="preserve">
<g>
	<path d="M436.4,436.4h-75.9V317.5c0-28.3-0.5-64.8-39.5-64.8c-39.5,0-45.6,30.9-45.6,62.7v120.9h-75.9V192h72.8v33.4h1
		c10.1-19.2,34.9-39.5,71.9-39.5c76.9,0,91.1,50.6,91.1,116.4V436.4L436.4,436.4z M113.9,158.6c-24.3,0-44-19.7-44-44
		c0-24.3,19.7-44,44-44c24.3,0,44,19.7,44,44C157.9,138.8,138.2,158.6,113.9,158.6L113.9,158.6z M151.9,436.4h-76V192h76V436.4
		L151.9,436.4z M474.2,0H37.8C16.9,0,0,16.5,0,36.9v438.2c0,20.4,16.9,36.9,37.8,36.9h436.4c20.9,0,37.9-16.6,37.9-36.9V36.9
		C512.1,16.5,495.1,0,474.2,0L474.2,0z"/>
</g>
</svg>
