<?xml version="1.0" encoding="utf-8"?>
<!-- Generator: Adobe Illustrator 19.2.0, SVG Export Plug-In . SVG Version: 6.00 Build 0)  -->
<svg version="1.1" id="Layer_1" xmlns="http://www.w3.org/2000/svg" xmlns:xlink="http://www.w3.org/1999/xlink" x="0px" y="0px"
	 viewBox="0 0 512 512" enable-background="new 0 0 512 512" xml:space="preserve">
<g id="keyboard-voice_1_">
	<path fill="#010101" d="M256.1,288c28.6,0,50.5-21.9,50.5-50.5V136.4c0-28.6-21.9-50.5-50.5-50.5s-50.5,21.9-50.5,50.5v101.1
		C205.6,266.1,227.5,288,256.1,288z M345.4,256c0,50.5-42.1,77.5-89.3,77.5s-89.3-27-89.3-77.5h-28.6c0,57.3,45.5,96.1,101.1,104.5
		V416H273v-55.5c55.6-8.4,101.1-47.2,101.1-104.5L345.4,256L345.4,256z"/>
</g>
<g>
	<path fill="#010101" d="M480,480H32V32h448V480z M512,0H0.5v512H512L512,0L512,0z"/>
</g>
</svg>
