<?xml version="1.0" encoding="utf-8"?>
<!-- Generator: Adobe Illustrator 18.1.1, SVG Export Plug-In . SVG Version: 6.00 Build 0)  -->
<svg version="1.1" id="Layer_1" xmlns="http://www.w3.org/2000/svg" xmlns:xlink="http://www.w3.org/1999/xlink" x="0px" y="0px"
	 viewBox="0 0 24 24" enable-background="new 0 0 24 24" xml:space="preserve">
<g id="loop_1_">
	<path d="M12.843,3.076v-3.353l-4.47,4.47l4.47,4.47V5.311c3.688,0,6.705,3.017,6.705,6.705c0,1.118-0.335,2.235-0.782,3.129
		l1.676,1.676c0.782-1.453,1.341-3.017,1.341-4.805C21.783,7.099,17.76,3.076,12.843,3.076z M12.843,18.721
		c-3.688,0-6.705-3.017-6.705-6.705c0-1.118,0.335-2.235,0.782-3.129L5.243,7.211c-0.782,1.453-1.341,3.017-1.341,4.805
		c0,4.917,4.023,8.94,8.94,8.94v3.353l4.47-4.47l-4.47-4.47V18.721z"/>
</g>
</svg>
