<?xml version="1.0" encoding="utf-8"?>
<!-- Generator: Adobe Illustrator 18.1.1, SVG Export Plug-In . SVG Version: 6.00 Build 0)  -->
<svg version="1.1" id="Layer_1" xmlns="http://www.w3.org/2000/svg" xmlns:xlink="http://www.w3.org/1999/xlink" x="0px" y="0px"
	 viewBox="0 0 24 24" enable-background="new 0 0 24 24" xml:space="preserve">
<g>
	<g>
		<path d="M10.087,19.033H8.408v-4.596l0.016-0.755l0.027-0.826c-0.279,0.279-0.473,0.462-0.581,0.549l-0.913,0.733l-0.809-1.01
			l2.559-2.037h1.38V19.033z"/>
		<path d="M17.696,17.386H16.74v1.646h-1.641v-1.646h-3.39v-1.168l3.482-5.128h1.548v4.993h0.956V17.386z M15.099,16.083v-1.347
			c0-0.225,0.009-0.551,0.027-0.978c0.018-0.427,0.033-0.675,0.043-0.744h-0.043c-0.134,0.297-0.295,0.587-0.484,0.869l-1.456,2.2
			H15.099z"/>
	</g>
</g>
<path d="M20.269,2.517h-1.181V0.155h-2.363v2.362h-9.45V0.155H4.913v2.362H3.731c-1.311,0-2.351,1.063-2.351,2.362L1.369,21.417
	c0,1.299,1.051,2.362,2.363,2.362h16.537c1.299,0,2.363-1.063,2.363-2.362V4.88C22.631,3.58,21.568,2.517,20.269,2.517z
	 M20.269,21.417H3.731V8.424h16.537V21.417z"/>
</svg>
