<?xml version="1.0" encoding="utf-8"?>
<!-- Generator: Adobe Illustrator 18.1.1, SVG Export Plug-In . SVG Version: 6.00 Build 0)  -->
<svg version="1.1" id="Layer_1" xmlns="http://www.w3.org/2000/svg" xmlns:xlink="http://www.w3.org/1999/xlink" x="0px" y="0px"
	 viewBox="0 0 24 24" enable-background="new 0 0 24 24" xml:space="preserve">
<g id="search_3_">
	<path d="M17.452,14.864h-1.074l-0.403-0.403c1.343-1.477,2.149-3.491,2.149-5.64c0-4.834-3.894-8.729-8.729-8.729
		S0.667,3.987,0.667,8.821s3.894,8.729,8.729,8.729c2.149,0,4.163-0.806,5.64-2.149l0.403,0.403v1.074l6.714,6.714l2.014-2.014
		L17.452,14.864z M9.395,14.864c-3.357,0-6.043-2.686-6.043-6.043s2.686-6.043,6.043-6.043s6.043,2.686,6.043,6.043
		S12.752,14.864,9.395,14.864z"/>
</g>
</svg>
