<?xml version="1.0" encoding="utf-8"?>
<!-- Generator: Adobe Illustrator 18.1.1, SVG Export Plug-In . SVG Version: 6.00 Build 0)  -->
<svg version="1.1" id="Layer_1" xmlns="http://www.w3.org/2000/svg" xmlns:xlink="http://www.w3.org/1999/xlink" x="0px" y="0px"
	 viewBox="0 0 512 512" enable-background="new 0 0 512 512" xml:space="preserve">
<g id="add_2_">
	<path fill="#010101" d="M336,305.5h-64v64h-32v-64h-64v-32h64v-64h32v64h64V305.5L336,305.5z"/>
</g>
<path fill="#010101" d="M352,0H102.5C81.1,0,64,17.4,64,38.8v434.7c0,21.4,17.1,38.5,38.5,38.5h306.9c21.4,0,38.5-17.1,38.5-38.5
	V128V96L352,0z M384,429c0,10.5-8.5,19-19,19H147c-10.5,0-19-8.5-19-19V128h256V429z M320,96V32l64,64H320z"/>
</svg>
