<?xml version="1.0" encoding="utf-8"?>
<!-- Generator: Adobe Illustrator 18.1.1, SVG Export Plug-In . SVG Version: 6.00 Build 0)  -->
<svg version="1.1" id="Layer_1" xmlns="http://www.w3.org/2000/svg" xmlns:xlink="http://www.w3.org/1999/xlink" x="0px" y="0px"
	 viewBox="0 0 24 24" enable-background="new 0 0 24 24" xml:space="preserve">
<g>
	<path d="M13.9,20l-0.7-1.6L9.3,8.1l-3.1,4.6C6,13,5.8,13.1,5.5,13.1H1c-0.5,0-0.9-0.4-0.9-0.9s0.4-0.9,0.9-0.9h4l3.8-5.7l0.9-1.4
		l0.7,1.6l3.8,10.3l2.7-4.4c0.2-0.3,0.4-0.4,0.8-0.4H23c0.5,0,0.9,0.4,0.9,0.9S23.5,13,23,13h-5l-3.4,5.6L13.9,20z"/>
</g>
<g>
	<path d="M12,24C5.4,24,0,18.6,0,12S5.4,0,12,0s12,5.4,12,12S18.6,24,12,24z M12,1.8C6.4,1.8,1.8,6.4,1.8,12S6.4,22.2,12,22.2
		c5.6,0,10.2-4.6,10.2-10.2S17.6,1.8,12,1.8z"/>
</g>
</svg>
