<?xml version="1.0" encoding="utf-8"?>
<!-- Generator: Adobe Illustrator 19.1.0, SVG Export Plug-In . SVG Version: 6.00 Build 0)  -->
<svg version="1.1" id="Layer_1" xmlns="http://www.w3.org/2000/svg" xmlns:xlink="http://www.w3.org/1999/xlink" x="0px" y="0px"
	 viewBox="0 0 512 512" enable-background="new 0 0 512 512" xml:space="preserve">
<path fill-rule="evenodd" clip-rule="evenodd" d="M352.8,312.9c-61.6-20.7-130.6-19.2-193.6,0v65c0,8.9-4.4,16.2-11.7,17.7
	c-22,10.3-42.5,25.1-61.6,44.3c-8.8,8.9-20.5,8.9-29.3,0L6.6,389.7c-8.8-8.9-8.8-20.7,0-29.5c137.9-138.8,360.9-138.8,498.8,0
	c8.8,8.9,8.8,20.7,0,29.5l-51.3,51.7c-8.8,8.9-20.5,8.9-29.3,0c-17.6-17.7-38.1-32.5-61.6-44.3c-5.9-3-10.3-10.3-11.7-17.7
	L352.8,312.9z"/>
<polygon fill-rule="evenodd" clip-rule="evenodd" points="127.8,117.6 235.3,224 377.7,87.5 354.1,64 235,181.1 149.7,96 192,96 
	192,64 96,64 96,160 127.8,160 "/>
</svg>
