<?xml version="1.0" encoding="utf-8"?>
<!-- Generator: Adobe Illustrator 18.1.1, SVG Export Plug-In . SVG Version: 6.00 Build 0)  -->
<svg version="1.1" id="Layer_1" xmlns="http://www.w3.org/2000/svg" xmlns:xlink="http://www.w3.org/1999/xlink" x="0px" y="0px"
	 viewBox="0 0 512 512" enable-background="new 0 0 512 512" xml:space="preserve">
<g>
	<path fill="#010101" d="M16.1,270.9c-9.2,0-16.1-6.9-16.1-16.1c0-9.2,6.9-16.1,16.1-16.1h39c9.2,0,16.1,6.9,16.1,16.1
		c0,9.2-6.9,16.1-16.1,16.1H16.1z"/>
	<path fill="#010101" d="M84.9,440.8c-4.6,0-9.2-2.3-11.5-4.6c-6.9-6.9-6.9-16.1,0-23l27.5-27.5c2.3-2.3,6.9-4.6,11.5-4.6
		c4.6,0,9.2,2.3,11.5,4.6c6.9,6.9,6.9,16.1,0,23l-27.5,27.5C94.1,438.5,89.5,440.8,84.9,440.8z"/>
	<path fill="#010101" d="M114.8,130.9c-4.6,0-9.2-2.3-11.5-4.6L73.5,98.8c-4.6-6.9-4.6-16.1,0-23c4.6-2.3,6.9-4.6,11.5-4.6
		s9.2,2.3,11.5,4.6l27.5,27.5c2.3,2.3,4.6,6.9,4.6,11.5c0,4.6-2.3,9.2-4.6,11.5C121.7,128.6,117.1,130.9,114.8,130.9z"/>
	<path fill="#010101" d="M254.8,73.5c-9.2,0-16.1-6.9-16.1-16.1V16.1c0-9.2,6.9-16.1,16.1-16.1c9.2,0,16.1,6.9,16.1,16.1v39
		C270.9,66.6,264,73.5,254.8,73.5z"/>
	<path fill="#010101" d="M394.9,130.9c-4.6,0-9.2-2.3-11.5-4.6s-4.6-6.9-4.6-11.5c0-4.6,2.3-9.2,4.6-11.5l29.8-27.5
		c2.3-2.3,6.9-4.6,11.5-4.6s9.2,2.3,11.5,4.6c6.9,6.9,6.9,16.1,0,23l-27.5,27.5C404.1,128.6,399.5,130.9,394.9,130.9z"/>
	<path fill="#010101" d="M454.6,270.9c-9.2,0-16.1-6.9-16.1-16.1c0-9.2,6.9-16.1,16.1-16.1h39c9.2,0,16.1,6.9,16.1,16.1
		c0,9.2-6.9,16.1-16.1,16.1H454.6z"/>
	<path fill="#010101" d="M424.7,440.8c-4.6,0-9.2-2.3-11.5-4.6l-27.5-27.5c-2.3-2.3-4.6-6.9-4.6-11.5s2.3-9.2,4.6-11.5
		s6.9-4.6,11.5-4.6s9.2,2.3,11.5,4.6l27.5,27.5c6.9,6.9,6.9,16.1,0,23C431.6,438.5,429.3,440.8,424.7,440.8z"/>
	<path fill="#010101" d="M254.8,512c-9.2,0-16.1-6.9-16.1-16.1v-39c0-9.2,6.9-16.1,16.1-16.1c9.2,0,16.1,6.9,16.1,16.1v39
		C270.9,505.1,264,512,254.8,512z"/>
	<path fill="#010101" d="M254.8,392.6c-75.8,0-135.5-59.7-135.5-135.5s59.7-135.5,135.5-135.5s135.5,59.7,135.5,135.5
		S328.3,392.6,254.8,392.6z M247.9,156.1v202h4.6c59.7,0,105.6-45.9,105.6-103.3s-45.9-103.3-103.3-103.3h-2.3h-4.6V156.1z"/>
</g>
</svg>
