<?xml version="1.0" encoding="utf-8"?>
<!-- Generator: Adobe Illustrator 18.1.1, SVG Export Plug-In . SVG Version: 6.00 Build 0)  -->
<svg version="1.1" id="Layer_1" xmlns="http://www.w3.org/2000/svg" xmlns:xlink="http://www.w3.org/1999/xlink" x="0px" y="0px"
	 viewBox="0 0 512 512" enable-background="new 0 0 512 512" xml:space="preserve">
<g>
	<path fill="#010101" d="M160,32v436.6h194.3V32H160z M320,429.8H198.4v-49.9H320L320,429.8L320,429.8z M320,352.5H198.4v-49.9H320
		L320,352.5L320,352.5z M320,275.2H198.4v-49.8H320L320,275.2L320,275.2z M320,198H198.4v-49.9H320L320,198L320,198z M320,120.7
		H198.4V70.8H320L320,120.7L320,120.7z"/>
	<polygon fill="#010101" points="384,192 384,231.8 447.7,231.8 447.7,278.8 384,278.8 384,304.7 447.7,304.7 447.7,351.7 
		384,351.7 384,377.5 447.7,377.5 447.7,424.6 384,424.6 384,461.2 480,461.2 480,192 	"/>
	<polygon fill="#010101" points="128,423.6 67.1,423.6 67.1,378 128,378 128,352.9 67.1,352.9 67.1,307.3 128,307.3 128,282.2 
		67.1,282.2 67.1,236.6 128,236.6 128,211.5 67.1,211.5 67.1,166 128,166 128,128 32,128 32,459.1 128,459.1 	"/>
</g>
</svg>
