<?xml version="1.0" encoding="utf-8"?>
<!-- Generator: Adobe Illustrator 18.1.1, SVG Export Plug-In . SVG Version: 6.00 Build 0)  -->
<svg version="1.1" id="Layer_1" xmlns="http://www.w3.org/2000/svg" xmlns:xlink="http://www.w3.org/1999/xlink" x="0px" y="0px"
	 viewBox="0 0 24 24" enable-background="new 0 0 24 24" xml:space="preserve">
<g id="help_2_">
	<path d="M13.208,20.535h-2.417v-2.417h2.417V20.535z M15.746,11.231l-1.087,1.087c-0.967,0.846-1.45,1.571-1.45,3.383h-2.417
		v-0.604c0-1.329,0.483-2.538,1.45-3.383l1.45-1.571c0.483-0.362,0.725-0.967,0.725-1.692c0-1.329-1.087-2.417-2.417-2.417
		S9.583,7.123,9.583,8.452H7.167c0-2.658,2.175-4.833,4.833-4.833s4.833,2.175,4.833,4.833C16.833,9.54,16.35,10.506,15.746,11.231z
		"/>
</g>
</svg>
