<?xml version="1.0" encoding="utf-8"?>
<!-- Generator: Adobe Illustrator 18.1.1, SVG Export Plug-In . SVG Version: 6.00 Build 0)  -->
<svg version="1.1" id="Layer_1" xmlns="http://www.w3.org/2000/svg" xmlns:xlink="http://www.w3.org/1999/xlink" x="0px" y="0px"
	 viewBox="0 0 24 24" enable-background="new 0 0 24 24" xml:space="preserve">
<g>
	<path d="M20.1,23.9c-0.3,0-0.5-0.1-0.7-0.3l-5.5-5.5c-0.5-0.5-1.2-0.8-1.9-0.8h-9c-1.5,0-2.7-1.2-2.7-2.7V2.7C0.3,1.2,1.5,0,2.9,0
		h18.2c1.5,0,2.7,1.2,2.7,2.7v11.9c0,1.5-1.2,2.7-2.7,2.7H21v5.6C21,23.4,20.6,23.9,20.1,23.9z M2.9,1.3c-0.7,0-1.3,0.6-1.3,1.3
		v11.9c0,0.7,0.6,1.3,1.3,1.3h9c1.1,0,2.1,0.4,2.9,1.2l4.9,4.9v-5.1c0-0.5,0.4-1,1-1h0.5c0.7,0,1.3-0.6,1.3-1.3V2.7
		c0-0.7-0.6-1.3-1.3-1.3H2.9z"/>
</g>
<path d="M12.2,5.4H5.8c-0.4,0-0.7-0.3-0.7-0.7v0c0-0.4,0.3-0.7,0.7-0.7h6.4c0.4,0,0.7,0.3,0.7,0.7v0C12.9,5.1,12.6,5.4,12.2,5.4z"/>
<path d="M16.6,9.1H5.8c-0.4,0-0.7-0.3-0.7-0.7v0c0-0.4,0.3-0.7,0.7-0.7h10.8c0.4,0,0.7,0.3,0.7,0.7v0C17.3,8.8,17,9.1,16.6,9.1z"/>
<path d="M14.8,12.7H5.8c-0.4,0-0.7-0.3-0.7-0.7v0c0-0.4,0.3-0.7,0.7-0.7h8.9c0.4,0,0.7,0.3,0.7,0.7v0C15.4,12.4,15.1,12.7,14.8,12.7
	z"/>
</svg>
