<?xml version="1.0" encoding="utf-8"?>
<!-- Generator: Adobe Illustrator 18.1.1, SVG Export Plug-In . SVG Version: 6.00 Build 0)  -->
<svg version="1.1" id="Layer_1" xmlns="http://www.w3.org/2000/svg" xmlns:xlink="http://www.w3.org/1999/xlink" x="0px" y="0px"
	 viewBox="0 0 512 512" enable-background="new 0 0 512 512" xml:space="preserve">
<g>
	<path fill="#010101" d="M503.6,310.4c-27.7,115.3-122.8,195.7-243,195.7c-63.5,0-125.1-25.1-171.3-69l-42,42
		C43.3,483,12.4,512,12.4,512s-0.6-36.2-0.6-47.6V297.7h166.8c11.4,0,48.8,0,48.8,0s-30.3,31.6-34.2,35.5l-44.6,44.6
		c30.6,28.7,71.3,44.9,113.4,44.9c58,0,111.7-30,142-79.5c9.4-15.1,13.1-29.8,20.6-45.6l0,0h69c5.8,0,13.3,0.3,13.3,0.3
		S503.8,309.7,503.6,310.4z M512,214.3H345.2c-11.4,0-48.9,0-48.9,0s30.3-31.6,34.2-35.5l44.9-45c-31-28.6-71.7-44.6-113.7-44.6
		c-58,0-111.7,30-142,79.5c-9.4,15.1-13.1,29.8-20.6,45.6H28c-5.8,0-13.4-0.3-13.4-0.3s3-11.7,3-12.4C45.6,86,141.7,5.9,261.9,5.9
		c63.8,0,126,25.4,172.3,69l42.3-42C480.4,29,512,0,512,0s0,36.1,0,47.5V214.3z"/>
</g>
</svg>
