<?xml version="1.0" encoding="utf-8"?>
<!-- Generator: Adobe Illustrator 19.2.0, SVG Export Plug-In . SVG Version: 6.00 Build 0)  -->
<svg version="1.1" id="Layer_1" xmlns="http://www.w3.org/2000/svg" xmlns:xlink="http://www.w3.org/1999/xlink" x="0px" y="0px"
	 viewBox="0 0 512 512" enable-background="new 0 0 512 512" xml:space="preserve">
<g>
	<path fill="#010101" d="M337.6,438l98.6-107.2l-72.9-72.9l-8.6-8.6L251.9,358.7l0,0c-2.1,2.1-2.1,4.3-4.3,4.3
		c-27.9,27.9-70.7,27.9-98.6,0s-27.9-70.7,0-98.6c2.1-2.1,4.3-4.3,4.3-4.3l0,0l109.3-102.9l-8.6-8.6l-72.9-72.9L71.9,176.5
		c-4.3,4.3-10.7,8.6-15,12.9c-4.3,6.4-10.7,10.7-12.9,17.1l-2.1,2.1l0,0c-57.9,72.9-51.4,180,15,248.6
		c68.6,68.6,173.6,72.9,248.6,15l0,0l0,0c6.4-4.3,12.9-10.7,17.1-15C326.9,450.8,333.3,444.4,337.6,438z"/>
	
		<rect x="241.9" y="5.5" transform="matrix(0.7071 -0.7071 0.7071 0.7071 34.7367 212.6805)" fill="#010101" width="64.3" height="117.9"/>
	
		<rect x="415.4" y="179.1" transform="matrix(0.7071 -0.7071 0.7071 0.7071 -37.2364 386.2201)" fill="#010101" width="64.3" height="117.9"/>
</g>
</svg>
