<?xml version="1.0" encoding="utf-8"?>
<!-- Generator: Adobe Illustrator 18.1.1, SVG Export Plug-In . SVG Version: 6.00 Build 0)  -->
<svg version="1.1" id="Layer_1" xmlns="http://www.w3.org/2000/svg" xmlns:xlink="http://www.w3.org/1999/xlink" x="0px" y="0px"
	 viewBox="0 0 24 24" enable-background="new 0 0 24 24" xml:space="preserve">
<path d="M21.726,10.877c-0.502-4.549-4.113-8.16-8.662-8.662v-2.247h-2.182v2.247c-4.549,0.502-8.16,4.113-8.662,8.662h-2.247v2.182
	h2.247c0.502,4.549,4.113,8.16,8.662,8.662v2.247h2.182V21.72c4.549-0.502,8.16-4.113,8.662-8.662h2.247v-2.182H21.726z
	 M10.84,19.511c-3.328-0.495-5.944-3.125-6.418-6.46h3.339c0.39,1.518,1.568,2.706,3.079,3.113V19.511z M10.84,7.771
	c-1.502,0.405-2.674,1.581-3.07,3.086H4.426c0.484-3.322,3.095-5.94,6.414-6.434V7.771z M13.033,4.413
	c3.354,0.466,6,3.098,6.487,6.445h-3.343c-0.403-1.53-1.606-2.724-3.144-3.109V4.413z M13.033,19.522v-3.335
	c1.546-0.388,2.755-1.593,3.152-3.136h3.339C19.047,16.41,16.396,19.055,13.033,19.522z"/>
</svg>
