<?xml version="1.0" encoding="utf-8"?>
<!-- Generator: Adobe Illustrator 18.1.1, SVG Export Plug-In . SVG Version: 6.00 Build 0)  -->
<svg version="1.1" id="Layer_1" xmlns="http://www.w3.org/2000/svg" xmlns:xlink="http://www.w3.org/1999/xlink" x="0px" y="0px"
	 viewBox="0 0 512 512" enable-background="new 0 0 512 512" xml:space="preserve">
<path fill="#010101" d="M392.6,238.5c-23,25.3-53.3,61-56,96.6c9.7,5.7,15.7,16.3,15.7,27.3c0,8-3,15.7-8.3,21.3
	c5.3,5.7,8.3,13.3,8.3,21.3c0,11-5.7,21-15,27c2.7,4.7,4.3,10.3,4.3,15.7c0,21.7-17,32-36.3,32c-8.7,19.3-28,32-49,32
	c-21,0-40.3-12.7-49-32c-19.3,0-36.3-10.3-36.3-32c0-5.3,1.6-11,4.3-15.7c-9.3-6-15-16-15-27c0-8,3-15.7,8.3-21.3
	c-5.3-5.7-8.3-13.3-8.3-21.3c0-11,6-21.7,15.7-27.3c-2.7-35.7-33-71.3-56-96.6s-34.3-55-34.3-89.3C85.7,58.6,172,0,256.3,0
	c84.3,0,170.6,58.6,170.6,149.3C426.8,183.5,415.5,213.2,392.6,238.5z M256.3,42.6c-60.3,0-127.9,40-127.9,106.6
	c0,21.3,8.7,43.6,22.7,60c6.3,7.3,13.7,14.3,20.3,22c23.6,28.3,43.6,61.6,47,99.3h76c3.3-37.6,23.3-71,47-99.3
	c6.7-7.7,14-14.7,20.3-22c14-16.3,22.7-38.6,22.7-60C384.2,82.6,316.6,42.6,256.3,42.6z"/>
</svg>
