<?xml version="1.0" encoding="UTF-8" standalone="no"?>
<svg width="16px" height="16px" viewBox="0 0 16 16" version="1.1" xmlns="http://www.w3.org/2000/svg" xmlns:xlink="http://www.w3.org/1999/xlink" xmlns:sketch="http://www.bohemiancoding.com/sketch/ns">
    <!-- Generator: Sketch 3.3.3 (12072) - http://www.bohemiancoding.com/sketch -->
    <title>Rectangle-path + Rectangle-path + Rectangle-path = Menu</title>
    <desc>Created with Sketch.</desc>
    <defs></defs>
    <g id="Page-1" stroke="none" stroke-width="1" fill="none" fill-rule="evenodd" sketch:type="MSPage">
        <g id="Bounds" sketch:type="MSArtboardGroup" fill="#000000">
            <g id="bhi_view-list" sketch:type="MSLayerGroup" transform="translate(0.000000, 1.000000)">
                <path d="M0,9 L4,9 L4,5 L0,5 L0,9 L0,9 Z" id="Path" sketch:type="MSShapeGroup"></path>
                <path d="M0,14 L4,14 L4,10 L0,10 L0,14 L0,14 Z" id="Path" sketch:type="MSShapeGroup"></path>
                <path d="M0,4 L4,4 L4,0 L0,0 L0,4 L0,4 Z" id="Path" sketch:type="MSShapeGroup"></path>
                <path d="M4.99536133,9 L16,9 L16,5 L4.99536133,5 L4.99536133,9 L4.99536133,9 Z" id="Path" sketch:type="MSShapeGroup"></path>
                <path d="M16,14 L16,10 L4.99536133,10 L4.99536133,14 L16,14 Z" id="Path" sketch:type="MSShapeGroup"></path>
                <path d="M4.99536133,4 L16,4 L16,0 L4.99536133,0 L4.99536133,4 Z" id="Path" sketch:type="MSShapeGroup"></path>
            </g>
        </g>
    </g>
</svg>