<?xml version="1.0" encoding="utf-8"?>
<!-- Generator: Adobe Illustrator 18.1.1, SVG Export Plug-In . SVG Version: 6.00 Build 0)  -->
<svg version="1.1" id="Layer_1" xmlns="http://www.w3.org/2000/svg" xmlns:xlink="http://www.w3.org/1999/xlink" x="0px" y="0px"
	 viewBox="0 0 24 24" enable-background="new 0 0 24 24" xml:space="preserve">
<g>
	<path d="M12,24C5.4,24,0,18.6,0,12S5.4,0,12,0s12,5.4,12,12S18.6,24,12,24z M12,1.8C6.3,1.8,1.8,6.4,1.8,12S6.3,22.2,12,22.2
		c5.6,0,10.2-4.6,10.2-10.2S17.6,1.8,12,1.8z"/>
</g>
<g>
	<path d="M9.3,6.4v10.5h4.8V6.4H9.3z M13.3,16h-3.1v-1.2h3.1V16z M13.3,14.1h-3.1v-1.2h3.1V14.1z M13.3,12.3h-3.1v-1.2h3.1V12.3z
		 M13.3,10.4h-3.1V9.2h3.1V10.4z M13.3,8.6h-3.1V7.4h3.1V8.6z"/>
	<polygon points="15.1,10.1 15.1,11 16.9,11 16.9,12.1 15.1,12.1 15.1,12.7 16.9,12.7 16.9,13.9 15.1,13.9 15.1,14.5 16.9,14.5 
		16.9,15.6 15.1,15.6 15.1,16.5 17.7,16.5 17.7,10.1 	"/>
	<polygon points="8.1,15.6 6.8,15.6 6.8,14.5 8.1,14.5 8.1,13.9 6.8,13.9 6.8,12.8 8.1,12.8 8.1,12.2 6.8,12.2 6.8,11.1 8.1,11.1 
		8.1,10.5 6.8,10.5 6.8,9.4 8.1,9.4 8.1,8.5 5.9,8.5 5.9,16.5 8.1,16.5 	"/>
</g>
</svg>
