<!-- Generator: Adobe Illustrator 19.1.0, SVG Export Plug-In  -->
<svg version="1.1"
	 xmlns="http://www.w3.org/2000/svg" xmlns:xlink="http://www.w3.org/1999/xlink" xmlns:a="http://ns.adobe.com/AdobeSVGViewerExtensions/3.0/"
	 x="0px" y="0px" width="512px" height="512px" viewBox="0 0 512 512" enable-background="new 0 0 512 512" xml:space="preserve">
<defs>
</defs>
<path fill="#010101" d="M501.8,195.9c-8.3-9.8-20.4-14.9-33.2-14.9H270v-57.5c28-6.4,48.7-31.3,48.7-60.9
	c0-34.5-28.1-62.6-62.7-62.6s-62.7,28.1-62.7,62.6c0,29.6,20.7,54.5,48.7,60.9V181H43.3c-12.8,0-24.9,5-33.2,14.9s-11.7,22.3-9.5,35
	l43.1,244.9c3.6,20.7,21.6,36.3,42.6,36.3h339.1c21.1,0,39-15.7,42.6-36.4l43.1-244.4C513.6,218.5,510.1,205.6,501.8,195.9
	L501.8,195.9z M221.6,62.6c0-18.9,15.4-34.3,34.4-34.3s34.4,15.4,34.4,34.3S274.9,96.9,256,96.9S221.6,81.5,221.6,62.6L221.6,62.6z
	 M483.3,226l-43.1,244.5c-1.2,7.1-7.5,12.5-14.6,12.5H86.4c-7.3,0-13.4-5.5-14.6-12.7L28.7,226.2c-0.8-4.4,0.6-17.2,14.6-17.2h425.4
	C484.4,209,484.1,221.6,483.3,226L483.3,226z M201.8,296c0-34.6-28.2-62.6-62.8-62.6c-34.7,0-62.8,28.1-62.8,62.6
	c0,34.6,28.2,62.6,62.8,62.6C173.7,358.6,201.8,330.5,201.8,296L201.8,296z M139.2,330.6c-18.9,0-34.4-15.4-34.4-34.3
	c0-18.9,15.4-34.3,34.4-34.3s34.4,15.4,34.4,34.3C173.5,315.2,158.1,330.6,139.2,330.6L139.2,330.6z M370,233.4
	c-34.7,0-62.8,28.1-62.8,62.6c0,34.6,28.2,62.6,62.8,62.6c34.7,0,62.8-28.1,62.8-62.6C432.8,261.4,404.7,233.4,370,233.4L370,233.4z
	 M371,330.6c-18.9,0-34.4-15.4-34.4-34.3c0-18.9,15.4-34.3,34.4-34.3c19,0,34.4,15.4,34.4,34.3C405.4,315.2,389.9,330.6,371,330.6
	L371,330.6z M328.5,408.6c-20.4,7.6-46.1,11.9-72.5,11.9s-52.2-4.2-72.5-11.9c-7.4-2.8-15.5,0.9-18.3,8.2
	c-2.7,7.3,0.9,15.5,8.3,18.3c23.8,8.9,52.3,13.7,82.6,13.7s58.8-4.7,82.6-13.7c7.4-2.7,11.1-11,8.3-18.3
	C344.1,409.6,335.8,405.9,328.5,408.6L328.5,408.6z"/>
</svg>
