<?xml version="1.0" encoding="utf-8"?>
<!-- Generator: Adobe Illustrator 19.2.0, SVG Export Plug-In . SVG Version: 6.00 Build 0)  -->
<svg version="1.1" id="Layer_1" xmlns="http://www.w3.org/2000/svg" xmlns:xlink="http://www.w3.org/1999/xlink" x="0px" y="0px"
	 viewBox="0 0 512 512" enable-background="new 0 0 512 512" xml:space="preserve">
<g>
	<path fill="#020202" d="M256.5,305.1c83.2,0,151.5-68.3,151.5-151.5S339.7,0,256.5,0c-83.2,0-151.5,68.3-151.5,153.6
		S173.3,305.1,256.5,305.1z M226.7,123.7L256.5,64l29.9,59.7l66.1,8.5l-46.9,46.9l8.5,64l-59.7-32l-59.7,32l10.7-66.1l-44.8-44.8
		L226.7,123.7z"/>
	<path fill="#020202" d="M373.5,306.4c-0.7-1.9-3-2.5-4.5-1.2c-8.5,7.3-35.1,17.3-39.2,18.9c-17.5,6.9-35.8,11.9-54.5,13.8
		c-24.9,2.6-50.2-0.3-74.5-6.6c-18.6-4.8-45.6-12.9-59.2-28.4c-1.4-1.6-3.9-1.2-4.8,0.8c-3.5,8.4-5.8,17.2-8.8,25.7
		c-6.7,19-13.5,38-20.2,56.9c-9.6,27-19.1,54-28.7,81l76.8-25.6l49.1,68.3l49.8-139L305.4,512l49.1-68.3l76.8,25.6
		C431.3,469.3,383.9,335.6,373.5,306.4z"/>
</g>
</svg>
