<?xml version="1.0" encoding="utf-8"?>
<!-- Generator: Adobe Illustrator 18.1.1, SVG Export Plug-In . SVG Version: 6.00 Build 0)  -->
<svg version="1.1" id="Layer_1" xmlns="http://www.w3.org/2000/svg" xmlns:xlink="http://www.w3.org/1999/xlink" x="0px" y="0px"
	 viewBox="0 0 512 512" enable-background="new 0 0 512 512" xml:space="preserve">
<path fill="#010101" d="M119.1,497.9c-17.1,0-36.3-8.5-46.9-21.3l-32-36.3c-10.7-12.8-8.5-23.5-6.4-27.7c2.1-4.3,8.5-12.8,25.6-12.8
	h51.2c-2.1-2.1-4.3-4.3-6.4-6.4c-72.5-74.7-68.3-200.5-68.3-206.9c0-8.5,6.4-14.9,14.9-14.9h373.3c8.5,0,14.9,6.4,14.9,14.9
	c0,0,0,12.8,0,34.1c29.9,8.5,51.2,29.9,53.3,55.5c2.1,19.2-4.3,38.4-21.3,53.3c-14.9,14.9-36.3,23.5-57.6,25.6c-4.3,0-8.5,0-12.8,0
	l0,0c-8.5,12.8-17.1,25.6-27.7,36.3c-2.1,2.1-4.3,4.3-6.4,6.4h66.1c17.1,0,23.5,8.5,25.6,12.8s4.3,14.9-6.4,27.7l-32,36.3
	c-10.7,12.8-29.9,23.5-46.9,23.5H119.1L119.1,497.9z M95.6,455.2c4.3,6.4,17.1,10.7,23.5,10.7h253.9c6.4,0,19.2-6.4,23.5-10.7
	l23.5-27.7H319.6c-23.5,10.7-51.2,17.1-81.1,17.1c-29.9,0-59.7-6.4-83.2-17.1H70L95.6,455.2z M67.9,201.4
	c2.1,32,8.5,117.3,59.7,170.7c27.7,29.9,66.1,44.8,113.1,44.8s83.2-14.9,113.1-44.8c49.1-51.2,57.6-138.7,59.7-170.7L67.9,201.4
	L67.9,201.4z M436.9,250.4c-4.3,27.7-10.7,51.2-19.2,74.7c14.9-2.1,25.6-8.5,34.1-17.1c8.5-8.5,12.8-19.2,12.8-27.7
	C462.5,267.5,451.9,256.8,436.9,250.4z"/>
<path d="M149,156.8c-21.1,2.2-37.6-20.4-39-39.3c-2.4-33,34.5-44.8,38.5-74.3c0.7-5.1-1.5-11-6.3-12.9c-5.2-2-11.1,1.3-16.6,0.4
	c-5.8-0.9-10.1-6.8-10.2-12.7C115.3-3.3,144-2.4,157.1,4c13.9,6.8,24.7,21,24.4,36.4c-0.5,27.1-28.4,45.4-38.8,68.5
	c-7,15.6,4.6,14.2,14.6,19.8c13.1,7.3,7.6,24.5-5.6,27.6C150.8,156.6,149.9,156.7,149,156.8z"/>
<path d="M255.5,156.8c-21.1,2.2-37.6-20.4-39-39.3c-2.4-33,34.5-44.8,38.5-74.3c0.7-5.1-1.5-11-6.3-12.9c-5.2-2-11.1,1.3-16.6,0.4
	c-5.8-0.9-10.1-6.8-10.2-12.7C221.8-3.3,250.5-2.4,263.6,4c13.9,6.8,24.7,21,24.4,36.4c-0.5,27.1-28.4,45.4-38.8,68.5
	c-7,15.6,4.6,14.2,14.6,19.8c13.1,7.3,7.6,24.5-5.6,27.6C257.3,156.6,256.4,156.7,255.5,156.8z"/>
<path d="M351.5,156.8c-21.1,2.2-37.6-20.4-39-39.3c-2.4-33,34.5-44.8,38.5-74.3c0.7-5.1-1.5-11-6.3-12.9c-5.2-2-11.1,1.3-16.6,0.4
	c-5.8-0.9-10.1-6.8-10.2-12.7C317.8-3.3,346.5-2.4,359.6,4c13.9,6.8,24.7,21,24.4,36.4c-0.5,27.1-28.4,45.4-38.8,68.5
	c-7,15.6,4.6,14.2,14.6,19.8c13.1,7.3,7.6,24.5-5.6,27.6C353.3,156.6,352.4,156.7,351.5,156.8z"/>
</svg>
