<?xml version="1.0" encoding="utf-8"?>
<!-- Generator: Adobe Illustrator 18.1.1, SVG Export Plug-In . SVG Version: 6.00 Build 0)  -->
<svg version="1.1" id="Layer_1" xmlns="http://www.w3.org/2000/svg" xmlns:xlink="http://www.w3.org/1999/xlink" x="0px" y="0px"
	 viewBox="0 0 44 44" enable-background="new 0 0 44 44" xml:space="preserve">
<path d="M11.1,40.5v3.4h27c1.9,0,3.4-1.5,3.4-3.4v-27H38v27H11.1z"/>
<path d="M32.1,0.2h-4.4h-3.9h-5.2H18h-2.2h-0.5l0,0l0,0l-9.7,8l0,0l0,0v26.5c0,1.6,1.3,2.8,2.8,2.8H35V3.1C35,1.5,33.7,0.2,32.1,0.2
	z M8.3,8.2l7.4-5.8l0,5.8H8.3z M30.6,33.8H10c-0.3,0-0.6-0.3-0.6-0.6V10.5h5.2l1.6,0v0h14.9v22.7C31.2,33.5,30.9,33.8,30.6,33.8z"/>
<rect x="12.7" y="14.3" width="15" height="3.8"/>
<rect x="12.7" y="20.4" width="15" height="3.8"/>
<rect x="12.7" y="26.7" width="15" height="3.8"/>
</svg>
