<?xml version="1.0" encoding="utf-8"?>
<!-- Generator: Adobe Illustrator 18.1.1, SVG Export Plug-In . SVG Version: 6.00 Build 0)  -->
<svg version="1.1" id="Layer_1" xmlns="http://www.w3.org/2000/svg" xmlns:xlink="http://www.w3.org/1999/xlink" x="0px" y="0px"
	 viewBox="0 0 24 24" enable-background="new 0 0 24 24" xml:space="preserve">
<path d="M24.088,14.715l-2.835-1.173c0.09-0.516,0.145-1.044,0.145-1.586s-0.056-1.069-0.145-1.585l2.812-1.164
	c-0.131-0.675-0.331-1.331-0.601-1.982c-0.267-0.647-0.595-1.249-0.954-1.834c0,0,0,0,0,0l-2.835,1.174
	c-0.614-0.868-1.372-1.626-2.241-2.241l1.173-2.832c-1.168-0.732-2.46-1.269-3.807-1.576l-1.172,2.831
	c-0.516-0.089-1.043-0.145-1.585-0.145c-0.541,0-1.068,0.056-1.585,0.145l-1.172-2.83C8.611,0.074,7.959,0.268,7.314,0.535
	C6.662,0.806,6.057,1.131,5.482,1.498l1.171,2.827c-0.868,0.614-1.626,1.372-2.241,2.24L1.581,5.392
	C0.842,6.564,0.317,7.849,0,9.197l2.835,1.173c-0.09,0.516-0.145,1.044-0.145,1.586s0.056,1.069,0.145,1.585l-2.822,1.168
	c0.145,0.672,0.343,1.329,0.61,1.977c0.267,0.651,0.604,1.251,0.941,1.839c0,0,0.001,0,0.001,0l2.847-1.179
	c0.614,0.868,1.372,1.626,2.241,2.241L5.48,22.42c1.168,0.732,2.459,1.269,3.806,1.576l1.173-2.83
	c0.516,0.089,1.043,0.145,1.585,0.145c0.541,0,1.068-0.056,1.585-0.145L14.802,24l0,0c0.664-0.162,1.323-0.354,1.972-0.624
	c0.654-0.269,1.262-0.602,1.832-0.961l-1.17-2.827c0.867-0.614,1.625-1.372,2.24-2.24l2.829,1.17
	C23.248,17.348,23.77,16.063,24.088,14.715z M18.063,8.05c3.812,6.831-3.182,13.825-10.012,10.012
	c-0.882-0.492-1.62-1.231-2.113-2.113C2.125,9.119,9.119,2.125,15.95,5.937C16.832,6.43,17.57,7.168,18.063,8.05z"/>
</svg>
