<?xml version="1.0" encoding="utf-8"?>
<!-- Generator: Adobe Illustrator 18.1.1, SVG Export Plug-In . SVG Version: 6.00 Build 0)  -->
<svg version="1.1" id="Layer_1" xmlns="http://www.w3.org/2000/svg" xmlns:xlink="http://www.w3.org/1999/xlink" x="0px" y="0px"
	 viewBox="0 0 24 24" enable-background="new 0 0 24 24" xml:space="preserve">
<g id="call_1_">
	<path d="M6.6,10.825c1.461,2.922,3.965,5.321,6.886,6.886l2.295-2.295c0.313-0.313,0.73-0.417,1.043-0.209
		c1.148,0.417,2.4,0.626,3.756,0.626c0.626,0,1.043,0.417,1.043,1.043v3.548c0,0.626-0.417,1.043-1.043,1.043
		c-9.808,0-17.738-7.93-17.738-17.738c0-0.626,0.417-1.043,1.043-1.043h3.652c0.626,0,1.043,0.417,1.043,1.043
		c0,1.252,0.209,2.504,0.626,3.756c0.104,0.313,0,0.73-0.209,1.043L6.6,10.825z"/>
</g>
</svg>
