<?xml version="1.0" encoding="utf-8"?>
<!-- Generator: Adobe Illustrator 18.1.1, SVG Export Plug-In . SVG Version: 6.00 Build 0)  -->
<svg version="1.1" id="Layer_1" xmlns="http://www.w3.org/2000/svg" xmlns:xlink="http://www.w3.org/1999/xlink" x="0px" y="0px"
	 viewBox="0 0 24 24" enable-background="new 0 0 24 24" xml:space="preserve">
<g id="link_1_">
	<path d="M9.932,16.003l6.947-6.947l-1.737-1.737l-6.947,6.947L9.932,16.003z M5.503,18.695c-1.997-1.997-1.997-5.123,0-7.121
		l2.605-2.605l-1.65-1.65L3.854,9.924c-2.866,2.866-2.866,7.555,0,10.42s7.555,2.866,10.42,0l2.605-2.605l-1.65-1.65l-2.605,2.605
		C10.627,20.692,7.501,20.692,5.503,18.695z M10.801,2.977L8.195,5.583l1.65,1.65l2.605-2.605c1.997-1.997,5.123-1.997,7.121,0
		s1.997,5.123,0,7.121l-2.605,2.605l1.65,1.65l2.605-2.605c2.866-2.866,2.866-7.555,0-10.42S13.666,0.112,10.801,2.977z"/>
</g>
</svg>
