<?xml version="1.0" encoding="utf-8"?>
<!-- Generator: Adobe Illustrator 18.1.1, SVG Export Plug-In . SVG Version: 6.00 Build 0)  -->
<svg version="1.1" id="Layer_1" xmlns="http://www.w3.org/2000/svg" xmlns:xlink="http://www.w3.org/1999/xlink" x="0px" y="0px"
	 viewBox="0 0 24 24" enable-background="new 0 0 24 24" xml:space="preserve">
<g id="visibility_1_">
	<path d="M12,3.174c-5.418,0-10.077,3.359-11.919,8.126C1.923,16.068,6.582,19.427,12,19.427s10.077-3.359,11.919-8.126
		C22.077,6.533,17.418,3.174,12,3.174z M12,16.718c-3.034,0-5.418-2.384-5.418-5.418S8.966,5.883,12,5.883s5.418,2.384,5.418,5.418
		S15.034,16.718,12,16.718z M12,8.05c-1.842,0-3.251,1.409-3.251,3.251s1.409,3.251,3.251,3.251s3.251-1.409,3.251-3.251
		S13.842,8.05,12,8.05z"/>
</g>
</svg>
