<?xml version="1.0" encoding="utf-8"?>
<!-- Generator: Adobe Illustrator 19.2.0, SVG Export Plug-In . SVG Version: 6.00 Build 0)  -->
<svg version="1.1" id="Layer_1" xmlns="http://www.w3.org/2000/svg" xmlns:xlink="http://www.w3.org/1999/xlink" x="0px" y="0px"
	 viewBox="0 0 512 512" enable-background="new 0 0 512 512" xml:space="preserve">
<g>
	<path fill="#010101" d="M359,162.1V35.9C359,16.2,342.9,0,323.1,0H35.9C16.2,0,0,16.2,0,35.9v219.2C0,274.9,16.2,291,35.9,291
		h162.9C218,219.2,282.1,165.6,359,162.1z M35.9,35.9l143.6,89.8l143.6-89.8v35.9h0l-143.6,89.8L35.9,71.8V35.9z"/>
	<path fill="#010101" d="M367,191.9c-79.2,0-144.1,64.8-144.1,144.1S287.8,480,367,480s144.1-64.8,144.1-144.1
		S446.2,191.9,367,191.9z M438.6,350.1H381v57.6h-28.8v-57.6h-57.6v-28.8h57.6v-57.6H381v57.6h57.6V350.1z"/>
</g>
</svg>
