<?xml version="1.0" encoding="utf-8"?>
<!-- Generator: Adobe Illustrator 18.1.1, SVG Export Plug-In . SVG Version: 6.00 Build 0)  -->
<svg version="1.1" id="Layer_1" xmlns="http://www.w3.org/2000/svg" xmlns:xlink="http://www.w3.org/1999/xlink" x="0px" y="0px"
	 viewBox="0 0 512 512" enable-background="new 0 0 512 512" xml:space="preserve">
<g>
	<path fill="#010101" d="M512.5,105.8V55.9c0-13-10.9-23.9-23.9-23.9H23.9C10.9,32,0,42.9,0,55.9v49.9H512.5z"/>
	<path fill="#010101" d="M0,152.8v284.5c0,13,10.9,23.9,23.9,23.9h464.2c13,0,23.9-10.9,23.9-23.9V152.8H0z M271.4,411.3H241v-30.4
		h30.4V411.3z M301.8,296.2l-13,13c-10.9,10.9-17.4,19.5-17.4,41.3H241v-6.5c0-17.4,6.5-30.4,17.4-41.3l17.4-19.5
		c6.5-4.3,8.7-10.9,8.7-21.7c0-17.4-13-30.4-30.4-30.4s-30.4,13-30.4,30.4h-26.1c0-32.6,26.1-58.6,58.6-58.6s58.6,26.1,58.6,58.6
		C314.9,276.6,310.5,287.5,301.8,296.2z"/>
</g>
</svg>
