<?xml version="1.0" encoding="utf-8"?>
<!-- Generator: Adobe Illustrator 18.1.1, SVG Export Plug-In . SVG Version: 6.00 Build 0)  -->
<svg version="1.1" id="Layer_1" xmlns="http://www.w3.org/2000/svg" xmlns:xlink="http://www.w3.org/1999/xlink" x="0px" y="0px"
	 viewBox="0 0 512 512" enable-background="new 0 0 512 512" xml:space="preserve">
<path fill="#010101" d="M287.9,355.3c0,0-6.1-12.3-8.2-18.4l-6.1-14.3l96-40.8L247.1,96L20.4,324.7L0,345.1l24.5,32.7L51,416.6
	l20.4-8.2l55.1-22.5l6.1,12.3c4.1,10.2,8.2,18.4,8.2,18.4L287.9,355.3z M259.3,347.2L259.3,347.2l-106.2,44.9l0,0c-2,0-2,0-4.1-2
	l-6.1-12.3l110.3-47l6.1,14.3V347.2z M240.9,143l85.8,126.6l-71.5,30.6l-116.4,49l0,0l-61.3,24.5l-12.3,6.1l-24.5-36.8L240.9,143z"
	/>
<rect x="410.7" y="-20.6" transform="matrix(-0.8299 0.5579 -0.5579 -0.8299 841.1823 4.5921)" fill="#010101" width="18.4" height="302.2"/>
<rect x="370.8" y="59.4" transform="matrix(-0.8299 0.5579 -0.5579 -0.8299 780.9777 68.6333)" fill="#010101" width="18.4" height="187.9"/>
<rect x="333.3" y="148" transform="matrix(-0.8299 0.5579 -0.5579 -0.8299 729.2829 145.0543)" fill="#010101" width="18.4" height="71.5"/>
</svg>
