<?xml version="1.0" encoding="utf-8"?>
<!-- Generator: Adobe Illustrator 18.1.1, SVG Export Plug-In . SVG Version: 6.00 Build 0)  -->
<svg version="1.1" id="Layer_1" xmlns="http://www.w3.org/2000/svg" xmlns:xlink="http://www.w3.org/1999/xlink" x="0px" y="0px"
	 viewBox="0 0 512 512" enable-background="new 0 0 512 512" xml:space="preserve">
<g id="help_2_">
	<path fill="#010101" d="M288.9,513.1h-64.4v-65.5h64.4V513.1z M224,383.2c0-77.5,41.8-110.6,53.7-128.8l44-56.8
		c11.5-12.6,22-29.3,22-51.4C343.7,106,329,64,270.4,64C216,64,192,119.7,192,160h-64C128,79.3,189.7-0.3,270.4-0.3
		S416,65.7,416,146.4c0,61.8-64,117.3-64,117.3c-29.3,25.7-64,72.2-64,119.5H224z"/>
</g>
</svg>
