<?xml version="1.0" encoding="utf-8"?>
<!-- Generator: Adobe Illustrator 18.1.1, SVG Export Plug-In . SVG Version: 6.00 Build 0)  -->
<svg version="1.1" id="Layer_1" xmlns="http://www.w3.org/2000/svg" xmlns:xlink="http://www.w3.org/1999/xlink" x="0px" y="0px"
	 viewBox="0 0 24 24" enable-background="new 0 0 24 24" xml:space="preserve">
<path d="M19.7,8.3H4.1c-1.1,0-1.9,0.9-1.9,1.9V22c0,1.1,0.9,1.9,1.9,1.9h15.6c1.1,0,1.9-0.9,1.9-1.9V10.2
	C21.7,9.1,20.8,8.3,19.7,8.3z M13,17v2.9h-2.5V17c-1-0.5-1.7-1.5-1.7-2.6c0-1.6,1.3-2.9,2.9-2.9s2.9,1.3,2.9,2.9
	C14.6,15.5,14,16.5,13,17z"/>
<path d="M5.2,11.3h1.9V7.6l0-0.2l0-0.2c0-0.1,0-0.2,0-0.3c0-2.7,2.2-4.8,4.8-4.8s4.8,2.2,4.8,4.8c0,0.1,0,0.2,0,0.3l0,0.2l0,0.2v3.7
	h1.9V7.6c0-0.1,0-0.1,0-0.2c0-0.1,0-0.3,0-0.4c0-3.7-3-6.7-6.7-6.7s-6.7,3-6.7,6.7c0,0.1,0,0.3,0,0.4c0,0.1,0,0.1,0,0.2V11.3z"/>
</svg>
