<svg id="Layer_1" data-name="Layer 1" xmlns="http://www.w3.org/2000/svg" viewBox="0 0 512 512"><defs><style>.cls-1{fill:#020202;}</style></defs><title>bhi_credentialArtboard 91</title><path class="cls-1" d="M480.3,31.75,32,32C17.7,32,0,49.85,0,64.25V320c0,14.4,17.6,31.75,32,31.75H256v128l96-64,96,64v-128h32c14.4,0,32-17.6,32-32v-256C512,49.45,494.7,31.75,480.3,31.75ZM44,85.37H214v45.3H44ZM44,174h96v45H44Zm170,129.5H44v-45H214Zm192.8-76.4,12.1,77.4-69.4-46.2-65.8,45.8,6-77.4-77.9-31.6,75.4-31.2-12.1-77.4,69.4,46.2,65.8-45.8-6,77.4,77.9,31.6Z"/></svg>