<svg id="Layer_1" data-name="Layer 1" xmlns="http://www.w3.org/2000/svg" viewBox="0 0 512 512"><defs><style>.cls-1{fill:#070606;}</style></defs><title>bhi</title><path class="cls-1" d="M416,512c-6.4,0-10.67-2.13-14.93-6.4L300.8,386.13C290.13,375.47,275.2,352,260.27,352H57.6C23.5,352,0,350.5,0,311.47V57.6C0,25.6,25.6,0,55.47,0H454.4A57.36,57.36,0,0,1,512,57.6V288c0,44-29.87,64-61.87,64H448V490.67C448,499,441.5,512,416,512ZM55.47,32C40.53,32,32,40.53,32,55.47V309.33C32,320,42.5,320,55.47,320H258.13c23.47,0,44.8,25.6,61.87,42.67L416,480V341.33A21.38,21.38,0,0,1,437.33,320h19.2c14.93,0,23.47-17.07,23.47-32V57.6c0-14.93-8.53-25.6-23.47-25.6H55.47Z"/><path class="cls-1" d="M401.07,192H110.93A14.58,14.58,0,0,1,96,177.07v-2.13A14.58,14.58,0,0,1,110.93,160H401.07A14.58,14.58,0,0,1,416,174.93v2.13A14.58,14.58,0,0,1,401.07,192Z"/><path class="cls-1" d="M288,96H110.93A14.58,14.58,0,0,1,96,81.07V78.93A14.58,14.58,0,0,1,110.93,64H288a14.58,14.58,0,0,1,14.93,14.93v2.13A14.58,14.58,0,0,1,288,96Z"/><path class="cls-1" d="M369.07,288H110.93A14.58,14.58,0,0,1,96,273.07v-2.13A14.58,14.58,0,0,1,110.93,256H369.07A14.58,14.58,0,0,1,384,270.93v2.13A14.58,14.58,0,0,1,369.07,288Z"/></svg>