<?xml version="1.0" encoding="utf-8"?>
<!-- Generator: Adobe Illustrator 19.2.0, SVG Export Plug-In . SVG Version: 6.00 Build 0)  -->
<svg version="1.1" id="Layer_1" xmlns="http://www.w3.org/2000/svg" xmlns:xlink="http://www.w3.org/1999/xlink" x="0px" y="0px"
	 viewBox="0 0 512 512" enable-background="new 0 0 512 512" xml:space="preserve">
<path fill="#010101" d="M300,128H180.9c-11.6,0-20.9,9.4-20.9,21v227.1c0,11.6,9.3,20.9,20.9,20.9h150.2c11.6,0,20.9-9.3,20.9-20.9
	V197.3V180L300,128z M317.3,341.7c0,5.7-4.6,10.3-10.3,10.3H205c-5.7,0-10.3-4.6-10.3-10.3V197.3h122.7V341.7z M288,180v-34.7
	l32,34.7H288z"/>
<g>
	<polygon points="0,0 0,166.2 0,192 32,192 32,166.2 32,32 168.1,32 192,32 192,0 168.1,0 	"/>
	<rect x="224" y="480" width="32" height="32"/>
	<rect y="256" width="32" height="32"/>
	<polygon points="32,384 0,384 0,472.6 0,479.8 0,512 32.3,512 39.4,512 128,512 128,480 32,480 	"/>
	<rect x="256" width="32" height="32"/>
	<polygon points="401.4,0 393.7,0 384,0 384,32 393.7,32 401.4,32 480,32 480,128 512,128 512,39.4 512,32.9 512,0 	"/>
	<rect x="480" y="224" width="32" height="32.5"/>
	<polygon points="480,339.7 480,339.7 480,480 352,480 352,480 320,480 320,512 352,512 352,512 512,512 512,339.7 512,339.7 
		512,320 480,320 	"/>
</g>
</svg>
