<?xml version="1.0" encoding="utf-8"?>
<!-- Generator: Adobe Illustrator 18.1.1, SVG Export Plug-In . SVG Version: 6.00 Build 0)  -->
<svg version="1.1" id="Layer_1" xmlns="http://www.w3.org/2000/svg" xmlns:xlink="http://www.w3.org/1999/xlink" x="0px" y="0px"
	 viewBox="0 0 512 512" enable-background="new 0 0 512 512" xml:space="preserve">
<path fill="#010101" d="M205.2,33.5C58.9,47.7-47,200.6,21.2,359c19.3,44.8,54.4,81.8,98.4,102.7c102.5,48.8,205.4,22.4,269.3-42.3
	L227.2,258V54.6c0-11.6,0-22.6,0-22.6C215.8,32,205.2,33.5,205.2,33.5z"/>
<path fill="#010101" d="M256.1,21.5V224h227.2c0-118-90-212.5-205.2-223.5c0.4-0.1-16.6-0.9-22.1-0.1L256.1,21.5z"/>
<g>
	<path fill="#010101" d="M511.6,256c0,63-25.7,118.9-67.4,160c0,0-0.1,0-0.1,0L288,256H511.6z"/>
</g>
</svg>
