<?xml version="1.0" encoding="utf-8"?>
<!-- Generator: Adobe Illustrator 18.1.1, SVG Export Plug-In . SVG Version: 6.00 Build 0)  -->
<svg version="1.1" id="Layer_1" xmlns="http://www.w3.org/2000/svg" xmlns:xlink="http://www.w3.org/1999/xlink" x="0px" y="0px"
	 viewBox="0 0 24 24" enable-background="new 0 0 24 24" xml:space="preserve">
<g>
	<path d="M12.1,23.9c-6.6,0-12-5.4-12-12s5.4-12,12-12s12,5.4,12,12S18.7,23.9,12.1,23.9z M12.1,1.8C6.4,1.8,1.9,6.3,1.9,12
		s4.6,10.2,10.2,10.2c5.6,0,10.2-4.6,10.2-10.2S17.7,1.8,12.1,1.8z"/>
</g>
<g>
	<path d="M12.2,14.9l-5.6-2.8l0,3.9c0,0.6,0.5,1.1,1.1,1.1h9.1c0.6,0,1.1-0.5,1.1-1.1v-4L12.2,14.9z"/>
	<path d="M12.2,13.9l5.7-2.8V9.8c0-0.6-0.5-1.1-1.1-1.1h-2.3V7.6c0-0.6-0.5-1.1-1.1-1.1h-2.3c-0.6,0-1.1,0.5-1.1,1.1v1.1H7.7
		c-0.6,0-1.1,0.5-1.1,1.1l0,1.3L12.2,13.9z M11.1,7.6h2.3v1.1h-2.3V7.6z M10.5,11h3.4v0.9l-1.7,0.9l-1.7-0.9V11z"/>
</g>
</svg>
