<?xml version="1.0" encoding="utf-8"?>
<!-- Generator: Adobe Illustrator 18.1.1, SVG Export Plug-In . SVG Version: 6.00 Build 0)  -->
<svg version="1.1" id="Layer_1" xmlns="http://www.w3.org/2000/svg" xmlns:xlink="http://www.w3.org/1999/xlink" x="0px" y="0px"
	 viewBox="0 0 24 24" enable-background="new 0 0 24 24" xml:space="preserve">
<g>
	<path d="M17.223,0.188c-3.678,0-6.687,3.009-6.687,6.687s3.009,6.687,6.687,6.687s6.687-3.009,6.687-6.687
		S20.901,0.188,17.223,0.188z M20.548,7.533h-2.675v2.675h-1.337V7.533h-2.675V6.195h2.675V3.52h1.337v2.675h2.675V7.533z"/>
	<path d="M17.292,15.947c-0.797,3.425-3.868,5.987-7.532,5.987c-4.267,0-7.739-3.472-7.739-7.74c0-3.719,2.638-6.832,6.14-7.571
		c0.019-0.675,0.113-1.33,0.272-1.961c-4.685,0.65-8.307,4.671-8.307,9.532c0,5.313,4.322,9.635,9.634,9.635
		c4.796,0,8.773-3.525,9.504-8.119C18.628,15.858,17.97,15.942,17.292,15.947z"/>
</g>
</svg>
