<?xml version="1.0" encoding="utf-8"?>
<!-- Generator: Adobe Illustrator 18.1.1, SVG Export Plug-In . SVG Version: 6.00 Build 0)  -->
<svg version="1.1" id="Layer_1" xmlns="http://www.w3.org/2000/svg" xmlns:xlink="http://www.w3.org/1999/xlink" x="0px" y="0px"
	 viewBox="0 0 512 512" enable-background="new 0 0 512 512" xml:space="preserve">
<path fill="#010101" d="M321.1,417.9l122.6-122.6c2.2-2.2,6.5-6.5,10.8-10.8c6.5-6.5,6.5-17.2,0-23.7c-4.3-4.3-8.6-8.6-10.8-10.8
	l-185-185l30.1-28c0,0,21.5,21.5,28,28l185,185l2.2,2.2c10.8,12.9,10.8,30.1,0,43l-2.2,2.2L351.2,448L321.1,417.9z"/>
<path fill="#010101" d="M215.7,423.4c10.8,8.6,25.8,8.6,36.6,0l137.7-137.7c10.8-10.8,10.8-25.8,0-36.6L198.5,55.7
	c-6.5-6.5-15.1-10.8-25.8-15.1C162,36.3,151.2,32,142.6,32H35.1c-2.2,0-4.7,0.7-7.3,1.7C16.1,38.2,6.8,47.4,2.3,59.1
	c-1,2.6-1.7,5.2-1.7,7.3V174c0,8.6,2.2,19.4,6.5,30.1s10.8,19.4,17.2,25.8L215.7,423.4z M108.2,139.5c-6.5,6.5-15.1,10.8-23.7,10.8
	s-17.2-4.3-23.7-10.8s-10.8-15.1-10.8-23.7c0-8.6,4.3-17.2,10.8-23.7c6.5-6.5,15.1-10.8,23.7-10.8s17.2,4.3,23.7,10.8
	c6.5,6.5,10.8,15.1,10.8,23.7C116.8,124.5,114.6,133.1,108.2,139.5z"/>
</svg>
