<?xml version="1.0" encoding="utf-8"?>
<!-- Generator: Adobe Illustrator 19.2.0, SVG Export Plug-In . SVG Version: 6.00 Build 0)  -->
<svg version="1.1" id="Layer_1" xmlns="http://www.w3.org/2000/svg" xmlns:xlink="http://www.w3.org/1999/xlink" x="0px" y="0px"
	 viewBox="0 0 512 512" enable-background="new 0 0 512 512" xml:space="preserve">
<path fill="#010101" d="M402.9,362.9c0,0-8.6-17.1-11.4-25.7l-8.6-20L517.2,260L345.7,0L28.6,320L0,348.6l34.3,45.7l37.1,54.3
	l28.6-11.4l77.1-31.4l8.6,17.1c5.7,14.3,11.4,25.7,11.4,25.7L402.9,362.9z M362.9,351.4L362.9,351.4l-148.6,62.9l0,0
	c-2.9,0-2.9,0-5.7-2.9l-8.6-17.1l154.3-65.7l8.6,20V351.4z M337.2,65.7l120,177.1l-100,42.9l-162.9,68.6l0,0l-85.7,34.3l-17.1,8.6
	l-34.3-51.4L337.2,65.7z"/>
</svg>
