<?xml version="1.0" encoding="utf-8"?>
<!-- Generator: Adobe Illustrator 18.1.1, SVG Export Plug-In . SVG Version: 6.00 Build 0)  -->
<svg version="1.1" id="Layer_1" xmlns="http://www.w3.org/2000/svg" xmlns:xlink="http://www.w3.org/1999/xlink" x="0px" y="0px"
	 viewBox="0 0 512 512" enable-background="new 0 0 512 512" xml:space="preserve">
<path fill="#010101" d="M263,505.5c-69.9,0-135.1-28-184-76.9c-48.9-48.9-76.9-114.1-76.9-184s28-135.1,76.9-184
	c28-28,60.6-46.6,97.8-60.6c2.3,0,4.7,0,4.7,0c4.7,0,9.3,2.3,11.6,4.7c4.7,4.7,7,11.6,4.7,16.3c-30.3,83.9-9.3,174.7,53.6,237.6
	c41.9,41.9,100.2,65.2,160.7,65.2c25.6,0,51.2-4.7,76.9-14c2.3,0,4.7,0,4.7,0c4.7,0,9.3,2.3,11.6,4.7c4.7,4.7,7,11.6,4.7,16.3
	c-14,37.3-34.9,69.9-60.6,97.8C398.1,477.6,332.9,505.5,263,505.5z M120.9,65.2c-7,7-11.6,11.6-18.6,18.6
	C60.4,125.8,34.7,184,34.7,244.6S58,363.4,102.3,405.3c41.9,41.9,100.2,65.2,160.7,65.2c69.9,0,135.1-30.3,179.4-86.2l25.6-32.6
	l-39.6,2.3c-4.7,0-11.6,0-16.3,0c-69.9,0-135.1-28-184-76.9c-53.6-48.9-81.5-121.1-76.9-195.7l2.3-39.6L120.9,65.2z"/>
</svg>
