<?xml version="1.0" encoding="utf-8"?>
<!-- Generator: Adobe Illustrator 18.1.1, SVG Export Plug-In . SVG Version: 6.00 Build 0)  -->
<svg version="1.1" id="Layer_1" xmlns="http://www.w3.org/2000/svg" xmlns:xlink="http://www.w3.org/1999/xlink" x="0px" y="0px"
	 viewBox="0 0 24 24" enable-background="new 0 0 24 24" xml:space="preserve">
<path d="M11.5,24.1c-5.5,0-10-4.5-10-10l10,0c0,0,0,0,0,0L11.5,24.1z"/>
<path d="M9.5,2.2v7.4H2.1c0.4-1.4,1.3-2.8,2.6-4.2C6.1,3.9,7.9,2.7,9.5,2.2 M11.1-0.1C5.9-0.1-0.5,6.5-0.2,11.6h11.7V0
	C11.4-0.1,11.2-0.1,11.1-0.1L11.1-0.1z"/>
<path d="M13.9,1.6c5.5,0,10,4.5,10,10l-10,0c0,0,0,0,0,0L13.9,1.6z"/>
<path d="M23.9,14.1c0,5.5-4.5,10-10,10l0-10c0,0,0,0,0,0L23.9,14.1z"/>
</svg>
