<?xml version="1.0" encoding="utf-8"?>
<!-- Generator: Adobe Illustrator 18.1.1, SVG Export Plug-In . SVG Version: 6.00 Build 0)  -->
<svg version="1.1" id="Layer_1" xmlns="http://www.w3.org/2000/svg" xmlns:xlink="http://www.w3.org/1999/xlink" x="0px" y="0px"
	 viewBox="0 0 24 24" enable-background="new 0 0 24 24" xml:space="preserve">
<polygon points="22.3,9.9 24,9.9 24,3.9 18,3.9 18,5.6 21.1,5.6 15.3,11.4 16.5,12.6 22.3,6.8 "/>
<g>
	<g>
		<path d="M13.9,3.8H0.7c-0.4,0-0.7,0.3-0.7,0.7v16.1c0,0.4,0.3,0.7,0.7,0.7h21.7c0.4,0,0.7-0.3,0.7-0.7v-6.8h-2v5.5H2V5.8h11.9V3.8
			z"/>
	</g>
</g>
<rect x="3.7" y="15.6" width="9.3" height="2"/>
<rect x="3.7" y="11.6" width="9.3" height="2"/>
<rect x="3.7" y="7.6" width="9.3" height="2"/>
</svg>
