<?xml version="1.0" encoding="utf-8"?>
<!-- Generator: Adobe Illustrator 18.1.1, SVG Export Plug-In . SVG Version: 6.00 Build 0)  -->
<svg version="1.1" id="Layer_1" xmlns="http://www.w3.org/2000/svg" xmlns:xlink="http://www.w3.org/1999/xlink" x="0px" y="0px"
	 viewBox="0 0 512 512" enable-background="new 0 0 512 512" xml:space="preserve">
<path fill="#010101" d="M402.8,360.7c-19.6,0-37.1,7.7-50.5,19.8L184.2,273.7c1.3-5.9,2.3-11.8,2.3-18c0-6.2-1-12.1-2.3-18
	l166.1-104c13.9,12.9,32.2,20.9,52.5,20.9c42.7,0,77.2-34.5,77.2-77.2S445.5,0,402.8,0s-77.2,34.5-77.2,77.2c0,6.2,1,12.1,2.3,18
	l-166.1,104c-13.9-12.9-32.2-20.9-52.5-20.9c-42.7,0-77.2,34.5-77.2,77.2s34.5,77.2,77.2,77.2c20.3,0,38.6-8,52.5-20.9l167.9,107.1
	c-1.3,5.4-2.1,11.1-2.1,16.7c0,41.5,33.7,75.2,75.2,75.2s75.2-33.7,75.2-75.2S444.2,360.7,402.8,360.7z"/>
</svg>
