<?xml version="1.0" encoding="utf-8"?>
<!-- Generator: Adobe Illustrator 18.1.1, SVG Export Plug-In . SVG Version: 6.00 Build 0)  -->
<svg version="1.1" id="Layer_1" xmlns="http://www.w3.org/2000/svg" xmlns:xlink="http://www.w3.org/1999/xlink" x="0px" y="0px"
	 viewBox="0 0 24 24" enable-background="new 0 0 24 24" xml:space="preserve">
<g>
	<path d="M7.396,2.655v19.292h8.842V2.655H7.396z M14.722,20.231H9.092v-2.203h5.631V20.231z M14.722,16.817H9.092v-2.203h5.631
		V16.817z M14.722,13.402H9.092V11.2h5.631V13.402z M14.722,9.988H9.092V7.785h5.631V9.988z M14.722,6.573H9.092V4.371h5.631V6.573z
		"/>
	<polygon points="18.005,9.325 18.005,11.083 21.387,11.083 21.387,13.16 18.005,13.16 18.005,14.303 21.387,14.303 21.387,16.38 
		18.005,16.38 18.005,17.523 21.387,17.523 21.387,19.6 18.005,19.6 18.005,21.217 22.816,21.217 22.816,9.325 	"/>
	<polygon points="5.197,19.588 2.735,19.588 2.735,17.573 5.197,17.573 5.197,16.465 2.735,16.465 2.735,14.451 5.197,14.451 
		5.197,13.343 2.735,13.343 2.735,11.328 5.197,11.328 5.197,10.22 2.735,10.22 2.735,8.206 5.197,8.206 5.197,6.529 1.184,6.529 
		1.184,21.156 5.197,21.156 	"/>
</g>
</svg>
