<svg id="Layer_1" data-name="Layer 1" xmlns="http://www.w3.org/2000/svg" viewBox="0 0 512 512"><title>bhi</title><path d="M311.2,409.59A241.65,241.65,0,0,0,397.6,12.35L385.25,0,339.31,45.94A176.7,176.7,0,0,0,226.8,5.63c-97.89,0-177.52,79.64-177.52,177.52A176.7,176.7,0,0,0,89.59,295.66L43.65,341.6,56,353.95a239.73,239.73,0,0,0,150.43,69.89v44.51H101.66V512H450.89V468.35H311.2ZM114.29,320.36A176.7,176.7,0,0,0,226.8,360.67c97.89,0,177.52-79.64,177.52-177.52A176.7,176.7,0,0,0,364,70.63l20.73-20.73c68.51,81.1,64.57,202.94-11.83,279.35S174.65,409.6,93.56,341.08Z"/></svg>