<?xml version="1.0" encoding="utf-8"?>
<!-- Generator: Adobe Illustrator 18.1.1, SVG Export Plug-In . SVG Version: 6.00 Build 0)  -->
<svg version="1.1" id="Layer_1" xmlns="http://www.w3.org/2000/svg" xmlns:xlink="http://www.w3.org/1999/xlink" x="0px" y="0px"
	 viewBox="0 0 512 512" enable-background="new 0 0 512 512" xml:space="preserve">
<rect x="96" y="192" fill="#010101" width="320" height="64"/>
<rect x="96" y="288" fill="#010101" width="320" height="64"/>
<rect x="96" y="384" fill="#010101" width="320" height="64"/>
<path fill="#010101" d="M433.8,46.2h-110C313.3,18.9,288.1,0,258.7,0c-29.4,0-56.7,18.9-67.2,46.2H64c-25.2,0-30.9,21-30.9,46.2
	v373.8c0,25.2,5.7,46.2,30.9,46.2h369.8c25.2,0,46.2-21,46.2-46.2V92.4C480,67.2,461.1,46.2,433.8,46.2z M258.7,46.2
	c12.6,0,23.1,10.5,23.1,23.1s-10.5,23.1-23.1,23.1c-12.6,0-23.1-10.5-23.1-23.1S246.1,46.2,258.7,46.2z M448,480H64V96h96v64h192V96
	h96v370.2L448,480z"/>
</svg>
