<?xml version="1.0" encoding="utf-8"?>
<!-- Generator: Adobe Illustrator 18.1.1, SVG Export Plug-In . SVG Version: 6.00 Build 0)  -->
<svg version="1.1" id="Layer_1" xmlns="http://www.w3.org/2000/svg" xmlns:xlink="http://www.w3.org/1999/xlink" x="0px" y="0px"
	 viewBox="0 0 24 24" enable-background="new 0 0 24 24" xml:space="preserve">
<path d="M12.899,4.665H2.343c-1.19,0-2.158,0.968-2.158,2.158v12.414c0,1.291,1.05,2.342,2.342,2.342h12.231
	c1.291,0,2.342-1.051,2.342-2.342v-4.424l-1.458,0.001l-0.02,4.423c0,0.477-0.388,0.864-0.864,0.864H2.527
	c-0.476,0-0.864-0.387-0.864-0.864V6.822c0-0.375,0.305-0.68,0.68-0.68h10.549L12.899,4.665z"/>
<g id="call-made_3_">
	<polygon points="15.326,2.421 15.326,4.141 21,4.141 10.168,14.973 11.371,16.177 22.204,5.344 22.204,11.019 23.923,11.019 
		23.923,2.421 	"/>
</g>
</svg>
