<?xml version="1.0" encoding="UTF-8" standalone="no"?>
<svg width="16px" height="16px" viewBox="0 0 16 16" version="1.1" xmlns="http://www.w3.org/2000/svg" xmlns:xlink="http://www.w3.org/1999/xlink" xmlns:sketch="http://www.bohemiancoding.com/sketch/ns">
    <!-- Generator: Sketch 3.3.3 (12072) - http://www.bohemiancoding.com/sketch -->
    <title>bhi_view-module</title>
    <desc>Created with Sketch.</desc>
    <defs></defs>
    <g id="Page-1" stroke="none" stroke-width="1" fill="none" fill-rule="evenodd" sketch:type="MSPage">
        <g id="Bounds" sketch:type="MSArtboardGroup" fill="#000000">
            <g id="bhi_view-module" sketch:type="MSLayerGroup" transform="translate(1.000000, 1.000000)">
                <path d="M0,6 L4,6 L4,0 L0,0 L0,6 L0,6 Z" id="Path" sketch:type="MSShapeGroup"></path>
                <path d="M4,13 L4,7 L0,7 L0,13 L4,13 Z" id="Path" sketch:type="MSShapeGroup"></path>
                <path d="M9,13 L9,7 L5,7 L5,13 L9,13 Z" id="Path" sketch:type="MSShapeGroup"></path>
                <path d="M14,13 L14,7 L10,7 L10,13 L14,13 Z" id="Path" sketch:type="MSShapeGroup"></path>
                <path d="M5,6 L9,6 L9,0 L5,0 L5,6 L5,6 Z" id="Path" sketch:type="MSShapeGroup"></path>
                <path d="M10,0 L10,6 L14,6 L14,0 L10,0 L10,0 Z" id="Path" sketch:type="MSShapeGroup"></path>
            </g>
        </g>
    </g>
</svg>