<?xml version="1.0" encoding="utf-8"?>
<!-- Generator: Adobe Illustrator 18.1.1, SVG Export Plug-In . SVG Version: 6.00 Build 0)  -->
<svg version="1.1" id="Layer_1" xmlns="http://www.w3.org/2000/svg" xmlns:xlink="http://www.w3.org/1999/xlink" x="0px" y="0px"
	 viewBox="0 0 24 24" enable-background="new 0 0 24 24" xml:space="preserve">
<path d="M12.6,1.1c-4,0-7.5,2.2-9.3,5.5L0.6,3.9v7.4H8L4.8,8.1c1.5-2.8,4.3-4.8,7.7-4.8c4.7,0,8.5,3.9,8.5,8.5s-3.9,8.5-8.5,8.5
	c-3.8,0-6.8-2.4-8.1-5.7H2.1c1.3,4.5,5.5,8,10.5,8c6,0,10.8-4.9,10.8-10.8S18.5,1.1,12.6,1.1z"/>
<polygon points="10.9,6.8 10.9,12.5 16.2,15.7 17.1,14.3 12.6,11.5 12.6,6.8 "/>
</svg>
