<?xml version="1.0" encoding="utf-8"?>
<!-- Generator: Adobe Illustrator 18.1.1, SVG Export Plug-In . SVG Version: 6.00 Build 0)  -->
<svg version="1.1" id="Layer_1" xmlns="http://www.w3.org/2000/svg" xmlns:xlink="http://www.w3.org/1999/xlink" x="0px" y="0px"
	 viewBox="0 0 24 24" enable-background="new 0 0 24 24" xml:space="preserve">
<path d="M20.5,16c-0.5,0-0.9,0.1-1.3,0.3l-6.4-5.9V7.4c1-0.3,1.8-1.3,1.8-2.5c0-1.4-1.2-2.6-2.6-2.6S9.4,3.5,9.4,5
	c0,1.2,0.8,2.1,1.8,2.5v3.1l-6.4,5.9C4.4,16.2,4,16,3.5,16c-1.4,0-2.6,1.2-2.6,2.6s1.2,2.6,2.6,2.6s2.6-1.2,2.6-2.6
	c0-0.4-0.1-0.7-0.2-1.1l5.3-4.8v3.4c-1,0.3-1.8,1.3-1.8,2.5c0,1.4,1.2,2.6,2.6,2.6s2.6-1.2,2.6-2.6c0-1.2-0.8-2.1-1.8-2.5v-3.4
	l5.3,4.8c-0.1,0.3-0.2,0.7-0.2,1.1c0,1.4,1.2,2.6,2.6,2.6c1.4,0,2.6-1.2,2.6-2.6S21.9,16,20.5,16z"/>
</svg>
