<?xml version="1.0" encoding="utf-8"?>
<!-- Generator: Adobe Illustrator 19.2.0, SVG Export Plug-In . SVG Version: 6.00 Build 0)  -->
<svg version="1.1" id="Layer_1" xmlns="http://www.w3.org/2000/svg" xmlns:xlink="http://www.w3.org/1999/xlink" x="0px" y="0px"
	 viewBox="0 0 512 512" enable-background="new 0 0 512 512" xml:space="preserve">
<path fill="#010101" d="M307.8,288.8c-6.8,18.5-17.5,36-32.4,50.8c-54.9,54.9-144.2,54.9-199.1,0s-54.9-144.2,0-199.1
	s144.2-54.9,199.1,0c14.9,14.9,25.6,32.3,32.4,50.9h37.1c-7.9-27.8-22.7-53.9-44.6-75.7C231.7,47,120.1,47,51.5,115.6
	s-68.6,180.3,0,248.9s180.3,68.6,248.9,0c21.8-21.8,36.6-48,44.6-75.7L307.8,288.8z"/>
<g id="call-made_4_">
	<polygon fill="#010101" points="394.5,127.7 371,151.2 448.5,223.7 152.4,223.7 152.4,255.7 448.5,255.7 371,328.2 394.5,351.7 
		512,240.2 	"/>
</g>
</svg>
