<?xml version="1.0" encoding="utf-8"?>
<!-- Generator: Adobe Illustrator 18.1.1, SVG Export Plug-In . SVG Version: 6.00 Build 0)  -->
<svg version="1.1" id="Layer_1" xmlns="http://www.w3.org/2000/svg" xmlns:xlink="http://www.w3.org/1999/xlink" x="0px" y="0px"
	 viewBox="0 0 24 24" enable-background="new 0 0 24 24" xml:space="preserve">
<g>
	<path d="M15.7,20.6l4.6-5l-3.4-3.4l-0.4-0.4l-4.8,5.1l0,0c-0.1,0.1-0.1,0.2-0.2,0.2c-1.3,1.3-3.3,1.3-4.6,0c-1.3-1.3-1.3-3.3,0-4.6
		c0.1-0.1,0.2-0.2,0.2-0.2l0,0l5.1-4.8l-0.4-0.4L8.4,3.7L3.3,8.4C3.1,8.6,2.8,8.8,2.6,9C2.4,9.3,2.1,9.5,2,9.8L1.9,9.9l0,0
		c-2.7,3.4-2.4,8.4,0.7,11.6c3.2,3.2,8.1,3.4,11.6,0.7l0,0l0,0c0.3-0.2,0.6-0.5,0.8-0.7C15.2,21.2,15.5,20.9,15.7,20.6z"/>
	<rect x="10" y="1.7" transform="matrix(0.7071 0.7071 -0.7071 0.7071 5.9834 -8.1078)" width="5.5" height="3"/>
	<rect x="18.1" y="9.8" transform="matrix(0.7071 0.7071 -0.7071 0.7071 14.0782 -11.4608)" width="5.5" height="3"/>
</g>
</svg>
