<svg id="Layer_1" data-name="Layer 1" xmlns="http://www.w3.org/2000/svg" viewBox="0 0 512 512"><defs><style>.cls-1{fill:#010101;}</style></defs><title>bhi_JB</title><path class="cls-1" d="M352,0H102.54A38.57,38.57,0,0,0,64,38.77V473.46A38.38,38.38,0,0,0,102.54,512H409.46A38.38,38.38,0,0,0,448,473.46V96Zm64,459.09c0,11.55-10.64,20.91-23.77,20.91H119.77C106.64,480,96,470.64,96,459.09V128H416ZM320,96V32l64,64Z"/><polygon class="cls-1" points="188.94 326.64 162.38 353.17 257.19 448 352 353.17 325.45 326.64 276.15 375.94 276.15 192 238.24 192 238.24 375.94 188.94 326.64"/></svg>