<svg id="Layer_1" data-name="Layer 1" xmlns="http://www.w3.org/2000/svg" viewBox="0 0 512 512"><title>bhi</title><polygon points="1 411.83 1 443.83 256 507.83 511 443.83 511 411.83 256 475.83 1 411.83"/><path d="M496,0C393.29,0,306.35,21,277.52,38.62A129.45,129.45,0,0,0,256,54.83,140.13,140.13,0,0,0,226.24,33.9C184.26,11.4,93,0,16,0H0V375.67l256,68.9,256-68.9V0ZM32,32.19c45.56,1.08,133.79,7.2,175.25,27.91,20.1,10,29.32,20.06,32.75,24.57V406.2L32,352ZM480,352,272,406.2V84.67c2.76-3.64,9.28-10.85,22.2-18.74C318.07,51.34,395,34.11,480,32.18Z"/></svg>