<svg width="48" height="48" viewBox="0 0 48 48" fill="none" xmlns="http://www.w3.org/2000/svg">
<path d="M0 0L5.33333 0V5.33333L0 5.33333V0ZM10.6667 0L16 0V5.33333L10.6667 5.33333V0ZM21.3333 0L26.6667 0V5.33333L21.3333 5.33333V0ZM32 0L37.3333 0V5.33333L32 5.33333V0ZM42.6667 0L48 0L48 48H42.6667L42.6667 0ZM0 10.6667L5.33333 10.6667V16L0 16V10.6667ZM21.3333 10.6667L26.6667 10.6667V16L21.3333 16V10.6667ZM0 21.3333H5.33333V26.6667H0V21.3333ZM10.6667 21.3333H16V26.6667H10.6667V21.3333ZM21.3333 21.3333H26.6667V26.6667H21.3333V21.3333ZM32 21.3333H37.3333L37.3333 26.6667H32V21.3333ZM0 32H5.33333V37.3333H0V32ZM21.3333 32H26.6667V37.3333H21.3333V32ZM0 42.6667H5.33333V48H0V42.6667ZM10.6667 42.6667H16V48H10.6667V42.6667ZM21.3333 42.6667H26.6667V48H21.3333V42.6667ZM32 42.6667H37.3333V48H32V42.6667Z" fill="#282828"/>
</svg>
