<svg width="48" height="48" viewBox="0 0 48 48" fill="none" xmlns="http://www.w3.org/2000/svg">
<path d="M48 48H42.6667V42.6667H48V48ZM37.3333 48H32V42.6667H37.3333V48ZM26.6667 48H21.3333V42.6667H26.6667V48ZM16 48H10.6667V42.6667H16V48ZM5.33333 48H0L0 0H5.33333L5.33333 48ZM48 37.3333H42.6667V32H48V37.3333ZM26.6667 37.3333H21.3333V32H26.6667V37.3333ZM48 26.6667H42.6667V21.3333H48V26.6667ZM37.3333 26.6667H32V21.3333H37.3333V26.6667ZM26.6667 26.6667H21.3333V21.3333H26.6667V26.6667ZM16 26.6667H10.6667V21.3333H16V26.6667ZM48 16H42.6667V10.6667H48V16ZM26.6667 16H21.3333V10.6667H26.6667V16ZM48 5.33333H42.6667V0H48V5.33333ZM37.3333 5.33333H32V0H37.3333V5.33333ZM26.6667 5.33333H21.3333V0H26.6667V5.33333ZM16 5.33333H10.6667L10.6667 0H16V5.33333Z" fill="#282828"/>
</svg>
