<svg width="48" height="48" viewBox="0 0 48 48" fill="none" xmlns="http://www.w3.org/2000/svg">
<path d="M0 47.9948V42.6614H5.33333V47.9948H0ZM0 37.3281V31.9948H5.33333V37.3281H0ZM0 26.6614V21.3281H5.33333V26.6614H0ZM0 15.9948V10.6614H5.33333V15.9948H0ZM10.6667 47.9948V42.6614H16V47.9948H10.6667ZM10.6667 26.6614V21.3281H16V26.6614H10.6667ZM21.3333 47.9948V42.6614H26.6667V47.9948H21.3333ZM21.3333 37.3281V31.9948H26.6667V37.3281H21.3333ZM21.3333 26.6614V21.3281H26.6667V26.6614H21.3333ZM21.3333 15.9948V10.6614H26.6667V15.9948H21.3333ZM32 47.9948V42.6614H37.3333V47.9948H32ZM32 26.6614V21.3281H37.3333V26.6614H32ZM42.6667 47.9948V42.6614H48V47.9948H42.6667ZM42.6667 37.3281V31.9948H48V37.3281H42.6667ZM42.6667 26.6614V21.3281H48V26.6614H42.6667ZM42.6667 15.9948V10.6614H48V15.9948H42.6667Z" fill="#282828"/>
<path d="M48 -2.28882e-05V5.33331H42.6667L42.6667 -2.28882e-05H48ZM48 32V37.3333H42.6667V32H48ZM37.3333 -2.28882e-05L37.3333 5.33331H32L32 -2.28882e-05H37.3333ZM37.3333 21.3333V26.6666H32V21.3333L37.3333 21.3333ZM26.6667 -2.28882e-05V5.33331H21.3333V-2.28882e-05H26.6667ZM26.6667 10.6666V16H21.3333V10.6666H26.6667ZM26.6667 21.3333L26.6667 26.6666L21.3333 26.6666L21.3333 21.3333H26.6667ZM26.6667 32V37.3333H21.3333V32H26.6667ZM16 -2.28882e-05V5.33331H10.6667V-2.28882e-05H16ZM16 21.3333L16 26.6666L10.6667 26.6666V21.3333H16ZM5.33333 -2.28882e-05V5.33331H0V-2.28882e-05H5.33333ZM5.33333 10.6666V16L0 16V10.6666L5.33333 10.6666ZM5.33333 21.3333V26.6666H0V21.3333L5.33333 21.3333ZM5.33333 32V37.3333H0V32H5.33333Z" fill="#282828"/>
</svg>
