<svg width="48" height="48" viewBox="0 0 48 48" fill="none" xmlns="http://www.w3.org/2000/svg">
<path d="M48 0V5.33333H42.6667V0H48ZM48 10.6667V16H42.6667L42.6667 10.6667H48ZM48 21.3333V26.6667H42.6667V21.3333H48ZM48 32V37.3333H42.6667V32H48ZM48 42.6667V48L0 48V42.6667L48 42.6667ZM37.3333 0V5.33333H32V0H37.3333ZM37.3333 21.3333V26.6667L32 26.6667V21.3333L37.3333 21.3333ZM26.6667 0L26.6667 5.33333H21.3333L21.3333 0H26.6667ZM26.6667 10.6667V16H21.3333V10.6667H26.6667ZM26.6667 21.3333V26.6667H21.3333V21.3333H26.6667ZM26.6667 32L26.6667 37.3333H21.3333L21.3333 32H26.6667ZM16 0L16 5.33333H10.6667V0H16ZM16 21.3333V26.6667H10.6667V21.3333H16ZM5.33333 0V5.33333H0V0H5.33333ZM5.33333 10.6667V16H0V10.6667H5.33333ZM5.33333 21.3333V26.6667L0 26.6667V21.3333L5.33333 21.3333ZM5.33333 32V37.3333H0V32L5.33333 32Z" fill="#282828"/>
</svg>
