<svg width="48" height="48" viewBox="0 0 48 48" fill="none" xmlns="http://www.w3.org/2000/svg">
<path d="M0 48V42.6667H5.33333V48H0ZM0 37.3333V32H5.33333V37.3333H0ZM0 26.6667V21.3333H5.33333V26.6667H0ZM0 16V10.6667H5.33333V16H0ZM0 5.33333V0H48V5.33333H0ZM10.6667 48V42.6667H16V48H10.6667ZM10.6667 26.6667V21.3333H16V26.6667H10.6667ZM21.3333 48V42.6667H26.6667V48H21.3333ZM21.3333 37.3333V32H26.6667V37.3333H21.3333ZM21.3333 26.6667V21.3333H26.6667V26.6667H21.3333ZM21.3333 16V10.6667H26.6667V16H21.3333ZM32 48V42.6667H37.3333V48H32ZM32 26.6667V21.3333H37.3333V26.6667H32ZM42.6667 48V42.6667H48V48H42.6667ZM42.6667 37.3333V32H48V37.3333H42.6667ZM42.6667 26.6667V21.3333H48V26.6667H42.6667ZM42.6667 16V10.6667H48V16H42.6667Z" fill="#282828"/>
</svg>
