<svg width="48" height="49" viewBox="0 0 48 49" fill="none" xmlns="http://www.w3.org/2000/svg">
<path d="M0 48.9948V3.99738L5.33333 3.15363V48.9948H0ZM0 38.3281V32.9948H5.33333V38.3281H0ZM0 27.6614V22.3281H5.33333V27.6614H0ZM0 16.9948V11.6614H5.33333V16.9948H0ZM10.6667 48.9948V43.6614H16V48.9948H10.6667ZM10.6667 27.6614V22.3281H16V27.6614H10.6667ZM21.3333 48.9948V43.6614H26.6667V48.9948H21.3333ZM21.3333 38.3281V32.9948H26.6667V38.3281H21.3333ZM21.3333 27.6614V22.3281H26.6667V27.6614H21.3333ZM21.3333 16.9948V11.6614H26.6667V16.9948H21.3333ZM32 48.9948V43.6614H37.3333V48.9948H32ZM32 27.6614V22.3281H37.3333V27.6614H32ZM1.5 48.9974L2.66667 43.6614H48V48.9948L1.5 48.9974ZM42.6667 38.3281V32.9948H48V38.3281H42.6667ZM42.6667 27.6614V22.3281H48V27.6614H42.6667ZM42.6667 16.9948V11.6614H48V16.9948H42.6667Z" fill="#282828"/>
<path d="M48 0.999977L48 45.9974H42.6667L42.6667 0.999977H48ZM48 33V38.3333H42.6667V33H48ZM37.3333 0.999977V6.33331H32V0.999977H37.3333ZM37.3333 22.3333V27.6666L32 27.6666V22.3333L37.3333 22.3333ZM26.6667 0.999977L26.6667 6.33331H21.3333L21.3333 0.999977H26.6667ZM26.6667 11.6666V17H21.3333V11.6666H26.6667ZM26.6667 22.3333V27.6666H21.3333V22.3333H26.6667ZM26.6667 33V38.3333H21.3333V33H26.6667ZM16 0.999977L16 6.33331H10.6667V0.999977H16ZM16 22.3333V27.6666H10.6667V22.3333H16ZM45 0.997375L45.3333 6.33331L0 6.33331V0.999977L45 0.997375ZM5.33333 11.6666L5.33333 17L0 17L0 11.6666H5.33333ZM5.33333 22.3333V27.6666L0 27.6666V22.3333L5.33333 22.3333ZM5.33333 33V38.3333H0V33H5.33333Z" fill="#282828"/>
</svg>
