<!-- Generator: Adobe Illustrator 19.2.1, SVG Export Plug-In  -->
<svg version="1.1"
	 xmlns="http://www.w3.org/2000/svg" xmlns:xlink="http://www.w3.org/1999/xlink" xmlns:a="http://ns.adobe.com/AdobeSVGViewerExtensions/3.0/"
	 x="0px" y="0px" width="480px" height="480px" viewBox="0 0 480 480" enable-background="new 0 0 480 480" xml:space="preserve">
<defs>
</defs>
<path fill="#010101" d="M470.5,183.8c-7.7-9.2-19.1-13.8-31.1-13.8H253v-54.2c26-6,45.7-29.3,45.7-57.1c0-32.3-26.3-58.7-58.8-58.7
	s-58.7,26.4-58.7,58.7c0,27.8,19.8,51.1,45.8,57.1V170H40.6c-12,0-23.3,4.5-31.1,13.8c-7.7,9.2-11,20.8-8.9,32.7L41.1,446
	c3.4,19.4,20.2,34,40,34h317.9c19.8,0,36.6-14.7,40-34.2l40.4-229C481.5,205,478.2,192.9,470.5,183.8L470.5,183.8z M207.8,58.7
	c0-17.7,14.5-32.1,32.2-32.1s32.2,14.4,32.2,32.1S257.7,90.8,240,90.8S207.8,76.4,207.8,58.7L207.8,58.7z M453.1,211.9l-40.4,229.3
	c-1.1,6.7-7,11.8-13.7,11.8H81c-6.8,0-12.6-5.3-13.7-12L26.9,212.1C26.1,208,27.5,196,40.6,196h398.8
	C454.1,196,453.8,207.8,453.1,211.9L453.1,211.9z M189.2,277.5c0-32.4-26.5-58.7-58.9-58.7c-32.5,0-58.9,26.4-58.9,58.7
	c0,32.4,26.5,58.7,58.9,58.7C162.8,336.2,189.2,309.8,189.2,277.5L189.2,277.5z M130.5,309.9c-17.8,0-32.2-14.4-32.2-32.1
	c0-17.7,14.5-32.1,32.2-32.1s32.2,14.4,32.2,32.1C162.7,295.5,148.2,309.9,130.5,309.9L130.5,309.9z M346.9,218.8
	c-32.5,0-58.9,26.4-58.9,58.7c0,32.4,26.5,58.7,58.9,58.7c32.5,0,58.9-26.4,58.9-58.7C405.7,245.1,379.4,218.8,346.9,218.8
	L346.9,218.8z M347.8,309.9c-17.8,0-32.2-14.4-32.2-32.1c0-17.7,14.5-32.1,32.2-32.1s32.2,14.4,32.2,32.1
	C380,295.5,365.6,309.9,347.8,309.9L347.8,309.9z M307.9,383.1c-19.1,7.2-43.2,11.1-67.9,11.1s-48.9-4-67.9-11.1
	c-6.9-2.6-14.6,0.8-17.2,7.7c-2.6,6.9,0.9,14.5,7.7,17.1c22.3,8.4,49,12.8,77.4,12.8s55.1-4.4,77.4-12.8c6.9-2.5,10.4-10.3,7.7-17.1
	C322.6,384,314.8,380.5,307.9,383.1L307.9,383.1z"/>
</svg>
