<svg id="Layer_1" data-name="Layer 1" xmlns="http://www.w3.org/2000/svg" viewBox="0 0 512 512"><defs><style>.cls-1{fill:#010101;}</style></defs><g id="clear"><polygon class="cls-1" points="274.177 93.253 238.052 93.253 238.041 237.812 93.482 237.823 93.482 273.948 238.041 273.959 238.052 418.518 274.177 418.518 274.188 273.959 418.747 273.948 418.747 237.823 274.188 237.812 274.177 93.253 274.177 93.253"/></g><path class="cls-1" d="M448,31.99979a32.036,32.036,0,0,1,32,32v384a32.036,32.036,0,0,1-32,32H64a32.036,32.036,0,0,1-32-32v-384a32.036,32.036,0,0,1,32-32H448m0-32H64a64,64,0,0,0-64,64v384a64,64,0,0,0,64,64H448a64,64,0,0,0,64-64v-384a64,64,0,0,0-64-64Z"/></svg>