<svg id="Layer_1" data-name="Layer 1" xmlns="http://www.w3.org/2000/svg" viewBox="0 0 512 512"><defs><style>.cls-1{fill:#010101;}</style></defs><g id="clear"><polygon class="cls-1" points="358.341 128.115 256.115 230.325 153.889 128.115 128.344 153.659 230.554 255.886 128.344 358.112 153.889 383.656 256.115 281.446 358.341 383.656 383.885 358.112 281.675 255.886 383.885 153.659 358.341 128.115 358.341 128.115"/></g><path class="cls-1" d="M448,31.99979a32.036,32.036,0,0,1,32,32v384a32.036,32.036,0,0,1-32,32H64a32.036,32.036,0,0,1-32-32v-384a32.036,32.036,0,0,1,32-32H448m0-32H64a64,64,0,0,0-64,64v384a64,64,0,0,0,64,64H448a64,64,0,0,0,64-64v-384a64,64,0,0,0-64-64Z"/></svg>