<svg id="Layer_1" data-name="Layer 1" xmlns="http://www.w3.org/2000/svg" viewBox="0 0 512 512"><defs><style>.cls-1{fill:#010101;}</style></defs><title>bhi_3</title><path class="cls-1" d="M480,192V128H378a210.15,210.15,0,0,0-24.25-33.75l46.39-46.39L352.27,0,298.34,53.93a112.62,112.62,0,0,0-85,.13L159.29,0,111.65,47.65l46.6,46.6A210.15,210.15,0,0,0,134,128H32v64h75.47a321.73,321.73,0,0,0-10.69,63.81L32,256v64H98.49a309.89,309.89,0,0,0,14.72,64.12L32,384v64l114.27.51C174.91,487.87,213.52,512,256,512c42.13,0,80.44-23.74,109-62.52L480,450V384.66l-81.35-.12A309.37,309.37,0,0,0,413.51,320H480V254.67l-64.84.19A321.81,321.81,0,0,0,404.53,192ZM320,362H192V320H320ZM192,255.53V214H320v41.15Z"/></svg>