<?xml version="1.0" encoding="utf-8"?>
<!-- Generator: Adobe Illustrator 24.0.1, SVG Export Plug-In . SVG Version: 6.00 Build 0)  -->
<svg version="1.1" id="Layer_1" xmlns="http://www.w3.org/2000/svg" xmlns:xlink="http://www.w3.org/1999/xlink" x="0px" y="0px"
	 viewBox="0 0 512 512" style="enable-background:new 0 0 512 512;" xml:space="preserve">
<style type="text/css">
	.st0{fill:#231F20;}
</style>
<path class="st0" d="M256,57.7l214.4,371.4H41.6L256,57.7 M256,17.1c-14.5,0-27.9,7.7-35.2,20.3L6.4,408.8c-7.3,12.6-7.3,28,0,40.6
	c7.3,12.6,20.7,20.3,35.2,20.3h428.8c14.5,0,27.9-7.7,35.2-20.3c7.3-12.6,7.3-28,0-40.6L291.2,37.4C283.9,24.9,270.5,17.1,256,17.1
	L256,17.1z M285.1,190.4h-58.3v116.5h58.3V190.4z M285.1,348h-58.3v38.2h58.3V348z"/>
</svg>
