<?xml version="1.0" encoding="utf-8"?>
<!-- Generator: Adobe Illustrator 19.2.0, SVG Export Plug-In . SVG Version: 6.00 Build 0)  -->
<svg version="1.1" id="Layer_1" xmlns="http://www.w3.org/2000/svg" xmlns:xlink="http://www.w3.org/1999/xlink" x="0px" y="0px"
	 viewBox="0 0 512 512" enable-background="new 0 0 512 512" xml:space="preserve">
<g>
	<path fill="#010101" d="M364.3,398.3c-70.4,53.8-169.9,48.6-234.5-16C66.5,319,61.1,219.6,113.5,149.1L59.3,94.9
		c-85,99.4-77.7,247.6,16.3,341.6c93.6,93.6,243.2,99,343.4,16.4L364.3,398.3z"/>
	<path fill="#010101" d="M399.5,362.8l54.5,54.5c46.9-57.3,65-130,55.3-201.4l-74.1,19.9C439.8,280.2,427.4,325.7,399.5,362.8z"/>
	<path fill="#010101" d="M95.4,58.7l54.2,54.2c70.5-52.4,169.9-47,233.2,16.3c16.3,16.3,27.1,34.3,36.2,54.2l74.1-19.9
		c-10.8-32.5-30.7-63.3-57.8-90.4C343-19,196.6-24.4,95.4,58.7z"/>
</g>
</svg>
