<?xml version="1.0" encoding="utf-8"?>
<!-- Generator: Adobe Illustrator 19.2.0, SVG Export Plug-In . SVG Version: 6.00 Build 0)  -->
<svg version="1.1" id="Layer_1" xmlns="http://www.w3.org/2000/svg" xmlns:xlink="http://www.w3.org/1999/xlink" x="0px" y="0px"
	 viewBox="0 0 512 512" enable-background="new 0 0 512 512" xml:space="preserve">
<path fill="#010101" d="M448,32c-35.3,0-64,28.7-64,64c0,10.5,2.8,20.3,7.3,29.1l-68.4,99.2c-1,0-1.9-0.3-2.9-0.3
	c-8.5,0-16.6,1.7-24,4.8l-40.8-28.2c0.4-2.8,0.9-5.6,0.9-8.6c0-35.3-28.7-64-64-64s-64,28.7-64,64c0,10.8,2.9,20.9,7.7,29.8
	l-66.1,98.7c-1.9-0.2-3.7-0.6-5.6-0.6c-35.3,0-64,28.7-64,64s28.7,64,64,64s64-28.7,64-64c0-9.5-2.2-18.5-5.9-26.6l67.8-101.6
	c0.7,0,1.4,0.2,2.1,0.2c8.5,0,16.6-1.7,24-4.8l40.8,35.3c-0.4,2.9-0.9,5.7-0.9,8.6c0,35.3,28.7,56.9,64,56.9s64-28.7,64-64
	c0-10.5-2.8-20.3-7.3-29.1l68.4-99.2c1,0,1.9,0.3,2.9,0.3c35.3,0,64-28.7,64-64S483.3,32,448,32z"/>
</svg>
