<svg id="Layer_1" data-name="Layer 1" xmlns="http://www.w3.org/2000/svg" viewBox="0 0 512 512"><defs><style>.cls-1{fill:#020202;}</style></defs><title>bhi_3</title><path class="cls-1" d="M256.53,305.07C339.73,305.07,408,236.8,408,153.6S339.73,0,256.53,0,105.07,68.27,105.07,153.6,173.33,305.07,256.53,305.07ZM242.65,122.94c3.62,3.8,10.33,7.6,20.13,11.57a230.16,230.16,0,0,1,24.1,11.12,72.1,72.1,0,0,1,16,11.83,46.6,46.6,0,0,1,10,15,51.35,51.35,0,0,1,3.44,19.61c0,13.95-4.32,25.25-13.06,33.9s-20.66,13.77-35.85,15.36V265.8H247.86V241.43c-16.78-1.76-29.85-7.77-39-17.83S195,200,195,183.25h35.49c0,9.71,2.3,17.21,7,22.42s11.3,7.77,19.95,7.77c7.24,0,12.89-1.94,17-5.74s6.27-8.91,6.27-15.45c0-6.71-1.85-12.09-5.56-16.07s-10.07-7.59-19-11a242.51,242.51,0,0,1-23.14-10,74.39,74.39,0,0,1-16.68-11.39,45,45,0,0,1-10.78-15.19c-2.56-5.83-3.79-12.71-3.79-20.75,0-13.86,4.41-25.16,13.24-34.08s20.57-14,35.32-15.45V32H270V58.66c14.48,2,25.87,8.13,34.08,18.1s12.27,23,12.27,39H280.79c0-9.8-2-17.22-6.09-22.07s-9.45-7.33-16.25-7.33-11.92,1.94-15.63,5.74-5.56,9.09-5.56,15.8C237.26,114.11,239.12,119.15,242.65,122.94Z"/><path class="cls-1" d="M373.55,306.41a2.8,2.8,0,0,0-4.47-1.2c-8.48,7.25-35.12,17.27-39.17,18.86a207.26,207.26,0,0,1-54.48,13.79c-24.93,2.56-50.23-.32-74.49-6.58-18.56-4.79-45.65-12.91-59.18-28.43a2.82,2.82,0,0,0-4.75.77c-3.46,8.35-5.82,17.16-8.84,25.67L108,386.23l-28.7,81,76.8-25.6,49.07,68.27,49.75-139L305.42,512l49.07-68.27,76.8,25.6Z"/></svg>