<svg id="Layer_1" data-name="Layer 1" xmlns="http://www.w3.org/2000/svg" viewBox="0 0 512 512"><defs><style>.cls-1{fill:#231f20;}.cls-2{fill:#282828;}</style></defs><path class="cls-1" d="M512,255.5C512,114.61,397.39,0,256.5,0S1,114.61,1,255.5,115.61,511,256.5,511,512,396.39,512,255.5Zm-468.42,0c0-117.4,95.52-212.92,212.92-212.92S469.42,138.1,469.42,255.5,373.9,468.42,256.5,468.42,43.58,372.9,43.58,255.5Z"/><path class="cls-1" d="M256.72,284.28c47.94,0,87.28-39.34,87.28-87.29s-39.34-88.52-87.28-88.52S169.43,147.81,169.43,197A86.84,86.84,0,0,0,256.72,284.28ZM239.5,179.78l17.22-34.43,17.21,34.43L312,184.69,285,211.74l4.92,36.88-34.42-18.44-34.43,18.44,6.15-38.11-25.82-25.82Z"/><path class="cls-1" d="M324.15,285.05a1.62,1.62,0,0,0-2.58-.69c-4.88,4.18-20.23,9.95-22.57,10.87a119.53,119.53,0,0,1-31.39,7.94c-14.37,1.48-29-.18-42.93-3.79-10.7-2.76-26.31-7.44-34.1-16.38a1.63,1.63,0,0,0-2.74.44c-2,4.82-3.36,9.89-5.1,14.8l-11.63,32.81-16.54,46.66L198.83,363l28.28,39.34,28.67-80.08,29.11,81.31,28.28-39.34,44.26,14.75Z"/><path class="cls-2" d="M512,255.5C512,114.61,397.39,0,256.5,0S1,114.61,1,255.5,115.61,511,256.5,511,512,396.39,512,255.5Zm-468.42,0c0-117.4,95.52-212.92,212.92-212.92S469.42,138.1,469.42,255.5,373.9,468.42,256.5,468.42,43.58,372.9,43.58,255.5Z"/><path class="cls-2" d="M256.72,284.28c47.94,0,87.28-39.34,87.28-87.29s-39.34-88.52-87.28-88.52S169.43,147.81,169.43,197A86.84,86.84,0,0,0,256.72,284.28ZM239.5,179.78l17.22-34.43,17.21,34.43L312,184.69,285,211.74l4.92,36.88-34.42-18.44-34.43,18.44,6.15-38.11-25.82-25.82Z"/><path class="cls-2" d="M324.15,285.05a1.62,1.62,0,0,0-2.58-.69c-4.88,4.18-20.23,9.95-22.57,10.87a119.53,119.53,0,0,1-31.39,7.94c-14.37,1.48-29-.18-42.93-3.79-10.7-2.76-26.31-7.44-34.1-16.38a1.63,1.63,0,0,0-2.74.44c-2,4.82-3.36,9.89-5.1,14.8l-11.63,32.81-16.54,46.66L198.83,363l28.28,39.34,28.67-80.08,29.11,81.31,28.28-39.34,44.26,14.75Z"/></svg>