<svg id="Layer_1" data-name="Layer 1" xmlns="http://www.w3.org/2000/svg" viewBox="0 0 512 512"><title>bhi</title><path d="M252.37,512H512s-3.63-160-64-224L352,128,127.94,45.69a48,48,0,1,0-63.7,47.65A16,16,0,0,0,64,96V224a15.92,15.92,0,0,0,15.91,16,64.22,64.22,0,0,1,25.75,6.73c15,7.86,22.34,21.36,22.34,41.27s-7.31,33.41-22.34,41.27A64.31,64.31,0,0,1,80,336a64.31,64.31,0,0,1-25.66-6.72C39.31,321.41,32,307.91,32,288a16,16,0,0,0-32,0c0,32.17,14.51,57.14,40.84,70.31A94.78,94.78,0,0,0,80,368a94.78,94.78,0,0,0,39.16-9.69C145.49,345.14,160,320.17,160,288s-14.51-57.14-40.84-70.31A93.43,93.43,0,0,0,96,209.83V96a16,16,0,0,0-.24-2.67c1.12-.39,2.23-.81,3.31-1.27L256,192l28.37,149.68C252.37,414.85,252.37,512,252.37,512ZM382.18,320a48,48,0,1,1-48,48A48,48,0,0,1,382.18,320Z"/></svg>