<svg id="Layer_1" data-name="Layer 1" xmlns="http://www.w3.org/2000/svg" viewBox="0 0 512 512"><path d="M362,172.53V48.5a16,16,0,0,0-16-16H16a16,16,0,0,0-16,16v223a16,16,0,0,0,16,16H188.58A192,192,0,0,1,362,172.53ZM52,95.58H247v30.88H52Zm0,106.36V171.06H187v30.88Z"/><path d="M479.7,377.38V351.33a10.54,10.54,0,0,1,6.5-9.74l19.13-7.95a10.54,10.54,0,0,0,6.08-12.71A151.73,151.73,0,0,0,499,291.16a10.52,10.52,0,0,0-13.26-4.65l-19.21,7.93a10.56,10.56,0,0,1-11.49-2.29l-18.42-18.42a10.56,10.56,0,0,1-2.29-11.48l7.9-19.14a10.51,10.51,0,0,0-4.67-13.27,151.71,151.71,0,0,0-29.79-12.33,10.53,10.53,0,0,0-12.69,6.09l-8,19.2a10.55,10.55,0,0,1-9.74,6.5H351.33a10.54,10.54,0,0,1-9.74-6.5l-7.95-19.13a10.54,10.54,0,0,0-12.71-6.08A151.73,151.73,0,0,0,291.16,230a10.52,10.52,0,0,0-4.65,13.26l7.93,19.21a10.56,10.56,0,0,1-2.29,11.49l-18.42,18.42a10.56,10.56,0,0,1-11.48,2.29l-19.14-7.9a10.51,10.51,0,0,0-13.27,4.67,151.71,151.71,0,0,0-12.33,29.79,10.53,10.53,0,0,0,6.09,12.69l19.2,8a10.55,10.55,0,0,1,6.5,9.74v26.05a10.54,10.54,0,0,1-6.5,9.74l-19.13,7.95a10.54,10.54,0,0,0-6.08,12.71A151.73,151.73,0,0,0,230,437.84a10.52,10.52,0,0,0,13.26,4.65l19.21-7.93a10.56,10.56,0,0,1,11.49,2.29l18.42,18.42a10.56,10.56,0,0,1,2.29,11.48l-7.9,19.14a10.51,10.51,0,0,0,4.67,13.27,151.71,151.71,0,0,0,29.79,12.33,10.53,10.53,0,0,0,12.69-6.09l8-19.2a10.55,10.55,0,0,1,9.74-6.5h26.05a10.54,10.54,0,0,1,9.74,6.5l7.95,19.13a10.54,10.54,0,0,0,12.71,6.08A151.73,151.73,0,0,0,437.84,499a10.52,10.52,0,0,0,4.65-13.26l-7.93-19.21a10.56,10.56,0,0,1,2.29-11.49l18.42-18.42a10.56,10.56,0,0,1,11.48-2.29l19.14,7.9a10.51,10.51,0,0,0,13.27-4.67,151.71,151.71,0,0,0,12.33-29.79,10.53,10.53,0,0,0-6.09-12.69l-19.2-8A10.55,10.55,0,0,1,479.7,377.38ZM364.56,453.07a88.57,88.57,0,0,1-88.63-88.63c0-48.15,40.36-88.48,88.51-88.51a88.57,88.57,0,0,1,88.63,88.63C453,412.71,412.71,453,364.56,453.07Z"/></svg>