<svg id="Layer_1" data-name="Layer 1" xmlns="http://www.w3.org/2000/svg" viewBox="0 0 512 512"><defs><style>.cls-1{fill:#010101;}</style></defs><path class="cls-1" d="M256,512a15.7009,15.7009,0,0,1-16.07907-16.07909v-39.0492a16.07907,16.07907,0,1,1,32.15814,0v39.0492A15.70093,15.70093,0,0,1,256,512Zm0-119.44456c-75.80135,0-135.52362-59.72229-135.52362-135.52362S180.19862,121.50819,256,121.50819s135.52362,59.72226,135.52362,135.52363S331.80132,392.55544,256,392.55544Zm0-241.18611A103.36548,103.36548,0,1,0,359.36545,254.7348C359.36545,199.60656,313.42524,151.36933,256,151.36933ZM455.83991,270.81387a16.07907,16.07907,0,1,1,0-32.15814H494.8891a16.07907,16.07907,0,1,1,0,32.15814Zm-438.729,0a16.07907,16.07907,0,0,1,0-32.15814H56.16006a16.07907,16.07907,0,0,1,0,32.15814ZM256,73.271A15.70091,15.70091,0,0,1,239.9209,57.1919V15.84571a16.07907,16.07907,0,0,1,32.15814,0V54.89489C272.079,66.37994,265.188,73.271,256,73.271ZM74.89814,436.98514a15.7009,15.7009,0,0,1,0-22.73925l27.612-27.61195a16.07906,16.07906,0,1,1,22.73923,22.73923l-27.612,27.612A15.70093,15.70093,0,0,1,74.89814,436.98514ZM386.75066,407.749a16.07907,16.07907,0,1,1,22.73923-22.73924l27.612,27.612a16.07907,16.07907,0,1,1-22.73924,22.73924ZM76.52239,97.5207A16.07907,16.07907,0,1,1,99.26162,74.78146l27.612,27.61194a16.07907,16.07907,0,1,1-22.73925,22.73924Zm308.604,29.23617a15.70091,15.70091,0,0,1,0-22.73924l29.23617-29.23617A16.07907,16.07907,0,0,1,437.10182,97.5207l-27.61194,27.61194C401.36872,133.25379,391.62333,133.25379,385.12641,126.75687Z"/></svg>