<svg id="Layer_1" data-name="Layer 1" xmlns="http://www.w3.org/2000/svg" viewBox="0 0 512 512"><defs><style>.cls-1{fill:#231f20;}</style></defs><title>bhi_3</title><g id="BH-57783-_Internal-Picker-Missing-Information_" data-name="BH-57783-(Internal-Picker-Missing-Information)"><g id="Department"><path id="Combined-Shape" class="cls-1" d="M465,352h27a20,20,0,0,1,20,20v88a20,20,0,0,1-20,20H404a20,20,0,0,1-20-20V372a20,20,0,0,1,20-20h28V288H272v64h28a20,20,0,0,1,20,20v88a20,20,0,0,1-20,20H212a20,20,0,0,1-20-20V372a20,20,0,0,1,20-20h28V288H80l-1,64h29a20,20,0,0,1,20,20v88a20,20,0,0,1-20,20H20A20,20,0,0,1,0,460V372a20,20,0,0,1,20-20H48V276a20,20,0,0,1,20-20H240V192H146a20,20,0,0,1-20-20V52a20,20,0,0,1,20-20H364a20,20,0,0,1,20,20V172a20,20,0,0,1-20,20H272v64H444.21a20,20,0,0,1,20,19.79Z"/></g></g></svg>