<?xml version="1.0" encoding="UTF-8"?>
<svg width="72px" height="60px" viewBox="0 0 72 60" version="1.1" xmlns="http://www.w3.org/2000/svg" xmlns:xlink="http://www.w3.org/1999/xlink">
    <!-- Generator: Sketch 51.1 (57501) - http://www.bohemiancoding.com/sketch -->
    <title>Combined Shape</title>
    <desc>Created with Sketch.</desc>
    <defs></defs>
    <g id="BH-57783-(Internal-Picker-Missing-Information)" stroke="none" stroke-width="1" fill="none" fill-rule="evenodd">
        <path d="M33,27 L33,20 L23,20 C21.3431458,20 20,18.6568542 20,17 L20,3 C20,1.34314575 21.3431458,3.04359188e-16 23,0 L49,0 C50.6568542,-3.04359188e-16 52,1.34314575 52,3 L52,17 C52,18.6568542 50.6568542,20 49,20 L39,20 L39,27 L62,27 C63.6568542,27 65,28.3431458 65,30 L65,40 L69,40 C70.6568542,40 72,41.3431458 72,43 L72,57 C72,58.6568542 70.6568542,60 69,60 L55,60 C53.3431458,60 52,58.6568542 52,57 L52,43 C52,41.3431458 53.3431458,40 55,40 L59,40 L59,33 L39,33 L39,40 L43,40 C44.6568542,40 46,41.3431458 46,43 L46,57 C46,58.6568542 44.6568542,60 43,60 L29,60 C27.3431458,60 26,58.6568542 26,57 L26,43 C26,41.3431458 27.3431458,40 29,40 L33,40 L33,33 L13,33 L13,40 L17,40 C18.6568542,40 20,41.3431458 20,43 L20,57 C20,58.6568542 18.6568542,60 17,60 L3,60 C1.34314575,60 2.02906125e-16,58.6568542 0,57 L0,43 C-2.02906125e-16,41.3431458 1.34314575,40 3,40 L7,40 L7,30 C7,28.3431458 8.34314575,27 10,27 L13,27 L33,27 Z" id="Combined-Shape" fill="#4F5361" fill-rule="nonzero"></path>
    </g>
</svg>