<?xml version="1.0" encoding="UTF-8"?><svg id="Layer_2" xmlns="http://www.w3.org/2000/svg" viewBox="0 0 512 395.9"><defs><style>.cls-1{stroke-width:0px;}</style></defs><g id="Layer_1-2"><path class="cls-1" d="m511.94,324.09c0-.14,0-.27-.02-.41-.04-.9-.1-1.79-.18-2.68-.01-.17-.03-.33-.04-.5-.08-.89-.18-1.77-.29-2.64-.02-.13-.04-.27-.06-.4-.13-.91-.26-1.83-.43-2.73,0-.01,0-.02,0-.03-.16-.9-.34-1.79-.54-2.68-.03-.12-.05-.24-.08-.36-.19-.85-.4-1.7-.63-2.54-.04-.15-.08-.3-.12-.46-.23-.84-.47-1.67-.73-2.49-.04-.13-.08-.25-.12-.38-.28-.86-.57-1.71-.88-2.55,0-.01-.01-.03-.02-.04-.31-.84-.64-1.68-.98-2.51-.04-.1-.08-.21-.13-.31-.33-.8-.69-1.59-1.05-2.37-.06-.13-.12-.27-.19-.4-.37-.78-.75-1.55-1.14-2.31-.06-.11-.11-.22-.17-.32-.42-.79-.84-1.58-1.29-2.35,0-.01-.01-.02-.02-.03-.45-.78-.92-1.55-1.4-2.31-.05-.08-.1-.15-.14-.23-.47-.73-.95-1.46-1.44-2.17-.07-.11-.15-.22-.22-.32-.49-.71-1-1.4-1.52-2.09-.07-.09-.14-.18-.2-.26-.55-.71-1.1-1.42-1.67-2.11,0,0,0,0,0,0-.58-.71-1.19-1.4-1.8-2.08-.05-.05-.09-.1-.14-.15-.59-.65-1.19-1.3-1.81-1.93-.08-.08-.16-.16-.24-.25-.61-.62-1.24-1.23-1.87-1.83-.07-.07-.14-.13-.21-.2-1.34-1.26-2.74-2.46-4.18-3.61-.04-.03-.07-.06-.11-.09-.7-.56-1.42-1.1-2.14-1.63-.08-.06-.16-.12-.24-.18-.72-.52-1.45-1.03-2.18-1.52-.07-.05-.14-.1-.22-.14-1.56-1.03-3.16-2-4.8-2.9-.02-.01-.05-.03-.07-.04-.8-.44-1.62-.86-2.44-1.27-.08-.04-.16-.08-.24-.12-.81-.4-1.63-.78-2.46-1.15-.07-.03-.15-.06-.22-.1-1.74-.76-3.52-1.46-5.33-2.08-.01,0-.02,0-.03-.01-.88-.3-1.78-.58-2.68-.85-.08-.02-.16-.05-.25-.07-.88-.26-1.77-.5-2.67-.72-.08-.02-.16-.04-.24-.06-.92-.23-1.85-.44-2.78-.62-1.19-.24-2.39-.45-3.61-.62-9.08-28.39-23.21-46.57-42.06-54.06-8.15-3.24-13.05-3.19-36.6-2.95-3.41.03-7.26.07-11.61.11-24.63.2-45.92.37-50-.41-21.46-5.54-35.94-36.55-44.45-62.36v-2.75c2.09-.38,4.16-.85,6.18-1.41.87-.24,1.74-.51,2.59-.78.07-.02.13-.04.2-.07,1.74-.57,3.45-1.2,5.13-1.9,0,0,.01,0,.02,0,.82-.34,1.64-.7,2.44-1.08.06-.03.13-.06.19-.09,1.63-.76,3.23-1.59,4.79-2.47.02,0,.03-.02.05-.03.76-.43,1.52-.88,2.26-1.35.06-.04.13-.08.19-.12,1.5-.94,2.97-1.94,4.39-2.99.03-.02.06-.04.09-.06.69-.51,1.38-1.04,2.05-1.58.07-.06.14-.11.21-.17,1.36-1.1,2.67-2.24,3.95-3.44.04-.04.08-.08.13-.12.62-.58,1.22-1.18,1.82-1.78.07-.07.14-.14.21-.22,1.2-1.23,2.36-2.51,3.46-3.83.05-.06.1-.12.16-.19.53-.64,1.06-1.29,1.57-1.95.07-.09.14-.19.21-.28.52-.67,1.02-1.36,1.51-2.05,0,0,0-.01.01-.02.49-.69.96-1.39,1.42-2.1.06-.09.11-.17.17-.26.45-.69.88-1.39,1.31-2.1.07-.11.13-.23.2-.34.43-.72.85-1.46,1.25-2.2,0-.02.02-.03.02-.05.4-.73.77-1.47,1.14-2.22.05-.11.11-.22.16-.33.36-.73.7-1.48,1.04-2.23.06-.13.12-.27.17-.4.34-.77.66-1.54.97-2.33,0-.02.02-.04.02-.06.3-.77.59-1.55.86-2.33.05-.13.09-.26.14-.39.27-.77.52-1.55.76-2.34.04-.15.09-.3.13-.44.24-.81.47-1.62.68-2.45,0-.02,0-.04.01-.06.21-.81.4-1.62.57-2.45.03-.15.06-.29.1-.44.17-.81.32-1.62.47-2.44.03-.16.05-.32.08-.47.14-.85.27-1.7.38-2.56,0-.01,0-.03,0-.04.11-.85.19-1.7.27-2.56.01-.16.03-.32.04-.48.07-.84.12-1.68.16-2.53,0-.16.01-.33.02-.49.03-.88.06-1.76.06-2.65,0-3.56-.27-7.06-.79-10.48-.87-5.69-2.44-11.16-4.61-16.3-.22-.51-.44-1.03-.67-1.53-1.38-3.05-2.97-5.98-4.76-8.77-1.19-1.86-2.47-3.66-3.83-5.39-1.7-2.17-3.53-4.23-5.48-6.17-.39-.39-.78-.77-1.18-1.15-1.99-1.9-4.1-3.68-6.3-5.33-.44-.33-.89-.66-1.34-.97-.9-.64-1.81-1.26-2.74-1.85-.47-.3-.93-.59-1.41-.88-2.84-1.72-5.81-3.25-8.89-4.55-1.03-.44-2.07-.85-3.12-1.23-1.05-.39-2.12-.75-3.2-1.08-6.46-2.01-13.33-3.09-20.46-3.09-.59,0-1.19,0-1.78.02-1.77.04-3.52.16-5.26.33-2.89.29-5.73.77-8.5,1.41-12.2,2.82-23.16,8.88-31.92,17.23-.4.38-.79.76-1.18,1.15-1.95,1.95-3.77,4.01-5.48,6.17-1.36,1.73-2.64,3.53-3.83,5.39-1.79,2.79-3.38,5.72-4.76,8.77-.23.51-.45,1.02-.67,1.53-2.18,5.14-3.74,10.61-4.61,16.3-.52,3.42-.79,6.91-.79,10.48,0,.89.02,1.77.06,2.65,0,.16.01.33.02.49.04.85.09,1.69.16,2.53.01.16.03.32.04.48.08.86.16,1.71.27,2.56,0,.01,0,.03,0,.04.11.86.24,1.71.38,2.56.03.16.05.32.08.47.14.82.3,1.63.47,2.44.03.15.06.29.1.44.18.82.37,1.64.57,2.45,0,.02,0,.04.01.06.21.82.44,1.64.68,2.45.04.15.09.3.13.44.24.78.49,1.56.76,2.34.04.13.09.26.14.39.27.78.56,1.56.86,2.33,0,.02.02.04.02.06.31.78.63,1.56.97,2.33.06.13.11.26.17.4.33.75.68,1.49,1.04,2.23.05.11.11.22.16.33.37.75.75,1.49,1.14,2.22,0,.02.02.03.02.05.4.74.82,1.47,1.25,2.2.07.11.13.23.2.34.42.71.86,1.41,1.31,2.1.06.09.11.17.17.25.46.71.94,1.41,1.42,2.1,0,0,0,.01.01.02.49.69,1,1.38,1.51,2.05.07.09.14.18.21.28.51.66,1.03,1.31,1.57,1.95.05.06.1.12.15.18,1.11,1.32,2.26,2.6,3.47,3.83.07.07.14.15.21.22.6.6,1.2,1.2,1.82,1.78.04.04.08.08.13.12,1.27,1.19,2.59,2.34,3.95,3.44.07.05.14.11.2.16.67.54,1.36,1.07,2.05,1.58.03.02.06.04.08.06,1.42,1.05,2.89,2.05,4.39,2.99.06.04.13.08.19.12.75.46,1.5.91,2.26,1.35.02,0,.03.02.05.03,1.56.89,3.16,1.71,4.79,2.47.06.03.13.06.19.09.81.37,1.62.74,2.44,1.08,0,0,.01,0,.02,0,1.68.7,3.39,1.33,5.13,1.9.07.02.13.04.2.07.86.28,1.72.54,2.59.78,2.02.57,4.09,1.03,6.18,1.41v1.87c-8.47,26.02-23.04,57.81-44.8,63.43-4.08.78-25.37.61-50,.41-4.35-.04-8.2-.07-11.61-.11-23.55-.24-28.45-.29-36.6,2.95-18.85,7.49-32.98,25.66-42.06,54.06-1.21.18-2.42.38-3.61.62-.94.19-1.86.4-2.78.62-.08.02-.16.04-.24.06-.9.22-1.78.46-2.67.72-.08.02-.16.05-.25.07-.9.27-1.79.55-2.68.85-.01,0-.02,0-.03.01-1.81.62-3.59,1.32-5.33,2.08-.07.03-.15.06-.22.1-.83.37-1.65.75-2.46,1.15-.08.04-.16.08-.24.12-.82.41-1.63.83-2.44,1.27-.02.01-.05.03-.07.04-1.64.9-3.25,1.87-4.8,2.9-.07.05-.14.09-.22.14-.74.49-1.47,1-2.18,1.52-.08.06-.16.12-.24.18-.72.53-1.44,1.07-2.14,1.63-.04.03-.07.06-.11.09-1.44,1.15-2.84,2.35-4.18,3.61-.07.07-.14.13-.21.2-.64.6-1.26,1.21-1.87,1.83-.08.08-.16.16-.24.25-.61.63-1.22,1.27-1.81,1.93-.05.05-.09.1-.14.15-.61.68-1.21,1.38-1.8,2.08,0,0,0,0,0,0-.57.69-1.13,1.4-1.67,2.11-.07.09-.14.18-.2.26-.52.69-1.03,1.39-1.52,2.09-.08.11-.15.22-.22.32-.49.71-.98,1.44-1.44,2.17-.05.08-.1.15-.14.23-.48.76-.95,1.53-1.4,2.31,0,.01-.01.02-.02.03-.45.77-.87,1.56-1.29,2.35-.06.11-.11.22-.17.32-.39.76-.77,1.53-1.14,2.31-.06.13-.12.27-.19.4-.36.78-.71,1.57-1.05,2.37-.04.1-.08.2-.13.31-.34.83-.67,1.66-.98,2.51,0,.01-.01.03-.02.04-.31.84-.6,1.7-.88,2.55-.04.13-.08.25-.12.38-.26.82-.5,1.65-.73,2.49-.04.15-.08.3-.12.46-.22.84-.44,1.69-.63,2.54-.03.12-.05.24-.08.36-.2.89-.38,1.78-.54,2.68,0,.01,0,.02,0,.03-.16.9-.3,1.81-.43,2.73-.02.13-.04.27-.06.4-.12.88-.21,1.76-.29,2.64-.02.16-.03.33-.04.5-.08.89-.14,1.78-.18,2.68,0,.14,0,.27-.02.41-.04.94-.06,1.89-.06,2.84,0,.59,0,1.19.02,1.78.04,1.77.16,3.52.33,5.26.23,2.31.58,4.59,1.04,6.83,1.37,6.72,3.73,13.08,6.9,18.92.53.97,1.08,1.94,1.66,2.88,5.74,9.45,13.71,17.41,23.16,23.16.95.57,1.91,1.13,2.88,1.66,5.85,3.18,12.21,5.53,18.92,6.9,2.24.46,4.52.81,6.83,1.04,1.73.18,3.49.29,5.26.33.59.01,1.18.02,1.78.02s1.19,0,1.78-.02c1.77-.04,3.52-.16,5.26-.33,2.31-.23,4.59-.58,6.83-1.04,6.72-1.37,13.08-3.73,18.92-6.9.97-.53,1.94-1.08,2.88-1.66,9.45-5.74,17.41-13.71,23.16-23.16.57-.95,1.13-1.91,1.66-2.88,3.18-5.85,5.53-12.21,6.9-18.92.46-2.24.81-4.52,1.04-6.83.18-1.73.29-3.49.33-5.26.01-.59.02-1.18.02-1.78,0-.82-.02-1.64-.05-2.46,0-.19-.01-.37-.02-.56-.03-.8-.08-1.6-.14-2.4,0-.1-.02-.2-.03-.31-.06-.73-.13-1.45-.21-2.17-.02-.17-.04-.34-.06-.51-.1-.78-.2-1.56-.32-2.33-.02-.15-.05-.29-.07-.44-.11-.69-.24-1.38-.37-2.07-.03-.13-.05-.27-.08-.4-.15-.77-.32-1.53-.5-2.28-.04-.16-.08-.33-.12-.49-.17-.71-.36-1.42-.55-2.12-.02-.07-.04-.14-.06-.21-.21-.75-.44-1.5-.68-2.24-.05-.16-.11-.33-.16-.49-.24-.75-.5-1.49-.77-2.22,0-.02-.01-.04-.02-.05-.26-.72-.54-1.43-.83-2.14-.06-.15-.12-.3-.19-.45-.3-.71-.6-1.42-.92-2.12-.04-.09-.08-.17-.12-.26-.3-.65-.6-1.29-.92-1.92-.06-.12-.12-.25-.19-.37-.35-.69-.71-1.37-1.08-2.04-.06-.11-.13-.23-.19-.34-.35-.62-.7-1.24-1.07-1.86-.05-.08-.09-.16-.14-.24-.4-.66-.81-1.32-1.23-1.97-.08-.12-.16-.24-.24-.36-.43-.65-.86-1.29-1.31-1.92,0,0,0,0,0-.01-.46-.64-.92-1.27-1.4-1.9-.09-.11-.17-.22-.26-.34-.48-.62-.97-1.24-1.47-1.85,0,0,0,0-.01-.01-.5-.6-1.01-1.19-1.53-1.78-.08-.09-.17-.19-.25-.28-.52-.58-1.06-1.16-1.6-1.73-.05-.05-.1-.1-.15-.15-.52-.54-1.05-1.06-1.58-1.58-.07-.07-.14-.13-.2-.2-.57-.55-1.14-1.08-1.73-1.61-.08-.07-.15-.14-.23-.2-.57-.51-1.15-1.01-1.75-1.51-.03-.02-.05-.05-.08-.07-.61-.51-1.24-1.01-1.87-1.5-.09-.07-.18-.14-.27-.21-1.27-.97-2.57-1.9-3.91-2.78-.09-.06-.19-.12-.28-.18-1.35-.88-2.73-1.72-4.14-2.5-.08-.05-.17-.09-.25-.14-.71-.39-1.42-.77-2.14-1.13-.05-.03-.11-.05-.16-.08-.7-.35-1.41-.69-2.12-1.02-.06-.03-.11-.05-.17-.08-.74-.34-1.48-.66-2.23-.97-.09-.04-.18-.07-.27-.11-.75-.31-1.51-.61-2.28-.89-2.62-.97-5.31-1.77-8.07-2.41,6.46-17.06,15.12-28.08,25.39-32.16,3.43-1.36,6.3-1.42,27.22-1.2,3.43.03,7.29.07,11.66.11,38.89.32,50.37.34,56.23-1.16,14.79-3.77,27.65-13.5,38.77-29.39v62.91c-2.09.38-4.16.85-6.18,1.41-.87.24-1.74.51-2.59.78-.07.02-.13.04-.2.06-1.74.57-3.45,1.2-5.13,1.9,0,0-.01,0-.02,0-.82.34-1.64.71-2.45,1.08-.06.03-.13.06-.19.09-1.63.76-3.23,1.59-4.79,2.48-.01,0-.03.02-.04.02-.76.43-1.52.88-2.26,1.35-.07.04-.13.08-.2.12-1.5.94-2.97,1.94-4.39,2.99-.03.02-.06.04-.08.06-.69.51-1.38,1.04-2.05,1.58-.07.05-.13.11-.2.16-1.36,1.1-2.68,2.24-3.95,3.44-.04.04-.09.08-.13.12-.62.58-1.22,1.18-1.82,1.78-.07.07-.14.15-.21.22-1.2,1.23-2.36,2.51-3.47,3.83-.05.06-.1.12-.15.18-.53.64-1.06,1.29-1.57,1.96-.07.09-.14.18-.21.28-.52.67-1.02,1.36-1.51,2.05,0,0,0,.01-.01.02-.49.69-.96,1.39-1.42,2.1-.06.09-.11.17-.17.25-.45.69-.88,1.39-1.31,2.1-.07.11-.13.23-.2.34-.43.72-.85,1.46-1.25,2.2,0,.02-.02.03-.02.05-.4.73-.77,1.47-1.14,2.22-.05.11-.11.22-.16.33-.36.74-.7,1.48-1.04,2.23-.06.13-.12.26-.17.4-.34.77-.66,1.55-.97,2.33,0,.02-.02.04-.02.06-.3.77-.59,1.55-.86,2.33-.05.13-.09.26-.14.39-.27.77-.52,1.55-.76,2.34-.04.15-.09.3-.13.44-.24.81-.47,1.62-.68,2.45,0,.02,0,.04-.01.06-.21.81-.4,1.63-.57,2.45-.03.15-.06.29-.1.44-.17.81-.32,1.62-.47,2.44-.03.16-.05.32-.08.47-.14.85-.27,1.7-.38,2.56,0,.01,0,.03,0,.04-.11.85-.19,1.7-.27,2.56-.01.16-.03.32-.04.48-.07.84-.12,1.68-.16,2.53,0,.16-.01.33-.02.49-.03.88-.06,1.76-.06,2.65,0,.59,0,1.19.02,1.78.04,1.77.16,3.52.33,5.26.23,2.31.58,4.59,1.04,6.83,1.37,6.72,3.73,13.08,6.9,18.92.53.97,1.08,1.94,1.66,2.88,5.74,9.45,13.71,17.41,23.16,23.16.95.57,1.91,1.13,2.88,1.66,5.85,3.18,12.21,5.53,18.92,6.9,2.24.46,4.52.81,6.83,1.04,1.73.18,3.49.29,5.26.33.59.01,1.18.02,1.78.02s1.19,0,1.78-.02c1.77-.04,3.52-.16,5.26-.33,2.31-.23,4.59-.58,6.83-1.04,6.72-1.37,13.08-3.73,18.92-6.9.97-.53,1.94-1.08,2.88-1.66,9.45-5.74,17.41-13.71,23.16-23.16.57-.95,1.13-1.91,1.66-2.88,3.18-5.85,5.53-12.21,6.9-18.92.46-2.24.81-4.52,1.04-6.83.18-1.73.29-3.49.33-5.26.01-.59.02-1.18.02-1.78,0-.89-.02-1.77-.06-2.65,0-.16-.01-.33-.02-.49-.04-.85-.09-1.69-.16-2.53-.01-.16-.03-.32-.04-.48-.08-.86-.16-1.71-.27-2.56,0-.01,0-.03,0-.04-.11-.86-.24-1.71-.38-2.56-.03-.16-.05-.32-.08-.47-.14-.82-.3-1.63-.47-2.44-.03-.15-.06-.29-.1-.44-.18-.82-.37-1.64-.57-2.45,0-.02,0-.04-.01-.06-.21-.82-.44-1.64-.68-2.45-.04-.15-.09-.3-.13-.44-.24-.78-.49-1.56-.76-2.34-.04-.13-.09-.26-.14-.39-.27-.78-.56-1.56-.86-2.33,0-.02-.02-.04-.02-.06-.31-.78-.63-1.56-.97-2.33-.06-.13-.11-.26-.17-.4-.33-.75-.68-1.49-1.04-2.23-.05-.11-.11-.22-.16-.33-.37-.75-.75-1.49-1.14-2.22,0-.02-.02-.03-.02-.05-.4-.74-.82-1.47-1.25-2.2-.07-.11-.13-.23-.2-.34-.42-.71-.86-1.41-1.31-2.1-.06-.09-.11-.17-.17-.25-.46-.71-.94-1.41-1.42-2.1,0,0,0-.01-.01-.02-.49-.69-1-1.37-1.51-2.05-.07-.09-.14-.19-.21-.28-.51-.66-1.03-1.31-1.57-1.95-.05-.06-.1-.12-.15-.18-1.11-1.32-2.26-2.6-3.47-3.83-.07-.07-.14-.15-.21-.22-.59-.6-1.2-1.2-1.82-1.78-.04-.04-.08-.08-.13-.12-1.27-1.19-2.59-2.34-3.95-3.44-.07-.05-.13-.11-.2-.16-.67-.54-1.36-1.07-2.05-1.58-.03-.02-.06-.04-.08-.06-1.42-1.05-2.89-2.05-4.39-2.99-.07-.04-.13-.08-.2-.12-.75-.46-1.5-.91-2.26-1.35-.01,0-.03-.02-.04-.02-1.56-.89-3.16-1.71-4.79-2.48-.06-.03-.13-.06-.19-.09-.81-.37-1.62-.74-2.45-1.08,0,0-.01,0-.02,0-1.68-.7-3.39-1.33-5.13-1.9-.07-.02-.13-.04-.2-.06-.86-.28-1.72-.54-2.59-.78-2.02-.57-4.09-1.03-6.18-1.41v-62.61c11.04,15.6,23.78,25.16,38.42,28.9,5.86,1.5,17.34,1.47,56.23,1.16,4.37-.04,8.24-.07,11.66-.11,20.92-.21,23.79-.16,27.22,1.2,10.27,4.08,18.93,15.1,25.39,32.16-2.76.65-5.45,1.45-8.07,2.41-.77.28-1.52.58-2.28.89-.09.04-.18.07-.27.11-.75.31-1.5.64-2.23.97-.06.03-.11.05-.17.08-.71.33-1.42.67-2.12,1.02-.05.03-.11.05-.16.08-.72.37-1.44.74-2.14,1.13-.08.05-.17.09-.25.14-1.41.79-2.8,1.62-4.14,2.5-.09.06-.19.12-.28.18-1.34.88-2.64,1.81-3.91,2.78-.09.07-.18.14-.27.21-.63.49-1.26.99-1.87,1.5-.03.02-.05.05-.08.07-.59.49-1.17.99-1.75,1.51-.08.07-.15.14-.23.2-.59.53-1.16,1.06-1.73,1.61-.07.07-.14.13-.2.2-.54.52-1.06,1.05-1.58,1.58-.05.05-.1.1-.15.15-.54.57-1.08,1.14-1.6,1.73-.08.09-.17.19-.25.28-.52.58-1.03,1.18-1.53,1.78,0,0,0,0-.01.01-.5.61-.99,1.22-1.47,1.85-.09.11-.17.22-.26.34-.48.63-.95,1.26-1.4,1.9,0,0,0,0,0,.01-.45.63-.88,1.27-1.31,1.92-.08.12-.16.24-.24.36-.42.65-.83,1.3-1.23,1.97-.05.08-.09.16-.14.24-.37.61-.72,1.23-1.07,1.86-.06.11-.13.23-.19.34-.37.67-.73,1.35-1.08,2.04-.06.12-.12.25-.19.37-.32.63-.62,1.27-.92,1.92-.04.09-.08.17-.12.26-.32.7-.62,1.41-.92,2.12-.06.15-.12.3-.19.45-.29.71-.57,1.42-.83,2.14,0,.02-.01.04-.02.05-.27.73-.52,1.48-.77,2.22-.05.16-.11.33-.16.49-.24.74-.47,1.49-.68,2.24-.02.07-.04.14-.06.21-.2.7-.38,1.41-.55,2.12-.04.16-.08.32-.12.49-.18.76-.35,1.52-.5,2.28-.03.13-.05.27-.08.4-.13.69-.26,1.38-.37,2.07-.02.15-.05.29-.07.44-.12.77-.23,1.55-.32,2.33-.02.17-.04.34-.06.51-.08.72-.15,1.44-.21,2.17,0,.1-.02.2-.03.31-.06.8-.11,1.6-.14,2.4,0,.19-.01.37-.02.56-.03.82-.05,1.64-.05,2.46,0,.59,0,1.19.02,1.78.04,1.77.16,3.52.33,5.26.23,2.31.58,4.59,1.04,6.83,1.37,6.72,3.73,13.08,6.9,18.92.53.97,1.08,1.94,1.66,2.88,5.74,9.45,13.71,17.41,23.16,23.16.95.57,1.91,1.13,2.88,1.66,5.85,3.18,12.21,5.53,18.92,6.9,2.24.46,4.52.81,6.83,1.04,1.73.18,3.49.29,5.26.33.59.01,1.18.02,1.78.02s1.19,0,1.78-.02c1.77-.04,3.52-.16,5.26-.33,2.31-.23,4.59-.58,6.83-1.04,6.72-1.37,13.08-3.73,18.92-6.9.97-.53,1.94-1.08,2.88-1.66,9.45-5.74,17.41-13.71,23.16-23.16.57-.95,1.13-1.91,1.66-2.88,3.18-5.85,5.53-12.21,6.9-18.92.46-2.24.81-4.52,1.04-6.83.18-1.73.29-3.49.33-5.26.01-.59.02-1.18.02-1.78,0-.95-.02-1.9-.06-2.84Zm-399.1,3.03c0,24.29-19.76,44.05-44.05,44.05s-44.05-19.76-44.05-44.05,19.76-44.05,44.05-44.05,44.05,19.76,44.05,44.05ZM212.12,68.79c0-24.29,19.76-44.05,44.05-44.05s44.05,19.76,44.05,44.05-19.76,44.05-44.05,44.05-44.05-19.76-44.05-44.05Zm88.11,258.14c0,24.29-19.76,44.05-44.05,44.05s-44.05-19.76-44.05-44.05,19.76-44.05,44.05-44.05,44.05,19.76,44.05,44.05Zm142.98,44.05c-24.29,0-44.05-19.76-44.05-44.05s19.76-44.05,44.05-44.05,44.05,19.76,44.05,44.05-19.76,44.05-44.05,44.05Z"/></g></svg>