<?xml version="1.0" encoding="UTF-8"?><svg id="Layer_2" xmlns="http://www.w3.org/2000/svg" viewBox="0 0 512 512"><defs><style>.cls-1{fill:#282828;stroke-width:0px;}</style></defs><g id="Layer_1-2"><path class="cls-1" d="m469.32,128h-85.32V42.68c0-23.47-19.21-42.68-42.68-42.68H42.68C19.21,0,0,19.21,0,42.68v298.64c0,23.47,19.21,42.68,42.68,42.68h85.32v85.32c0,23.47,19.21,42.68,42.68,42.68h298.64c23.47,0,42.68-19.21,42.68-42.68V170.68c0-23.47-19.21-42.68-42.68-42.68Zm-341.32,42.68v165.32H48V48h288v80h-165.32c-23.47,0-42.68,19.21-42.68,42.68Zm336,10.64v282.68H176V176h288v5.32Z"/></g></svg>