<svg id="Layer_1" data-name="Layer 1" xmlns="http://www.w3.org/2000/svg" viewBox="0 0 512 512"><defs><style>.cls-1{fill:#010101;}</style></defs><path class="cls-1" d="M213.17,100.19l-121.68,14c-2.76-19.07-5-38.63-18.63-52.67C60.86,49.21,41.59,46,25.94,50.87,11.13,55.48-10.76,76,6.1,92.56c4.69,4.63,12.53,6.09,17.61,2.54,4.8-3.37,6.55-10.3,12-12.56,5-2.09,11.35.92,14.89,5.46,11.33,14.51,10.83,32.26,12.91,49.3L57.8,255.67a30,30,0,0,0,8.75,22.66L224.89,436.67a30,30,0,0,0,42.42,0l128.05-128a30,30,0,0,0,0-42.44L237.82,108.77A30,30,0,0,0,213.17,100.19ZM86,245.86l5.77-61.74c16.67,10.43,36.85,8.3,49.14-7a22.08,22.08,0,0,0,1.65-2.36c7.33-12.14-2.17-29.72-17.67-25.84-12.07,3-19.54,12.94-26.82-5.68h0l104-13.48A13,13,0,0,1,213,133.46L359.92,280.38a13,13,0,0,1,0,18.43L255.31,403.41a13,13,0,0,1-18.43,0L89.76,256.29A13,13,0,0,1,86,245.86Z"/><path class="cls-1" d="M276.91,311.85q10.38-12.74,10.37-25.89t-10.55-23.72a36.86,36.86,0,0,0-11.65-8.17,32.7,32.7,0,0,0-12.6-2.54,49.7,49.7,0,0,0-14,2.11,159.22,159.22,0,0,0-17.82,6.58q-10.41,4.44-16,4.31t-10.31-4.84q-5.09-5.08-5.18-10.77t5-10.77a14.38,14.38,0,0,1,11.93-4.54q6.77.63,14.22,8.07l17.94-17.94q-12.1-12.11-25.92-13.51T186,218.28L172.47,204.8l-9.93,9.94L175.83,228q-10,12.24-10,25.65t10.49,23.9a36.35,36.35,0,0,0,12.45,8.54,32.86,32.86,0,0,0,13.14,2.21,52.82,52.82,0,0,0,14.18-2.64,160.34,160.34,0,0,0,16.74-6.62q9.31-4.21,15.15-4t10.93,5.28q4.9,4.9,4.62,10.95t-5.74,11.52q-6.59,6.59-14,6.15t-14.84-7.82L211,319.05q12.74,12.74,27.38,13.41t28.75-10.68l12.3,12.3,9.87-9.88Z"/><path class="cls-1" d="M505.72,274.36,504,272.68,360,128.6,316.19,84.83l-22.62,22.61L458.81,272.68l8.37,8.38a13.14,13.14,0,0,1,0,18.43l-8.37,8.37-132,132,23.45,23.46L504,309.54l1.68-1.68C514.09,297.81,514.09,284.41,505.72,274.36Z"/></svg>