<svg id="Layer_1" data-name="Layer 1" xmlns="http://www.w3.org/2000/svg" viewBox="0 0 512 512"><defs><style>.cls-1{fill:none;stroke:#010101;stroke-miterlimit:10;stroke-width:32px;}.cls-2,.cls-3{fill:#010101;}.cls-2{fill-opacity:0.9;}</style></defs><title>bhi_earn-code</title><line class="cls-1" x1="64" y1="448" x2="448" y2="64"/><g id="access-time"><path class="cls-2" d="M128,0C58.18,0,0,57,0,128A127.63,127.63,0,0,0,128,256c71,0,128-58.18,128-128S199,0,128,0Zm0,230.4C72.15,230.4,25.6,183.85,25.6,128S72.15,25.6,128,25.6,230.4,72.15,230.4,128,183.85,230.4,128,230.4Z"/><polygon class="cls-2" points="128.17 64 112.15 64 112.15 140.8 176.23 176.23 183.07 162.38 128.17 132 128.17 64"/></g><g id="access-time-2" data-name="access-time"><path class="cls-2" d="M384,256c-69.82,0-128,57-128,128A127.63,127.63,0,0,0,384,512c71,0,128-58.18,128-128S455,256,384,256Zm0,230.4c-55.85,0-102.4-46.55-102.4-102.4S328.15,281.6,384,281.6,486.4,328.15,486.4,384,439.85,486.4,384,486.4Z"/></g><path class="cls-3" d="M402.2,415.42c0-4.86-1.35-8.74-4.05-11.61s-7.28-5.54-13.75-8a159.09,159.09,0,0,1-16.73-7.26,53.54,53.54,0,0,1-12.07-8.27,33.31,33.31,0,0,1-7.83-11,36.84,36.84,0,0,1-2.8-15q0-15,9.61-24.66t25.55-11.21v-19h14.24v19.31q15.75,2.23,24.66,13.13t8.9,28.26H402.2q0-10.68-4.4-16a14.57,14.57,0,0,0-11.8-5.3q-7.29,0-11.3,4.14t-4,11.44q0,6.76,3.92,10.86t14.55,8.37a160.67,160.67,0,0,1,17.49,8.05,50.43,50.43,0,0,1,11.58,8.55,33.21,33.21,0,0,1,7.21,10.86,37.31,37.31,0,0,1,2.49,14.19q0,15.13-9.44,24.57t-26,11.13v17.71H378.35V451q-18.25-2-28.26-12.95t-10-29.24H365.8q0,10.59,5,16.24t14.46,5.65q7.83,0,12.37-4.14T402.2,415.42Z"/></svg>