<svg id="Layer_1" data-name="Layer 1" xmlns="http://www.w3.org/2000/svg" viewBox="0 0 512 512"><path d="M277.39,68.11a30.72,30.72,0,0,0-24.82-8.78L102.22,74.8c-4.25-20.95-8-42.41-23.73-58.59C64.61,2,43.41-2.76,26.68,1.52,10.84,5.58-11.68,26.46,7.77,45.65,13.18,51,21.82,53.1,27.12,49.56c5-3.36,6.47-10.79,12.28-12.91C44.74,34.71,51.82,38.4,56,43.57,69.26,60.12,69.86,79.42,73.24,98.12L57.07,253.6a30.73,30.73,0,0,0,8.9,25L291.66,503.06a30.75,30.75,0,0,0,43.35,0L502.94,336a30.73,30.73,0,0,0,0-43.58Zm191.33,255.6-146,145.18a13.35,13.35,0,0,1-18.83,0L94.48,260.57a13.34,13.34,0,0,1-3.86-10.85l10.84-104.34c18.84,12.45,46.28,17,58.68,1.14a21,21,0,0,0,1.64-2.46c7.2-12.76-4.29-32.52-20.92-29.31-13,2.51-20.46,12.84-29.59-7.92h0L248.56,92.7a13.34,13.34,0,0,1,10.78,3.82L468.72,304.77A13.36,13.36,0,0,1,468.72,323.71Z"/><path d="M230.14,227.45q6.92-6.91,16-6.08T265.2,232.2l24.07-24.07Q273,191.89,254.5,190q-17.35-1.76-33.21,9.23l-18.37-18.37-17.6,17.6,18.13,18.13q-11.28,15.16-11.28,31.66,0,18,14.07,32.06,8.16,8.16,16.7,11.45a44.08,44.08,0,0,0,17.61,3,70.42,70.42,0,0,0,19-3.54A214.76,214.76,0,0,0,282,282.33q12.5-5.65,20.32-5.41T317,284q6.57,6.58,6.2,14.7t-7.7,15.45q-8.83,8.83-18.82,8.24t-19.91-10.49L252.71,336q17.07,17.07,36.72,18,18.24.84,35.84-12.23l16.8,16.8,17.6-17.6-16.81-16.8q12.19-16,12.19-32.55,0-17.65-14.15-31.81a49.42,49.42,0,0,0-15.62-10.95,43.75,43.75,0,0,0-16.9-3.41,66.48,66.48,0,0,0-18.82,2.83,213.39,213.39,0,0,0-23.9,8.82q-14,6-21.45,5.79t-13.82-6.49q-6.82-6.84-6.95-14.45T230.14,227.45Z"/></svg>