<?xml version="1.0" encoding="utf-8"?>
<!-- Generator: Adobe Illustrator 21.1.0, SVG Export Plug-In . SVG Version: 6.00 Build 0)  -->
<svg version="1.1" id="Layer_1" xmlns="http://www.w3.org/2000/svg" xmlns:xlink="http://www.w3.org/1999/xlink" x="0px" y="0px"
	 viewBox="0 0 512 512" style="enable-background:new 0 0 512 512;" xml:space="preserve">
<style type="text/css">
	.st0{fill:#070606;}
	.st1{fill:none;}
</style>
<path class="st0" d="M256,42.667c117.632,0,213.333,95.701,213.333,213.333S373.632,469.333,256,469.333S42.667,373.632,42.667,256
	S138.368,42.667,256,42.667 M256,0C114.624,0,0,114.624,0,256c0,141.397,114.624,256,256,256s256-114.603,256-256
	C512,114.624,397.376,0,256,0L256,0z"/>
<g id="create_2_">
	<path class="st0" d="M134.698,326.07v51.222h51.222l148.265-149.607l-51.222-51.222L134.698,326.07z M373.264,188.608
		c5.383-5.383,5.383-13.485,0-18.868l-30.994-30.994c-5.383-5.383-13.485-5.383-18.869,0l-24.27,24.27l51.222,51.222
		L373.264,188.608z"/>
</g>
</svg>
