<svg id="Layer_1" data-name="Layer 1" xmlns="http://www.w3.org/2000/svg" viewBox="0 0 512 512"><defs><style>.cls-1,.cls-3{fill:#231f20;}.cls-2{fill:#010101;}.cls-3{fill-rule:evenodd;}</style></defs><title>bhi_outgoing-charge</title><path class="cls-1" d="M224,352q0-9.63-5.34-15.33t-18.15-10.51a213.23,213.23,0,0,1-22.08-9.57,70.53,70.53,0,0,1-15.92-10.93,44,44,0,0,1-10.34-14.5q-3.69-8.34-3.7-19.85,0-19.86,12.69-32.54T194.87,224V198.84h18.79v25.48q20.79,2.94,32.54,17.33T258,278.94H224q0-14.1-5.81-21.08t-15.57-7q-9.63,0-14.91,5.46t-5.29,15.09q0,8.94,5.17,14.33t19.2,11a214.9,214.9,0,0,1,23.08,10.63,66.66,66.66,0,0,1,15.27,11.28A43.86,43.86,0,0,1,254.66,333,49.33,49.33,0,0,1,258,351.76q0,20-12.46,32.42T211.2,398.87v23.37H192.52V399q-24.08-2.58-37.29-17.09T142,343.31h34q0,14,6.64,21.43t19.08,7.46q10.33,0,16.33-5.46T224,352Z"/><rect class="cls-2" x="270.01" y="198.84" width="128" height="32"/><rect class="cls-2" x="302.01" y="262.84" width="96" height="32"/><rect class="cls-2" x="302.01" y="326.84" width="96" height="32"/><rect class="cls-2" x="270.01" y="390.84" width="128" height="32"/><path class="cls-3" d="M428.33,463.6h-320V95h32v64h256V95h32ZM269,46.36a23.18,23.18,0,1,1-23.45,23.18A23.38,23.38,0,0,1,269,46.36Zm164.13,0h-98a70.33,70.33,0,0,0-132.24,0h-98C79.06,46.36,58,67.22,58,92.72V463.6C58,489.1,79.06,510,104.85,510H433.11C458.9,510,480,489.1,480,463.6V92.72C480,67.22,458.9,46.36,433.11,46.36Z"/></svg>