<svg id="Layer_1" data-name="Layer 1" xmlns="http://www.w3.org/2000/svg" viewBox="0 0 512 512"><defs><style>.cls-1{fill:#070606;}</style></defs><title>bhi</title><path class="cls-1" d="M337.62,438l98.59-107.16-72.87-72.87-8.57-8.57L251.89,358.67h0c-2.14,2.14-2.14,4.29-4.29,4.29-27.86,27.86-70.73,27.86-98.59,0s-27.86-70.73,0-98.59l4.29-4.29h0L262.6,157.2,254,148.63,181.16,75.76,71.85,176.49c-4.29,4.29-10.72,8.57-15,12.86C52.56,195.78,46.13,200.07,44,206.5l-2.14,2.14h0c-57.87,72.87-51.44,180,15,248.62,68.58,68.58,173.61,72.87,248.62,15h0c6.43-4.29,12.86-10.72,17.15-15C326.9,450.83,333.33,444.4,337.62,438Z"/><rect class="cls-1" x="241.95" y="5.47" width="64.3" height="117.88" transform="translate(34.74 212.68) rotate(-45)"/><rect class="cls-1" x="415.44" y="179.12" width="64.3" height="117.88" transform="translate(-37.24 386.22) rotate(-45)"/></svg>