<svg id="Layer_1" data-name="Layer 1" xmlns="http://www.w3.org/2000/svg" viewBox="0 0 512 512"><defs><style>.cls-1{fill:#010202;}</style></defs><path class="cls-1" d="M417.90259,295.9248c-2.15943-6.36572-9.042-10.55175-15.645-8.5996a138.73351,138.73351,0,0,1-27.01148,6.06054,155.657,155.657,0,0,1-28.1416.52344,136.77548,136.77548,0,0,1-51.13232-14.11768,144.37294,144.37294,0,0,1-40.82495-30.55322,137.07527,137.07527,0,0,1-27.4502-43.13965,144.15027,144.15027,0,0,1-10.002-53.25976,136.88483,136.88483,0,0,1,2.89624-27.77783q1.45826-6.86133,3.53076-13.57178c1.11768-3.61621,1.49072-6.87256-.16113-10.41114a13.50224,13.50224,0,0,0-7.11939-6.68408c-3.61938-1.47314-6.94043-.7124-10.49267.51026a169.03544,169.03544,0,0,0-62.69507,38.43945A166.1759,166.1759,0,1,0,400.15845,341.1626a157.92244,157.92244,0,0,0,11.49536-21.72315c1.84863-4.2666,3.60083-8.57812,5.14892-12.96386C418.03833,302.97559,419.15088,299.604,417.90259,295.9248Zm-46.833,42.37745a144.36529,144.36529,0,0,1-56.89038,43.793,143.081,143.081,0,0,1-23.95947,7.52393,140.60533,140.60533,0,0,1-98.20215-14.02051,135.55682,135.55682,0,0,1-20.25318-13.457,155.91732,155.91732,0,0,1-17.49438-16.748,144.2923,144.2923,0,0,1-25.25171-40.814,143.6691,143.6691,0,0,1-9.9331-49.88135,136.17162,136.17162,0,0,1,1.88867-25.97656,154.16949,154.16949,0,0,1,6.29467-23.94873c10.77637-30.70606,33.04346-57.09277,60.98511-73.59229,1.94531-1.14843,3.92212-2.24121,5.91577-3.30273a170.98585,170.98585,0,0,0,1.68335,60.61328,163.09107,163.09107,0,0,0,24.36914,57.69385A168.11253,168.11253,0,0,0,261.75,288.9082a166.80766,166.80766,0,0,0,119.23438,29.373c1.0498-.14258,2.09643-.3042,3.14306-.46631A157.7222,157.7222,0,0,1,371.06958,338.30225Z"/></svg>