<?xml version="1.0" encoding="utf-8"?>
<!-- Generator: Adobe Illustrator 22.1.0, SVG Export Plug-In . SVG Version: 6.00 Build 0)  -->
<svg version="1.1" id="Layer_1" xmlns="http://www.w3.org/2000/svg" xmlns:xlink="http://www.w3.org/1999/xlink" x="0px" y="0px"
	 viewBox="0 0 512 512" style="enable-background:new 0 0 512 512;" xml:space="preserve">
<style type="text/css">
	.st0{fill:#010101;}
	.st1{fill:none;}
	.st2{fill:#020202;}
</style>
<g>
	<path d="M232.335,128H96v32h115.255C217.121,148.553,224.206,137.83,232.335,128z"/>
	<path d="M96,352h136.335c-8.129-9.83-15.214-20.553-21.08-32H96V352z"/>
	<path d="M96,256h96.735c-0.477-5.272-0.735-10.606-0.735-16s0.258-10.728,0.735-16H96V256z"/>
	<path d="M448,416H32V256V64h29.714h356.571H448v19.255c11.447,5.866,22.17,12.95,32,21.08V46.933C480,38.4,474,32,466,32h-46H60H14
		C6,32,0,38.4,0,46.933V256v177.733c0,1.6,0.211,3.125,0.606,4.547c0.527,1.896,1.383,3.608,2.504,5.071
		c0.561,0.731,1.188,1.4,1.873,1.998c1.251,1.091,2.704,1.931,4.298,2.5c1.463,0.522,3.043,0.818,4.719,0.818h452
		c1.5,0,2.93-0.225,4.263-0.647c1.778-0.562,3.383-1.475,4.754-2.671c0.685-0.598,1.312-1.267,1.873-1.998
		c0.56-0.731,1.054-1.525,1.474-2.373c1.05-2.12,1.636-4.578,1.636-7.245v-58.068c-9.83,8.129-20.553,15.214-32,21.08V416z"/>
	<path d="M368,384c79.529,0,144-64.471,144-144S447.529,96,368,96s-144,64.471-144,144S288.471,384,368,384z M288,224h64v-64h32v64
		h64v32h-64v64h-32v-64h-64V224z"/>
</g>
</svg>
