<?xml version="1.0" encoding="utf-8"?>
<!-- Generator: Adobe Illustrator 21.1.0, SVG Export Plug-In . SVG Version: 6.00 Build 0)  -->
<svg version="1.1" id="Layer_1" xmlns="http://www.w3.org/2000/svg" xmlns:xlink="http://www.w3.org/1999/xlink" x="0px" y="0px"
	 viewBox="0 0 512 512" style="enable-background:new 0 0 512 512;" xml:space="preserve">
<style type="text/css">
	.st0{fill:#E5E5E5;}
	.st1{fill:#070606;}
	.st2{fill:none;}
</style>
<g>
	<rect y="416" class="st1" width="512" height="32"/>
	<polygon class="st1" points="64.084,384 95.991,339.759 127.898,384 160,384 111.486,318.919 158.123,256 125.924,256 
		95.876,298.124 65.827,256 33.744,256 80.384,318.924 32,384 	"/>
	<path class="st1" d="M428.311,332.267c20.8,0,37.867-17.067,37.867-37.867c0-20.8-17.067-38.4-37.867-38.4
		c-20.8,0-37.867,17.067-37.867,38.4C390.444,315.733,407.51,332.267,428.311,332.267z M420.844,286.933L428.311,272l7.467,14.933
		l16.533,2.133L440.577,300.8l2.133,16l-14.933-8l-14.933,8l2.667-16.533l-11.2-11.2L420.844,286.933z"/>
	<path class="st1" d="M415.467,383.467l12.438-34.74L440.533,384l12.267-17.067l19.2,6.4c0,0-11.845-33.421-14.437-40.731
		c-0.165-0.465-0.743-0.621-1.117-0.301c-2.119,1.815-8.778,4.319-9.79,4.717c-4.37,1.719-8.943,2.965-13.621,3.446
		c-6.232,0.641-12.557-0.079-18.623-1.645c-4.64-1.198-11.413-3.227-14.794-7.106c-0.348-0.399-0.986-0.297-1.188,0.192
		c-0.864,2.089-1.456,4.29-2.21,6.418c-1.682,4.745-3.364,9.491-5.045,14.236c-2.391,6.746-4.782,13.492-7.174,20.242l19.2-6.4
		L415.467,383.467z"/>
</g>
</svg>
