<?xml version="1.0" encoding="utf-8"?>
<!-- Generator: Adobe Illustrator 21.1.0, SVG Export Plug-In . SVG Version: 6.00 Build 0)  -->
<svg version="1.1" id="Layer_1" xmlns="http://www.w3.org/2000/svg" xmlns:xlink="http://www.w3.org/1999/xlink" x="0px" y="0px"
	 viewBox="0 0 512 512" style="enable-background:new 0 0 512 512;" xml:space="preserve">
<style type="text/css">
	.st0{fill:#E5E5E5;}
	.st1{fill:#070606;}
	.st2{fill:none;}
</style>
<g>
	<path d="M497.066,32H448H64H14.933C6.4,32,0,38.4,0,46.933V256v177.733c0,1.6,0.225,3.125,0.647,4.547
		c0.562,1.896,1.475,3.608,2.671,5.071c0.598,0.731,1.267,1.4,1.998,1.998c1.334,1.091,2.885,1.931,4.584,2.5
		c1.561,0.522,3.246,0.818,5.033,0.818h0h482.133c1.6,0,3.125-0.225,4.547-0.647c1.896-0.562,3.608-1.475,5.071-2.671
		c0.731-0.598,1.4-1.267,1.998-1.998c0.598-0.731,1.125-1.525,1.573-2.373c1.12-2.12,1.745-4.578,1.745-7.245V256V46.933
		C512,38.4,505.6,32,497.066,32z M480,256v160H32V256V64h32h384h32V256z"/>
	<path d="M338.999,299.493l-0.001-106.306c-0.429-23.189-8.283-41.563-23.344-54.611c-14.953-12.947-35.547-19.512-61.211-19.512
		c-24.786,0-46.008,6.814-63.074,20.253c-17.282,13.611-26.046,30.009-26.046,48.738v2.975l30.902,0.257v-3.025
		c0-11.582,5.188-21.262,15.862-29.593c10.752-8.391,24.584-12.646,41.111-12.646c18.08,0,31.95,4.373,41.224,12.997
		c9.211,8.572,13.882,20.575,13.882,35.676v22.525h-42.032c-32.988,0-59.155,6.606-77.775,19.634
		c-18.957,13.264-28.569,31.546-28.569,54.338c0,19.202,7.071,35.312,21.017,47.882c13.855,12.492,32.16,18.826,54.407,18.826
		c15.437,0,30.273-3.198,44.099-9.505c11.479-5.237,21.391-12.394,29.556-21.327c0.861,10.456,2.353,18.736,4.45,24.68l0.707,2.001
		h31.685v-6.099l-0.237-0.561C341.224,336.724,338.999,320.709,338.999,299.493z M311.305,288.702
		c-5.951,13.421-15.461,24.144-28.534,32.166c-13.074,8.025-27.911,12.036-44.513,12.036c-14.941,0-27.082-4.15-36.42-12.451
		c-9.339-8.301-14.008-18.745-14.008-31.335c0-15.356,6.984-27.425,20.959-36.212c13.973-8.784,33.34-13.313,58.105-13.592h44.41
		V288.702z"/>
</g>
</svg>
