<?xml version="1.0" encoding="utf-8"?>
<!-- Generator: Adobe Illustrator 21.1.0, SVG Export Plug-In . SVG Version: 6.00 Build 0)  -->
<svg version="1.1" id="Layer_1" xmlns="http://www.w3.org/2000/svg" xmlns:xlink="http://www.w3.org/1999/xlink" x="0px" y="0px"
	 viewBox="0 0 512 512" style="enable-background:new 0 0 512 512;" xml:space="preserve">
<style type="text/css">
	.st0{fill:#E5E5E5;}
	.st1{fill:#070606;}
	.st2{fill:none;}
</style>
<g>
	<rect y="416" class="st1" width="512" height="32"/>
	<polygon class="st1" points="64.084,384 95.991,339.759 127.898,384 160,384 111.486,318.919 158.122,256 125.924,256 
		95.876,298.124 65.827,256 33.744,256 80.384,318.924 32,384 	"/>
	<polygon class="st1" points="457.246,305.075 430.227,278.056 352.006,356.981 352.006,384 379.026,384 	"/>
	<path class="st1" d="M477.867,284.447c2.844-2.844,2.844-7.109,0-9.958l-16.356-16.356c-2.844-2.844-7.109-2.844-9.958,0
		l-12.802,12.802l27.019,27.019L477.867,284.447z"/>
</g>
</svg>
