<?xml version="1.0" encoding="utf-8"?>
<!-- Generator: Adobe Illustrator 21.1.0, SVG Export Plug-In . SVG Version: 6.00 Build 0)  -->
<svg version="1.1" id="Layer_1" xmlns="http://www.w3.org/2000/svg" xmlns:xlink="http://www.w3.org/1999/xlink" x="0px" y="0px"
	 viewBox="0 0 512 512" style="enable-background:new 0 0 512 512;" xml:space="preserve">
<style type="text/css">
	.st0{fill:#E5E5E5;}
	.st1{fill:#070606;}
	.st2{fill:none;}
</style>
<g>
	<rect x="96" y="320" class="st1" width="320" height="32"/>
	<rect x="96" y="224" class="st1" width="320" height="32"/>
	<rect x="96" y="128" class="st1" width="320" height="32"/>
	<path class="st1" d="M497.067,32H448H64H14.933C6.4,32,0,38.4,0,46.933V256v177.733c0,1.6,0.225,3.125,0.647,4.547
		c0.562,1.896,1.475,3.608,2.671,5.071c0.598,0.731,1.267,1.4,1.998,1.998c1.334,1.091,2.885,1.931,4.584,2.5
		c1.561,0.522,3.246,0.818,5.033,0.818l0,0h482.133c1.6,0,3.125-0.225,4.547-0.647c1.896-0.562,3.608-1.475,5.071-2.671
		c0.731-0.598,1.4-1.267,1.998-1.998c0.598-0.731,1.125-1.525,1.573-2.373c1.12-2.12,1.745-4.578,1.745-7.245V256V46.933
		C512,38.4,505.6,32,497.067,32z M480,256v160H32V256V64h32h384h32V256z"/>
</g>
</svg>
