<?xml version="1.0" encoding="UTF-8"?><svg id="Layer_2" xmlns="http://www.w3.org/2000/svg" viewBox="0 0 512 512"><defs><style>.cls-1{fill:#231f20;}.cls-1,.cls-2{stroke-width:0px;}.cls-2{fill:#282828;}</style></defs><g id="Layer_1-2"><path class="cls-1" d="m288,0h-64v96h64V0Z"/><path class="cls-1" d="m288,0h-64v96h64V0Z"/><path class="cls-1" d="m416,0h-96v128h-192V0H0v512h512V128L416,0Zm32,448H64v-224h384v224Z"/><path class="cls-2" d="m288,0h-64v96h64V0Z"/><path class="cls-2" d="m288,0h-64v96h64V0Z"/><path class="cls-2" d="m416,0h-96v128h-192V0H0v512h512V128L416,0Zm32,448H64v-224h384v224Z"/></g></svg>