<?xml version="1.0" encoding="UTF-8"?><svg id="Layer_2" xmlns="http://www.w3.org/2000/svg" viewBox="0 0 512 512"><defs><style>.cls-1{fill:#231f20;}.cls-1,.cls-2{stroke-width:0px;}.cls-2{fill:#282828;}</style></defs><g id="Layer_1-2"><path class="cls-1" d="m288,0h-64v96h64V0Z"/><path class="cls-1" d="m310.13,479.97c-18.04,0-36.08.02-54.13.03,0-18.04.02-36.08.03-54.13,1.66-1.62,3.31-3.25,4.97-4.87,52.49-52.54,104.98-105.08,157.46-157.62l54.15,54.15c-54.16,54.15-108.33,108.29-162.49,162.44Z"/><path class="cls-1" d="m507.54,261.07l-32.61-32.61c-5.95-5.95-15.6-5.95-21.55,0l-21.38,21.38,54.15,54.15,21.38-21.38c5.95-5.95,5.95-15.6,0-21.55Z"/><path class="cls-1" d="m224,479.77v-31.77H64v-224h348.58l5.88-5.88h.01s12.29-12.28,12.29-12.28c8.92-8.92,20.78-13.84,33.4-13.84s24.48,4.91,33.4,13.83l14.44,14.44v-92.28L416,0h-96v128h-192V0H0v512h223.98l.02-32.23Z"/><path class="cls-2" d="m288,0h-64v96h64V0Z"/><path class="cls-2" d="m310.13,479.97c-18.04,0-36.08.02-54.13.03,0-18.04.02-36.08.03-54.13,1.66-1.62,3.31-3.25,4.97-4.87,52.49-52.54,104.98-105.08,157.46-157.62l54.15,54.15c-54.16,54.15-108.33,108.29-162.49,162.44Z"/><path class="cls-2" d="m507.54,261.07l-32.61-32.61c-5.95-5.95-15.6-5.95-21.55,0l-21.38,21.38,54.15,54.15,21.38-21.38c5.95-5.95,5.95-15.6,0-21.55Z"/><path class="cls-2" d="m224,479.77v-31.77H64v-224h348.58l5.88-5.88h.01s12.29-12.28,12.29-12.28c8.92-8.92,20.78-13.84,33.4-13.84s24.48,4.91,33.4,13.83l14.44,14.44v-92.28L416,0h-96v128h-192V0H0v512h223.98l.02-32.23Z"/></g></svg>