<svg width="48" height="48" viewBox="0 0 48 48" fill="none" xmlns="http://www.w3.org/2000/svg">
<g clip-path="url(#clip0_1920_327884)">
<path d="M27 0H21V9H27V0Z" fill="#282828"/>
<path d="M39 0H30V12H12V0H0V48H21H48V12L39 0ZM21 42H6V21H42H48V48H21V42Z" fill="#282828"/>
<path d="M23 42.5996V47.8779H28.2783L43.5566 32.4629L38.2783 27.1846L23 42.5996ZM47.585 28.4346C48.1416 27.8779 48.1416 27.0479 47.585 26.4912L44.3867 23.293C43.8301 22.7363 43 22.7363 42.4434 23.293L39.6667 26.0029L44.875 30.8125L47.585 28.4346Z" fill="#282828"/>
<path d="M23 42.5996V47.8779H28.2783L43.5566 32.4629L38.2783 27.1846L23 42.5996ZM47.585 28.4346C48.1416 27.8779 48.1416 27.0479 47.585 26.4912L44.3867 23.293C43.8301 22.7363 43 22.7363 42.4434 23.293L39.6667 26.0029L44.875 30.8125L47.585 28.4346Z" stroke="white"/>
</g>
<defs>
<clipPath id="clip0_1920_327884">
<rect width="48" height="48" fill="white"/>
</clipPath>
</defs>
</svg>
