<svg id="Layer_1" data-name="Layer 1" xmlns="http://www.w3.org/2000/svg" viewBox="0 0 512 512"><title>bhi</title><path d="M480,288S365.71,329.14,292.57,402.29c-18.29,18.29-29.71,32-36.57,45.71-6.86-13.71-18.29-27.43-36.57-45.71C146.29,329.14,32,288,32,288S0,365.71,36.57,438.86,256,512,256,512s182.86,0,219.43-73.14S480,288,480,288Z"/><path d="M164.57,304a73.2,73.2,0,0,0,18.85-2.47,73.13,73.13,0,0,0,145.15,0,73.14,73.14,0,0,0,70.85-122.11A73.13,73.13,0,0,0,327.48,57.63a73.14,73.14,0,0,0-143,0,73.13,73.13,0,0,0-71.95,121.79,73.13,73.13,0,0,0,52,124.57ZM256,109.71a73.14,73.14,0,1,1-73.14,73.14A73.14,73.14,0,0,1,256,109.71Z"/></svg>