<svg id="Layer_1" data-name="Layer 1" xmlns="http://www.w3.org/2000/svg" viewBox="0 0 512 512"><title>bhi</title><path d="M477.7,128a256,256,0,0,0-469,61.74A256,256,0,0,0,384,477.7,256,256,0,0,0,477.7,128ZM320.11,445.39a277.88,277.88,0,0,1-18.67,20.84c-3.25,3.3-6.6,6.47-10,9.49-.43.37-.84.77-1.28,1.13a3.39,3.39,0,0,1-1.71.6,5.57,5.57,0,0,0-1.83.43,1.27,1.27,0,0,0-.19.15A222.72,222.72,0,0,1,213.63,476l20.59-76.85a887.15,887.15,0,0,0,105.07,20.14c-.77,1.17-1.54,2.34-2.33,3.5Q329,434.45,320.11,445.39ZM118.54,432.84a5.57,5.57,0,0,0-1.37-1.29,3.39,3.39,0,0,1-1.18-1.38c-.2-.53-.36-1.08-.54-1.61-1.43-4.32-2.75-8.74-3.91-13.22A277.88,277.88,0,0,1,105.79,388q-2.22-13.89-3.28-28c-.1-1.4-.18-2.8-.26-4.2a887.15,887.15,0,0,0,101.06,35.09l-20.59,76.85a222.72,222.72,0,0,1-64.09-34.61A1.27,1.27,0,0,0,118.54,432.84ZM192,66.66a277.75,277.75,0,0,1,18.67-20.83c3.25-3.3,6.6-6.46,10-9.48l1.27-1.13a3.69,3.69,0,0,1,1.42-.93A222.64,222.64,0,0,1,298.37,36l-20.59,76.85a887.24,887.24,0,0,0-105-20.13c.77-1.16,1.53-2.33,2.31-3.48Q183.06,77.59,192,66.66ZM395.16,80.33a3.69,3.69,0,0,1,.77,1.52l.54,1.62c1.43,4.32,2.75,8.73,3.92,13.21a277.75,277.75,0,0,1,5.76,27.37q2.23,13.89,3.29,28c.1,1.39.18,2.78.26,4.17a887.21,887.21,0,0,0-101-35.06l20.59-76.85A222.64,222.64,0,0,1,395.16,80.33Zm35,205.78q5.16-22,8.38-44.39c1.49-10.11,2.51-20.3,3.33-30.51.11-1.48.19-3,.28-4.45a413.82,413.82,0,0,1,36.11,20.81,222.8,222.8,0,0,1-2.34,70.8ZM409.34,208.8c-.76,9.46-1.7,18.93-3.09,28.34q-2.89,20.38-7.59,40.51l-123.06-33,24.81-92.6c45,12.85,81.49,26.73,109.81,39.35Q409.94,200.12,409.34,208.8Zm-139.84-65-24.81,92.6-123.06-33q6-19.76,13.68-38.88c3.5-8.85,7.43-17.51,11.5-26.09q3.83-7.86,8-15.54C185.52,126.16,224,132.37,269.5,143.8ZM117.39,124.26c-4.39,9.25-8.61,18.59-12.37,28.09q-8.44,21-14.94,42.63L44.32,182.72a222.8,222.8,0,0,1,33.4-62.52,406.18,406.18,0,0,1,41.68,0C118.73,121.55,118,122.9,117.39,124.26ZM36,213.63l45.77,12.26q-5.15,22-8.36,44.39c-1.49,10.11-2.5,20.3-3.32,30.51-.1,1.49-.19,3-.28,4.47A413.88,413.88,0,0,1,33.7,284.43,222.8,222.8,0,0,1,36,213.63Zm66.58,89.57c.77-9.46,1.7-18.93,3.1-28.34q2.9-20.38,7.61-40.51l123.07,33-24.81,92.6c-45.07-12.86-81.53-26.75-109.86-39.37Q102,311.87,102.62,303.19Zm139.88,65,24.81-92.6,123.07,33q-6,19.76-13.66,38.89c-3.5,8.85-7.42,17.52-11.49,26.1q-3.82,7.84-7.93,15.52C327.53,385.92,288.81,379.81,242.5,368.2Zm152.08,19.53c4.4-9.25,8.61-18.58,12.38-28.08q8.45-21,15-42.62l45.77,12.26a222.8,222.8,0,0,1-33.39,62.51,407,407,0,0,1-41.73,0C393.23,390.44,393.91,389.09,394.58,387.72Zm73.7-203.45c-7.34-4-15.75-8.4-25.28-13-.15-7.21-.46-14.42-1-21.63s-1.31-14.52-2.28-21.76Q445.16,135.68,450,144A226.29,226.29,0,0,1,468.28,184.28ZM144,62q8.33-4.81,16.94-8.84-6.7,8.68-12.86,17.7T136.42,89.11c-10.56-.77-20-1.18-28.4-1.36A226.29,226.29,0,0,1,144,62ZM43.72,327.72c7.35,4,15.78,8.42,25.33,13,.15,7.2.46,14.4,1,21.59s1.32,14.61,2.31,21.89Q66.88,376.39,62,368A226.29,226.29,0,0,1,43.72,327.72ZM368,450q-8.4,4.85-17.08,8.91,6.74-8.72,12.95-17.8t11.65-18.21c10.58.77,20.08,1.19,28.46,1.37A226.29,226.29,0,0,1,368,450Z"/></svg>