<svg width="48" height="48" viewBox="0 0 48 48" fill="none" xmlns="http://www.w3.org/2000/svg">
<path d="M3 6C3 4.34062 4.34062 3 6 3H10.5H15C16.6594 3 18 4.34062 18 6C18 7.65938 16.6594 9 15 9H13.5V19.5H34.5V9H33C31.3406 9 30 7.65938 30 6C30 4.34062 31.3406 3 33 3H37.5H42C43.6594 3 45 4.34062 45 6C45 7.65938 43.6594 9 42 9H40.5V22.5V39H42C43.6594 39 45 40.3406 45 42C45 43.6594 43.6594 45 42 45H37.5H33C31.3406 45 30 43.6594 30 42C30 40.3406 31.3406 39 33 39H34.5V25.5H13.5V39H15C16.6594 39 18 40.3406 18 42C18 43.6594 16.6594 45 15 45H10.5H6C4.34062 45 3 43.6594 3 42C3 40.3406 4.34062 39 6 39H7.5V22.5V9H6C4.34062 9 3 7.65938 3 6Z" fill="#282828"/>
</svg>
