<svg id="Layer_1" data-name="Layer 1" xmlns="http://www.w3.org/2000/svg" viewBox="0 0 512 512"><defs><style>.cls-1{fill:#010101;}</style></defs><title>bhi_3</title><path class="cls-1" d="M415.23,232.18a25.83,25.83,0,1,1-25.83-25.83A25.87,25.87,0,0,1,415.23,232.18Z"/><path class="cls-1" d="M512,232.31a130.14,130.14,0,0,1-2.57,25.75,125.23,125.23,0,0,1-7.5,24.05,126.52,126.52,0,0,1-11.76,21.67,127.77,127.77,0,0,1-34.49,34.52,127.94,127.94,0,0,1-45.78,19.26,131.29,131.29,0,0,1-25.69,2.57H362.72v10.54a12,12,0,0,1-11.87,12h-.08a11.94,11.94,0,0,1-6-1.62L291,350a12,12,0,0,1-.08-20.68l53.91-31.16a12.1,12.1,0,0,1,6-1.59,12,12,0,0,1,12,11.95v10.6h21.49a84.5,84.5,0,0,0,17.45-1.81,86.71,86.71,0,0,0,54.47-36.5,83.63,83.63,0,0,0,8-14.73,85.85,85.85,0,0,0,5.06-16.24,88.48,88.48,0,0,0,0-35,87.23,87.23,0,0,0-5.06-16.24,87.37,87.37,0,0,0-31.47-38.17,86.16,86.16,0,0,0-30.94-13,88.09,88.09,0,0,0-35,0,85.34,85.34,0,0,0-16.29,5,86.93,86.93,0,0,0-14.7,8L123.42,308.08a20.58,20.58,0,0,1-11,3.15,20.79,20.79,0,0,1-10-2.57,20.48,20.48,0,0,1-1.17-35.21L312.76,126.32a124.66,124.66,0,0,1,21.67-11.76,128.51,128.51,0,0,1,24-7.48,130.2,130.2,0,0,1,51.47,0,123.76,123.76,0,0,1,24,7.45,126.49,126.49,0,0,1,21.75,11.76,131.69,131.69,0,0,1,18.89,15.6,133.4,133.4,0,0,1,15.6,18.92,127.49,127.49,0,0,1,19.26,45.75A129.62,129.62,0,0,1,512,232.31Z"/><path class="cls-1" d="M44.88,294.3a44.85,44.85,0,1,0,44.85,44.82A44.9,44.9,0,0,0,44.88,294.3Zm0,60.56a15.71,15.71,0,1,1,15.71-15.71A15.75,15.75,0,0,1,44.88,354.86Z"/></svg>