<svg id="Layer_1" data-name="Layer 1" xmlns="http://www.w3.org/2000/svg" viewBox="0 0 512 512"><defs><style>.cls-1{fill:#010101;}</style></defs><title>bhi_3</title><path class="cls-1" d="M416.12,379a272.3,272.3,0,0,0,95.54-123C472.15,153.74,372.22,81.69,256,81.69a274.43,274.43,0,0,0-113,24.18L87.2,50.06a32,32,0,0,0-45.26,0h0l416,416h0a32,32,0,0,0,0-45.26ZM256,139.79c65.08,0,116.22,51.14,116.22,116.22a116.87,116.87,0,0,1-17.31,61.76L194.23,157.1A116.93,116.93,0,0,1,256,139.79Z"/><path class="cls-1" d="M256,372.21c-65.08,0-116.22-51.14-116.22-116.22a122.09,122.09,0,0,1,1.12-16.46L62.52,161.15A271.23,271.23,0,0,0,.34,256C39.85,358.26,139.78,430.31,256,430.31A275.8,275.8,0,0,0,323.38,422l-50.92-50.91A122.09,122.09,0,0,1,256,372.21Z"/></svg>