<svg id="Layer_1" data-name="Layer 1" xmlns="http://www.w3.org/2000/svg" viewBox="0 0 512 512"><defs><style>.cls-1{fill:#010101;}</style></defs><path class="cls-1" d="M428.49943,51.40591H384.23117V.13323h-64V51.40591h-128V.13323h-64V51.40591h-32c-28.45829,0-63.76122,23.07487-63.76122,51.27267l-.23878,358.9956a51.26323,51.26323,0,0,0,51.29439,51.27267H428.49947a51.44482,51.44482,0,0,0,51.29437-51.27267V102.7003A51.46343,51.46343,0,0,0,428.49943,51.40591ZM416.25282,448.94685H96.23117v-288h320v288Z"/><polygon class="cls-1" points="256 192 290.61 265.629 368 277.438 312 334.762 325.221 415.694 256 377.481 186.779 415.694 200 334.762 144 277.438 221.39 265.629 256 192"/></svg>