<svg id="Layer_1" data-name="Layer 1" xmlns="http://www.w3.org/2000/svg" viewBox="0 0 512 512"><defs><style>.cls-1{fill:#010101;}</style></defs><title>bhi_3</title><path class="cls-1" d="M384,480h0V363.23a40,40,0,0,0-5.85-20.82l-49.54-81.26a10,10,0,0,1,0-10.42l49.53-81.13A40,40,0,0,0,384,148.76V32h0c32,0,32-32,32-32H96s0,32,32,32h0V148.76a40,40,0,0,0,5.86,20.84l49.52,81.13a10,10,0,0,1,0,10.42l-49.54,81.26A40,40,0,0,0,128,363.23V480c-32,0-32,32-32,32H416S416,480,384,480Zm-224,0V372.17a40,40,0,0,1,5.85-20.83l55-90.13a10,10,0,0,0,0-10.42l-55-90.19A40,40,0,0,1,160,139.76V32H352V139.76a40,40,0,0,1-5.86,20.84l-55,90.19a10,10,0,0,0,0,10.42l55,90.13A40,40,0,0,1,352,372.17V480Z"/><polygon class="cls-1" points="320 128 192 128 256 224 320 128"/><path class="cls-1" d="M256,352l-57.28,68.74A27.68,27.68,0,0,0,192,438.49V448H320v-9.51a27.68,27.68,0,0,0-6.72-17.75Z"/></svg>