<svg id="Layer_1" data-name="Layer 1" xmlns="http://www.w3.org/2000/svg" viewBox="0 0 512 512"><defs><style>.cls-1{fill:#010101;}</style></defs><title>bhi_3</title><path class="cls-1" d="M384,480h0V363.24a40,40,0,0,0-5.86-20.84l-49.53-81.13a10,10,0,0,1,0-10.42l49.54-81.26A40,40,0,0,0,384,148.77V32h0c32,0,32-32,32-32H96s0,32,32,32V148.77a40,40,0,0,0,5.85,20.82l49.54,81.26a10,10,0,0,1,0,10.42L133.86,342.4A40,40,0,0,0,128,363.24V480h0c-32,0-32,32-32,32H416S416,480,384,480Zm-224,0V372.24a40,40,0,0,1,5.86-20.84l55-90.19a10,10,0,0,0,0-10.42l-55-90.13A40,40,0,0,1,160,139.83V32H352V139.83a40,40,0,0,1-5.85,20.83l-55,90.13a10,10,0,0,0,0,10.42l55,90.19A40,40,0,0,1,352,372.24V480Z"/><path class="cls-1" d="M320,115.89V64H192v51.89a40,40,0,0,0,6.72,22.19L256,224l57.28-85.92A40,40,0,0,0,320,115.89Z"/></svg>