<?xml version="1.0" encoding="utf-8"?>
<!-- Generator: Adobe Illustrator 21.1.0, SVG Export Plug-In . SVG Version: 6.00 Build 0)  -->
<svg version="1.1" id="Layer_1" xmlns="http://www.w3.org/2000/svg" xmlns:xlink="http://www.w3.org/1999/xlink" x="0px" y="0px"
	 viewBox="0 0 512 512" style="enable-background:new 0 0 512 512;" xml:space="preserve">
<style type="text/css">
	.st0{fill:#E5E5E5;}
	.st1{fill:#070606;}
	.st2{fill:none;}
</style>
<g>
	<path d="M352,0H102.544C81.131,0,64,17.355,64,38.768v434.688C64,494.869,81.131,512,102.544,512h306.913
		C430.869,512,448,494.869,448,473.456V128V96L352,0z M384,428.988c0,10.5-8.512,19.012-19.012,19.012H147.012
		c-10.5,0-19.012-8.512-19.012-19.012V128h256V428.988z M320,96V32l64,64H320z"/>
	<rect x="160" y="256" width="32.09" height="128"/>
	<path d="M275.781,316.371c9.328,0,17.101-1.621,23.32-4.867c6.217-3.244,11.7-8.88,16.447-16.907h1.473
		c-0.656,14.602-3.151,26.065-7.487,34.391c-4.338,8.326-10.598,14.431-18.779,18.316c-8.183,3.887-18.615,5.828-31.298,5.828
		c-7.529,0-14.728-0.896-21.602-2.69v31.765c5.481,1.195,13.542,1.793,24.179,1.793c30.193,0,52.734-9.094,67.627-27.282
		C344.554,338.53,352,310.991,352,274.103c0-17.078-2.66-31.785-7.978-44.125c-5.32-12.339-12.949-21.753-22.89-28.243
		c-9.942-6.488-21.54-9.734-34.796-9.734c-18.821,0-33.691,5.828-44.615,17.484c-10.924,11.656-16.385,27.518-16.385,47.584
		c0,18.616,4.499,33.154,13.501,43.613C247.838,311.141,260.151,316.371,275.781,316.371z M268.662,232.219
		c4.418-5.636,10.555-8.454,18.41-8.454c7.936,0,14.462,3.502,19.576,10.503c5.113,7.002,7.671,15.584,7.671,25.745
		c0,6.833-2.742,12.873-8.223,18.124c-5.483,5.251-12.07,7.877-19.76,7.877c-8.183,0-14.28-2.646-18.288-7.941
		c-4.01-5.294-6.014-12.467-6.014-21.518C262.035,245.968,264.244,237.854,268.662,232.219z"/>
	<rect x="160" y="192" width="32" height="32"/>
</g>
</svg>
