<?xml version="1.0" encoding="UTF-8"?><svg id="Layer_2" xmlns="http://www.w3.org/2000/svg" viewBox="0 0 512 512"><defs><style>.cls-1{stroke-width:0px;}</style></defs><g id="Layer_1-2"><path class="cls-1" d="m511.92,419.32c0-.18-.01-.35-.02-.53-.05-1.16-.13-2.31-.23-3.46-.02-.21-.04-.43-.06-.64-.11-1.15-.23-2.28-.38-3.42-.02-.17-.05-.35-.07-.52-.16-1.18-.34-2.36-.55-3.53,0-.01,0-.03,0-.04-.21-1.17-.45-2.32-.7-3.47-.03-.16-.07-.31-.1-.47-.25-1.1-.52-2.2-.81-3.29-.05-.2-.11-.39-.16-.59-.3-1.08-.61-2.16-.95-3.22-.05-.16-.11-.32-.16-.49-.36-1.11-.73-2.21-1.13-3.3,0-.02-.01-.04-.02-.05-.4-1.09-.83-2.17-1.27-3.24-.05-.13-.11-.27-.16-.4-.43-1.03-.89-2.05-1.36-3.07-.08-.17-.16-.34-.24-.52-.47-1.01-.97-2-1.48-2.99-.07-.14-.15-.28-.22-.42-.54-1.02-1.09-2.04-1.67-3.04,0-.01-.02-.03-.03-.04-.58-1.01-1.19-2-1.81-2.99-.06-.1-.12-.2-.19-.3-.6-.95-1.23-1.88-1.87-2.81-.1-.14-.19-.28-.29-.42-.64-.91-1.29-1.82-1.97-2.71-.09-.11-.18-.23-.26-.34-.71-.92-1.42-1.83-2.16-2.73,0,0,0,0,0,0-.76-.91-1.53-1.81-2.33-2.69-.06-.07-.12-.13-.18-.2-.76-.85-1.55-1.68-2.34-2.49-.1-.11-.21-.21-.31-.32-.79-.81-1.6-1.6-2.42-2.37-.09-.09-.18-.17-.28-.26-1.74-1.63-3.54-3.18-5.41-4.67-.05-.04-.09-.07-.14-.11-.91-.72-1.84-1.42-2.77-2.1-.11-.08-.21-.15-.32-.23-.93-.67-1.87-1.33-2.83-1.96-.09-.06-.19-.12-.28-.18-2.02-1.33-4.09-2.59-6.21-3.75-.03-.02-.06-.03-.09-.05-1.04-.57-2.09-1.11-3.15-1.64-.1-.05-.21-.1-.31-.15-1.05-.52-2.11-1.01-3.18-1.49-.09-.04-.19-.08-.29-.12-2.25-.99-4.55-1.89-6.9-2.7-.01,0-.03-.01-.04-.01-1.14-.39-2.3-.76-3.46-1.1-.11-.03-.21-.06-.32-.1-1.14-.33-2.29-.65-3.45-.93-.1-.03-.21-.05-.31-.08-1.19-.29-2.39-.56-3.6-.81-2.26-.46-4.56-.82-6.88-1.1-4.93-20.39-16.16-48.08-41.8-67.29-15.88-11.9-34.3-17.49-35.08-17.72h0c-.12-.04-.25-.08-.39-.12-19.9-5.97-39.13-4.99-51.86-4.33l-2.21.11c-8.11.4-16.21.33-24.79.26-4.29-.03-8.72-.07-13.14-.04-27.93.17-33.81,0-36.03-.07-1.71-.05-2.34-.05-4.71.05-.57.01-1.4.04-2.45.09-18.4.81-31.53-.11-39.03-2.74-2.55-.9-5.34-2.12-5.36-2.13-.04-.02-4.03-1.8-7.94-4.09-4.18-2.82-27.7-23.62-63.64-60.15,2.57-.48,5.11-1.06,7.6-1.76,1.13-.32,2.25-.65,3.36-1.01.09-.03.17-.06.26-.08,2.25-.73,4.47-1.55,6.64-2.46,0,0,.01,0,.02,0,1.06-.44,2.12-.91,3.16-1.4.08-.04.17-.08.25-.12,2.11-.99,4.18-2.06,6.2-3.2.02-.01.04-.02.06-.03.99-.56,1.96-1.14,2.93-1.74.08-.05.17-.1.25-.16,1.95-1.22,3.84-2.51,5.68-3.86.04-.03.07-.05.11-.08.9-.66,1.78-1.35,2.65-2.04.09-.07.18-.14.27-.21,1.76-1.42,3.46-2.9,5.1-4.44.05-.05.11-.1.16-.15.8-.75,1.58-1.52,2.35-2.31.09-.09.18-.19.27-.28,1.55-1.59,3.05-3.25,4.48-4.95.07-.08.14-.16.2-.24.69-.83,1.37-1.67,2.03-2.53.09-.12.18-.24.28-.36.67-.87,1.32-1.75,1.96-2.65,0,0,.01-.02.02-.03.63-.89,1.24-1.8,1.84-2.71.07-.11.15-.22.22-.33.58-.89,1.14-1.8,1.69-2.72.09-.15.17-.29.26-.44.55-.94,1.09-1.88,1.61-2.84.01-.02.02-.04.03-.06.51-.95,1-1.9,1.48-2.87.07-.14.14-.28.21-.42.46-.95.91-1.91,1.34-2.88.08-.17.15-.34.23-.52.43-1,.86-2,1.26-3.01.01-.03.02-.05.03-.08.39-1,.76-2,1.11-3.02.06-.17.12-.34.18-.51.34-1,.67-2.01.98-3.02.06-.19.11-.38.17-.57.31-1.05.61-2.1.88-3.17,0-.03.01-.05.02-.08.27-1.05.51-2.1.74-3.16.04-.19.08-.38.12-.57.22-1.04.42-2.1.6-3.16.04-.2.07-.41.1-.61.18-1.1.35-2.2.49-3.31,0-.02,0-.03,0-.05.14-1.1.25-2.2.35-3.31.02-.21.04-.41.05-.62.09-1.08.16-2.17.21-3.27,0-.21.02-.42.02-.63.04-1.14.07-2.28.07-3.43,0-4.61-.35-9.13-1.03-13.55-1.13-7.37-3.15-14.43-5.97-21.09-.28-.67-.57-1.33-.87-1.98-1.78-3.94-3.84-7.73-6.16-11.34-1.54-2.41-3.2-4.74-4.96-6.98-2.2-2.8-4.57-5.47-7.09-7.99-.5-.5-1.01-1-1.53-1.49-2.58-2.46-5.3-4.76-8.15-6.89-.57-.43-1.15-.85-1.73-1.26-1.16-.83-2.35-1.63-3.55-2.4-.6-.39-1.21-.76-1.82-1.14-3.67-2.23-7.51-4.2-11.51-5.89-1.33-.56-2.68-1.09-4.04-1.59-1.36-.5-2.74-.97-4.14-1.4-8.36-2.6-17.25-4-26.47-4-.77,0-1.53,0-2.3.03-2.29.06-4.56.2-6.8.43-3.74.38-7.41.99-11,1.82-15.79,3.64-29.97,11.49-41.31,22.3-.52.49-1.02.99-1.53,1.49-2.52,2.52-4.88,5.18-7.09,7.99-1.76,2.24-3.42,4.57-4.96,6.98-2.32,3.61-4.38,7.4-6.16,11.34-.3.66-.59,1.32-.87,1.98-2.81,6.65-4.84,13.72-5.97,21.09-.68,4.42-1.03,8.95-1.03,13.55,0,1.15.03,2.29.07,3.43,0,.21.01.42.02.63.05,1.1.12,2.19.21,3.27.02.21.04.41.05.62.1,1.11.21,2.21.35,3.31,0,.02,0,.03,0,.05.14,1.11.31,2.21.49,3.31.03.2.07.41.1.61.18,1.06.38,2.11.6,3.16.04.19.08.38.12.57.23,1.06.47,2.12.74,3.16,0,.03.01.05.02.08.27,1.06.57,2.12.88,3.17.06.19.11.38.17.57.31,1.02.63,2.02.98,3.02.06.17.12.34.18.51.36,1.01.72,2.02,1.11,3.02.01.03.02.05.03.08.4,1.02.82,2.02,1.26,3.01.07.17.15.34.22.51.43.97.88,1.93,1.34,2.88.07.14.14.28.21.42.48.97.97,1.92,1.48,2.87.01.02.02.04.03.06.52.96,1.06,1.91,1.61,2.84.09.15.17.29.26.44.55.92,1.11,1.82,1.69,2.72.07.11.14.22.22.33.6.92,1.21,1.82,1.84,2.72,0,0,.01.02.02.03.64.9,1.29,1.78,1.96,2.65.09.12.18.24.27.36.66.86,1.34,1.7,2.03,2.53.07.08.13.16.2.24,1.43,1.71,2.93,3.36,4.48,4.95.09.09.18.19.27.28.77.78,1.55,1.55,2.35,2.31.05.05.11.1.16.15,1.64,1.55,3.35,3.03,5.11,4.45.09.07.18.14.26.21.87.7,1.76,1.38,2.65,2.05.04.03.07.05.11.08,1.84,1.36,3.74,2.65,5.68,3.87.08.05.17.1.25.16.96.6,1.94,1.18,2.93,1.74.02.01.04.02.06.03,2.02,1.15,4.08,2.21,6.2,3.2.08.04.17.08.25.12,1.04.48,2.1.95,3.16,1.4,0,0,.01,0,.02,0,2.17.91,4.38,1.73,6.64,2.46.09.03.17.06.26.08,1.11.36,2.23.7,3.36,1.01,2.62.73,5.29,1.34,8,1.83v158.89c-2.71.49-5.38,1.1-8,1.83-1.13.32-2.25.65-3.36,1.01-.09.03-.17.06-.26.08-2.25.73-4.47,1.55-6.64,2.46,0,0-.01,0-.02,0-1.07.45-2.12.91-3.16,1.4-.08.04-.16.08-.25.12-2.11.99-4.18,2.06-6.2,3.2-.02.01-.04.02-.06.03-.99.56-1.96,1.14-2.93,1.74-.08.05-.17.11-.25.16-1.95,1.22-3.84,2.51-5.68,3.86-.04.03-.07.05-.11.08-.9.67-1.78,1.35-2.66,2.05-.09.07-.17.14-.26.21-1.76,1.42-3.46,2.9-5.11,4.45-.05.05-.11.1-.16.15-.8.75-1.58,1.52-2.35,2.3-.09.09-.18.19-.28.28-1.56,1.59-3.05,3.25-4.48,4.95-.07.08-.13.16-.2.23-.69.83-1.37,1.67-2.03,2.53-.09.12-.18.24-.27.36-.67.87-1.32,1.76-1.96,2.65,0,0-.01.02-.02.03-.63.89-1.24,1.8-1.84,2.72-.07.11-.15.22-.22.33-.58.89-1.14,1.8-1.69,2.72-.09.15-.17.29-.26.44-.55.94-1.09,1.88-1.61,2.84-.01.02-.02.04-.03.06-.51.95-1,1.9-1.48,2.87-.07.14-.14.28-.21.42-.46.95-.91,1.91-1.34,2.88-.08.17-.15.34-.22.51-.43,1-.86,2-1.26,3.01-.01.03-.02.05-.03.08-.39,1-.76,2-1.11,3.02-.06.17-.12.34-.18.51-.34,1-.67,2.01-.98,3.02-.06.19-.11.38-.17.57-.31,1.05-.61,2.1-.88,3.17,0,.03-.01.05-.02.08-.27,1.05-.51,2.1-.74,3.16-.04.19-.08.38-.12.57-.22,1.04-.42,2.1-.6,3.15-.04.2-.07.41-.1.61-.18,1.1-.35,2.2-.49,3.31,0,.02,0,.03,0,.05-.14,1.1-.25,2.2-.35,3.31-.02.21-.04.41-.05.62-.09,1.08-.16,2.17-.21,3.27,0,.21-.02.42-.02.63-.04,1.14-.07,2.28-.07,3.43,0,.77,0,1.53.03,2.3.06,2.29.2,4.56.43,6.8.3,2.99.76,5.94,1.35,8.84,1.78,8.69,4.82,16.92,8.93,24.49.69,1.26,1.4,2.5,2.14,3.73,7.43,12.23,17.73,22.53,29.97,29.97,1.22.74,2.47,1.46,3.73,2.14,7.57,4.11,15.8,7.16,24.49,8.93,2.9.59,5.84,1.04,8.84,1.35,2.24.23,4.51.37,6.8.43.76.02,1.53.03,2.3.03s1.53,0,2.3-.03c2.29-.06,4.56-.2,6.8-.43,2.99-.3,5.94-.76,8.84-1.35,8.69-1.78,16.92-4.82,24.49-8.93,1.26-.69,2.5-1.4,3.73-2.14,12.23-7.43,22.53-17.73,29.97-29.97.74-1.22,1.46-2.47,2.14-3.73,4.11-7.57,7.16-15.8,8.93-24.49.59-2.9,1.04-5.84,1.35-8.84.23-2.24.37-4.51.43-6.8.02-.76.03-1.53.03-2.3,0-1.15-.03-2.29-.07-3.43,0-.21-.01-.42-.02-.63-.05-1.1-.12-2.18-.21-3.27-.02-.21-.04-.41-.05-.62-.1-1.11-.21-2.21-.35-3.31,0-.02,0-.03,0-.05-.14-1.11-.31-2.21-.49-3.31-.03-.2-.07-.41-.1-.61-.18-1.06-.38-2.11-.6-3.15-.04-.19-.08-.38-.12-.57-.23-1.06-.47-2.12-.74-3.16,0-.03-.01-.05-.02-.08-.27-1.06-.57-2.12-.88-3.17-.06-.19-.11-.38-.17-.57-.31-1.02-.63-2.02-.98-3.02-.06-.17-.12-.34-.18-.51-.36-1.01-.72-2.02-1.11-3.02-.01-.03-.02-.05-.03-.08-.4-1.01-.82-2.02-1.26-3.01-.07-.17-.15-.34-.22-.51-.43-.97-.88-1.93-1.34-2.88-.07-.14-.14-.28-.21-.42-.48-.97-.97-1.92-1.48-2.87-.01-.02-.02-.04-.03-.06-.52-.96-1.06-1.91-1.61-2.84-.09-.15-.17-.29-.26-.44-.55-.92-1.11-1.82-1.69-2.72-.07-.11-.14-.22-.22-.33-.6-.92-1.21-1.82-1.84-2.72,0,0-.01-.02-.02-.03-.64-.9-1.29-1.78-1.96-2.65-.09-.12-.18-.24-.28-.36-.66-.85-1.34-1.7-2.03-2.53-.07-.08-.13-.16-.2-.23-1.43-1.71-2.93-3.36-4.48-4.95-.09-.09-.18-.19-.28-.28-.77-.78-1.55-1.55-2.35-2.3-.05-.05-.11-.1-.16-.15-1.64-1.55-3.35-3.03-5.11-4.45-.09-.07-.17-.14-.26-.21-.87-.7-1.76-1.38-2.66-2.05-.04-.03-.07-.05-.11-.08-1.84-1.36-3.74-2.65-5.68-3.86-.08-.05-.17-.11-.25-.16-.96-.6-1.94-1.18-2.93-1.74-.02-.01-.04-.02-.06-.03-2.02-1.15-4.09-2.21-6.2-3.2-.08-.04-.16-.08-.25-.12-1.04-.48-2.1-.95-3.16-1.4,0,0-.01,0-.02,0-2.17-.91-4.39-1.73-6.64-2.46-.09-.03-.17-.06-.26-.08-1.11-.36-2.23-.7-3.36-1.01-2.62-.73-5.29-1.34-8-1.83v-114.17c22.68,22.19,41.47,39.2,47.66,42.85,5.5,3.24,10.78,5.6,11.37,5.86.4.18,4,1.76,7.71,3.06,15.35,5.38,36.47,5.16,51.02,4.52.74-.03,1.3-.06,1.65-.07l.66-.02q1.56-.07,2.49-.04c2.59.08,8.67.26,37.18.08,4.19-.03,8.5,0,12.68.04,8.65.07,17.6.14,26.61-.29l2.29-.12c11.15-.57,26.42-1.35,41.01,3.02l.39.12c.14.04,13.89,4.29,25.09,12.68,16.03,12.01,24.24,29.32,28.46,43.73-3.09.78-6.13,1.69-9.08,2.78-.99.37-1.97.75-2.95,1.15-.11.05-.23.09-.34.14-.97.4-1.94.82-2.89,1.26-.07.03-.14.07-.22.1-.92.43-1.84.87-2.74,1.32-.07.03-.14.07-.21.1-.93.47-1.86.96-2.77,1.47-.11.06-.22.12-.33.18-1.83,1.02-3.62,2.1-5.36,3.24-.12.08-.24.16-.36.24-1.73,1.14-3.41,2.34-5.05,3.6-.12.09-.23.18-.35.27-.82.63-1.63,1.28-2.42,1.94-.03.03-.07.06-.1.09-.76.64-1.52,1.29-2.26,1.95-.1.09-.2.18-.3.26-.76.68-1.5,1.37-2.24,2.08-.09.08-.18.17-.26.26-.69.67-1.37,1.35-2.04,2.05-.06.07-.13.13-.19.2-.7.73-1.39,1.48-2.07,2.23-.11.12-.22.24-.32.36-.67.76-1.33,1.52-1.98,2.3,0,0,0,.01-.01.02-.65.78-1.28,1.58-1.91,2.39-.11.14-.22.29-.33.44-.62.81-1.22,1.63-1.81,2.46,0,0,0,.01-.01.02-.58.82-1.14,1.65-1.69,2.48-.1.16-.21.31-.31.47-.55.84-1.08,1.69-1.6,2.54-.06.1-.12.2-.18.31-.47.79-.93,1.59-1.38,2.4-.08.15-.17.29-.25.44-.48.87-.94,1.75-1.39,2.64-.08.16-.16.32-.24.48-.41.82-.81,1.65-1.19,2.48-.05.11-.11.22-.16.34-.41.91-.81,1.82-1.19,2.75-.08.2-.16.39-.24.59-.37.92-.74,1.84-1.08,2.77,0,.02-.02.05-.03.07-.35.95-.68,1.91-.99,2.87-.07.21-.14.43-.21.64-.31.96-.6,1.92-.88,2.9-.03.09-.05.18-.07.27-.25.91-.49,1.82-.71,2.74-.05.21-.1.42-.15.63-.23.98-.45,1.96-.65,2.95-.03.17-.07.35-.1.52-.17.89-.33,1.78-.48,2.68-.03.19-.06.38-.09.57-.16,1-.3,2.01-.42,3.02-.03.22-.05.44-.07.66-.11.93-.2,1.86-.28,2.8-.01.13-.02.26-.04.4-.08,1.03-.14,2.06-.18,3.1-.01.24-.02.48-.03.72-.04,1.06-.06,2.12-.06,3.19,0,.77,0,1.53.03,2.3.06,2.29.2,4.56.43,6.8.3,2.99.76,5.94,1.35,8.84,1.78,8.69,4.82,16.92,8.93,24.49.69,1.26,1.4,2.5,2.14,3.73,7.43,12.23,17.73,22.53,29.97,29.97,1.22.74,2.47,1.46,3.73,2.14,7.57,4.11,15.8,7.16,24.49,8.93,2.9.59,5.84,1.04,8.84,1.35,2.24.23,4.51.37,6.8.43.76.02,1.53.03,2.3.03s1.53,0,2.3-.03c2.29-.06,4.56-.2,6.8-.43,2.99-.3,5.94-.76,8.84-1.35,8.69-1.78,16.92-4.82,24.49-8.93,1.26-.69,2.5-1.4,3.73-2.14,12.23-7.43,22.53-17.73,29.97-29.97.74-1.22,1.46-2.47,2.14-3.73,4.11-7.57,7.16-15.8,8.93-24.49.59-2.9,1.04-5.84,1.35-8.84.23-2.24.37-4.51.43-6.8.02-.76.03-1.53.03-2.3,0-1.23-.03-2.46-.08-3.68ZM32,89c0-31.43,25.57-57,57-57s57,25.57,57,57-25.57,57-57,57-57-25.57-57-57Zm114,334c0,31.43-25.57,57-57,57s-57-25.57-57-57,25.57-57,57-57,57,25.57,57,57Zm277,57c-31.43,0-57-25.57-57-57s25.57-57,57-57,57,25.57,57,57-25.57,57-57,57Z"/></g></svg>