<?xml version="1.0" encoding="UTF-8"?>
<svg id="Layer_1" xmlns="http://www.w3.org/2000/svg" version="1.1" viewBox="0 0 512 512">
  <!-- Generator: Adobe Illustrator 30.7.0, SVG Export Plug-In . SVG Version: 2.1.4 Build 114)  -->
  <rect x="151.83" y="155.44" width="54.21" height="27.08"/>
  <polygon points="230 253.48 230 233.19 128.25 233.19 128.25 253.48 179.13 279.93 230 253.48"/>
  <path d="M482.1,76H29.79c-16.43-.03-29.77,13.27-29.79,29.7v300.6c.02,16.42,13.34,29.72,29.75,29.7h452.45c16.45,0,29.79-13.34,29.79-29.8V105.8c-.06-16.47-13.42-29.8-29.89-29.8ZM43.57,209.6c0-15,11.92-27.08,26.97-27.08h54.21v-27.08c0-15,12.03-27.08,27.08-27.08h54.21c15,0,27.08,12.03,27.08,27.08v27.13h54.21c15,0,27.08,12.03,27.08,27.08v30.47l-135.29,67.57L43.51,240.98l.05-31.37ZM314.42,355.66c0,15-12.03,27.08-27.08,27.08H70.54c-15,0-27.08-12.08-27.08-27.08l.11-90.99,135.56,66.72,135.29-67.62v91.89ZM469,377.5h-107v-45h107v45ZM469,278.5h-107v-45.9h107v45.9ZM469,178.5h-107v-45h107v45Z"/>
</svg>