<svg id="Layer_1" data-name="Layer 1" xmlns="http://www.w3.org/2000/svg" viewBox="0 0 512 512"><defs><style>.cls-1{fill:#231f20;}.cls-2{fill:#010101;}</style></defs><title>bhi_job-code</title><path class="cls-1" d="M311.39,280.07q-6.81-6.81-14.62-7.05t-20.27,5.39a212,212,0,0,1-22.38,8.85,70.36,70.36,0,0,1-19,3.53,43.84,43.84,0,0,1-17.56-3q-8.52-3.29-16.66-11.42-14-14-14-32t13.37-34.3l-17.78-17.77,13.29-13.29,18,18q16.77-12.61,35.25-10.75t34.68,18.06l-24,24q-10-10-19-10.79t-16,6.06q-6.81,6.81-6.69,14.41T225,252.5q6.31,6.31,13.79,6.48t21.38-5.77A213.4,213.4,0,0,1,284,244.4a66.53,66.53,0,0,1,18.77-2.82,43.73,43.73,0,0,1,16.86,3.4,49.33,49.33,0,0,1,15.57,10.93q14.13,14.11,14.12,31.72t-13.87,34.64L352,338.79,338.79,352l-16.44-16.44q-18.86,15.19-38.45,14.28T247.27,331.9l24-24q9.89,9.89,19.85,10.46t18.77-8.22q7.31-7.31,7.68-15.41T311.39,280.07Z"/><path class="cls-2" d="M249.91,89.84,466.75,306.68,306.68,466.75,89.84,249.91l15-145.07,145.07-15m11.85-33.4L75.69,75.69,56.44,261.76,306.68,512,512,306.68,261.76,56.44Z"/><path class="cls-1" d="M158,143c-13.59,17.5-45.8,9.56-63.58-6.17-31-27.46-14.32-65.22-37.54-94.3-4-5.05-10.9-8.65-16.09-6.75-5.64,2.06-7,9.32-11.92,12.6-5.14,3.45-13.53,1.4-18.78-3.82C-8.82,25.82,13,5.44,28.42,1.48c16.24-4.18,36.82.44,50.29,14.34C102.37,40.25,98.08,77,111,105.2c8.68,19,15.92,9.2,28.3,6.79,16.15-3.14,27.3,16.15,20.31,28.6A20,20,0,0,1,158,143Z"/></svg>