<svg id="Layer_1" data-name="Layer 1" xmlns="http://www.w3.org/2000/svg" viewBox="0 0 512 512"><defs><style>.cls-1,.cls-2{fill:#010101;}.cls-2{fill-opacity:0.9;}</style></defs><path class="cls-1" d="M363.62,119.59v-1.32c0-18.91-16.18-34.08-36.35-34.08H254.55V50.09C254.55,31.17,238.37,16,218.2,16H145.5c-20.17,0-36.35,15.17-36.35,34.09V84.17H36.43C16.26,84.17.27,99.34.27,118.26v3.68c-.11,1.19-.18,2.4-.18,3.63V293.1c0,.1,0,.2,0,.3v8.51C.08,320.83,16.26,336,36.43,336H192.82A176,176,0,0,1,364.08,176.05V125.57A39.34,39.34,0,0,0,363.62,119.59ZM145.5,50.09h72.72V84.17H145.5ZM248.08,169.56,179.75,202.8l-68.34-33.24V144H248.08Z"/><path class="cls-2" d="M478.19,370.94a104.76,104.76,0,0,0,0-37.92l33.62-13.92a123.42,123.42,0,0,0-7.18-23.7,156.43,156.43,0,0,0-11.41-21.93l-33.9,14a112,112,0,0,0-26.8-26.8l14-33.86A147.42,147.42,0,0,0,401,208l-14,33.86a185.71,185.71,0,0,0-24.56-1.74c-6.47,0-7.16.67-13.34,1.74l-14-33.85a150.5,150.5,0,0,0-23.58,7.39,141.77,141.77,0,0,0-21.9,11.51l14,33.82a112.06,112.06,0,0,0-26.79,26.78l-33.86-14A149.21,149.21,0,0,0,224.08,319L258,333a104.76,104.76,0,0,0,0,37.92l-33.74,14a138.16,138.16,0,0,0,7.29,23.65,189.21,189.21,0,0,0,11.25,22h0l34-14.1a112.32,112.32,0,0,0,26.79,26.8l-14,33.87a147.5,147.5,0,0,0,45.51,18.84l14-33.83a104.6,104.6,0,0,0,37.89,0l14,33.89a160.24,160.24,0,0,0,23.58-7.47c13.88-5.7,22-11.54,21.9-11.49l-14-33.8a112.42,112.42,0,0,0,26.78-26.79l33.83,14A148.07,148.07,0,0,0,512.08,385ZM368.08,440a86.74,86.74,0,1,1,86.74-86.74A86.74,86.74,0,0,1,368.08,440Z"/></svg>