<svg width="40" height="40" viewBox="0 0 40 40" fill="none" xmlns="http://www.w3.org/2000/svg">
    <path
        d="M13.7473 18.4028L15.769 22.7051L16.3458 23.9351L17.6397 24.1338L22.1574 24.8213L18.8904 28.1729L17.9524 29.1396L18.1734 30.4932L18.9443 35.2251L14.9064 32.9907L13.7473 32.3516L12.5882 32.9907L8.55028 35.2251L9.32121 30.4932L9.54225 29.1396L8.60419 28.1782L5.33719 24.8267L9.85493 24.1392L11.1488 23.9404L11.7256 22.7105L13.7473 18.4028ZM13.7473 12.5L9.49912 21.5503L0 23.0059L6.87365 30.0527L5.25093 40L13.7473 35.3003L22.2491 40L20.6263 30.0527L27.5 23.0059L18.0009 21.5557L13.7473 12.5Z"
        fill="#282828" />
    <path
        d="M27.0819 6.37423L28.1234 8.59054L28.4206 9.22416L29.0871 9.32654L31.4144 9.6807L29.7314 11.4073L29.2482 11.9053L29.3621 12.6026L29.7592 15.0402L27.6791 13.8892L27.0819 13.5599L26.4848 13.8892L24.4047 15.0402L24.8018 12.6026L24.9157 11.9053L24.4325 11.41L22.7495 9.68347L25.0768 9.32931L25.7433 9.22693L26.0405 8.5933L27.0819 6.37423ZM27.0819 3.33337L24.8935 7.99565L20 8.74548L23.541 12.3757L22.705 17.5L27.0819 15.079L31.4616 17.5L30.6257 12.3757L34.1667 8.74548L29.2732 7.99841L27.0819 3.33337Z"
        fill="#282828" />
</svg>
    