<svg id="Layer_1" data-name="Layer 1" xmlns="http://www.w3.org/2000/svg" viewBox="0 0 512 512"><title>bhi</title><path d="M384,64,160,0,.05,64V511.95L160,448l224,64,127.95-64V0ZM100.4,282.87a554.89,554.89,0,0,0-8.17,62.54,1.65,1.65,0,0,1-1.76,1.54L57.3,344.83a1.66,1.66,0,0,1-1.56-1.77,592.52,592.52,0,0,1,8.74-67,1.67,1.67,0,0,1,2-1.33l32.64,6.22A1.66,1.66,0,0,1,100.4,282.87Zm42.71-122c-9.39,14.5-17.93,32.93-25.4,54.81a1.67,1.67,0,0,1-2.11,1l-31.49-10.6a1.68,1.68,0,0,1-1-2.13c8.5-24.91,18.43-46.19,29.55-63.29a1.67,1.67,0,0,1,2.32-.47l27.7,18.35A1.65,1.65,0,0,1,143.11,160.83Zm85.61-24.71c-3.74-3.94-8.68-6.91-15.07-9a57,57,0,0,0-18-3.14,44.62,44.62,0,0,0-8.93.9,1.68,1.68,0,0,1-2-1.23L176.9,91.33a1.67,1.67,0,0,1,1.25-2c15-3.32,30.93-2.28,47.07,3.1,12.72,4.24,23.23,10.93,31.27,19.9a1.67,1.67,0,0,1-.18,2.38L231,136.22A1.65,1.65,0,0,1,228.72,136.13Zm2.84,119.22c.93-8.33,2-16.76,3.12-24.91,1.82-13.74,3.54-26.75,4.41-39.1a1.66,1.66,0,0,1,1.76-1.54L274,192a1.67,1.67,0,0,1,1.56,1.78c-1,13.55-2.83,27.74-4.65,41.49-1,7.94-2.13,16.14-3,24.09a1.66,1.66,0,0,1-1.83,1.47l-33-3.59A1.67,1.67,0,0,1,231.56,255.35Zm67.52,110.43-14.93,29.69a1.67,1.67,0,0,1-2.27.74c-21.13-11.2-36.82-31.81-46.65-61.3l-.31-.94a1.67,1.67,0,0,1,1.1-2.11l31.81-9.62a1.68,1.68,0,0,1,2.07,1.09v0c6.64,19.91,16.2,33.43,28.46,40.22A1.67,1.67,0,0,1,299.08,365.78Zm68,27.67a1.67,1.67,0,0,1-2.24-.78l-14.38-30a1.67,1.67,0,0,1,.77-2.21c20.59-10.31,30.89-24.59,32.48-30.13a1.68,1.68,0,0,1,1.61-1.24h33.47a1.68,1.68,0,0,1,1.67,1.78C419.29,356.35,392.55,380.8,367.12,393.45ZM447.27,263.6a2.5,2.5,0,0,1,0,3.54l-19.09,19.09a2.5,2.5,0,0,1-3.54,0l-20.86-20.86-20.86,20.86a2.5,2.5,0,0,1-3.54,0l-19.09-19.09a2.5,2.5,0,0,1,0-3.54l20.86-20.86-20.86-20.86a2.5,2.5,0,0,1,0-3.54l19.09-19.09a2.5,2.5,0,0,1,3.54,0l20.86,20.86,20.86-20.86a2.5,2.5,0,0,1,3.54,0l19.09,19.09a2.5,2.5,0,0,1,0,3.54l-20.86,20.86Z"/></svg>