<?xml version="1.0" encoding="UTF-8"?><svg id="Layer_2" xmlns="http://www.w3.org/2000/svg" viewBox="0 0 512 512"><defs><style>.cls-1{fill:#282827;}.cls-1,.cls-2{stroke-width:0px;}.cls-2{fill:#231f20;}</style></defs><g id="Layer_1-2"><path class="cls-2" d="m256,42.67c117.63,0,213.33,95.7,213.33,213.33s-95.7,213.33-213.33,213.33S42.67,373.63,42.67,256,138.37,42.67,256,42.67m0-42.67C114.62,0,0,114.62,0,256s114.62,256,256,256,256-114.6,256-256S397.38,0,256,0h0Z"/><rect class="cls-2" x="96" y="224" width="320" height="64"/><path class="cls-1" d="m256,42.67c117.63,0,213.33,95.7,213.33,213.33s-95.7,213.33-213.33,213.33S42.67,373.63,42.67,256,138.37,42.67,256,42.67m0-42.67C114.62,0,0,114.62,0,256s114.62,256,256,256,256-114.6,256-256S397.38,0,256,0h0Z"/><rect class="cls-1" x="96" y="224" width="320" height="64"/></g></svg>