<?xml version="1.0" encoding="UTF-8"?><svg id="Layer_2" xmlns="http://www.w3.org/2000/svg" viewBox="0 0 512 512"><defs><style>.cls-1{fill:#282827;stroke-width:0px;}</style></defs><g id="Layer_1-2"><path class="cls-1" d="m240.56,56.57h214.86s0,214.87,0,214.87L240.56,56.57M103.99,0l408.01,408.01-.02-407.99L103.99,0h0Z"/><path class="cls-1" d="m56.57,240.56l214.87,214.87H56.58s0-214.87,0-214.87M0,103.99l.02,407.99,407.99.02L0,103.99h0Z"/><rect class="cls-1" x="432.13" y="414.3" width="55.73" height="91.38" transform="translate(-190.53 459.99) rotate(-45)"/><rect class="cls-1" x="296.59" y="278.77" width="55.73" height="91.38" transform="translate(-134.4 324.46) rotate(-45)"/><rect class="cls-1" x="24.15" y="6.32" width="55.73" height="91.38" transform="translate(-21.54 52.01) rotate(-45)"/><rect class="cls-1" x="160.37" y="142.55" width="55.73" height="91.38" transform="translate(-77.97 188.23) rotate(-45)"/></g></svg>