<svg id="Layer_1" data-name="Layer 1" xmlns="http://www.w3.org/2000/svg" viewBox="0 0 512 512"><defs><style>.cls-1{fill:#010101;}</style></defs><path class="cls-1" d="M72.24005,382.73633A15.69993,15.69993,0,0,0,56.16,366.65674h-39.05a16.07984,16.07984,0,1,0,0,32.15967H56.16A15.70609,15.70609,0,0,0,72.24005,382.73633Z"/><path class="cls-1" d="M494.88989,366.65674h-39.05a16.07983,16.07983,0,0,0,0,32.15967h39.05005a16.07984,16.07984,0,1,0,0-32.15967Z"/><path class="cls-1" d="M460.30115,415.7666H388.1499A140.30934,140.30934,0,0,0,391.53,385.02637c0-75.79981-59.73-135.51953-135.53-135.51953S120.48,309.22656,120.48,385.02637a140.30934,140.30934,0,0,0,3.37988,30.74023h-74.231a20.2833,20.2833,0,0,0-13.19037,4.68018A14.93018,14.93018,0,0,0,30.97,431.7666c0,8.83985,8.353,16,18.65888,16H460.30115c10.31592,0,18.66882-7.16015,18.66882-16S470.61707,415.7666,460.30115,415.7666Zm-302.3512,0a104.33,104.33,0,0,1-5.31006-33.03027A102.93508,102.93508,0,0,1,256,279.3667c57.42993,0,103.36987,48.23975,103.36987,103.36963a104.323,104.323,0,0,1-5.31006,33.03027Z"/><path class="cls-1" d="M366.97,479.7666h-224a16,16,0,0,0,0,32h224a16,16,0,0,0,0-32Z"/><path class="cls-1" d="M256,201.2666c9.18994,0,16.07983-6.89014,16.07983-18.37012v-39.0498a16.08,16.08,0,1,0-32.15991,0v41.33984A15.70018,15.70018,0,0,0,256,201.2666Z"/><path class="cls-1" d="M413.23364,249.69238l27.61231-27.6123a16.07986,16.07986,0,1,0-22.74048-22.74024l-29.23169,29.23145a15.70015,15.70015,0,0,0,0,22.74072C395.37207,257.81006,405.116,257.81006,413.23364,249.69238Z"/><path class="cls-1" d="M98.76642,249.69238c8.11761,8.11768,17.86157,8.11768,24.3598,1.61963a15.70015,15.70015,0,0,0,0-22.74072L93.89453,199.33984a16.07986,16.07986,0,1,0-22.74048,22.74024Z"/></svg>