<svg id="Layer_1" data-name="Layer 1" xmlns="http://www.w3.org/2000/svg" viewBox="0 0 512 512"><defs><style>.cls-1{fill:#010101;}</style></defs><path class="cls-1" d="M256.00006,287.7666c9.18994,0,16.07984-6.89014,16.07984-18.37012v-39.0498a16.08,16.08,0,1,0-32.15992,0v41.33984A15.70019,15.70019,0,0,0,256.00006,287.7666Z"/><path class="cls-1" d="M471.12988,366.65674h-39.05a16.07983,16.07983,0,0,0,0,32.15967h39.05005a16.07984,16.07984,0,1,0,0-32.15967Z"/><path class="cls-1" d="M79.91992,398.81641a16.07984,16.07984,0,1,0,0-32.15967H40.86987a16.07984,16.07984,0,1,0,0,32.15967Z"/><path class="cls-1" d="M461.33112,415.7666H387.545c-14.53-59.2998-67.26-102.25976-131.55-102.25976s-117.02,42.96-131.54,102.25976H50.65887a20.28329,20.28329,0,0,0-13.19036,4.68018A14.93018,14.93018,0,0,0,32,431.7666c0,8.83985,8.353,16,18.65887,16H461.33112c10.31591,0,18.66888-7.16015,18.66888-16S471.647,415.7666,461.33112,415.7666Zm-304.03608,0a102.86871,102.86871,0,0,1,98.7-72.3999c46.3,0,85.12988,31.35986,98.43994,72.3999H157.295Z"/><path class="cls-1" d="M368,479.7666H144a16,16,0,1,0,0,32H368a16,16,0,0,0,0-32Z"/><path class="cls-1" d="M383.51385,311.22656l27.61237-27.6123A16.07986,16.07986,0,1,0,388.38574,260.874l-29.23169,29.23145a15.70021,15.70021,0,0,0,0,22.74072C365.65228,319.34424,375.39624,319.34424,383.51385,311.22656Z"/><path class="cls-1" d="M128.48615,311.22656c8.11761,8.11768,17.86157,8.11768,24.3598,1.61963a15.70021,15.70021,0,0,0,0-22.74072L123.61426,260.874a16.07986,16.07986,0,1,0-22.74048,22.74024Z"/></svg>