<svg id="Layer_1" data-name="Layer 1" xmlns="http://www.w3.org/2000/svg" viewBox="0 0 512 512"><defs><style>.cls-1{fill:#010101;}</style></defs><path class="cls-1" d="M494.88989,366.65674h-39.05a16.07983,16.07983,0,0,0,0,32.15967h39.05005a16.07984,16.07984,0,1,0,0-32.15967Z"/><path class="cls-1" d="M72.24,382.73633a15.69993,15.69993,0,0,0-16.08008-16.07959h-39.05a16.07984,16.07984,0,0,0,0,32.15967H56.15991A15.70609,15.70609,0,0,0,72.24,382.73633Z"/><path class="cls-1" d="M460.30115,415.7666H388.1499A140.30934,140.30934,0,0,0,391.53,385.02637c0-75.79981-59.73-135.51953-135.53-135.51953S120.48,309.22656,120.48,385.02637a140.30934,140.30934,0,0,0,3.37988,30.74023h-74.231a20.28358,20.28358,0,0,0-13.19043,4.68018A14.93037,14.93037,0,0,0,30.97,431.7666c0,8.83985,8.353,16,18.65894,16H460.30115c10.31592,0,18.66882-7.16015,18.66882-16S470.61707,415.7666,460.30115,415.7666Zm-302.3512,0a104.33,104.33,0,0,1-5.31006-33.03027A102.93508,102.93508,0,0,1,256,279.3667c57.42993,0,103.36987,48.23975,103.36987,103.36963a104.323,104.323,0,0,1-5.31006,33.03027Z"/><path class="cls-1" d="M366.97,479.7666h-224a16,16,0,1,0,0,32h224a16,16,0,0,0,0-32Z"/><path class="cls-1" d="M254.97,223.7666a16,16,0,0,0,16-16v-128a16,16,0,1,0-32,0v128A16.00016,16.00016,0,0,0,254.97,223.7666Z"/><path class="cls-1" d="M387.65625,251.08057a16.00066,16.00066,0,0,0,22.62744,0L478.97,182.394a15.99975,15.99975,0,0,0,0-22.62744h0a15.99963,15.99963,0,0,0-22.62732,0l-68.6864,68.68652a16.00022,16.00022,0,0,0,0,22.62745Z"/><path class="cls-1" d="M99.65649,251.08057a15.99963,15.99963,0,0,0,22.62732,0h.00013a16.00022,16.00022,0,0,0,0-22.62745L53.59741,159.7666a15.99977,15.99977,0,0,0-22.62744,0h0a16.00021,16.00021,0,0,0,0,22.62744Z"/><path class="cls-1" d="M329.48364,222.46631a17.02378,17.02378,0,0,0,22.24292-9.21338l11.64429-28.11133a17.02406,17.02406,0,1,0-31.4563-13.02978l-11.64416,28.11132A17.02424,17.02424,0,0,0,329.48364,222.46631Z"/><path class="cls-1" d="M453.43115,272.78271l-26.35107,15.21387A17.02394,17.02394,0,1,0,444.104,317.48291L470.4552,302.269a17.02374,17.02374,0,0,0,6.23132-23.25488h-.00012A17.02387,17.02387,0,0,0,453.43115,272.78271Z"/><path class="cls-1" d="M53.64282,272.78271A17.02394,17.02394,0,0,0,36.6189,302.269L62.97,317.48291A17.024,17.024,0,1,0,79.994,287.99658Z"/><path class="cls-1" d="M158.21338,213.25293a17.02406,17.02406,0,1,0,31.4563-13.02979l-11.64417-28.11132a17.024,17.024,0,1,0-31.45617,13.02978Z"/></svg>