<svg id="Layer_1" data-name="Layer 1" xmlns="http://www.w3.org/2000/svg" viewBox="0 0 512 512"><defs><style>.cls-1{fill:#010202;}</style></defs><path class="cls-1" d="M482.271,81.92139a2.22815,2.22815,0,0,0,.11474-.29737c.00684-.02295.01856-.041.0249-.06445.00928-.0332.00928-.07031.01661-.10449a2.19657,2.19657,0,0,0,.04492-.28369c.00635-.07569.00635-.15235.00537-.23-.00147-.063-.001-.12549-.00781-.1875a2.39409,2.39409,0,0,0-1.80518-2.26953c-.06494-.00977-.12988-.02-.19482-.02979a2.25727,2.25727,0,0,0-.46436-.0708q-7.147-1.09278-14.29419-2.18457-11.91027-1.81933-23.82031-3.63965-2.21008-.33765-4.42017-.67529l-6.19262-13.19385q-5.3379-11.373-10.676-22.74658-1.22168-2.603-2.44336-5.20557a2.51339,2.51339,0,0,0-4.31738,0q-3.32886,7.09131-6.658,14.18311-5.33789,11.37157-10.676,22.74316-.98877,2.10645-1.97778,4.21338-6.9624,1.06347-13.925,2.12744-11.90991,1.82007-23.82031,3.64014-2.72424.416-5.44873.83252c-1.93945.29638-2.29395,2.958-1.10327,4.17822q5.38183,5.51587,10.76367,11.03125,8.63562,8.85058,17.27124,17.70068,1.53735,1.57545,3.07422,3.15088-1.15173,7.062-2.30371,14.124-2.03394,12.4702-4.06812,24.94043-.46728,2.866-.93481,5.73193a2.53532,2.53532,0,0,0,3.67236,2.82324l13.3396-7.374q10.645-5.885,21.29028-11.769,1.83143-1.01294,3.66309-2.02539l12.07764,6.67676q10.645,5.88428,21.29028,11.769,2.4624,1.36157,4.925,2.72265a2.53341,2.53341,0,0,0,3.67236-2.82324q-1.27587-7.82081-2.55176-15.64209-2.03393-12.468-4.06787-24.93652-.3435-2.10645-.687-4.21192,4.93615-5.05956,9.8728-10.11816,8.63562-8.85058,17.27124-17.7002,1.98267-2.03174,3.96485-4.064c.03515-.03614.05713-.07471.08935-.11133a2.17842,2.17842,0,0,0,.19287-.2417c.041-.05762.08008-.11523.11475-.17383C482.20361,82.06738,482.23779,81.99561,482.271,81.92139ZM406.90234,84.728q.77894-1.66041,1.55762-3.3208,2.04786-4.36671,4.09912-8.73243,1.72046-3.665,3.44092-7.32959,3.624,7.71827,7.24707,15.437c.83838,1.78662,1.61743,3.61425,2.51831,5.37011,1.04688,2.04,3.97266,1.86621,5.97534,2.17237q4.7677.72729,9.53565,1.45605l8.68945,1.32715q-5.9718,6.12157-11.94336,12.24268c-1.40063,1.43554-2.90161,2.81689-4.22119,4.32666-1.03638,1.18554-.61914,2.57714-.39307,3.96045q.31275,1.916.626,3.832.79614,4.87206,1.59009,9.74511.64269,3.939,1.28564,7.87891-5.95715-3.29223-11.9143-6.585-1.17408-.64966-2.34864-1.29834-1.56372-.86352-3.12719-1.72754c-1.33033-.73486-2.91382-1.98975-4.48291-1.37305a51.04923,51.04923,0,0,0-5.71387,3.11719q-6.65442,3.67675-13.30738,7.35547-.46289.25562-.92553.51172,1.36156-8.34815,2.72387-16.6958c.33228-2.03418.68311-4.06641.99732-6.10352a3.37667,3.37667,0,0,0-1.17017-3.18945q-1.34693-1.37988-2.69336-2.76074-3.44934-3.53467-6.89795-7.07032-3.00806-3.08349-6.01562-6.1665,8.40966-1.28468,16.81885-2.56885,1.6571-.25268,3.31421-.50586a8.72345,8.72345,0,0,0,2.999-.61865C406.11157,86.86182,406.46436,85.66211,406.90234,84.728Z"/><path class="cls-1" d="M349.80273,150.72656q1.98267-2.03173,3.96509-4.064c.03516-.03614.05664-.07471.08911-.11133a2.20974,2.20974,0,0,0,.19312-.2417c.04053-.05762.07983-.11523.11426-.17383.03906-.06836.07348-.14013.10669-.21435a2.29846,2.29846,0,0,0,.11474-.29737c.00708-.023.01856-.041.0249-.06445.00928-.0332.009-.07031.01661-.10449a2.15587,2.15587,0,0,0,.04492-.28369c.00659-.07569.0061-.15235.00537-.23-.00147-.063-.001-.12549-.00781-.1875a2.39381,2.39381,0,0,0-1.80518-2.26953c-.06494-.00977-.12988-.02-.19482-.02979a2.25727,2.25727,0,0,0-.46436-.0708q-7.147-1.09278-14.29419-2.18457-11.91027-1.81933-23.82031-3.63965-2.21008-.33765-4.42017-.67529l-6.19262-13.19385q-5.3379-11.373-10.676-22.74658-1.22168-2.603-2.44336-5.20557a2.51339,2.51339,0,0,0-4.31738,0q-3.32886,7.09131-6.658,14.18311-5.33789,11.37158-10.676,22.74316-.98877,2.10645-1.97778,4.21338-6.9624,1.06347-13.925,2.12744-11.90991,1.82007-23.82031,3.64014-2.72424.416-5.44873.83252c-1.93945.29638-2.29395,2.958-1.10327,4.17822q5.38183,5.51587,10.76367,11.03125,8.63562,8.85058,17.27124,17.70068,1.53735,1.57545,3.07422,3.15088-1.15173,7.062-2.30371,14.124-2.03394,12.4702-4.06812,24.94043-.46728,2.866-.93481,5.73193a2.53532,2.53532,0,0,0,3.67236,2.82324l13.3396-7.374q10.645-5.885,21.29028-11.769,1.83143-1.01294,3.66309-2.02539l12.07764,6.67676q10.645,5.88428,21.29028,11.769,2.4624,1.36157,4.925,2.72265a2.53341,2.53341,0,0,0,3.67236-2.82324q-1.27587-7.82081-2.55176-15.64209-2.03393-12.468-4.06787-24.93652-.3435-2.10645-.687-4.21192,4.93615-5.05956,9.8728-10.11816Q341.16711,159.57617,349.80273,150.72656ZM278.90234,148.728q.77894-1.66041,1.55762-3.3208,2.04786-4.36671,4.09912-8.73243,1.72046-3.665,3.44092-7.32959,3.624,7.71827,7.24707,15.437c.83838,1.78662,1.61743,3.61425,2.51831,5.37011,1.04688,2.04,3.97266,1.86621,5.97534,2.17237q4.7677.72729,9.53565,1.456l8.68945,1.32715q-5.9718,6.12158-11.94336,12.24268c-1.40063,1.43554-2.90161,2.81689-4.22119,4.32666-1.03638,1.18554-.61914,2.57714-.39307,3.96045q.31275,1.916.626,3.832.79614,4.87206,1.59009,9.74511.64269,3.939,1.28564,7.87891-5.95715-3.29223-11.9143-6.585-1.17408-.64966-2.34864-1.29834-1.56372-.86352-3.12719-1.72754c-1.33033-.73486-2.91382-1.98975-4.48291-1.37305a51.04923,51.04923,0,0,0-5.71387,3.11719q-6.65442,3.67676-13.30738,7.35547-.46289.25562-.92553.51172,1.36156-8.34815,2.72387-16.6958c.33228-2.03418.68311-4.06641.99732-6.10352a3.37667,3.37667,0,0,0-1.17017-3.18945q-1.34693-1.37988-2.69336-2.76074-3.44934-3.53467-6.89795-7.07032-3.00806-3.08349-6.01562-6.1665,8.40966-1.28467,16.81885-2.56885,1.6571-.25268,3.31421-.50586a8.72345,8.72345,0,0,0,2.999-.61865C278.11157,150.86182,278.46436,149.66211,278.90234,148.728Z"/><path class="cls-1" d="M448.30151,226.26025q-14.49206-2.2229-28.98462-4.4458-1.51317-.23217-3.02587-.46386-6.249-13.36377-12.49756-26.72754l-1.81641-3.88477a2.51339,2.51339,0,0,0-4.31738,0q-6.4801,13.85742-12.96045,27.71436-.6764,1.44652-1.353,2.89355-13.97717,2.1438-27.9541,4.2876-2.02808.31055-4.05664.62207c-1.94141.29785-2.29126,2.956-1.10327,4.17822q10.4923,10.79444,20.98486,21.58838,1.0177,1.04663,2.03491,2.09326-2.34449,14.42725-4.68872,28.855-.35485,2.18189-.70923,4.36475a2.53543,2.53543,0,0,0,3.67237,2.82324q12.92065-7.16967,25.84082-14.33935,1.22571-.67969,2.45117-1.35987,12.28967,6.81958,24.5791,13.63867,1.85668,1.03053,3.71314,2.06055c2.05,1.1377,4.01245-.73047,3.67236-2.82324q-2.46753-15.18384-4.9353-30.36816-.23109-1.42311-.46265-2.84717,10.04773-10.33668,20.09546-20.67285,1.46191-1.50439,2.92432-3.00879C450.59277,229.21631,450.24292,226.55811,448.30151,226.26025ZM393.49219,232.022l1.23486-2.644q1.55236-3.32226,3.10693-6.64307.99207-2.12182,1.98438-4.24316,2.43493,5.2046,4.86914,10.41016c.63184,1.35156,1.18994,2.7705,1.90527,4.07861.93384,1.708,3.07813,1.59912,4.78272,1.86035q3.61011.553,7.22021,1.10645,2.6532.40722,5.3064.81347l-4.5813,4.71387c-2.18188,2.24512-4.49536,4.43164-6.57788,6.76807-1.09277,1.22607-.70044,2.5874-.46558,4.02929q.26039,1.60108.521,3.20215.90783,5.58544,1.81567,11.17041-4.78418-2.65429-9.5686-5.30908c-1.31226-.72754-2.60547-1.5249-3.9502-2.18994-1.92578-.95215-4.11206.86426-5.76464,1.78027q-3.10365,1.72119-6.20655,3.44336-2.05041,1.13745-4.10107,2.27539.90894-5.5935,1.81836-11.187c.2478-1.52246.51-3.04346.74365-4.56836a3.15228,3.15228,0,0,0-.98022-2.94385q-.96131-.98951-1.92237-1.978-2.5957-2.67042-5.1914-5.34131-1.87794-1.93287-3.75611-3.86524,5.73267-.87891,11.46509-1.75732,1.23852-.18971,2.47681-.37988a6.71851,6.71851,0,0,0,2.36621-.52295A4.03746,4.03746,0,0,0,393.49219,232.022Z"/><path class="cls-1" d="M353.90259,359.9248c-2.15967-6.36523-9.04224-10.55126-15.645-8.59912a138.73565,138.73565,0,0,1-27.01148,6.06006,155.70215,155.70215,0,0,1-28.1416.52393A136.79379,136.79379,0,0,1,231.97217,343.792a144.3665,144.3665,0,0,1-40.8252-30.55371,137.08392,137.08392,0,0,1-27.45019-43.13965,144.15535,144.15535,0,0,1-10.002-53.25976,136.88935,136.88935,0,0,1,2.89649-27.77783q1.45826-6.86061,3.53052-13.57178c1.11767-3.61621,1.49072-6.87256-.16089-10.41114a13.5036,13.5036,0,0,0-7.11963-6.68408c-3.61914-1.47314-6.94043-.71191-10.49268.51026a169.05749,169.05749,0,0,0-62.69482,38.43945A166.1759,166.1759,0,1,0,336.15845,405.1626a157.91539,157.91539,0,0,0,11.49511-21.72266c1.84888-4.26709,3.60083-8.57861,5.14917-12.96435C354.03809,366.97559,355.15063,363.604,353.90259,359.9248Zm-46.833,42.37745a144.37,144.37,0,0,1-56.89038,43.793,143.03572,143.03572,0,0,1-23.95947,7.52393,140.6025,140.6025,0,0,1-98.20215-14.02051,135.49415,135.49415,0,0,1-20.25318-13.457A155.853,155.853,0,0,1,90.27,409.39355a144.28574,144.28574,0,0,1-25.252-40.814A143.68035,143.68035,0,0,1,55.085,318.69824a136.218,136.218,0,0,1,1.88867-25.97656A154.21269,154.21269,0,0,1,63.26855,268.773c10.77637-30.70606,33.04346-57.09277,60.98487-73.5918,1.94555-1.14892,3.92236-2.24121,5.91577-3.30322a170.98859,170.98859,0,0,0,1.68335,60.61377,163.10126,163.10126,0,0,0,24.36914,57.69336A168.1055,168.1055,0,0,0,197.75,352.9082a166.81079,166.81079,0,0,0,119.23413,29.37354c1.04981-.14307,2.09668-.30469,3.14331-.4668A157.74768,157.74768,0,0,1,307.06958,402.30225Z"/></svg>