<svg id="Layer_1" data-name="Layer 1" xmlns="http://www.w3.org/2000/svg" viewBox="0 0 512 512"><defs><style>.cls-1{fill:#010101;}</style></defs><title>bhi_3</title><path class="cls-1" d="M256,42.67c117.64,0,213.34,95.7,213.34,213.33S373.66,469.33,256,469.33,42.69,373.63,42.69,256,138.39,42.67,256,42.67M256,0C114.65,0,0,114.62,0,256S114.65,512,256,512,512,397.4,512,256,397.4,0,256,0Z"/><path d="M236.6,217.34c5.39,5.65,15.39,11.31,30,17.22a343,343,0,0,1,35.9,16.57,107.53,107.53,0,0,1,23.8,17.63,69.31,69.31,0,0,1,14.86,22.35,76.31,76.31,0,0,1,5.13,29.2c0,20.78-6.44,37.61-19.46,50.5S296,391.32,273.43,393.69v36.43H244.36v-36.3c-25-2.63-44.45-11.57-58.13-26.56s-20.64-35.12-20.64-60.1h52.86c0,14.46,3.42,25.64,10.39,33.4s16.84,11.57,29.72,11.57c10.79,0,19.2-2.89,25.39-8.54s9.33-13.29,9.33-23c0-10-2.76-18-8.28-23.93s-15-11.31-28.28-16.31a364.12,364.12,0,0,1-34.45-14.86,110.7,110.7,0,0,1-24.86-17,66.9,66.9,0,0,1-16-22.62c-3.82-8.68-5.66-18.93-5.66-30.9,0-20.65,6.58-37.48,19.73-50.76s30.64-20.91,52.6-23V81.88h29.33V121.6c21.57,3,38.53,12.1,50.76,27s18.28,34.32,18.28,58.12h-53c0-14.59-3-25.64-9.07-32.87s-14.07-10.92-24.2-10.92-17.75,2.89-23.27,8.55S228.58,185,228.58,195C228.58,204.18,231.34,211.68,236.6,217.34Z"/></svg>