<?xml version="1.0" encoding="utf-8"?>
<!-- Generator: Adobe Illustrator 19.2.0, SVG Export Plug-In . SVG Version: 6.00 Build 0)  -->
<svg version="1.1" id="Layer_1" xmlns="http://www.w3.org/2000/svg" xmlns:xlink="http://www.w3.org/1999/xlink" x="0px" y="0px"
	 viewBox="0 0 512 512" enable-background="new 0 0 512 512" xml:space="preserve">
<path fill="#020202" d="M433.5,46.5H323.2C312.6,19,287.2,0,257.6,0s-55,21.2-65.6,46.5H78.5C53.2,46.5,32,67.7,32,93.1v372.4
	c0,25.4,21.2,46.5,46.5,46.5h354.9c25.4,0,46.5-21.2,46.5-46.5V93.1C480,67.7,458.8,46.5,433.5,46.5z M257.6,46.5
	c12.7,0,23.3,10.6,23.3,23.3s-10.6,23.3-23.3,23.3s-23.3-10.6-23.3-23.3S244.9,46.5,257.6,46.5z M288,418.9H125.1v-46.5H320v46.5
	H288z M384,325.8H125.1v-46.5H384V325.8z M384,232.7H125.1v-46.5H384V232.7z"/>
</svg>
