<svg width="48" height="49" viewBox="0 0 48 49" fill="none" xmlns="http://www.w3.org/2000/svg">
<path d="M43.7647 47.893L27.2979 31.4805L26.9434 31.1272L26.5904 31.4821L9.9089 48.2573H0.5V38.8802L17.1826 22.1038L17.5348 21.7496L17.1811 21.3971L0.708278 4.97864L4.23529 1.46327L20.6916 17.8652L21.0461 18.2186L21.3991 17.8637L29.2852 9.93326L38.6937 19.3108L30.8068 27.242L30.4547 27.5961L30.8084 27.9487L47.2917 44.3776L43.7647 47.893ZM46.7684 11.2595L46.7587 11.2692L46.7496 11.2794L42.5719 15.925L33.1832 6.5673L37.6196 2.14556C38.4914 1.27666 39.7667 1.27666 40.6384 2.14556L46.7684 8.25532C47.6393 9.12331 47.6393 10.3916 46.7684 11.2595Z" fill="#605E5C" stroke="#605E5C"/>
</svg>
