<svg id="Layer_1" data-name="Layer 1" xmlns="http://www.w3.org/2000/svg" viewBox="0 0 512 512"><defs><style>.cls-1{fill:#212a45;}</style></defs><path class="cls-1" d="M407.47,265.91l-18.13-18.13a53.19,53.19,0,0,0,10.3-83.23L297.41,62.32a53.06,53.06,0,0,0-41-19.32h-.49a53,53,0,0,0-37.59,15.57l-106,106a53.18,53.18,0,0,0,10.31,83.23l-18.14,18.13a51.6,51.6,0,0,0,0,73l115,115a51.63,51.63,0,0,0,73,0l115-115A51.6,51.6,0,0,0,407.47,265.91ZM377,217.11a21.16,21.16,0,0,1-29.93,0L332.2,202.24l-54.62-54.63v145a21.17,21.17,0,1,1-42.33,0V146.79l-54.63,54.63-15.7,15.69A21.16,21.16,0,1,1,135,187.18l106-106a21,21,0,0,1,15-6.2h.78a21.15,21.15,0,0,1,16.05,7.7l1,1.17L274.79,85,377,187.18a21.16,21.16,0,0,1,0,29.93Z"/></svg>