<svg id="Layer_1" data-name="Layer 1" xmlns="http://www.w3.org/2000/svg" viewBox="0 0 512 512"><defs><style>.cls-1{fill:#010202;}</style></defs><path class="cls-1" d="M189.88672,288H437.13184a30.15224,30.15224,0,0,0,29.8872-29.88672V149.43408L312.15088,228.22656,160,152.15088v105.9624A30.15214,30.15214,0,0,0,189.88672,288Z"/><path class="cls-1" d="M467.019,124.981V89.66016a30.15224,30.15224,0,0,0-29.8872-29.88672H374.6416V29.88672A30.15214,30.15214,0,0,0,344.75488,0H282.26416a30.15214,30.15214,0,0,0-29.88672,29.88672V59.77344H189.88672A30.15214,30.15214,0,0,0,160,89.66016V124.981l152.15088,76.07568ZM282.26416,29.88672h62.49072V59.77344H282.26416ZM265.9624,122.26416h92.37744V146.7168l-46.189,24.45312L265.9624,146.7168Z"/><path class="cls-1" d="M506.874,356.90918c-8.06543-19.0918-22.23047-23.07031-32.79785-20.43164-7.57715,1.89258-91.09472,23.09619-122.00439,30.94482a46.84937,46.84937,0,0,0-10.78076-16.7583l-3.59375-3.59375A37.54829,37.54829,0,0,0,310.97168,336H259.77734l-54.67871-27.33984A44.38508,44.38508,0,0,0,185.35449,304H128V288.1875H0v191.625H128V467.041l105.37793,35.7832a116.92176,116.92176,0,0,0,95.38769-2.43457l165.627-82.626.65625-.32812.624-.38575c9.19238-5.69238,14.86035-16.3291,15.959-29.95214A66.38778,66.38778,0,0,0,506.874,356.90918ZM96.1875,448H64V320H96.1875Zm382.31836-58.07227L314.84473,471.5752a84.89514,84.89514,0,0,1-69.55567,1.54394l-.53711-.22754L128,433.24609V336h57.35449a12.21554,12.21554,0,0,1,5.43457,1.28223L252.22266,368h58.749a5.75879,5.75879,0,0,1,4.09863,1.69727l3.59375,3.59375a15.16312,15.16312,0,0,1,0,21.418l-4.92676,4.92676a1.25447,1.25447,0,0,1-.88085.36426H192a16,16,0,0,0,0,32H312.85645a33.02753,33.02753,0,0,0,23.50781-9.7373l4.92676-4.92676a46.85216,46.85216,0,0,0,10.83886-16.91309c18.15039-4.60889,102.93555-26.13623,124.98145-31.71a32.49672,32.49672,0,0,1,2.52637,9.84668C480.25684,384.53223,479.23438,388.53906,478.50586,389.92773Z"/></svg>