<svg id="Layer_1" data-name="Layer 1" xmlns="http://www.w3.org/2000/svg" viewBox="0 0 512 512"><path d="M398.63,314.67l74,42.9a18.4,18.4,0,0,1,0,31.82L264.54,509.56a18.65,18.65,0,0,1-18.45,0L38,389.39a18.34,18.34,0,0,1,0-31.82L113.45,314l36.76,21.2L84.1,373.43l171.38,98.95,171.33-98.95-64.89-37.57Z"/><path d="M399.21,238.49,474,281.66a18.39,18.39,0,0,1,0,31.83L266.14,433.7a19,19,0,0,1-18.78,0L39.46,313.44a18.35,18.35,0,0,1,0-31.82l74.73-43.05L151,259.78l-65.6,38,171.38,98.81,171.33-98.9-65.59-38Z"/><path d="M256.75,360.38a18.2,18.2,0,0,1-9.39-2.44L39.46,237.73a18.32,18.32,0,0,1,0-31.78l108.62-62.76A18.37,18.37,0,0,1,166.44,175h0L85.37,222l171.38,98.81,171.33-98.95L347,174.88a18.37,18.37,0,0,1,18.36-31.83L474,206a18.32,18.32,0,0,1,0,31.78L266.14,357.89A18.15,18.15,0,0,1,256.75,360.38Z"/><path d="M256.75,232.66a18.39,18.39,0,0,1-18.4-18.35v-196a18.4,18.4,0,0,1,36.75,0v196a18.36,18.36,0,0,1-18.35,18.35Z"/><path d="M209.39,84.05a18.36,18.36,0,0,1-13-31.36L243.75,5.38a18.35,18.35,0,1,1,25.95,26L222.34,78.74A18.26,18.26,0,0,1,209.39,84.05Z"/><path d="M304.06,84.05a18.26,18.26,0,0,1-12.95-5.31L243.75,31.33A18.35,18.35,0,0,1,269.7,5.38l47.37,47.31a18.36,18.36,0,0,1-13,31.36Z"/></svg>