<?xml version="1.0" encoding="UTF-8"?>
<svg id="Layer_1" data-name="Layer 1" xmlns="http://www.w3.org/2000/svg" viewBox="0 0 512 512">
  <defs>
    <style>
      .cls-1 {
        fill: #231f20;
      }
    </style>
  </defs>
  <path class="cls-1" d="M91.25,243.94h36.21c4.32-16.3,17.02-29.05,33.27-33.42v-36.26c-35.96,5.33-64.25,33.67-69.48,69.69Z"/>
  <path class="cls-1" d="M184.5,301.69v36.16c36.42-5.08,65.11-33.73,70.29-70.14h-36.16c-4.27,16.71-17.37,29.76-34.13,33.98Z"/>
  <path class="cls-1" d="M127.36,267.71h-36.16c5.13,36.11,33.47,64.61,69.53,69.99v-36.26c-16.41-4.42-29.15-17.27-33.37-33.73Z"/>
  <path class="cls-1" d="M482.11,76H29.79c-16.43-.03-29.77,13.27-29.79,29.7v300.6c.02,16.42,13.34,29.72,29.75,29.7.01,0,.03,0,.04,0h452.41c16.45,0,29.79-13.34,29.79-29.8V105.8c-.06-16.47-13.42-29.8-29.89-29.8ZM184.81,361.67v24.33h-23.62v-24.33c-49.32-5.49-88.43-44.59-93.86-93.86h-24.33v-23.62h24.33c5.49-49.32,44.59-88.43,93.86-93.86v-24.33h23.62v24.33c49.32,5.49,88.43,44.59,93.86,93.86h24.33v23.62h-24.33c-5.49,49.32-44.59,88.43-93.86,93.86ZM469,377.5h-177v-45h177v45ZM469,278.5h-119v-45h119v45ZM469,178.5h-177v-45h177v45Z"/>
  <path class="cls-1" d="M184.5,174.15v36.16c16.66,4.16,29.71,17.12,34.08,33.67h36.21c-5.28-36.26-33.98-64.81-70.29-69.84Z"/>
</svg>