<?xml version="1.0" encoding="utf-8"?>
<!-- Generator: Adobe Illustrator 19.2.0, SVG Export Plug-In . SVG Version: 6.00 Build 0)  -->
<svg version="1.1" id="Layer_1" xmlns="http://www.w3.org/2000/svg" xmlns:xlink="http://www.w3.org/1999/xlink" x="0px" y="0px"
	 viewBox="0 0 512 512" enable-background="new 0 0 512 512" xml:space="preserve">
<path fill="#010101" d="M28.4,0C12.7,0,0,12.7,0,28.4C0,295.5,216.5,512,483.6,512c15.7,0,28.4-12.7,28.4-28.4V384
	c0-15.7-12.7-28.4-28.4-28.4c-35.6,0-69.7-5.7-101.5-16.2c-10-3.1-21-0.9-29,6.8l-62.6,62.6c-80.5-41-146.5-106.7-187.4-187.4
	l62.6-62.9c8-7.4,10.2-18.5,7.1-28.4c-10.5-31.9-16.2-66-16.2-101.5C156.4,12.7,143.7,0,128,0H28.4 M341.3,0v42.7h99.6L284.4,199.1
	l28.4,28.4L469.3,71.1v99.6H512V0H341.3z"/>
</svg>
