<svg id="Layer_1" data-name="Layer 1" xmlns="http://www.w3.org/2000/svg" viewBox="0 0 512 512"><defs><style>.cls-1{fill:#010202;}</style></defs><path class="cls-1" d="M253.30176,141.48535c-2.59961,2.59912-5.23487,5.16748-7.8003,7.80029-.03564.03614-.07226.07178-.10791.10791A15.67122,15.67122,0,0,0,241,160a15.55573,15.55573,0,0,0,.96582,5.17236,13.00066,13.00066,0,0,0,3.42773,5.43409C248.252,173.231,252.00488,175.17871,256,175h64a15.47484,15.47484,0,0,0,10.60645-4.39355A15.24218,15.24218,0,0,0,335,160c-.17383-3.87939-1.44824-7.90283-4.39355-10.60645A15.58511,15.58511,0,0,0,320,145H292.21338q7.259-7.25976,14.519-14.51953,7.98341-7.98267,15.96582-15.96582c2.59961-2.59912,5.23487-5.16748,7.8003-7.80029.03564-.03614.07226-.07178.10791-.10791A15.67523,15.67523,0,0,0,335,96a15.55519,15.55519,0,0,0-.96729-5.17578,12.99575,12.99575,0,0,0-3.42626-5.43067C327.74805,82.769,323.99512,80.82129,320,81H256a15.47484,15.47484,0,0,0-10.60645,4.39355A15.24218,15.24218,0,0,0,241,96c.17383,3.87939,1.44824,7.90283,4.39355,10.60645A15.58511,15.58511,0,0,0,256,111h27.78662q-7.259,7.25976-14.519,14.51953Q261.28418,133.5022,253.30176,141.48535Z"/><path class="cls-1" d="M418.69824,210.51465c2.59961-2.59912,5.23487-5.16748,7.8003-7.80029.03564-.03614.07226-.07178.10791-.10791A15.67523,15.67523,0,0,0,431,192a15.55519,15.55519,0,0,0-.96729-5.17578,12.99575,12.99575,0,0,0-3.42626-5.43067C423.74805,178.769,419.99512,176.82129,416,177H352a15.47484,15.47484,0,0,0-10.60645,4.39355A15.24218,15.24218,0,0,0,337,192c.17383,3.87939,1.44824,7.90283,4.39355,10.60645A15.58511,15.58511,0,0,0,352,207h27.78662q-7.259,7.25976-14.519,14.51953-7.98341,7.98267-15.96582,15.96582c-2.59961,2.59912-5.23487,5.16748-7.8003,7.80029-.03564.03614-.07226.07178-.10791.10791A15.67122,15.67122,0,0,0,337,256a15.55573,15.55573,0,0,0,.96582,5.17236,13.00066,13.00066,0,0,0,3.42773,5.43409C344.252,269.231,348.00488,271.17871,352,271h64a15.47484,15.47484,0,0,0,10.60645-4.39355A15.24218,15.24218,0,0,0,431,256c-.17383-3.87939-1.44824-7.90283-4.39355-10.60645A15.58511,15.58511,0,0,0,416,241H388.21338q7.259-7.25976,14.519-14.51953Q410.71583,218.4978,418.69824,210.51465Z"/><path class="cls-1" d="M448,81H420.21338q7.259-7.25976,14.519-14.51953,7.98341-7.98267,15.96582-15.96582c2.59961-2.59912,5.23487-5.16748,7.8003-7.80029.03564-.03614.07226-.07178.10791-.10791a14.51052,14.51052,0,0,0,2.20166-2.88672A14.38586,14.38586,0,0,0,463,32a15.55519,15.55519,0,0,0-.96729-5.17578,12.99575,12.99575,0,0,0-3.42626-5.43067C455.74805,18.769,451.99512,16.82129,448,17H384a15.47484,15.47484,0,0,0-10.60645,4.39355A15.24218,15.24218,0,0,0,369,32c.17383,3.87939,1.44824,7.90283,4.39355,10.60645A15.58511,15.58511,0,0,0,384,47h27.78662q-7.259,7.25976-14.519,14.51953-7.98341,7.98267-15.96582,15.96582c-2.59961,2.59912-5.23487,5.16748-7.8003,7.80029-.03564.03614-.07226.07178-.10791.10791A15.67122,15.67122,0,0,0,369,96a15.55573,15.55573,0,0,0,.96582,5.17236,13.00066,13.00066,0,0,0,3.42773,5.43409C376.252,109.231,380.00488,111.17871,384,111h64a15.47484,15.47484,0,0,0,10.60645-4.39355A15.24218,15.24218,0,0,0,463,96c-.17383-3.87939-1.44824-7.90283-4.39355-10.60645A15.58511,15.58511,0,0,0,448,81Z"/><path class="cls-1" d="M347.30615,351.32568a138.73714,138.73714,0,0,1-27.01123,6.06006,155.70259,155.70259,0,0,1-28.1416.52393A136.79379,136.79379,0,0,1,241.021,343.792a144.36312,144.36312,0,0,1-40.8252-30.55371,137.08392,137.08392,0,0,1-27.45019-43.13965,144.15028,144.15028,0,0,1-10.002-53.25976,136.88935,136.88935,0,0,1,2.89649-27.77783q1.45824-6.86061,3.53027-13.57178c1.11768-3.61621,1.49072-6.87256-.16064-10.41114a13.50448,13.50448,0,0,0-7.11963-6.68408c-3.61914-1.47314-6.94043-.71191-10.49268.51026a169.05244,169.05244,0,0,0-62.69482,38.43945A166.17588,166.17588,0,1,0,345.207,405.1626a157.88821,157.88821,0,0,0,11.49512-21.72266c1.84912-4.26709,3.60107-8.57861,5.14941-12.96435,1.23535-3.5,2.34766-6.87159,1.09961-10.55079C360.7915,353.55957,353.90918,349.37354,347.30615,351.32568Zm-31.1875,50.97608A144.36862,144.36862,0,0,1,259.228,446.09521a143.05671,143.05671,0,0,1-23.95948,7.52393,140.60248,140.60248,0,0,1-98.20214-14.02051,135.50868,135.50868,0,0,1-20.25342-13.457,155.84992,155.84992,0,0,1-17.49414-16.748,144.271,144.271,0,0,1-25.252-40.814,143.66933,143.66933,0,0,1-9.9331-49.88135,136.19772,136.19772,0,0,1,1.88867-25.97656A154.18358,154.18358,0,0,1,72.31738,268.773c10.77637-30.70606,33.04346-57.09277,60.98487-73.5918,1.94531-1.14892,3.92236-2.24121,5.91552-3.30322a170.98863,170.98863,0,0,0,1.6836,60.61377,163.09688,163.09688,0,0,0,24.36914,57.69336,168.10132,168.10132,0,0,0,41.52832,42.72314,166.81056,166.81056,0,0,0,119.23388,29.37354c1.04981-.14307,2.09668-.30469,3.14356-.4668A157.76614,157.76614,0,0,1,316.11865,402.30176Z"/></svg>