<?xml version="1.0" encoding="utf-8"?>
<!-- Generator: Adobe Illustrator 21.1.0, SVG Export Plug-In . SVG Version: 6.00 Build 0)  -->
<svg version="1.1" id="Layer_1" xmlns="http://www.w3.org/2000/svg" xmlns:xlink="http://www.w3.org/1999/xlink" x="0px" y="0px"
	 viewBox="0 0 512 360" style="enable-background:new 0 0 512 360;" xml:space="preserve">
<style type="text/css">
	.st0{fill:#231F20;}
</style>
<title>bhi_rate</title>
<g id="Layer_2">
	<g id="Layer_1-2">
		<path class="st0" d="M482.2,0H29.8C13.3,0,0,13.3,0,29.8v300.5C0,346.7,13.3,360,29.8,360l0,0h452.5c16.4,0,29.8-13.3,29.8-29.8
			l0,0V29.8C512,13.3,498.7,0,482.2,0z M227,57.9h190.1v45H227V57.9z M95.3,149.8c4.1,4.3,11.7,8.6,22.8,13.1
			c9.4,3.7,18.5,7.9,27.3,12.6c6.6,3.6,12.7,8.1,18.1,13.4c4.8,4.9,8.7,10.6,11.3,17c2.7,7.1,4.1,14.6,3.9,22.2
			c0,15.8-4.9,28.6-14.8,38.4c-9.8,9.8-23.4,15.6-40.6,17.4v27.7h-22.1v-27.6c-19-2-33.8-8.8-44.2-20.2
			c-10.4-11.5-15.7-26.7-15.7-45.7h40.2c0,11,2.6,19.5,7.9,25.4c5.2,5.9,12.8,8.8,22.6,8.8c8.2,0,14.6-2.2,19.3-6.5
			c4.7-4.3,7.1-10.1,7.1-17.5c0-7.6-2.1-13.7-6.3-18.2c-4.2-4.5-11.4-8.6-21.5-12.4c-8.9-3.3-17.7-7.1-26.2-11.3
			c-6.9-3.4-13.2-7.8-18.9-12.9c-5.2-4.8-9.4-10.7-12.2-17.2c-2.9-6.6-4.3-14.4-4.3-23.5c0-15.7,5-28.5,15-38.6s23.3-15.9,40-17.5
			V46.8h22.3V77c16.4,2.3,29.3,9.2,38.6,20.5c9.3,11.4,13.9,26.1,13.9,44.2h-40.3c0-11.1-2.3-19.5-6.9-25
			c-4.6-5.5-10.7-8.3-18.4-8.3c-7.6,0-13.5,2.2-17.7,6.5c-4.2,4.3-6.3,10.3-6.3,17.9C89.2,139.8,91.3,145.5,95.3,149.8z
			 M417.1,304.8H227v-45h190.1L417.1,304.8z M467.1,203.4H227v-45h240.1L467.1,203.4z"/>
	</g>
</g>
</svg>
