<svg id="Layer_1" data-name="Layer 1" xmlns="http://www.w3.org/2000/svg" viewBox="0 0 512 512"><defs><style>.cls-1{fill:#010101;}</style></defs><title>bhi_outgoing-charge</title><path class="cls-1" d="M352,0H102.54A38.57,38.57,0,0,0,64,38.77V473.46A38.38,38.38,0,0,0,102.54,512H409.46A38.38,38.38,0,0,0,448,473.46V96Zm64,459.09c0,11.55-10.64,20.91-23.77,20.91H119.77C106.64,480,96,470.64,96,459.09V128H416ZM320,96V32l64,64Z"/><polygon class="cls-1" points="325.45 313.36 352 286.82 257.19 192 162.38 286.82 188.94 313.36 238.24 264.06 238.24 448 276.15 448 276.15 264.06 325.45 313.36"/></svg>