<svg id="Layer_1" data-name="Layer 1" xmlns="http://www.w3.org/2000/svg" viewBox="0 0 512 512"><defs><style>.cls-1{fill:#010101;}</style></defs><title>bhi_3</title><path class="cls-1" d="M479.68,230A179.25,179.25,0,0,1,207.36,460.8H32c-16.75,0-32-12.8-32-29.55V64C0,45,15,32,32,32H448c17,0,32,11,32,32ZM51.2,332.8v76.8H170.75a179.52,179.52,0,0,1-17.15-76.8H51.2m0-179.2H204.8V76.8H51.2v76.8m364.8,0V76.8H256v76.8H409.6M51.2,281.6H161a178,178,0,0,1,46.34-76.8H51.2v76.8m281.6-73A124.16,124.16,0,0,0,208.64,332.8h0a124.16,124.16,0,1,0,248.32,0h0A124.11,124.11,0,0,0,332.8,208.64Z"/><path d="M324,315.16c2.46,2.58,7,5.16,13.68,7.86A156.08,156.08,0,0,1,354,330.58a49,49,0,0,1,10.86,8,31.6,31.6,0,0,1,6.78,10.2A34.86,34.86,0,0,1,374,362.14c0,9.48-2.94,17.16-8.88,23s-14,9.36-24.36,10.44v16.62H327.49V395.68c-11.4-1.2-20.28-5.28-26.52-12.12s-9.42-16-9.42-27.42h24.12c0,6.6,1.56,11.7,4.74,15.24s7.68,5.28,13.56,5.28c4.92,0,8.76-1.32,11.58-3.9s4.26-6.06,4.26-10.5S348.55,354,346,351.34s-6.84-5.16-12.9-7.44a165.45,165.45,0,0,1-15.72-6.78,50.57,50.57,0,0,1-11.34-7.74,30.57,30.57,0,0,1-7.32-10.32,34.81,34.81,0,0,1-2.58-14.1c0-9.42,3-17.1,9-23.16s14-9.54,24-10.5V253.36h13.38v18.12c9.84,1.38,17.58,5.52,23.16,12.3s8.34,15.66,8.34,26.52H349.87c0-6.66-1.38-11.7-4.14-15a13.66,13.66,0,0,0-11-5c-4.56,0-8.1,1.32-10.62,3.9s-3.78,6.18-3.78,10.74A14.44,14.44,0,0,0,324,315.16Z"/></svg>