<?xml version="1.0" encoding="utf-8"?>
<!-- Generator: Adobe Illustrator 19.2.0, SVG Export Plug-In . SVG Version: 6.00 Build 0)  -->
<svg version="1.1" id="Layer_1" xmlns="http://www.w3.org/2000/svg" xmlns:xlink="http://www.w3.org/1999/xlink" x="0px" y="0px"
	 viewBox="0 0 512 512" enable-background="new 0 0 512 512" xml:space="preserve">
<g>
	<path fill="#010101" d="M194.3,265L39.9,340.3c-32,20.9-48,65.4-35.8,99.3l6.3,17.4l197.8,0.4L194.3,265z"/>
	<path fill="#010101" d="M317.6,265L472,340.3c32,20.9,48,65.4,35.8,99.3l-6.3,17.4l-197.8,0.4L317.6,265z"/>
	<polygon fill="#010101" points="271.7,262.2 271.7,469.8 255.7,485.8 239.7,469.8 239.7,262.2 	"/>
</g>
<path fill="#010101" d="M258.4,228c62.6,0,113.8-51.2,113.8-113.8S321,0.4,258.4,0.4S144.6,51.6,144.6,114.2S195.8,228,258.4,228z"
	/>
</svg>
