<svg id="Layer_1" data-name="Layer 1" xmlns="http://www.w3.org/2000/svg" viewBox="0 0 512 512"><path d="M362,156.32v-124a16,16,0,0,0-16-16H16a16,16,0,0,0-16,16v223a16,16,0,0,0,16,16H188.58A192,192,0,0,1,362,156.32ZM187,185.73H52V154.85H187ZM52,110.25V79.37H247v30.88Z"/><path d="M360.53,190.64c-83.2,0-151.46,68.27-151.46,153.6s68.26,151.47,151.46,151.47S512,427.44,512,344.24,443.73,190.64,360.53,190.64ZM346.65,313.58c3.62,3.8,10.33,7.6,20.13,11.57a230.16,230.16,0,0,1,24.1,11.12,72.15,72.15,0,0,1,16,11.84,46.38,46.38,0,0,1,10,15,51.27,51.27,0,0,1,3.44,19.6c0,13.95-4.32,25.25-13.06,33.9S372,432,372,432v24.66H352V432.07s-30-7.77-39.17-17.83S299,390.66,299,373.64h35.49c0,10,2.3,17.46,7,22.67s11.3,7.77,19.95,7.77c7.24,0,12.89-1.94,17-5.74s6.27-8.91,6.27-15.45c0-6.71-1.85-12.09-5.56-16.07s-10.07-7.59-19-10.94a245.16,245.16,0,0,1-23.14-10,74.39,74.39,0,0,1-16.68-11.39,45,45,0,0,1-10.78-15.19c-2.56-5.83-3.79-12.71-3.79-20.75,0-13.86,4.41-25.16,13.24-34.08s20.57-14,35-15.45v-26.4h20v26.67c14.5,2,25.89,8.12,34.1,18.1s12.27,23,12.27,39.23H384.79q0-15-6.09-22.28c-4.06-4.86-9.45-7.33-16.25-7.33s-11.92,1.94-15.63,5.74-5.56,9.09-5.56,15.8C341.26,304.75,343.12,309.79,346.65,313.58Z"/></svg>