<svg id="Layer_1" data-name="Layer 1" xmlns="http://www.w3.org/2000/svg" viewBox="0 0 512 512"><defs><style>.cls-1,.cls-2{fill:#010101;}.cls-2{fill-opacity:0.9;}</style></defs><path class="cls-1" d="M215,231.16H160.21V199.4H248.3a184.47,184.47,0,0,1,110.19-36.33c1,0,2,0,2.94,0v-126a21.1,21.1,0,0,0-21.1-21H21a21,21,0,0,0-21,21V249.15a21,21,0,0,0,21,21H190.51A185.53,185.53,0,0,1,215,231.16ZM160.21,56.9H294.38V88.66H160.21Zm0,70.93H329.67v31.76H160.21Zm-92.95-6.07c2.89,3,8.26,6.07,16.09,9.25a182.16,182.16,0,0,1,19.27,8.89,57.83,57.83,0,0,1,12.78,9.46,37.15,37.15,0,0,1,8,12A41,41,0,0,1,126.12,177c0,11.15-3.45,20.19-10.44,27.1s-16.52,11-28.66,12.29V236H71.43V216.48c-13.41-1.42-23.86-6.21-31.2-14.26S29.15,183.37,29.15,170H57.52c0,7.77,1.84,13.77,5.58,17.93s9,6.21,15.95,6.21c5.78,0,10.3-1.55,13.62-4.59s5-7.12,5-12.35-1.48-9.67-4.45-12.84-8-6.07-15.17-8.75a193.65,193.65,0,0,1-18.49-8,59.39,59.39,0,0,1-13.34-9.1,36,36,0,0,1-8.61-12.14,40.92,40.92,0,0,1-3-16.59c0-11.08,3.53-20.11,10.59-27.24S61.61,71.3,73.4,70.17V49.06H89.14V70.38c11.58,1.62,20.68,6.49,27.24,14.47s9.81,18.42,9.81,31.19H97.75c0-7.83-1.62-13.76-4.87-17.64a16.08,16.08,0,0,0-13-5.86c-5.36,0-9.52,1.55-12.49,4.59S63,104.4,63,109.76A17,17,0,0,0,67.26,121.76Z"/><path class="cls-2" d="M476.56,365.2a109.48,109.48,0,0,0,0-39.65L511.72,311a128.6,128.6,0,0,0-7.52-24.78,161.61,161.61,0,0,0-11.93-22.93L456.83,278a117.37,117.37,0,0,0-28-28l14.67-35.41a154.55,154.55,0,0,0-47.59-19.71l-14.66,35.4c-6.45-1.11-18.9-1.81-25.68-1.81s-7.48.7-13.95,1.81L327,194.84a157.48,157.48,0,0,0-24.65,7.73,147.69,147.69,0,0,0-22.9,12L294,250a117.69,117.69,0,0,0-28,28L230.63,263.3a156,156,0,0,0-19.77,47.57l35.45,14.67a109.48,109.48,0,0,0,0,39.65L211,379.79a144.25,144.25,0,0,0,7.62,24.73,196.25,196.25,0,0,0,11.77,23h0L266,412.77a117.41,117.41,0,0,0,28,28L279.37,476.2A154.25,154.25,0,0,0,327,495.91l14.67-35.38a109.31,109.31,0,0,0,39.62,0L395.91,496a168.92,168.92,0,0,0,24.66-7.81c14.51-6,23-12.07,22.9-12L428.84,440.8a117.65,117.65,0,0,0,28-28l35.37,14.63A154.71,154.71,0,0,0,512,379.87ZM361.43,437.38a90.69,90.69,0,1,1,90.69-90.69A90.7,90.7,0,0,1,361.43,437.38Z"/></svg>