<svg id="Layer_1" data-name="Layer 1" xmlns="http://www.w3.org/2000/svg" viewBox="0 0 512 512"><defs><style>.cls-1{fill:#010101;}</style></defs><title>bhi_3</title><path class="cls-1" d="M256,42.67c117.64,0,213.34,95.7,213.34,213.33S373.66,469.33,256,469.33,42.69,373.63,42.69,256,138.39,42.67,256,42.67M256,0C114.65,0,0,114.62,0,256S114.65,512,256,512,512,397.4,512,256,397.4,0,256,0Z"/><g id="Layer_2" data-name="Layer 2"><g id="Layer_1-2" data-name="Layer 1-2"><path d="M391.72,148H120.28a17.85,17.85,0,0,0-17.88,17.88v180.3A17.84,17.84,0,0,0,120.28,364H391.77a17.89,17.89,0,0,0,17.88-17.88h0V165.88A17.92,17.92,0,0,0,391.72,148ZM238.6,182.74H352.66v27H238.6Zm-79,55.14c2.46,2.58,7,5.16,13.68,7.86a156.08,156.08,0,0,1,16.38,7.56,49,49,0,0,1,10.86,8,31.6,31.6,0,0,1,6.78,10.2,34.86,34.86,0,0,1,2.34,13.32c0,9.48-2.94,17.16-8.88,23s-14,9.36-24.36,10.44V335H163.12V318.4c-11.4-1.2-20.28-5.28-26.52-12.12s-9.42-16-9.42-27.42H151.3c0,6.6,1.56,11.7,4.74,15.24s7.68,5.28,13.56,5.28c4.92,0,8.76-1.32,11.58-3.9s4.26-6.06,4.26-10.5-1.26-8.22-3.78-10.92-6.84-5.16-12.9-7.44A165.45,165.45,0,0,1,153,259.84a50.57,50.57,0,0,1-11.34-7.74,30.57,30.57,0,0,1-7.32-10.32,34.81,34.81,0,0,1-2.58-14.1c0-9.42,3-17.1,9-23.16s14-9.54,24-10.5V176.08h13.38V194.2c9.84,1.38,17.58,5.52,23.16,12.3s8.34,15.66,8.34,26.52H185.5c0-6.66-1.38-11.7-4.14-15a13.66,13.66,0,0,0-11-5c-4.56,0-8.1,1.32-10.62,3.9s-3.78,6.18-3.78,10.74A14.44,14.44,0,0,0,159.58,237.88Zm193.08,93H238.6v-27H352.66Zm30-60.84H238.6V243H382.66Z"/></g></g></svg>