<svg id="Layer_1" data-name="Layer 1" xmlns="http://www.w3.org/2000/svg" viewBox="0 0 512 512"><defs><style>.cls-1{fill:#010101;}</style></defs><title>bhi_3</title><path class="cls-1" d="M170.29,213a13.66,13.66,0,0,1,11,5c2.76,3.3,4.14,8.34,4.14,15h24.18c0-10.86-2.76-19.68-8.34-26.52S188,195.58,178.15,194.2V176.08H164.77V194c-10,1-18,4.44-24,10.5s-9,13.74-9,23.16a34.81,34.81,0,0,0,2.58,14.1,30.57,30.57,0,0,0,7.32,10.32A50.57,50.57,0,0,0,153,259.84a165.45,165.45,0,0,0,15.72,6.78c6.06,2.28,10.38,4.74,12.9,7.44s3.78,6.36,3.78,10.92-1.44,7.92-4.26,10.5-6.66,3.9-11.58,3.9c-5.88,0-10.44-1.74-13.56-5.28s-4.74-8.64-4.74-15.24H127.15c0,11.4,3.18,20.52,9.42,27.42s15.12,10.92,26.52,12.12V335h13.26V318.34c10.32-1.08,18.48-4.56,24.36-10.44s8.88-13.56,8.88-23a34.86,34.86,0,0,0-2.34-13.32,31.6,31.6,0,0,0-6.78-10.2,49,49,0,0,0-10.86-8,156.08,156.08,0,0,0-16.38-7.56c-6.66-2.7-11.22-5.28-13.68-7.86a14.44,14.44,0,0,1-3.66-10.2c0-4.56,1.26-8.16,3.78-10.74S165.73,213,170.29,213Z"/><rect class="cls-1" x="238.57" y="303.88" width="114.06" height="27"/><rect class="cls-1" x="238.57" y="182.74" width="114.06" height="27"/><rect class="cls-1" x="238.57" y="243.04" width="144.06" height="27"/><path class="cls-1" d="M256,0C114.62,0,0,114.62,0,256S114.62,512,256,512,512,397.38,512,256,397.38,0,256,0ZM409.63,346.12A17.89,17.89,0,0,1,391.75,364H120.25a17.84,17.84,0,0,1-17.88-17.82V165.88A17.85,17.85,0,0,1,120.25,148H391.69a17.94,17.94,0,0,1,17.94,17.88Z"/></svg>