<svg id="Layer_1" data-name="Layer 1" xmlns="http://www.w3.org/2000/svg" viewBox="0 0 512 512"><defs><style>.cls-1{fill:#231f20;}</style></defs><path class="cls-1" d="M215.07,240.23a.49.49,0,0,0-.41-.77H176.09a15.88,15.88,0,0,1-15.88-15.88h0a15.88,15.88,0,0,1,15.88-15.88h66.64a.51.51,0,0,0,.33-.13,182.48,182.48,0,0,1,65.11-38.7.5.5,0,0,0-.16-1H176.09A15.88,15.88,0,0,1,160.21,152h0a15.88,15.88,0,0,1,15.88-15.88h137.7A15.88,15.88,0,0,1,329.67,152h0a15.82,15.82,0,0,1-4.49,11.07.49.49,0,0,0,.46.83A183.14,183.14,0,0,1,361,159.35a.5.5,0,0,0,.48-.5V45.37a21.1,21.1,0,0,0-21.1-21H21a21,21,0,0,0-21,21V257.46a21,21,0,0,0,21,21H195.2a.49.49,0,0,0,.46-.32A182.64,182.64,0,0,1,215.07,240.23ZM160.21,81.08A15.88,15.88,0,0,1,176.09,65.2H278.5a15.88,15.88,0,0,1,15.88,15.88h0A15.88,15.88,0,0,1,278.5,97H176.09a15.88,15.88,0,0,1-15.88-15.88ZM126.12,185.33c0,11.15-3.45,20.18-10.44,27.1-6.83,6.83-16.28,10.91-28.21,12.23a.51.51,0,0,0-.45.49v11.31a7.8,7.8,0,0,1-7.8,7.8h0a7.8,7.8,0,0,1-7.79-7.8V225.23a.51.51,0,0,0-.45-.5c-13.2-1.47-23.49-6.25-30.75-14.21a40.36,40.36,0,0,1-8-13.39,14,14,0,0,1,13.18-18.86h0a14.2,14.2,0,0,1,13.5,10.23,20.16,20.16,0,0,0,4.22,7.7c3.67,4.16,9,6.21,15.95,6.21,5.79,0,10.3-1.55,13.62-4.59s5-7.13,5-12.35c0-5.37-1.48-9.67-4.45-12.85s-8-6.07-15.17-8.75a196.15,196.15,0,0,1-18.49-8,59.43,59.43,0,0,1-13.34-9.11,35.87,35.87,0,0,1-8.61-12.14,40.87,40.87,0,0,1-3-16.58C34.58,107,38.11,98,45.17,90.82S61.38,79.71,73,78.52a.5.5,0,0,0,.45-.5v-14a5.94,5.94,0,0,1,2.47-4.87c6.39-4.5,13.27,0,13.27,6v13a.49.49,0,0,0,.43.48c11.37,1.69,20.33,6.53,26.81,14.41a41.34,41.34,0,0,1,7.6,14.58,13,13,0,0,1-12.45,16.62h0A16.15,16.15,0,0,1,96.22,113a18.69,18.69,0,0,0-3.34-6.28,16.07,16.07,0,0,0-13-5.85c-5.37,0-9.53,1.55-12.5,4.58S63,112.7,63,118.07c0,4.94,1.48,9,4.3,12s8.26,6.07,16.09,9.25a184.18,184.18,0,0,1,19.27,8.89,57.83,57.83,0,0,1,12.78,9.46,37.19,37.19,0,0,1,8,12A40.74,40.74,0,0,1,126.12,185.33Z"/><path class="cls-1" d="M402.64,312.81A16.35,16.35,0,0,0,416.39,320H496a16,16,0,0,0,16-16V224.39a16.36,16.36,0,0,0-7.2-13.76,16,16,0,0,0-20.11,2.06L461.6,235.77A143.49,143.49,0,0,0,368,201.18c-79.21,0-143.65,64.05-143.65,142.78S288.79,486.75,368,486.75A143.77,143.77,0,0,0,506.39,382.29,16,16,0,0,0,491,361.85h0a15.92,15.92,0,0,0-15.37,11.59A111.72,111.72,0,0,1,368,454.75c-61.56,0-111.65-49.7-111.65-110.79S306.44,233.18,368,233.18a111.6,111.6,0,0,1,70.91,25.28l-34.22,34.23A16,16,0,0,0,402.64,312.81Z"/></svg>