<svg id="Layer_1" data-name="Layer 1" xmlns="http://www.w3.org/2000/svg" viewBox="0 0 512 512"><defs><style>.cls-1{fill:#010101;fill-rule:evenodd;}</style></defs><title>bhi_3</title><path class="cls-1" d="M480,478.64V35.56L433.81,0,398.25,35.56,362.68,0,327.12,35.56,291.56,0,256,35.56,220.44,0,184.88,35.56,149.31,0,113.75,35.56,78.19,0,32,35.56V478.64c0,14.36,17.64,32,32,32H448C462.36,510.64,480,493,480,478.64ZM96,81.39l17.75,22.68L148,69.82l1.3-1.32,1.31,1.32,34.26,34.25,34.25-34.26,1.31-1.31,1.31,1.32L256,104.07l34.25-34.26,1.31-1.31,1.31,1.31,34.25,34.26,34.25-34.25,1.31-1.32L364,69.81l34.26,34.26L416,81.39V446.64H96Z"/><path d="M240,240c4.46,4.68,12.72,9.36,24.8,14.25A282.69,282.69,0,0,1,294.45,268a88.61,88.61,0,0,1,19.68,14.57A57.18,57.18,0,0,1,326.42,301a63.06,63.06,0,0,1,4.24,24.14c0,17.19-5.32,31.11-16.09,41.77s-25.45,17-44.16,18.92V416h-24V386c-20.66-2.17-36.76-9.57-48.07-22s-17.07-29-17.07-49.7H225c0,12,2.83,21.21,8.59,27.62s13.92,9.57,24.58,9.57c8.92,0,15.88-2.39,21-7.06s7.72-11,7.72-19c0-8.26-2.28-14.9-6.85-19.79s-12.4-9.36-23.38-13.49a300.25,300.25,0,0,1-28.5-12.29,91.71,91.71,0,0,1-20.55-14,55.28,55.28,0,0,1-13.27-18.71c-3.16-7.17-4.68-15.66-4.68-25.56,0-17.07,5.44-31,16.32-42s25.34-17.29,43.5-19V128h24.25v32.85c17.84,2.5,31.87,10,42,22.29s15.11,28.39,15.11,48.07H286.94c0-12.07-2.5-21.2-7.5-27.19s-11.64-9-20-9-14.69,2.39-19.25,7.07-6.86,11.2-6.86,19.46C233.32,229.15,235.61,235.35,240,240Z"/></svg>