<?xml version="1.0" encoding="UTF-8"?><svg id="a" xmlns="http://www.w3.org/2000/svg" viewBox="0 0 512 512"><path d="M428.70557,50.45898h-44.26807V-.81372h-64V50.45898H192.4375V-.81372h-64V50.45898h-32c-28.4585,0-63.76123,23.07495-63.76123,51.27271l-.23877,358.99561c0,28.19775,22.81445,51.27271,51.29395,51.27271H428.70557c28.19775,0,51.29443-23.07495,51.29443-51.27271V101.75342c-.02148-28.21948-23.09668-51.29443-51.29443-51.29443ZM96.4375,448V160H416.4375V448H96.4375Z"/><path d="M258.93262,238.09155c7.16797,0,12.84619,2.60669,17.12842,7.72656,4.28223,5.12012,6.42334,12.9397,6.42334,23.27271h37.51562c0-16.84937-4.28223-30.53369-12.93945-41.146-8.65771-10.51953-20.6665-16.94263-35.93311-19.08374v-28.11353h-20.75928v27.83423c-15.54639,1.4895-27.92725,6.88867-37.23633,16.29102-9.30908,9.4021-13.96387,21.31763-13.96387,35.93286,0,8.47144,1.30322,15.73242,4.00293,21.87646,2.60645,6.05103,6.5166,11.54346,11.35693,16.01172,5.30615,4.74756,11.1709,8.84351,17.59424,12.00879,7.91309,3.90967,16.10498,7.44727,24.39014,10.51904,9.40186,3.5376,16.10449,7.35425,20.01416,11.54346,3.91016,4.18896,5.86475,9.86768,5.86475,16.94238,0,6.88867-2.23389,12.28809-6.60938,16.29102-4.375,4.00293-10.33301,6.05078-17.96631,6.05078-9.12305,0-16.19824-2.69946-21.03857-8.19189-4.93408-5.49243-7.35449-13.40503-7.35449-23.64502h-37.42236c0,17.68726,4.93359,31.83691,14.61523,42.54248,9.68164,10.6123,23.45898,16.94263,41.14648,18.80444v25.69312h20.57275v-25.78638c16.01172-1.67554,28.67188-7.07495,37.79492-16.19775,9.21631-9.1228,13.77734-21.03857,13.77734-35.74683,.18652-7.07495-1.1167-14.05664-3.63037-20.66626-2.42041-5.95776-6.05078-11.26392-10.51953-15.82544-5.02686-4.93384-10.70508-9.1228-16.84912-12.47412-8.19189-4.37524-16.66357-8.28516-25.41406-11.72949-10.33301-4.18896-17.40771-8.19189-21.22461-12.19482-3.72363-4.00293-5.67871-9.30908-5.67871-15.82568,0-7.07471,1.95508-12.66016,5.86475-16.66309,3.91016-4.00293,9.40234-6.05103,16.47754-6.05103Z"/></svg>