<svg width="48" height="48" viewBox="0 0 48 48" fill="none" xmlns="http://www.w3.org/2000/svg">
<path d="M48 32.25V45.75C48 46.9969 46.9969 48 45.75 48H32.25C31.3406 48 30.5156 47.4563 30.1688 46.6125C29.8219 45.7688 30.0094 44.8031 30.6563 44.1562L34.3125 40.5L26.1563 32.3438C25.275 31.4625 25.275 30.0375 26.1563 29.1656L29.1562 26.1656C30.0375 25.2844 31.4625 25.2844 32.3344 26.1656L40.4906 34.3219L44.1562 30.6562C44.8031 30.0094 45.7687 29.8219 46.6125 30.1687C47.4562 30.5156 48 31.3406 48 32.25ZM0 15.75V2.25C0 1.00312 1.00312 0 2.25 0L15.75 0C16.6594 0 17.4844 0.54375 17.8313 1.3875C18.1781 2.23125 17.9906 3.19688 17.3438 3.84375L13.6875 7.5L21.8438 15.6563C22.725 16.5375 22.725 17.9625 21.8438 18.8344L18.8438 21.8344C17.9625 22.7156 16.5375 22.7156 15.6656 21.8344L7.50938 13.6781L3.85313 17.3344C3.20625 17.9812 2.24062 18.1688 1.39687 17.8219C0.553123 17.475 0.00937653 16.65 0.00937653 15.7406L0 15.75Z" fill="#282828"/>
</svg>
