<svg id="Layer_1" data-name="Layer 1" xmlns="http://www.w3.org/2000/svg" viewBox="0 0 512 512"><title>bhi</title><path d="M104.16,457c-5.62-24.16-10.36-48.5-13.76-73.08-2.19-15.79-4.09-31.63-5.55-47.5-1.34-14.6-1.9-29.27-2.84-43.9a5.32,5.32,0,0,0-.69-2.44,5.09,5.09,0,0,0-8.6.1Q39.33,342.07,6,393.94c-2,3.18-4,6.42-6,9.63v104.3a3.71,3.71,0,0,1,.29.59A5.13,5.13,0,0,0,7,511.59Q43.7,497.64,80.57,484c8.12-3,16.3-5.87,24.44-8.82a6.2,6.2,0,0,0,1.75-1,2.39,2.39,0,0,0,.89-2.75C106.4,466.63,105.28,461.83,104.16,457Z"/><path d="M506,393.94q-33.36-51.88-66.74-103.75a5.09,5.09,0,0,0-8.6-.1,5.32,5.32,0,0,0-.69,2.44c-.94,14.63-1.5,29.3-2.84,43.9-1.46,15.87-3.36,31.71-5.55,47.5-3.4,24.57-8.14,48.91-13.76,73.08-1.12,4.8-2.24,9.61-3.48,14.38a2.39,2.39,0,0,0,.89,2.75,6.2,6.2,0,0,0,1.75,1c8.14,3,16.32,5.81,24.44,8.82q36.83,13.7,73.6,27.57a5.13,5.13,0,0,0,6.67-3.12,3.71,3.71,0,0,1,.29-.59V403.58C510,400.36,508.08,397.12,506,393.94Z"/><path d="M252.88,1.32C210.42,6.46,168.7,68.78,150.76,102.54c-26.5,49.88-32,109.16-31.88,164.76a797.44,797.44,0,0,0,18.27,166.86c5.09,23.47,7.76,57.7,30.06,71.51C190,519.76,322,519.31,345.83,506.2c20.42-11.25,22.65-34.12,27-54.81,12.26-57.74,20.42-116.87,21.4-176,.94-56.6-2.5-117.47-28.2-168.91C348.61,71.54,299.31-4.31,252.88,1.32ZM256,328.82a73.2,73.2,0,1,1,73.2-73.2A73.2,73.2,0,0,1,256,328.82Z"/></svg>