<svg width="48" height="48" viewBox="0 0 48 48" fill="none" xmlns="http://www.w3.org/2000/svg">
<path d="M24.0931 0C22.086 0 20.0689 0.25 18.0919 0.76C12.4119 2.22 7.47445 5.68 4.1728 10.5C0.871151 15.33 -0.543842 21.18 0.188743 26.98C0.921327 32.78 3.73124 38.1 8.11671 41.97C12.5022 45.84 18.1521 47.98 24.0128 48C24.0329 48 24.063 48 24.083 48C29.9136 48 35.5435 45.89 39.939 42.06C44.3646 38.22 47.2146 32.91 47.9773 27.12C48.168 25.66 47.1344 24.32 45.6692 24.13C44.194 23.94 42.8593 24.97 42.6686 26.43C42.0765 30.93 39.8587 35.06 36.4266 38.05C32.9945 41.04 28.619 42.66 24.0329 42.67C19.4768 42.66 15.0813 40.99 11.6692 37.98C8.25721 34.97 6.06949 30.83 5.49747 26.32C4.93549 21.81 6.02935 17.26 8.59841 13.51C11.1675 9.75 15.011 7.06 19.4266 5.93C23.8422 4.8 28.5087 5.31 32.573 7.37C35.3929 8.8 37.7713 10.89 39.5376 13.45H31.9408C30.4656 13.45 29.2613 14.64 29.2613 16.12C29.2613 17.6 30.4555 18.79 31.9408 18.79H43.923C43.923 18.79 44.0033 18.79 44.0435 18.79H45.318C46.7932 18.79 47.9974 17.6 47.9974 16.12V2.77C47.9974 1.3 46.8032 0.1 45.318 0.1C43.8327 0.1 42.6385 1.29 42.6385 2.77V8.69C40.5511 6.18 37.962 4.1 34.9915 2.6C31.5996 0.88 27.8564 0 24.0931 0Z" fill="#282828"/>
</svg>
