<svg id="Layer_1" data-name="Layer 1" xmlns="http://www.w3.org/2000/svg" viewBox="0 0 512 512"><defs><style>.cls-1{fill:#010101;fill-opacity:0.9;}</style></defs><path class="cls-1" d="M39,191.66992C39,108.03,108.7,38.33008,192.33008,38.33008c83.63989,0,153.33984,69.7,153.33984,153.33984a149.60388,149.60388,0,0,1-4.97,38.26A159.892,159.892,0,0,1,381.24,224.02a191.03435,191.03435,0,0,0,2.76-32.3501C384,87.12012,298.62012,0,192.33008,0,87.79,0,.66992,85.37988.66992,191.66992A191.7143,191.7143,0,0,0,224.03,380.7002a160.2524,160.2524,0,0,1,6.05-40.53028A149.78511,149.78511,0,0,1,192.33008,345C108.7,345,39,275.30005,39,191.66992Z"/><polygon class="cls-1" points="168.594 95.833 168.594 210.833 264.552 263.885 274.797 243.144 192.583 197.664 192.583 95.833 168.594 95.833"/><path class="cls-1" d="M481.87012,401.3999a97.40975,97.40975,0,0,0,1.54-16.8501,98.51982,98.51982,0,0,0-1.54-16.8496l29.88965-12.37012A109.40179,109.40179,0,0,0,505.37012,334.27,137.77419,137.77419,0,0,0,495.23,314.77979L465.1001,327.25A99.73152,99.73152,0,0,0,441.28,303.43994l12.47-30.1001a131.19737,131.19737,0,0,0-40.46-16.75l-12.46,30.09009a92.91005,92.91005,0,0,0-33.68994,0l-12.4502-30.07983a133.24843,133.24843,0,0,0-20.96,6.56982,125.80462,125.80462,0,0,0-19.47,10.23l12.45,30.0503A99.861,99.861,0,0,0,302.89014,327.25l-30.09009-12.46A132.52828,132.52828,0,0,0,256,355.21973l30.12988,12.47021a92.96616,92.96616,0,0,0,0,33.7002L256.14014,413.7998a122.47876,122.47876,0,0,0,6.48,21.02,167.5141,167.5141,0,0,0,10,19.54h.00976l30.26026-12.52978A99.77969,99.77969,0,0,0,326.71,465.6499L314.24,495.75a131.13009,131.13009,0,0,0,40.45,16.75l12.47-30.06982a92.87092,92.87092,0,0,0,33.68018,0l12.47,30.11962a142.19982,142.19982,0,0,0,20.96-6.63964,126.87086,126.87086,0,0,0,19.47-10.21l-12.43994-30.04a100.0632,100.0632,0,0,0,23.80981-23.81006L495.18018,454.29A131.67891,131.67891,0,0,0,512,413.87012ZM384,462.76221A77.09717,77.09717,0,1,1,461.09717,385.665,77.09717,77.09717,0,0,1,384,462.76221Z"/></svg>