<?xml version="1.0" encoding="UTF-8"?>
<svg id="Layer_2" xmlns="http://www.w3.org/2000/svg" viewBox="0 0 48 48">
    <defs>
        <style>.cls-1{stroke-width:0px;}</style>
    </defs>
    <g id="Layer_3">
        <path class="cls-1"
              d="M34.28,30.17h-2.19l-.82-.82c2.74-3.02,4.39-7.13,4.39-11.52C35.66,7.96,27.7,0,17.83,0S0,7.96,0,17.83s7.95,17.83,17.83,17.83c4.39,0,8.5-1.65,11.52-4.39l.82.82v2.19l13.71,13.71,4.11-4.11-13.72-13.71ZM18,7c2.89,0,5.25,2.36,5.25,5.25s-2.36,5.25-5.25,5.25-5.25-2.36-5.25-5.25,2.36-5.25,5.25-5.25ZM28.5,28H7.5v-2.63c0-3.54,6.96-5.25,10.5-5.25s10.5,1.71,10.5,5.25v2.63Z"/>
    </g>
</svg>
