<?xml version="1.0" encoding="utf-8"?>
<!-- Generator: Adobe Illustrator 15.0.2, SVG Export Plug-In . SVG Version: 6.00 Build 0)  -->
<!DOCTYPE svg PUBLIC "-//W3C//DTD SVG 1.1//EN" "http://www.w3.org/Graphics/SVG/1.1/DTD/svg11.dtd">
<svg version="1.1" id="Layer_1" xmlns="http://www.w3.org/2000/svg" xmlns:xlink="http://www.w3.org/1999/xlink" x="0px" y="0px"
	viewBox="0 0 209.5 209.5" enable-background="new 0 0 209.5 209.5" xml:space="preserve">
<g>
	<path fill="#282828" d="M165.329,150.749c12.709-15.884,20.31-36.025,20.31-57.93C185.639,41.582,144.055,0,92.819,0
		C41.582,0,0,41.582,0,92.819c0,51.235,41.582,92.819,92.819,92.819c21.904,0,42.046-7.601,57.93-20.31l44.163,44.171l14.588-14.588
		L165.329,150.749z M144.639,143.093l-1.546,1.546c-12.993,12.612-30.726,20.373-50.273,20.373
		c-39.887,0-72.193-32.308-72.193-72.192c0-39.887,32.306-72.193,72.193-72.193c39.885,0,72.192,32.306,72.192,72.193
		C165.012,112.367,157.251,130.1,144.639,143.093z"/>
	<polygon fill="#282828" points="136.12,58.449 76.181,118.369 52.429,94.641 44.519,102.551 76.181,134.212 144.031,66.36 	"/>
</g>
</svg>
