<?xml version="1.0" encoding="UTF-8"?>
<svg id="Layer_2" xmlns="http://www.w3.org/2000/svg" viewBox="0 0 48 48">
    <defs>
        <style>.cls-1{stroke-width:0px;}</style>
    </defs>
    <g id="Layer_3">
        <path class="cls-1"
              d="M34.28,30.17h-2.19l-.82-.82c2.74-3.02,4.39-7.13,4.39-11.52C35.66,7.96,27.7,0,17.83,0S0,7.96,0,17.83s7.95,17.83,17.83,17.83c4.39,0,8.5-1.65,11.52-4.39l.82.82v2.19l13.71,13.71,4.11-4.11-13.72-13.71ZM22.88,9c1.75,0,3.2,1.45,3.2,3.2s-1.34,3.2-3.2,3.2c-1.75,0-3.2-1.45-3.2-3.2s1.45-3.2,3.2-3.2ZM13.64,9c1.75,0,3.2,1.45,3.2,3.2s-1.34,3.2-3.2,3.2-3.3-1.34-3.3-3.2,1.55-3.2,3.3-3.2ZM21.77,25H5.51v-2.9c0-2.67,5.46-4.12,8.13-4.12s8.13,1.45,8.13,4.12v2.9ZM31.12,25h-7.01v-2.9c0-1.67-.89-3.12-2.34-4.01.45-.11.78-.11,1.11-.11,2.67,0,8.13,1.45,8.24,4.12v2.9Z"/>
    </g>
</svg>
