<!-- Generator: Adobe Illustrator 21.0.0, SVG Export Plug-In  -->
<svg version="1.1"
	 xmlns="http://www.w3.org/2000/svg" xmlns:xlink="http://www.w3.org/1999/xlink" xmlns:a="http://ns.adobe.com/AdobeSVGViewerExtensions/3.0/"
	 x="0px" y="0px" width="512px" height="384px" viewBox="0 0 512 384" style="enable-background:new 0 0 512 384;"
	 xml:space="preserve">
<style type="text/css">
	.st0{fill:#010101;}
</style>
<defs>
</defs>
<path class="st0" d="M416,32c-13-20.5-23.5-31.5-64-32H32C8.5-0.5,0,8.2,0,31.8V352c0,23.5,8.5,32,32,32h320c14.8,0,43,2,64-32
	l96-160L416,32z M133,224c-17.7,0-32-14.3-32-32s14.3-32,32-32s32,14.3,32,32S150.7,224,133,224z M231,224c-17.7,0-32-14.3-32-32
	s14.3-32,32-32s32,14.3,32,32S248.7,224,231,224z M327,224c-17.7,0-32-14.3-32-32s14.3-32,32-32s32,14.3,32,32S344.7,224,327,224z"
	/>
</svg>