<svg id="Layer_1" data-name="Layer 1" xmlns="http://www.w3.org/2000/svg" viewBox="0 0 512 512"><defs><style>.cls-1{fill:#231f20;}</style></defs><path class="cls-1" d="M247.54,65a6,6,0,0,1-5.76-4.08,64,64,0,0,0-121.56,0A6,6,0,0,1,114.46,65H16A16,16,0,0,0,0,81H0A16,16,0,0,0,16,97h98.46a6,6,0,0,1,5.76,4.08,64,64,0,0,0,121.56,0A6,6,0,0,1,247.54,97H496a16,16,0,0,0,16-16h0a16,16,0,0,0-16-16ZM183,111.94A31,31,0,1,1,211.94,83,31,31,0,0,1,183,111.94Z"/><path class="cls-1" d="M247.54,415.29a6,6,0,0,1-5.76-4.08,64,64,0,0,0-121.56,0,6,6,0,0,1-5.76,4.08H16a16,16,0,0,0-16,16H0a16,16,0,0,0,16,16h98.46a6.06,6.06,0,0,1,5.76,4.09,64,64,0,0,0,121.56,0,6.06,6.06,0,0,1,5.76-4.09H496a16,16,0,0,0,16-16h0a16,16,0,0,0-16-16ZM183,462.23a31,31,0,1,1,28.93-28.93A31,31,0,0,1,183,462.23Z"/><path class="cls-1" d="M264.46,240a6,6,0,0,0,5.76-4.08,64,64,0,0,1,121.56,0,6,6,0,0,0,5.76,4.08H496a16,16,0,0,1,16,16h0a16,16,0,0,1-16,16H397.54a6,6,0,0,0-5.76,4.08,64,64,0,0,1-121.56,0,6,6,0,0,0-5.76-4.08H16A16,16,0,0,1,0,256H0a16,16,0,0,1,16-16ZM329,286.94A31,31,0,1,0,300.06,258,31,31,0,0,0,329,286.94Z"/></svg>