<?xml version="1.0" encoding="UTF-8"?>
<svg width="24px" height="24px" viewBox="0 0 24 24" version="1.1" xmlns="http://www.w3.org/2000/svg" xmlns:xlink="http://www.w3.org/1999/xlink">
    <g id="share-o" fill-rule="nonzero" fill="#000000">
        <path d="M18,16.08 C19.61,16.08 20.92,17.39 20.92,19 C20.92,20.61 19.61,21.92 18,21.92 C16.39,21.92 15.08,20.61 15.08,19 C15.08,18.78 15.11,18.56 15.16,18.35 L8.04,14.19 C7.5,14.69 6.79,15 6,15 C4.34,15 3,13.66 3,12 C3,10.34 4.34,9 6,9 C6.79,9 7.5,9.31 8.04,9.81 L15.09,5.7 C15.04,5.47 15,5.24 15,5 C15,3.34 16.34,2 18,2 C19.66,2 21,3.34 21,5 C21,6.66 19.66,8 18,8 C17.21,8 16.5,7.69 15.96,7.19 L8.91,11.3 C8.96,11.53 9,11.76 9,12 C9,12.24 8.96,12.47 8.91,12.7 L16.04,16.85 C16.56,16.38 17.24,16.08 18,16.08 Z M18,7 C19.1045695,7 20,6.1045695 20,5 C20,3.8954305 19.1045695,3 18,3 C16.8954305,3 16,3.8954305 16,5 C16,6.1045695 16.8954305,7 18,7 Z M6,14 C7.1045695,14 8,13.1045695 8,12 C8,10.8954305 7.1045695,10 6,10 C4.8954305,10 4,10.8954305 4,12 C4,13.1045695 4.8954305,14 6,14 Z M18,21 C19.1045695,21 20,20.1045695 20,19 C20,17.8954305 19.1045695,17 18,17 C16.8954305,17 16,17.8954305 16,19 C16,20.1045695 16.8954305,21 18,21 Z" id="Shape"></path>
    </g>
</svg>