<?xml version="1.0" encoding="UTF-8"?>
<svg id="Layer_1" xmlns="http://www.w3.org/2000/svg" version="1.1" viewBox="0 0 512 512">
    <!-- Generator: Adobe Illustrator 30.3.0, SVG Export Plug-In . SVG Version: 2.1.3 Build 182)  -->
    <path d="M64.8,42.5L256,0l191.2,42.5c10.6,2.4,18.2,11.8,18.2,22.7v232.4c0,46.7-23.3,90.3-62.2,116.2l-147.2,98.2-147.3-98.2c-38.8-25.9-62.2-69.5-62.2-116.2V65.2c0-10.9,7.6-20.3,18.3-22.7ZM256,456.1l60.75-40.5,60.75-40.5c12.95-8.65,23.32-20.22,30.46-33.54s11.04-28.36,11.04-43.96v-41.6h-163V47.7l-81.45,18.1-81.45,18.1v172.1h162.9v200.1Z"/>
</svg>
