<svg id="Layer_1" data-name="Layer 1" xmlns="http://www.w3.org/2000/svg" viewBox="0 0 512 512"><title>bhi</title><path d="M36.72,255.58q0-91.22,0-182.44l.9-.3,212-70.67c2-.67,4-1.44,6-2.17h.55c.37.16.73.36,1.11.48l218,72.66v180c-.08.34-.18.69-.23,1-.62,4.69-.93,9.45-1.9,14.07-2.61,12.34-7.89,23.65-14.07,34.56-9.34,16.49-20.68,31.59-32.71,46.17-19.62,23.79-40.9,46-63,67.5q-16.7,16.2-33.77,32Q299,476.82,266.8,503.29c-3.52,2.9-7,5.82-10.48,8.71a1.75,1.75,0,0,1-.34-.15c-3.83-3.1-7.64-6.22-11.48-9.31Q194.3,462.13,148,417.26c-12.37-12-24.39-24.4-36.27-36.89C97.52,365.38,53,306.05,46.27,291a104.76,104.76,0,0,1-8.87-29.77C37.16,259.35,36.94,257.47,36.72,255.58Zm219.24-4v-213c-.64.19-1.07.31-1.5.45Q164.6,69,74.74,98.92a1.84,1.84,0,0,0-1.48,2.13q0,74.44,0,148.88v1.78H255.95v213c.52-.41.84-.65,1.14-.9q39.63-33.52,76.87-69.66c9.69-9.41,19.17-19,28.59-28.72,13.59-14,26.62-28.46,38.85-43.64,9.91-12.31,19.3-25,26.94-38.87,4.21-7.65,7.86-15.55,9.53-24.2.44-2.3.59-4.65.88-7.1Z"/></svg>