<svg id="Layer_1" data-name="Layer 1" xmlns="http://www.w3.org/2000/svg" viewBox="0 0 512 512">
    <title>bhi</title>
    <path d="M80.74 60.24L256 21.33L431.26 60.24C435.42 61.15 438.85 64.35 442.01 67.65C445.17 70.95 448 74.91 448 79.41V294.21C447.98 314.73 443.73 335.04 432.17 353.37C420.61 371.7 403.29 386.81 390.98 400.57L256 490.44L121.02 400.57C108.74 386.73 91.45 371.62 79.92 353.32C68.39 334.83 64.13 314.61 64 294.12V79.41C64.02 74.91 66.83 70.95 69.99 67.65C73.15 64.35 76.58 61.15 80.74 60.24V60.24ZM106.67 98.23V294.21C106.68 308.22 110.04 322.04 116.55 334.35C123.06 346.66 132.97 357.26 144.77 365.21L256 439.66L367.23 365.21C379.05 357.33 388.97 346.74 395.48 334.41C401.99 322.05 405.35 308.23 405.33 294.21V98.23L256 65.11L106.67 98.23Z"/>
</svg>
