<svg id="Layer_1" data-name="Layer 1" xmlns="http://www.w3.org/2000/svg" viewBox="0 0 512 512"><title>bhi</title><path d="M512.75,146.42c.06,1.19.14,2,.14,2.73,0,77.68,0,157.17.06,234.85,0,2-192.82,104.69-236.9,126.76-.78.39-1.58.76-2.57,1.24-.11-.63-.22-1.13-.28-1.63a8,8,0,0,1,0-1c0-25.92-.08-59.49-.1-85.41q0-47-.08-94.08,0-30.24-.1-60.48c0-1,0-1.91,0-3.1Z"/><path d="M0,384V153.89l95.89,47.94V296l63.83,31.91V234.45l.44-.2.23,0a7.19,7.19,0,0,1,.9.32l78.57,39.29L240.32,512C160,471.9,80,423.95,0,384Z"/><path d="M18.8,119.56c1-.54,1.7-.92,2.39-1.27C98.93,79.41,254.39,1.63,254.39,1.63h4.89l75,37.55,2.3,1.23S114.17,166.19,114.55,167l-.23.35Z"/><path d="M494.89,119.54l-24.36,12.2-211,105.47c-.57.29-1.73.81-1.73.81a6.68,6.68,0,0,1-2,0,17.88,17.88,0,0,1-2.59-1.23l-69.87-34.95c-.83-.41-1.64-.87-2.69-1.43,1-.58,1.65-1,2.33-1.38C256.64,158.14,403.86,76.3,403.86,76.3l4.58-.11s55.85,28,83.78,41.95C493,118.52,493.76,118.95,494.89,119.54Z"/></svg>