<?xml version="1.0" encoding="utf-8"?>
<!-- Generator: Adobe Illustrator 19.2.0, SVG Export Plug-In . SVG Version: 6.00 Build 0)  -->
<svg version="1.1" id="Layer_1" xmlns="http://www.w3.org/2000/svg" xmlns:xlink="http://www.w3.org/1999/xlink" x="0px" y="0px"
	 viewBox="0 0 512 512" enable-background="new 0 0 512 512" xml:space="preserve">
<path fill="#010101" d="M256,512C140.3,512,32,403.7,32,288h224l0,0V512z"/>
<path fill="#010101" d="M213.9,58.3v155.7H58.3c8.4-29.5,27.3-58.9,54.7-88.4C142.4,94,180.3,68.8,213.9,58.3 M247.6,0
	C138.2,0-6.3,148.7,0,256h256V0C256,0,249.7,0,247.6,0L247.6,0z"/>
<path fill="#010101" d="M288,32c115.7,0,224,108.3,224,224H288l0,0V32z"/>
<path fill="#010101" d="M512,288c0,115.7-108.3,224-224,224V288l0,0H512z"/>
</svg>
