<?xml version="1.0" encoding="utf-8"?>
<!-- Generator: Adobe Illustrator 19.2.0, SVG Export Plug-In . SVG Version: 6.00 Build 0)  -->
<svg version="1.1" id="Layer_1" xmlns="http://www.w3.org/2000/svg" xmlns:xlink="http://www.w3.org/1999/xlink" x="0px" y="0px"
	 viewBox="0 0 512 512" enable-background="new 0 0 512 512" xml:space="preserve">
<g>
	<path fill="#010101" d="M256,512C115.2,512,0,396.8,0,256S115.2,0,256,0s256,115.2,256,256S396.8,512,256,512z M256,38.4
		c-121.6,0-217.6,96-217.6,217.6s96,217.6,217.6,217.6c119.5,0,217.6-98.1,217.6-217.6S375.5,38.4,256,38.4z"/>
</g>
<polygon fill="#010101" points="256.2,106.7 303.1,200.5 405.5,215.5 330.9,285.9 347.9,388.3 256.2,341.3 164.5,388.3 181.5,285.9 
	109,215.5 211.4,200.5 "/>
</svg>
