<svg id="Layer_1" data-name="Layer 1" xmlns="http://www.w3.org/2000/svg" viewBox="0 0 512 512"><title>bhi</title><path d="M443.74,291.85V170.67c0-1.16-.11-28.69-9.41-56.59-13.51-40.54-40.47-62.87-75.92-62.87-20.38,0-37.58,7.13-51.15,21.21-14,14.49-23.3,35.72-27.77,63.1a201.5,201.5,0,0,0-2.62,35.41V375.46c0,.22-.25,22.8-9.35,44.63-11.41,27.38-30.68,40.7-58.91,40.7-28,0-47.12-13.05-58.58-39.91-9.46-22.16-9.68-45.23-9.69-45.42V289c26.71-3.47,48.91-15.34,66.15-35.44,56.65-66,36.91-199.35,36-205a17.07,17.07,0,0,0-16.87-14.47H221.1A34.14,34.14,0,1,0,211.36,79a421.91,421.91,0,0,1,.75,45c-1.9,48.45-12.8,85.6-31.54,107.41C166.36,248,147.63,256,123.28,256S80.2,248,66,231.42C32.5,192.42,32.53,118,35.22,79a34.13,34.13,0,1,0-9.75-44.86H20.89A17.07,17.07,0,0,0,4,48.62c-.87,5.64-20.61,139,36,205,17.24,20.1,39.44,32,66.15,35.44v86.41c0,1.18.14,29.34,12,57.76,7.31,17.54,17.54,31.66,30.42,42,16.37,13.1,36.56,19.74,60,19.74s43.62-6.64,60-19.74c12.88-10.3,23.12-24.42,30.42-42,11.84-28.42,12-56.58,12-57.76V170.07c-.48-14.08,2.35-54.83,20.89-74,7-7.21,15.65-10.71,26.52-10.71,7.45,0,30.11,0,43.32,38.89,7.71,22.69,7.87,46.23,7.87,46.44V291.85a85.33,85.33,0,1,0,34.13,0ZM426.67,426.66a51.2,51.2,0,1,1,51.2-51.2A51.26,51.26,0,0,1,426.67,426.66Z"/></svg>