<?xml version="1.0" encoding="utf-8"?>
<!-- Generator: Adobe Illustrator 28.0.0, SVG Export Plug-In . SVG Version: 6.00 Build 0)  -->
<svg version="1.1" id="Layer_1" xmlns="http://www.w3.org/2000/svg" xmlns:xlink="http://www.w3.org/1999/xlink" x="0px" y="0px"
	 viewBox="0 0 24 24" style="enable-background:new 0 0 24 24;" xml:space="preserve">
<style type="text/css">
	.st0{fill:#1F1F1F;}
</style>
<path class="st0" d="M7.3,16.7h9.5V7.3H7.3V16.7z M12,24c-1.7,0-3.2-0.3-4.7-0.9c-1.5-0.6-2.7-1.5-3.8-2.6s-1.9-2.3-2.6-3.8
	C0.3,15.2,0,13.7,0,12c0-1.7,0.3-3.2,0.9-4.7s1.5-2.7,2.6-3.8s2.3-1.9,3.8-2.6C8.8,0.3,10.3,0,12,0c1.7,0,3.2,0.3,4.7,0.9
	s2.7,1.5,3.8,2.6c1.1,1.1,1.9,2.3,2.6,3.8c0.6,1.5,0.9,3,0.9,4.7c0,1.7-0.3,3.2-0.9,4.7c-0.6,1.5-1.5,2.7-2.6,3.8
	c-1.1,1.1-2.3,1.9-3.8,2.6C15.2,23.7,13.7,24,12,24z M12,22.1c2.8,0,5.2-1,7.2-2.9s2.9-4.3,2.9-7.2s-1-5.2-2.9-7.2S14.8,1.9,12,1.9
	s-5.2,1-7.2,2.9S1.9,9.2,1.9,12s1,5.2,2.9,7.2S9.2,22.1,12,22.1z"/>
</svg>
