<?xml version="1.0" encoding="utf-8"?>
<!-- Generator: Adobe Illustrator 28.0.0, SVG Export Plug-In . SVG Version: 6.00 Build 0)  -->
<svg version="1.1" id="Layer_1" xmlns="http://www.w3.org/2000/svg" xmlns:xlink="http://www.w3.org/1999/xlink" x="0px" y="0px"
	 viewBox="0 0 512 512" style="enable-background:new 0 0 512 512;" xml:space="preserve">
<path d="M385.9,512H71.7c-38.5,0-69.8-31.3-69.8-69.8V256c0-38.5,31.3-69.8,69.8-69.8h64.2c8.9,0,16.9-5,20.8-12.9l80.3-160.4
	c4-8,12.2-12.4,21.1-12.9c25.7,0.3,49.7,10.6,67.6,29c17.9,18.4,27.6,42.6,27.3,68.3c-0.1,7.4-1,14.7-2.8,21.8L334,186.2h106.1
	c38.5,0,69.8,31.3,69.8,69.8c0,6.6-0.9,13.1-2.8,19.5l-54.2,186.2C444.3,491.3,416.7,512,385.9,512z M164.8,465.5h221.1
	c10.3,0,19.5-6.9,22.3-16.8l54.2-186.2c0.6-2.1,0.9-4.3,0.9-6.5c0-12.8-10.4-23.3-23.3-23.3H304.4c-7.1,0-13.9-3.3-18.3-8.9
	s-6-12.9-4.3-19.9l23.3-95.9c0,0,0-0.1,0-0.1c0.9-3.7,1.4-7.4,1.4-11.2c0.2-13.2-4.8-25.8-14.1-35.2c-6-6.1-13.3-10.5-21.2-12.9
	L198.4,194c-7.3,14.7-19.2,26-33.6,32.5V465.5z M71.7,232.7c-12.8,0-23.3,10.4-23.3,23.3v186.2c0,12.8,10.4,23.3,23.3,23.3h46.5
	V232.7H71.7z"/>
</svg>
