<?xml version="1.0" encoding="utf-8"?>
<!-- Generator: Adobe Illustrator 28.0.0, SVG Export Plug-In . SVG Version: 6.00 Build 0)  -->
<svg version="1.1" id="Layer_1" xmlns="http://www.w3.org/2000/svg" xmlns:xlink="http://www.w3.org/1999/xlink" x="0px" y="0px"
	 viewBox="0 0 512 512" style="enable-background:new 0 0 512 512;" xml:space="preserve">
<path d="M254.1,512c-0.1,0-0.2,0-0.3,0c-53-0.7-95.6-44.3-94.9-97.3c0.1-7.3,1-14.7,2.8-21.8l16.3-67.1H71.9
	c-38.5,0-69.8-31.3-69.8-69.8c0-6.6,0.9-13.2,2.8-19.6L59.1,50.3C67.7,20.7,95.3,0,126.1,0h314.2c38.5,0,69.8,31.3,69.8,69.8V256
	c0,38.5-31.3,69.8-69.8,69.8h-64.2c-8.9,0-16.9,5-20.8,12.9l-80.3,160.4C271,507,262.9,512,254.1,512z M126.1,46.5
	c-10.3,0-19.5,6.9-22.3,16.8L49.5,249.5c-0.6,2.1-0.9,4.3-0.9,6.5c0,12.8,10.4,23.3,23.3,23.3h135.7c7.1,0,13.9,3.3,18.3,8.9
	c4.4,5.6,6,12.9,4.3,19.9l-23.3,95.9c0,0,0,0.1,0,0.1c-0.9,3.7-1.4,7.4-1.4,11.2c-0.2,13.2,4.8,25.8,14.1,35.2
	c6,6.1,13.3,10.5,21.2,12.9L313.6,318c7.3-14.7,19.3-26,33.6-32.5V46.5H126.1z M184.3,398.4h0.2H184.3z M393.7,279.3h46.5
	c12.8,0,23.3-10.4,23.3-23.3V69.8c0-12.8-10.4-23.3-23.3-23.3h-46.5V279.3z"/>
</svg>
