<svg width="24" height="24" viewBox="0 0 24 24" fill="none" xmlns="http://www.w3.org/2000/svg">
<path d="M9.00001 18.12L10 14H4.17001C3.85952 14 3.5533 13.9277 3.27559 13.7889C2.99788 13.65 2.75631 13.4484 2.57001 13.2C2.38372 12.9516 2.25782 12.6633 2.20227 12.3578C2.14673 12.0523 2.16308 11.7381 2.25001 11.44L4.58001 3.44C4.70118 3.02457 4.95382 2.65964 5.30001 2.4C5.64621 2.14036 6.06727 2 6.50001 2H20C20.5304 2 21.0392 2.21071 21.4142 2.58579C21.7893 2.96086 22 3.46957 22 4V12C22 12.5304 21.7893 13.0391 21.4142 13.4142C21.0392 13.7893 20.5304 14 20 14H17.24C16.8679 14.0002 16.5033 14.1042 16.1871 14.3003C15.8708 14.4964 15.6156 14.7768 15.45 15.11L12 22C11.5284 21.9942 11.0643 21.8818 10.6422 21.6714C10.2201 21.461 9.85108 21.1579 9.56261 20.7848C9.27413 20.4117 9.0737 19.9782 8.97628 19.5168C8.87886 19.0554 8.88697 18.5779 9.00001 18.12Z" stroke="black" stroke-width="2" stroke-linecap="round" stroke-linejoin="round"/>
<path d="M17 14V2" stroke="black" stroke-width="2" stroke-linecap="round" stroke-linejoin="round"/>
</svg>
