<svg width="14" height="14" viewBox="0 0 14 14" fill="none" xmlns="http://www.w3.org/2000/svg">
<path d="M9.70067 9C9.06209 9 8.50333 8.87261 8.02439 8.61783C7.56319 8.34607 7.13747 8.04034 6.74723 7.70064C6.35698 7.36093 5.97561 7.06369 5.6031 6.80892C5.2306 6.55414 4.81375 6.42675 4.35255 6.42675C3.73171 6.42675 3.23503 6.64756 2.86253 7.08917C2.50776 7.5138 2.31264 8.09979 2.27716 8.84713H1C1.03548 7.57325 1.35477 6.61359 1.95787 5.96815C2.57871 5.32272 3.3592 5 4.29933 5C4.93792 5 5.48781 5.13588 5.949 5.40764C6.42794 5.66242 6.85366 5.95966 7.22616 6.29936C7.61641 6.63907 7.99778 6.9448 8.37029 7.21656C8.76053 7.47134 9.18625 7.59873 9.64745 7.59873C10.2683 7.59873 10.765 7.37792 11.1375 6.93631C11.51 6.47771 11.7051 5.87474 11.7228 5.12739H13C12.9645 6.40127 12.6452 7.36943 12.0421 8.03185C11.439 8.67728 10.6585 9 9.70067 9Z" fill="#282828"/>
</svg>
