<svg id="Layer_1" data-name="Layer 1" xmlns="http://www.w3.org/2000/svg" viewBox="0 0 512 512"><defs><style>.cls-1{fill:#070606;}</style></defs><title>bhi</title><path class="cls-1" d="M307.2,256h38.4v72.19l62.46,36.1-19.2,33.28-81.66-47.1V256m172.48-26A179.25,179.25,0,0,1,207.36,460.8H32c-16.75,0-32-12.8-32-29.55V64C0,45,15,32,32,32H448c17,0,32,11,32,32ZM51.2,332.8v76.8H170.75a179.53,179.53,0,0,1-17.15-76.8H51.2m0-179.2H204.8V76.8H51.2v76.8m364.8,0V76.8H256v76.8H409.6M51.2,281.6H161a177.87,177.87,0,0,1,46.34-76.8H51.2v76.8m281.6-73A124.16,124.16,0,0,0,208.64,332.8h0a124.16,124.16,0,0,0,248.32,0h0A124.11,124.11,0,0,0,332.8,208.64Z"/></svg>