<?xml version="1.0" encoding="utf-8"?>
<!-- Generator: Adobe Illustrator 19.2.0, SVG Export Plug-In . SVG Version: 6.00 Build 0)  -->
<svg version="1.1" id="Layer_1" xmlns="http://www.w3.org/2000/svg" xmlns:xlink="http://www.w3.org/1999/xlink" x="0px" y="0px"
	 viewBox="0 0 512 512" enable-background="new 0 0 512 512" xml:space="preserve">
<g>
	<path fill="#010101" d="M439.4,149.3c0.3,4.4,0.3,8.7,0.3,13c0,132.7-101,285.6-285.6,285.6C97.3,448,44.4,431.5,0,402.9
		c8.1,1,15.9,1.3,24.2,1.3c46.9,0,90.1-15.9,124.7-42.9c-44.1-1-81.1-29.9-93.9-69.6c6.2,1,12.4,1.6,19,1.6c9,0,18-1.3,26.4-3.4
		c-46-9.3-80.5-49.7-80.5-98.5c0-0.3,0-1,0-1.3c13.3,7.5,28.9,12.2,45.4,12.8c-27-18-44.8-48.8-44.8-83.6c0-18.7,5-35.8,13.7-50.7
		c49.4,60.9,123.7,100.7,207,105.1c-1.5-7.5-2.5-15.2-2.5-23c0-55.3,44.8-100.4,100.4-100.4c28.9,0,55,12.1,73.3,31.7
		c22.7-4.4,44.5-12.7,63.8-24.2c-7.5,23.3-23.3,42.9-44.1,55.3c20.2-2.2,39.8-7.7,57.8-15.5C476.1,117.3,459,135,439.4,149.3z"/>
</g>
</svg>
