<svg id="Layer_1" data-name="Layer 1" xmlns="http://www.w3.org/2000/svg" viewBox="0 0 512 512"><defs><style>.cls-1{fill:#010101;}</style></defs><path class="cls-1" d="M448,0V96H402.59131a48.00456,48.00456,0,0,0-90.51611,0h-5.40528a48.11584,48.11584,0,0,0-90.67334,0h-5.33105a48.11065,48.11065,0,0,0-90.666,0H64V0H0V512H64V416h2.74219a48.00421,48.00421,0,0,0,90.51562,0h5.48438a48.00421,48.00421,0,0,0,90.51562,0h5.48438a48.00421,48.00421,0,0,0,90.51562,0h5.48682a48.00613,48.00613,0,0,0,90.51074,0H448v96h64V0ZM120.22363,128a48.14071,48.14071,0,0,0,90.21094,0h5.79834a48.13909,48.13909,0,0,0,90.20068,0h5.64161a48.00456,48.00456,0,0,0,90.51611,0H448V256h-2.74219a48.00421,48.00421,0,0,0-90.51562,0H285.25781a48.00421,48.00421,0,0,0-90.51562,0H64V128ZM400,352a48.01159,48.01159,0,0,0-45.25928,32h-5.48291a48.00421,48.00421,0,0,0-90.51562,0h-5.48438a48.00421,48.00421,0,0,0-90.51562,0h-5.48438a48.00421,48.00421,0,0,0-90.51562,0H64V288H194.74219a48.00421,48.00421,0,0,0,90.51562,0h69.48438a48.00421,48.00421,0,0,0,90.51562,0H448v96h-2.74072A48.01159,48.01159,0,0,0,400,352Z"/></svg>