<?xml version="1.0" encoding="UTF-8"?><svg id="Layer_2" xmlns="http://www.w3.org/2000/svg" viewBox="0 0 512 410.07"><defs><style>.cls-1{fill:#282827;stroke-width:0px;}</style></defs><g id="Layer_1-2"><path class="cls-1" d="m383.96,0c-64.29,0-127.91,37.33-127.91,116.42v22.59H33.01c-19.11,0-33.01,15.64-33.01,33.01v205.03c0,19.11,15.64,33.01,33.01,33.01h292.18c19.11,0,33.01-15.64,33.01-33.01v-205.03c1.74-19.11-13.9-33.01-33.01-33.01h-17.96v-24.33c0-46.91,31.54-62.95,76.72-62.95s76.85,17.77,76.85,62.95v10.33h.02c0,7.72,6.26,13.97,13.97,13.97h23.22c7.72,0,13.97-6.26,13.97-13.97h0v-8.6C512,37.33,448.25,0,383.96,0Zm-185.74,290.17v50.39h-43.44v-50.39c-17.38-8.69-29.54-26.06-29.54-45.18,0-27.8,22.59-50.39,50.39-50.39s50.39,22.59,50.39,50.39c0,19.11-10.43,36.49-27.8,45.18Z"/></g></svg>