<?xml version="1.0" encoding="utf-8"?>
<!-- Generator: Adobe Illustrator 19.2.0, SVG Export Plug-In . SVG Version: 6.00 Build 0)  -->
<svg version="1.1" id="Layer_1" xmlns="http://www.w3.org/2000/svg" xmlns:xlink="http://www.w3.org/1999/xlink" x="0px" y="0px"
	 viewBox="0 0 512 512" enable-background="new 0 0 512 512" xml:space="preserve">
<g>
	<path fill="#010101" d="M409.6,448H119.5C53.6,448,0,394.4,0,328.5c0-46.4,27-88.5,68.8-108c-0.3-4-0.5-7.7-0.5-11.5
		C68.3,127,121,64,204.8,64c65.2,0,105.4,42.1,126.4,93.4c12.2-10.7,28-16.5,44.2-16.5c37.6,0,68.3,30.7,68.3,68.3
		c0,13.1-3.7,25.9-10.9,36.8c46.4,10.9,79.2,52.3,79.2,99.7C512,402.1,466.1,448,409.6,448z M128,288h64v96h96v-96h64L238.2,160
		L128,288z"/>
</g>
</svg>
