<svg id="Layer_1" data-name="Layer 1" xmlns="http://www.w3.org/2000/svg" viewBox="0 0 512 512"><defs><style>.cls-1{fill:#010101;}</style></defs><title>bhi_3</title><path class="cls-1" d="M256,256c70.4,0,128-57.61,128-128S326.4,0,256,0,128,57.61,128,128,185.6,256,256,256Z"/><path class="cls-1" d="M372.87,342.07C371.36,380,355.64,405,332.8,405c-11,0-27.49-7.21-40-14.77C282.45,399.71,269.44,405,256,405s-26.45-5.29-36.84-14.77c-12.47,7.56-29,14.77-40,14.77-22.84,0-38.56-25-40.07-62.93C82.23,362.64,32,397.73,32,448v64H480V448C480,397.73,429.77,362.64,372.87,342.07Z"/><path class="cls-1" d="M236.8,336c0,26.51-47,48-57.6,48S160,362.51,160,336s8.6-48,19.2-48S236.8,309.49,236.8,336Z"/><path class="cls-1" d="M275.2,336c0-26.51,47-48,57.6-48S352,309.49,352,336s-8.6,48-19.2,48S275.2,362.51,275.2,336Z"/><ellipse class="cls-1" cx="256" cy="336" rx="38.4" ry="48"/></svg>