<svg id="Layer_1" data-name="Layer 1" xmlns="http://www.w3.org/2000/svg" viewBox="0 0 388.99 390"><defs><style>.cls-1{fill:#202945;}</style></defs><path class="cls-1" d="M433.07,211.88h0c.28-.14-130.48-131.81-130.48-131.81a65.37,65.37,0,0,0-92.27,0L85.87,204.5l-.32.24-5,5.1a65.13,65.13,0,0,0-5.28,86.1h-.06l.48.55c.23.3.47.6.72.89.53.77,1.07,1.53,1.23,1.48.93,1.05,1.87,2.08,2.88,3.09l-.74-.82.77.82h0L209.32,432a65.37,65.37,0,0,0,92.27,0L426.06,307.5a2.43,2.43,0,0,1,.32-.24l5.11-5.12A65.1,65.1,0,0,0,433.07,211.88Zm-177.6,82L229.62,268l26.9-26.91L282.37,267Zm83.78-83.83L305,244.37l-25.84-25.84a32,32,0,0,0-45.25,0L207,245.42l-35.42-35.35a64.72,64.72,0,0,0-29.17-16.84l90.51-90.5a33.34,33.34,0,0,1,47,0c27.38,27.56,62.68,63.13,89.54,90.26a64.94,64.94,0,0,0-30.21,17.08Z" transform="translate(-61.49 -61.01)"/></svg>