<svg id="Layer_1" data-name="Layer 1" xmlns="http://www.w3.org/2000/svg" viewBox="0 0 512 512"><defs><style>.cls-1{fill:none;}.cls-2{fill:#202945;}</style></defs><rect class="cls-1" x="236.97" y="249.25" width="38.05" height="36.55" transform="translate(-114.19 259.37) rotate(-45)"/><path class="cls-1" d="M256.47,93a33.16,33.16,0,0,0-23.55,9.73l-90.51,90.5a64.81,64.81,0,0,1,29.17,16.84L207,245.42l26.9-26.89a32,32,0,0,1,45.25,0L305,244.37l34.26-34.3a64.89,64.89,0,0,1,30.25-17.13c-26.86-27.13-62.16-62.7-89.54-90.26A33.15,33.15,0,0,0,256.47,93Z"/><path class="cls-1" d="M126.61,321a64.88,64.88,0,0,1-46-19.07c-.27-.27-.52-.55-.78-.82l.74.82h0A64.92,64.92,0,0,0,126.61,321Z"/><path class="cls-1" d="M256.47,93a33.16,33.16,0,0,0-23.55,9.73l-90.51,90.5a64.81,64.81,0,0,1,29.17,16.84L207,245.42l26.9-26.89a32,32,0,0,1,45.25,0L305,244.37l34.26-34.3a64.89,64.89,0,0,1,30.25-17.13c-26.86-27.13-62.16-62.7-89.54-90.26A33.15,33.15,0,0,0,256.47,93Z"/><path class="cls-1" d="M80.59,301.93c-.27-.27-.52-.55-.78-.82l.74.82h0Q99.63,321,80.59,301.93Z"/><rect class="cls-1" x="236.97" y="249.25" width="38.05" height="36.55" transform="translate(-114.19 259.37) rotate(-45)"/><path class="cls-2" d="M433.07,211.88h0c.28-.14-130.48-131.81-130.48-131.81a65.37,65.37,0,0,0-92.27,0L85.87,204.5l-.32.24-5,5.1a65.13,65.13,0,0,0-5.28,86.1l-.06,0,.48.55c.23.3.47.6.72.89.53.77,1.07,1.53,1.23,1.48.93,1.05,1.87,2.08,2.88,3.09l-.74-.82.77.82q19.08,19.06,0,0h0l128.77,130a65.37,65.37,0,0,0,92.27,0L426.06,307.5a3.81,3.81,0,0,1,.32-.24l5.11-5.12A65.1,65.1,0,0,0,433.07,211.88Zm-177.6,82-25.85-25.84,26.9-26.91L282.37,267Zm83.78-83.83L305,244.37l-25.84-25.84a32,32,0,0,0-45.25,0L207,245.42l-35.42-35.35a64.81,64.81,0,0,0-29.17-16.84l90.51-90.5a33.35,33.35,0,0,1,47,0c27.38,27.56,62.68,63.13,89.54,90.26A64.89,64.89,0,0,0,339.25,210.07Z"/></svg>