<?xml version="1.0" encoding="utf-8"?>
<!-- Generator: Adobe Illustrator 22.1.0, SVG Export Plug-In . SVG Version: 6.00 Build 0)  -->
<svg version="1.1" id="Layer_1" xmlns="http://www.w3.org/2000/svg" xmlns:xlink="http://www.w3.org/1999/xlink" x="0px" y="0px"
	 viewBox="0 0 512 512" style="enable-background:new 0 0 512 512;" xml:space="preserve">
<style type="text/css">
	.st0{fill:#010101;}
	.st1{fill:#010101;fill-opacity:0.9;}
	.st2{fill:#020202;}
	.st3{fill:#FFFFFF;}
	.st4{fill:none;}
	.st5{fill-opacity:0.9;}
	.st6{fill-rule:evenodd;clip-rule:evenodd;}
	.st7{stroke:#000000;stroke-width:14;stroke-miterlimit:10;}
	.st8{fill-rule:evenodd;clip-rule:evenodd;fill:#010101;}
	.st9{fill:#231F20;}
	.st10{fill:#231F20;stroke:#231F20;stroke-miterlimit:10;}
	.st11{fill:#030303;}
</style>
<g>
	<path class="st0" d="M353.244,193.244h158.505l0.507-160l-55.463,56.299C406.316,39.066,324.171,1.229,256.244,0l0,64.895
		c51.343,1.231,118.601,30.95,156.5,68.85L353.244,193.244z"/>
	<path class="st0" d="M447.361,255.959c-1.231,51.343-30.951,118.601-68.85,156.5l-59.5-59.5v158.505l160,0.506l-56.299-55.462
		c50.477-50.477,88.314-132.623,89.543-200.549L447.361,255.959z"/>
	<path class="st0" d="M158.554,319.378H0.049l-0.507,160l55.463-56.299c50.477,50.478,132.623,88.314,200.549,89.543l0-64.895
		c-51.343-1.231-118.601-30.95-156.5-68.85L158.554,319.378z"/>
	<path class="st0" d="M-0.458,256.012h64.894c1.231-51.343,30.951-118.601,68.85-156.5l59.5,59.5V0.507L32.786,0l56.299,55.462
		C38.608,105.94,0.771,188.085-0.458,256.012z"/>
</g>
</svg>
