<svg id="Layer_1" data-name="Layer 1" xmlns="http://www.w3.org/2000/svg" viewBox="0 0 699.01 74.43"><defs><style>.cls-1{fill:#7a7a7a;}.cls-2,.cls-3,.cls-4{fill:#f6b34d;}.cls-2{stroke:#f6b34d;stroke-miterlimit:10;stroke-width:2px;}.cls-10,.cls-4,.cls-6,.cls-8{fill-opacity:0;}.cls-5,.cls-6{fill:#ed562e;}.cls-7,.cls-8{fill:#f63;}.cls-10,.cls-9{fill:#db3b14;}</style></defs><path class="cls-1" d="M91.42,17.81h19.45c5.22,0,9.34,1.47,11.95,4a9.84,9.84,0,0,1,2.94,7.16v.13c0,5.83-3.66,8.83-7.25,10.37,5.42,1.6,9.79,4.67,9.79,10.81v.13c0,7.68-6.59,12.23-16.58,12.23H91.42Zm29.11,11.84c0-4.42-3.59-7.3-10.11-7.3H96.51V37.78H110c6.2,0,10.51-2.76,10.51-8Zm-9.59,12.6H96.51V58.06h15.34c6.92,0,11.23-3,11.23-8v-.13C123.08,45.07,118.9,42.25,110.94,42.25Z"/><path class="cls-1" d="M136.2,50.06V29.52h5V48.85c0,6.14,3.39,10,9.33,10,5.75,0,10.12-4.16,10.12-10.37V29.52h5V62.61h-5V56.85a12.89,12.89,0,0,1-11.55,6.46C141,63.31,136.2,57.93,136.2,50.06Z"/><path class="cls-1" d="M176.41,15.89h5V62.61h-5Z"/><path class="cls-1" d="M192.6,15.89h5V62.61h-5Z"/><path class="cls-1" d="M208.33,15.89h5V35.28a12.82,12.82,0,0,1,11.55-6.46c8.16,0,12.93,5.37,12.93,13.24V62.61h-5V43.28c0-6.14-3.39-10-9.33-10s-10.12,4.15-10.12,10.36v19h-5Z"/><path class="cls-1" d="M245.48,46.22v-.13A17.59,17.59,0,0,1,280.66,46v.12A17.35,17.35,0,0,1,263,63.37,17.11,17.11,0,0,1,245.48,46.22Zm30,0v-.13A12.63,12.63,0,0,0,263,33.17c-7.31,0-12.34,5.82-12.34,12.8v.12A12.53,12.53,0,0,0,263.1,59C270.41,59,275.51,53.2,275.51,46.22Z"/><path class="cls-1" d="M288.76,29.52h5v8.64c2.48-5.5,7.38-9.47,13.78-9.22v5.32h-.39c-7.38,0-13.39,5.18-13.39,15.16V62.61h-5Z"/><path class="cls-1" d="M314.22,29.52h5v5.76a12.84,12.84,0,0,1,11.56-6.46c8.16,0,12.92,5.37,12.92,13.24V62.61h-5V43.28c0-6.14-3.4-10-9.34-10s-10.12,4.15-10.12,10.36v19h-5Z"/><path class="cls-2" d="M361.55,42.59v-.13c0-12.73,9.53-23.16,23.1-23.16,8.26,0,13.25,2.88,17.53,7l-5.05,5.83c-3.58-3.33-7.42-5.57-12.54-5.57-8.52,0-14.79,7-14.79,15.81v.12c0,8.77,6.21,15.87,14.79,15.87,5.5,0,9-2.17,12.86-5.76l5.06,5.13c-4.68,4.86-9.8,7.93-18.18,7.93C371.27,65.63,361.55,55.45,361.55,42.59Z"/><path class="cls-2" d="M408.14,42.59v-.13c0-12.6,9.73-23.16,23.49-23.16S455,29.73,455,42.34v.12c0,12.61-9.72,23.17-23.48,23.17S408.14,55.2,408.14,42.59Zm38.59,0v-.13c0-8.7-6.34-15.93-15.23-15.93s-15.1,7.1-15.1,15.81v.12c0,8.71,6.33,15.87,15.23,15.87S446.73,51.29,446.73,42.59Z"/><path class="cls-2" d="M465.16,20.07h7.3l24,31v-31h7.74V64.86h-6.59L472.91,33V64.86h-7.75Z"/><path class="cls-2" d="M516.36,20.07h7.3l24,31v-31h7.74V64.86h-6.59L524.11,33V64.86h-7.75Z"/><path class="cls-2" d="M567.56,20.07h33.22v7H575.43V38.75H597.9v7H575.43v12H601.1v7H567.56Z"/><path class="cls-2" d="M609.1,42.59v-.13c0-12.73,9.53-23.16,23.1-23.16,8.26,0,13.25,2.88,17.54,7l-5.06,5.83c-3.58-3.33-7.42-5.57-12.54-5.57-8.51,0-14.79,7-14.79,15.81v.12c0,8.77,6.21,15.87,14.79,15.87,5.5,0,9-2.17,12.86-5.76l5.06,5.13c-4.68,4.86-9.8,7.93-18.18,7.93C618.83,65.63,609.1,55.45,609.1,42.59Z"/><path class="cls-2" d="M670,27.36H655.75V20.07H692.1v7.29H677.9v37.5H670Z"/><path id="c1bX7To4lm" class="cls-3" d="M6.91,8.8l.72,8.06,7.42,4.92Z"/><path id="c1bX7To4lm-2" data-name="c1bX7To4lm" class="cls-4" d="M6.91,8.8l.72,8.06,7.42,4.92Z"/><path id="cmSOcdMn0" class="cls-5" d="M12.28,26.92l7.39,6.95,7-6.95Z"/><path id="cmSOcdMn0-2" data-name="cmSOcdMn0" class="cls-6" d="M12.28,26.92l7.39,6.95,7-6.95Z"/><path id="a2MuXlM9BX" class="cls-7" d="M12.07,25.86h7.56l-12-7.49Z"/><path id="a2MuXlM9BX-2" data-name="a2MuXlM9BX" class="cls-8" d="M12.07,25.86h7.56l-12-7.49Z"/><path id="f2RaPehJaQ" class="cls-9" d="M50.81,21.47l6.82,6.12H43.86Z"/><path id="f2RaPehJaQ-2" data-name="f2RaPehJaQ" class="cls-10" d="M50.81,21.47l6.82,6.12H43.86Z"/><path id="a1TDE0Bxk5" class="cls-9" d="M58.51,43l6.12-6.83V50Z"/><path id="a1TDE0Bxk5-2" data-name="a1TDE0Bxk5" class="cls-10" d="M58.51,43l6.12-6.83V50Z"/><path id="fn2nERGwF" class="cls-9" d="M64.34,35.08l-6.13-6.83V42Z"/><path id="fn2nERGwF-2" data-name="fn2nERGwF" class="cls-10" d="M64.34,35.08l-6.13-6.83V42Z"/><path id="fa0Tde8b7y" class="cls-9" d="M56.87,28.69H48.73l8.14,8.6Z"/><path id="fa0Tde8b7y-2" data-name="fa0Tde8b7y" class="cls-10" d="M56.87,28.69H48.73l8.14,8.6Z"/><path id="a78hW40i5N" class="cls-9" d="M42.42,27.59l-6.83-6.12H49.37Z"/><path id="a78hW40i5N-2" data-name="a78hW40i5N" class="cls-10" d="M42.42,27.59l-6.83-6.12H49.37Z"/><path id="fmeiettDu" class="cls-9" d="M42.54,58.67l6.83,6.13H35.59Z"/><path id="fmeiettDu-2" data-name="fmeiettDu" class="cls-10" d="M42.54,58.67l6.83,6.13H35.59Z"/><path id="a1DBOamiFm" class="cls-9" d="M50.81,64.69l6.82-6.12H43.86Z"/><path id="a1DBOamiFm-2" data-name="a1DBOamiFm" class="cls-10" d="M50.81,64.69l6.82-6.12H43.86Z"/><path id="csBs7QwYt" class="cls-9" d="M64.34,51.08l-6.13,6.83V44.13Z"/><path id="csBs7QwYt-2" data-name="csBs7QwYt" class="cls-10" d="M64.34,51.08l-6.13,6.83V44.13Z"/><path id="b1EHacCCKW" class="cls-9" d="M57.09,57.47H49l8.14-8.6Z"/><path id="b1EHacCCKW-2" data-name="b1EHacCCKW" class="cls-10" d="M57.09,57.47H49l8.14-8.6Z"/><path id="he1nIJgE4" class="cls-9" d="M34.37,21.57,27.54,27.7H41.32Z"/><path id="he1nIJgE4-2" data-name="he1nIJgE4" class="cls-10" d="M34.37,21.57,27.54,27.7H41.32Z"/><path id="a1e6vrSFj" class="cls-9" d="M26.67,43.13,20.55,36.3V50.08Z"/><path id="a1e6vrSFj-2" data-name="a1e6vrSFj" class="cls-10" d="M26.67,43.13,20.55,36.3V50.08Z"/><path id="d4vbwljfWe" class="cls-9" d="M20.84,35.19,27,28.36V42.14Z"/><path id="d4vbwljfWe-2" data-name="d4vbwljfWe" class="cls-10" d="M20.84,35.19,27,28.36V42.14Z"/><path id="c1iPx2FgS1" class="cls-9" d="M28.09,28.79h8.14l-8.14,8.6Z"/><path id="c1iPx2FgS1-2" data-name="c1iPx2FgS1" class="cls-10" d="M28.09,28.79h8.14l-8.14,8.6Z"/><path id="b5oE8nUwFv" class="cls-9" d="M34.59,64.58l-6.83-6.13H41.54Z"/><path id="b5oE8nUwFv-2" data-name="b5oE8nUwFv" class="cls-10" d="M34.59,64.58l-6.83-6.13H41.54Z"/><path id="eDby1hdLd" class="cls-9" d="M21.06,51l6.12,6.82V44Z"/><path id="eDby1hdLd-2" data-name="eDby1hdLd" class="cls-10" d="M21.06,51l6.12,6.82V44Z"/><path id="c3jNVpCUK6" class="cls-9" d="M28.31,57.36h8.14l-8.14-8.6Z"/><path id="c3jNVpCUK6-2" data-name="c3jNVpCUK6" class="cls-10" d="M28.31,57.36h8.14l-8.14-8.6Z"/><path id="aoMNkxZmE" class="cls-3" d="M78,8.8l-.72,8.06-7.42,4.92Z"/><path id="aoMNkxZmE-2" data-name="aoMNkxZmE" class="cls-4" d="M78,8.8l-.72,8.06-7.42,4.92Z"/><path id="b11k0mZwsu" class="cls-5" d="M72.6,26.92l-7.39,6.95-6.36-6.95Z"/><path id="b11k0mZwsu-2" data-name="b11k0mZwsu" class="cls-6" d="M72.6,26.92l-7.39,6.95-6.36-6.95Z"/><path id="b5cf1lILFg" class="cls-7" d="M72.82,25.86H65.26l12-7.49Z"/><path id="b5cf1lILFg-2" data-name="b5cf1lILFg" class="cls-8" d="M72.82,25.86H65.26l12-7.49Z"/></svg>